G04 ================== begin FILE IDENTIFICATION RECORD ==================*
G04 Layout Name:  E:/Work_File/CEPC/Schematic-and-PCB-of-DIF_V1.1/DIF_1V0.brd*
G04 Film Name:    art08*
G04 File Format:  Gerber RS274X*
G04 File Origin:  Cadence Allegro 16.6-2015-S066*
G04 Origin Date:  Fri Jul 28 17:13:11 2017*
G04 *
G04 Layer:  VIA CLASS/BOTTOM*
G04 Layer:  PIN/BOTTOM*
G04 Layer:  ETCH/BOTTOM*
G04 Layer:  BOARD GEOMETRY/OUTLINE*
G04 *
G04 Offset:    (0.000 0.000)*
G04 Mirror:    Yes*
G04 Mode:      Positive*
G04 Rotation:  0*
G04 FullContactRelief:  No*
G04 UndefLineWidth:     5.000*
G04 ================== end FILE IDENTIFICATION RECORD ====================*
%FSLAX25Y25*MOIN*%
%IR0*IPPOS*OFA0.00000B0.00000*MIA1B0*SFA1.00000B1.00000*%
%ADD46C,.1*%
%ADD14C,.11*%
%ADD10C,.32*%
%ADD15R,.11X.11*%
%ADD22R,.043307X.102362*%
%ADD34R,.02X.025*%
%ADD39R,.04X.05*%
%ADD33R,.025X.02*%
%ADD17R,.035X.032*%
%ADD40R,.07X.025*%
%ADD19R,.032X.035*%
%ADD36R,.07X.08*%
%ADD30C,.012*%
%ADD12R,.09X.08*%
%ADD24R,.08X.09*%
%ADD16C,.04*%
%ADD31C,.05*%
%ADD13C,.06*%
%ADD45R,.065X.055*%
%ADD43C,.07*%
%ADD47R,.074X.065*%
%ADD44R,.055X.065*%
%ADD20C,.035*%
%ADD41R,.059X.063*%
%ADD38R,.065X.074*%
%ADD35C,.09*%
%ADD11C,.018*%
%ADD32C,.037*%
%ADD26C,.055*%
%ADD18C,.028*%
%ADD29R,.055X.095*%
%ADD37R,.05X.05*%
%ADD28R,.06X.06*%
%ADD42R,.08X.08*%
%ADD27R,.055X.055*%
%ADD21C,.070902*%
%ADD25C,.05906*%
%ADD23R,.03937X.082677*%
%ADD48C,.003*%
%ADD49C,.004*%
%ADD50C,.005*%
%ADD51C,.006*%
%ADD52C,.008*%
%ADD53C,.02*%
%ADD54C,.015*%
%ADD55C,.024*%
%ADD63R,.090004X.100004*%
%ADD60C,.100004*%
%ADD77C,.110004*%
%ADD59C,.120004*%
%ADD74C,.130004*%
%ADD57C,.330004*%
%ADD62R,.079374X.122682*%
%ADD69R,.070004X.070004*%
%ADD72C,.060004*%
%ADD73R,.090004X.090004*%
%ADD56C,.090004*%
%ADD75C,.056004*%
%ADD66C,.065004*%
%ADD67R,.065004X.065004*%
%ADD58C,.058004*%
%ADD70C,.077004*%
%ADD68C,.095004*%
%ADD61C,.068004*%
%ADD78R,.084004X.075004*%
%ADD76R,.075004X.084004*%
%ADD71C,.080906*%
%ADD65C,.069064*%
%ADD64C,.099064*%
G75*
%LPD*%
G75*
G36*
G01X2600Y3000D02*
Y188412D01*
G02X3170Y188774I400J0D01*
G03X6596Y193295I1230J2626D01*
G03X6885Y196950I-2095J2005D01*
G03X3182Y201183I-2385J1650D01*
G02X2600Y201540I-182J356D01*
G01Y223300D01*
X23400D01*
Y244443D01*
X23406Y244468D01*
G03X19994Y248036I-2806J732D01*
G03X19402Y248673I-2395J-1636D01*
G02X19378Y249279I249J313D01*
G03X20299Y251488I-1978J2121D01*
G02X20699Y251900I400J12D01*
G01X24900D01*
Y254333D01*
G03Y257867I-2300J1767D01*
G01Y278700D01*
X16300D01*
Y287600D01*
X6300D01*
Y278700D01*
X2600D01*
Y397800D01*
X596800D01*
Y384081D01*
G02X596012Y383985I-400J0D01*
G03Y376015I-16012J-3985D01*
G02X596800Y375919I388J-97D01*
G01Y127350D01*
X592000D01*
Y128850D01*
X584800D01*
Y127400D01*
X580412D01*
G03Y122800I-6611J-2300D01*
G01X584800D01*
Y121350D01*
X592000D01*
Y122850D01*
X596800D01*
Y24081D01*
G02X596012Y23985I-400J0D01*
G03Y16015I-16012J-3985D01*
G02X596800Y15919I388J-97D01*
G01Y3000D01*
X216373D01*
Y13020D01*
X208042D01*
Y3000D01*
X182358D01*
Y13020D01*
X174027D01*
Y3000D01*
X150673D01*
Y13020D01*
X142342D01*
Y3000D01*
X116658D01*
Y13020D01*
X108327D01*
Y3000D01*
X2600D01*
G37*
G36*
G01X2700Y225300D02*
Y242500D01*
X8950D01*
Y239900D01*
X13450D01*
Y242500D01*
X17367D01*
G02X17734Y241942I0J-400D01*
G03X20927Y237948I2666J-1142D01*
G02X21400Y237555I73J-393D01*
G01Y226799D01*
G02X20988Y226399I-400J0D01*
G03X18626Y225300I-88J-2899D01*
G01X2700D01*
G37*
G36*
G01X2600Y244500D02*
Y251900D01*
X14101D01*
G02X14501Y251488I0J-400D01*
G03X15598Y249127I2899J-88D01*
G02X15622Y248521I-249J-313D01*
G03X14721Y246049I1978J-2121D01*
G02X14324Y245600I-397J-48D01*
G01X13450D01*
Y250100D01*
X8950D01*
Y246567D01*
G02X8229Y246329I-400J0D01*
G03X3001Y244694I-2329J-1729D01*
G01X2995Y244500D01*
X2600D01*
G37*
G36*
G01X2700Y253900D02*
Y274600D01*
X6300D01*
Y265600D01*
X16300D01*
Y274600D01*
X22900D01*
Y266860D01*
G02X22233Y266562I-400J0D01*
G03X17840Y262864I-1933J-2162D01*
G03X17812Y260191I2560J-1364D01*
G03X17403Y258556I2488J-1491D01*
G01X17407Y258475D01*
X17234Y258278D01*
X17162Y258267D01*
G03X14867Y254430I438J-2867D01*
G02X14488Y253900I-378J-130D01*
G01X2700D01*
G37*
%LPC*%
G75*
G36*
G01X58900Y353453D02*
X60477Y351876D01*
X60541Y351866D01*
G02X57234Y348559I-441J-2866D01*
G01X57224Y348623D01*
X54300Y351547D01*
Y355600D01*
G02X54392Y356244I2300J0D01*
G01X54400Y356272D01*
Y378011D01*
X64989Y388600D01*
X223250D01*
Y390000D01*
X230750D01*
Y376800D01*
X228579D01*
X228537Y376655D01*
G02X225463I-1537J445D01*
G01X225421Y376800D01*
X223250D01*
Y384200D01*
X72204D01*
G03X71853Y383608I0J-400D01*
G02X64339Y380852I-3553J-1934D01*
G03X63665Y381053I-392J-81D01*
G01X58800Y376189D01*
Y356272D01*
X58808Y356244D01*
G02X58900Y355600I-2208J-644D01*
G01Y353453D01*
G37*
G36*
G01X14501Y293212D02*
G03X14314Y293406I-200J-6D01*
G02X15950Y298812I186J2894D01*
G02X19882Y294800I1450J-2512D01*
G02X14501Y293212I-2482J-1500D01*
G37*
G36*
G01X27500Y302177D02*
X27950Y302627D01*
Y306100D01*
X27823D01*
X18311Y315611D01*
X18241Y315619D01*
G02X16006Y316802I359J3381D01*
G02X14317Y317270I-106J2898D01*
G02X10999Y317609I-1417J2530D01*
G02X6560Y321342I-2199J1891D01*
G02X6249Y324850I2140J1958D01*
G02X10650Y328547I2451J1550D01*
G02X14300Y328750I1950J-2147D01*
G02X18530Y324983I1700J-2350D01*
G02X18940Y322810I-2430J-1583D01*
G03X19254Y322337I392J-81D01*
G02X21981Y319359I-654J-3337D01*
G01X21989Y319289D01*
X28977Y312300D01*
X35450D01*
Y299100D01*
X32700D01*
Y294960D01*
G03X33367Y294662I400J0D01*
G02X35243Y295400I1933J-2162D01*
G02X40650Y293321I2757J-900D01*
G02X36500Y289860I-2750J-921D01*
G02X33185Y290516I-1200J2640D01*
G03X32555Y290455I-292J-274D01*
G02X27500Y293285I-2454J1545D01*
G01Y302177D01*
G37*
G36*
G01X61744Y301857D02*
G03X61864Y302419I-212J339D01*
G02Y304933I1867J1257D01*
G03X61744Y305495I-332J223D01*
G02X65718I1987J3181D01*
G03X65598Y304933I212J-339D01*
G02Y302419I-1867J-1257D01*
G03X65718Y301857I332J-223D01*
G02X66526Y296176I-1987J-3181D01*
G02Y291176I-2795J-2500D01*
G02Y286176I-2795J-2500D01*
G02X60936I-2795J-2500D01*
G02Y291176I2795J2500D01*
G02Y296176I2795J2500D01*
G02X61744Y301857I2795J2500D01*
G37*
G36*
G01X65573Y258330D02*
G03X65536Y258996I-238J321D01*
G02X64933Y263535I1464J2504D01*
G03X64897Y264128I-285J281D01*
G02X69161Y267935I1803J2271D01*
G03X69839I339J212D01*
G02X74236Y264241I2461J-1535D01*
G03X74248Y263635I267J-298D01*
G02X69996Y259777I-1848J-2235D01*
G03X69342Y259789I-331J-224D01*
G02X68727Y259170I-2342J1711D01*
G03X68764Y258504I238J-321D01*
G02X65573Y258330I-1464J-2504D01*
G37*
G36*
G01X228770Y244211D02*
G03X228030I-370J-151D01*
G02Y247989I-4630J1889D01*
G03X228770I370J151D01*
G02Y244211I4630J-1889D01*
G37*
G36*
G01X77200Y223071D02*
G02X71900Y224729I-2900J29D01*
G02X76424Y228277I2499J1471D01*
G03X76970Y228265I279J286D01*
G02X77758Y223434I1930J-2165D01*
G03X77200Y223071I-158J-368D01*
G37*
G36*
G01X87060Y224531D02*
Y230937D01*
X87550Y231427D01*
Y241100D01*
X88700D01*
Y242223D01*
X85411Y245511D01*
X85341Y245519D01*
G02X89081Y249259I359J3381D01*
G01X89089Y249189D01*
X93900Y244377D01*
Y241100D01*
X95050D01*
Y229989D01*
G03X95553Y229602I400J0D01*
G02X97450Y229462I747J-2802D01*
G02X98034Y223955I1150J-2662D01*
G03X97562Y223628I-78J-392D01*
G02X93436Y221490I-2862J472D01*
G03X92883Y221257I-174J-360D01*
G02X87060Y224531I-3223J1083D01*
G37*
G36*
G01X44860Y223066D02*
Y221952D01*
X44904Y221897D01*
G02X39660Y221951I-2645J-2137D01*
G01Y225900D01*
X38450D01*
Y239100D01*
X38457D01*
G03X38740Y239783I0J400D01*
G01X33511Y245011D01*
X33441Y245019D01*
G02X37181Y248759I359J3381D01*
G01X37189Y248689D01*
X44800Y241077D01*
Y239100D01*
X45950D01*
Y226849D01*
G03X46582Y226523I400J0D01*
G02X49351Y227055I1968J-2773D01*
G03X49842Y227489I94J389D01*
G02X52419Y224575I3378J391D01*
G03X51928Y224141I-94J-389D01*
G02X45254Y222915I-3378J-391D01*
G01X45216Y223066D01*
X44860D01*
G37*
G36*
G01X30901Y217606D02*
G03X30465Y218016I-400J12D01*
G02X34049Y221361I-365J3984D01*
G03X34429Y220898I395J-64D01*
G02X30901Y217606I-129J-3398D01*
G37*
G36*
G01X560300Y208400D02*
X543966D01*
G02X540485Y208361I-1766J2300D01*
G01X540432Y208400D01*
X540400D01*
Y208424D01*
X540329Y208484D01*
G02X540066Y208736I1871J2216D01*
G01X540007Y208800D01*
X540000D01*
Y208809D01*
X539955Y208864D01*
G02X540000Y212590I2245J1836D01*
G01Y229600D01*
X559300D01*
Y228100D01*
X560300D01*
Y226320D01*
G03X560910Y225980I400J0D01*
G02Y216620I2890J-4680D01*
G03X560300Y216280I-210J-340D01*
G01Y208400D01*
G37*
G36*
G01X21277Y200801D02*
G03X20926Y200231I11J-400D01*
G02X18223Y201899I-2626J-1231D01*
G03X18574Y202469I-11J400D01*
G02X21277Y200801I2626J1231D01*
G37*
G36*
G01X110300Y199700D02*
Y199392D01*
X110345Y199337D01*
G02X105055I-2645J-2137D01*
G01X105100Y199392D01*
Y199700D01*
X101700D01*
Y212700D01*
X113700D01*
Y199700D01*
X110300D01*
G37*
G36*
G01X65688Y192541D02*
G02X70012Y191459I2612J1259D01*
G02X65688Y192541I-2612J-1259D01*
G37*
G36*
G01X62483Y191162D02*
G02X63156Y187108I-1683J-2362D01*
G02X59044Y186492I-1756J-2308D01*
G02X58501Y190569I1756J2308D01*
G03X58417Y191138I-317J244D01*
G02X62398Y191731I1683J2362D01*
G03X62483Y191162I317J-244D01*
G37*
G36*
G01X544800Y177766D02*
G03X545418Y177431I400J0D01*
G02X544266Y175966I1582J-2431D01*
G03X543888Y176500I-377J133D01*
G01X535800D01*
Y185500D01*
X544800D01*
Y177766D01*
G37*
G36*
G01X102000Y150700D02*
Y148991D01*
G02X96800I-2600J-2191D01*
G01Y153477D01*
X97550Y154227D01*
Y163900D01*
X98700D01*
Y169223D01*
X92011Y175911D01*
X91941Y175919D01*
G02X90600Y182245I359J3381D01*
G01Y193900D01*
X102600D01*
Y180900D01*
X97577D01*
X95977Y179300D01*
X103900Y171377D01*
Y163900D01*
X105050D01*
Y150700D01*
X102000D01*
G37*
G36*
G01X85570Y142035D02*
G03X85024Y142023I-266J-299D01*
G02X80566Y145678I-2024J2077D01*
G02X84921Y149480I2333J1722D01*
G03X85479I279J287D01*
G02X90396Y147247I2021J-2080D01*
G03X91002Y146884I399J-21D01*
G02X90379Y142422I1498J-2484D01*
G03X89773Y142398I-293J-273D01*
G02X85570Y142035I-2273J1802D01*
G37*
G36*
G01X511709Y129300D02*
X511018D01*
X510975Y129158D01*
G02X505425I-2775J842D01*
G01X505382Y129300D01*
X504891D01*
X504845Y129164D01*
G02X499355I-2745J936D01*
G01X499309Y129300D01*
X498350D01*
Y142500D01*
X499309D01*
X499355Y142636D01*
G02X504845I2745J-936D01*
G01X504891Y142500D01*
X505358D01*
X505398Y142649D01*
G02X511002I2802J-749D01*
G01X511042Y142500D01*
X511682D01*
X511725Y142642D01*
G02X517275I2775J-842D01*
G01X517318Y142500D01*
X517982D01*
X518025Y142642D01*
G02X523575I2775J-842D01*
G01X523618Y142500D01*
X524550D01*
Y129300D01*
X523522D01*
G02X518078I-2722J1000D01*
G01X517291D01*
X517245Y129164D01*
G02X511755I-2745J936D01*
G01X511709Y129300D01*
G37*
G36*
G01X11000Y174600D02*
Y187539D01*
X10845Y187575D01*
G02X14037Y188994I655J2825D01*
G03X14387Y188400I350J-194D01*
G01X16611D01*
G03X16974Y188970I0J400D01*
G02X22226I2626J1230D01*
G03X22589Y188400I362J-170D01*
G01X26000D01*
Y184900D01*
X31400D01*
G02X32760Y184662I0J-4000D01*
G01X32792Y184650D01*
X35000D01*
Y183150D01*
X39500D01*
Y178650D01*
X35000D01*
Y177150D01*
X32792D01*
X32760Y177138D01*
G02X31400Y176900I-1360J3762D01*
G01X26000D01*
Y174600D01*
X46982D01*
X47025Y174742D01*
G02X48310Y176388I2775J-842D01*
G03X48322Y177067I-205J343D01*
G02X48929Y182233I1578J2433D01*
G03X49123Y182839I-134J377D01*
G02X48841Y185658I2377J1661D01*
G03X48368Y186203I-367J160D01*
G02Y191797I-768J2797D01*
G03X48841Y192342I106J386D01*
G02X53443Y191347I2659J1158D01*
G03Y190753I268J-297D01*
G02X53551Y186550I-1943J-2153D01*
G02X52471Y181767I-2052J-2050D01*
G03X52277Y181161I134J-377D01*
G02X51390Y177012I-2377J-1661D01*
G03X51378Y176333I205J-343D01*
G02X52575Y174742I-1578J-2433D01*
G01X52618Y174600D01*
X72300D01*
Y173600D01*
X72700D01*
Y132300D01*
X56791D01*
X56745Y132164D01*
G02X56089Y131088I-2745J935D01*
G03X56096Y130805I144J-139D01*
G02X51771Y126971I-1996J-2104D01*
G03X51129I-321J-238D01*
G02X46667Y130664I-2329J1728D01*
G03Y130936I-147J135D01*
G02X45998Y132152I2133J1965D01*
G01X45958Y132300D01*
X32100D01*
Y145440D01*
G03X31600Y145827I-400J0D01*
G02X30600Y145700I-1000J3873D01*
G01X24844D01*
G02X11296Y151788I-6344J4000D01*
G03X10912Y152300I-384J111D01*
G01X10400D01*
Y174600D01*
X11000D01*
G37*
G36*
G01X532300Y124807D02*
Y117400D01*
X523300D01*
Y126400D01*
X530955D01*
G03X531348Y126873I0J400D01*
G02X532900Y129992I2852J527D01*
G01Y131150D01*
X537447D01*
G03X537804Y131731I0J400D01*
G02X540300Y130200I2496J1269D01*
G03X540100Y130000I0J-200D01*
G01Y129650D01*
X544600D01*
Y125450D01*
X551295D01*
X551339Y125589D01*
G02X556861I2761J-889D01*
G01X556905Y125450D01*
X557700D01*
Y117950D01*
X532900D01*
Y124808D01*
G02X532610Y124975I1300J2592D01*
G03X532300Y124807I-110J-167D01*
G37*
G36*
G01X251329Y119800D02*
G03X251120Y119059I0J-400D01*
G02X245880I-2620J-4259D01*
G03X245671Y119800I-210J341D01*
G01X243500D01*
Y129800D01*
X253500D01*
Y119800D01*
X251329D01*
G37*
G36*
G01X148150Y107685D02*
G02Y102915I1650J-2385D01*
G02Y107685I-1650J2385D01*
G37*
G36*
G01X132371Y102318D02*
G02X135429Y106182I329J2881D01*
G02X132371Y102318I-329J-2881D01*
G37*
G36*
G01X60507Y103958D02*
G02X56622Y99766I-2307J-1758D01*
G02X52440Y103636I-1722J2334D01*
G02X56400Y107540I2560J1363D01*
G02X60507Y103958I1400J-2540D01*
G37*
G36*
G01X84142Y106543D02*
G02X88271Y102470I2058J-2043D01*
G02X83840Y98758I-2371J-1670D01*
G03X83563Y98765I-142J-141D01*
G02X78817Y100083I-1963J2135D01*
G03X78100Y100190I-384J-113D01*
G02X72660Y104251I-2840J1870D01*
G01Y109037D01*
X74550Y110927D01*
Y116373D01*
X66247Y124676D01*
X65562D01*
X65521Y124657D01*
G02X65561Y129877I-1245J2620D01*
G01X68401D01*
X77677Y120600D01*
X82050D01*
Y107394D01*
X82221Y107370D01*
G02X83858Y106543I-421J-2869D01*
G03X84142I142J141D01*
G37*
G36*
G01X37076Y91002D02*
G03X37136Y90445I314J-248D01*
G02X33024Y89998I-1836J-2245D01*
G03X32964Y90555I-314J248D01*
G02X37076Y91002I1836J2245D01*
G37*
G36*
G01X28885Y85909D02*
G03X28788Y85303I205J-344D01*
G02X25115Y85891I-2188J-1903D01*
G03X25212Y86497I-205J344D01*
G02X25358Y90460I2188J1903D01*
G03X25365Y90737I-141J142D01*
G02X29542Y90640I2135J1963D01*
G03X29535Y90363I141J-142D01*
G02X28885Y85909I-2135J-1963D01*
G37*
G36*
G01X17080Y90066D02*
G03X17061Y90344I-153J129D01*
G02X21220Y90634I1939J2156D01*
G03X21239Y90356I153J-129D01*
G02X21028Y85871I-1939J-2156D01*
G03Y85229I238J-321D01*
G02X17572I-1728J-2329D01*
G03Y85871I-238J321D01*
G02X17080Y90066I1729J2329D01*
G37*
G36*
G01X354075Y92889D02*
Y100200D01*
X361575D01*
Y91800D01*
X356166D01*
G03X355831Y91182I0J-400D01*
G02X353772Y86724I-2431J-1582D01*
G03X353598Y86517I26J-198D01*
G02X353594Y86213I-2898J-118D01*
G03X353958Y85789I399J-26D01*
G02X352283Y80370I-258J-2889D01*
G02X350517Y79906I-1583J2430D01*
G03X350179Y79257I-25J-399D01*
G02X341237Y80428I-5079J-4057D01*
G03X341000Y81150I-238J322D01*
G01X335600D01*
Y88650D01*
X336306D01*
X336330Y88821D01*
G02X339310Y91298I2869J-421D01*
G03X339725Y91698I15J400D01*
G01Y101700D01*
X350225D01*
Y90434D01*
X350326Y90210D01*
X350592Y90330D01*
X350618Y90419D01*
G02X353642Y92490I2782J-819D01*
G03X354075Y92889I33J399D01*
G37*
G36*
G01X152186Y73787D02*
G03X152198Y73193I274J-291D01*
G02X148314Y73113I-1898J-2193D01*
G03X148302Y73707I-274J291D01*
G02X152186Y73787I1898J2193D01*
G37*
G36*
G01X382079Y68720D02*
G03X381521I-279J-287D01*
G02X376615Y70506I-2021J2080D01*
G02X374687Y71414I185J2894D01*
G03X374093Y71402I-291J-274D01*
G02X369821Y75322I-2193J1898D01*
G03X369809Y75892I-287J279D01*
G02X373824Y80077I1991J2108D01*
G03X374370Y80065I279J286D01*
G02X378617Y76156I1930J-2165D01*
G03X378678Y75610I320J-241D01*
G02X379685Y73694I-1878J-2210D01*
G02X381521Y72880I-185J-2894D01*
G03X382079I279J287D01*
G02Y68720I2021J-2080D01*
G37*
G36*
G01X179900Y78900D02*
Y60700D01*
X164900D01*
Y63710D01*
G02X164464Y64391I2200J1889D01*
G02X162988Y68550I1036J2709D01*
G03X162642Y69150I-346J200D01*
G01X161200D01*
Y73650D01*
X164900D01*
Y78900D01*
X179900D01*
G37*
G36*
G01X52249Y79345D02*
X58200Y73394D01*
Y71000D01*
X59550D01*
Y57800D01*
X56200D01*
Y54528D01*
G02X54524Y50092I-2400J-1628D01*
G03X54233Y49619I100J-387D01*
G02X49350Y46949I-2833J-619D01*
G02X45323Y46878I-2050J2051D01*
G03X44777I-273J-293D01*
G02X40205Y50295I-1977J2122D01*
G02X39304Y52562I1995J2105D01*
G02X37035Y54949I596J2838D01*
G03X36816Y55117I-198J-31D01*
G02X39365Y58451I-316J2883D01*
G03X39584Y58283I198J31D01*
G02X42796Y55238I316J-2883D01*
G02X44795Y51105I-596J-2838D01*
G02X44905Y50995I-1995J-2105D01*
G03X45195I145J138D01*
G02X49350Y51052I2105J-1995D01*
G02X50676Y51808I2050J-2051D01*
G03X50967Y52281I-100J387D01*
G02X51400Y54528I2833J619D01*
G01Y60394D01*
X52050Y61044D01*
Y71000D01*
X53400D01*
Y71406D01*
X48855Y75951D01*
X48797Y75963D01*
G02X52237Y79403I603J2837D01*
G01X52249Y79345D01*
G37*
G36*
G01X137350Y16187D02*
G02X132763Y17897I-1750J2313D01*
G01X132751Y17955D01*
X132491Y18214D01*
X132351Y18096D01*
G02X131247Y17518I-1867J2220D01*
G01X131100Y17478D01*
Y17200D01*
X124891D01*
G03X124306Y17463I-391J-86D01*
G02X121799Y17317I-1406J2537D01*
G02X117900Y21428I-1499J2483D01*
G01Y71927D01*
G02X120300Y76455I2400J1628D01*
G03X120500Y76655I0J200D01*
G01Y77400D01*
X112000D01*
Y82150D01*
X111200D01*
Y83650D01*
X106700D01*
Y88150D01*
X111200D01*
Y89650D01*
X112000D01*
Y99700D01*
X125800D01*
X129800Y99700D01*
Y91694D01*
X137000Y84494D01*
Y39298D01*
G03X137630Y38972I400J0D01*
G02X141757Y35059I1669J-2371D01*
G02X142211Y33533I-2446J-1559D01*
G03X142611Y33138I400J5D01*
G01X150477D01*
Y20870D01*
X142539D01*
Y31799D01*
G03X141796Y32005I-400J0D01*
G02X137632Y31135I-2485J1495D01*
G03X137000Y30809I-232J-326D01*
G01Y23994D01*
X139645Y21349D01*
X139703Y21337D01*
G02X137350Y16187I-603J-2837D01*
G37*
G36*
G01X191743Y18500D02*
X191688Y18390D01*
G02X187228Y17485I-2588J1310D01*
G02X183250Y21616I-1678J2365D01*
G01Y52734D01*
G02Y56266I2300J1766D01*
G01Y97088D01*
X182815Y97524D01*
X182750Y97534D01*
G02X181844Y102968I441J2866D01*
G03X181978Y103562I-186J354D01*
G02X187166Y105741I2322J1738D01*
G01X187176Y105677D01*
X192900Y99953D01*
Y88564D01*
G03X193583Y88281I400J0D01*
G01X198724Y93422D01*
X198734Y93486D01*
G02X199140Y94581I2866J-441D01*
G03X198861Y95188I-339J212D01*
G02X201760Y96519I439J2867D01*
G03X202039Y95912I339J-212D01*
G02X204048Y94600I-439J-2867D01*
G01X217500D01*
Y93500D01*
X218000D01*
Y87350D01*
X219000D01*
Y85850D01*
X223500D01*
Y81350D01*
X219000D01*
Y79850D01*
X218000D01*
Y75800D01*
X217500D01*
Y74900D01*
X203800D01*
Y90279D01*
G03X203182Y90614I-400J0D01*
G02X202041Y90178I-1582J2431D01*
G01X201977Y90168D01*
X196400Y84592D01*
Y45466D01*
G02X196966Y44141I-2300J-1766D01*
G01X196976Y44077D01*
X205453Y35600D01*
X208400D01*
Y33138D01*
X216177D01*
Y20870D01*
X208400D01*
Y18500D01*
X207074D01*
G02X203116Y17939I-2274J1800D01*
G02X198950Y18500I-1816J2261D01*
G01X196407D01*
G02X192082Y18436I-2191J1900D01*
G01X192023Y18500D01*
X191743D01*
G37*
G36*
G01X262890Y25796D02*
X262911Y25690D01*
G02X259391Y29211I-4411J-890D01*
G01X259496Y29190D01*
X259773Y29467D01*
G03X259490Y30150I-283J283D01*
G01X259000D01*
Y37650D01*
X266200D01*
Y36150D01*
X270700D01*
Y31650D01*
X266200D01*
Y30150D01*
X265000D01*
Y27906D01*
X262890Y25796D01*
G37*
G36*
G01X300763Y33596D02*
G02X298562Y36407I-1613J1004D01*
G01X298700Y36452D01*
Y38635D01*
X298556Y38678D01*
G02X297527Y41575I538J1823D01*
G03X297210Y42201I-330J226D01*
G02X294463Y44497I90J2899D01*
G01X294451Y44555D01*
X286500Y52506D01*
Y54672D01*
G02X286032Y55867I2400J1628D01*
G02X283589Y57861I318J2883D01*
G01X283545Y58000D01*
X282650D01*
Y65200D01*
X284150D01*
Y69700D01*
X288650D01*
Y65200D01*
X290150D01*
Y63400D01*
X291550D01*
Y67900D01*
X296050D01*
Y63400D01*
X297550D01*
Y56200D01*
X297141D01*
G03X296742Y55770I0J-400D01*
G02X294070Y52658I-2892J-219D01*
G03X293818Y51976I30J-399D01*
G01X297845Y47949D01*
X297903Y47937D01*
G02X299329Y43028I-603J-2837D01*
G03X299519Y42352I280J-286D01*
G02X300707Y41504I-425J-1852D01*
G03X301387I340J211D01*
G02X303154Y38606I1613J-1004D01*
G01X303080Y38600D01*
X302900Y38420D01*
Y36736D01*
X303136Y36500D01*
X303209Y36494D01*
G02X301443Y33596I-153J-1894D01*
G03X300763I-340J-211D01*
G37*
G36*
G01X286300Y39050D02*
X279100D01*
Y42706D01*
X278305Y43501D01*
X278247Y43513D01*
G02X281687Y46953I603J2837D01*
G01X281699Y46895D01*
X282044Y46550D01*
X286300D01*
Y45050D01*
X290800D01*
Y40550D01*
X286300D01*
Y39050D01*
G37*
G36*
G01X579854Y76385D02*
G02Y83415I-6054J3515D01*
G03X580564Y83450I346J201D01*
G01X587800D01*
Y81950D01*
X592300D01*
Y77450D01*
X587800D01*
Y75950D01*
X580600D01*
Y76184D01*
G03X579854Y76385I-400J0D01*
G37*
G36*
G01X253990Y92900D02*
G02X248710I-2640J1200D01*
G01X246750D01*
Y100100D01*
X248250D01*
Y104600D01*
X252750D01*
Y100100D01*
X254250D01*
Y92900D01*
X253990D01*
G37*
G36*
G01X580338Y166400D02*
G02X580412Y171200I-6538J2500D01*
G01X582300D01*
Y172550D01*
X589500D01*
Y171050D01*
X594000D01*
Y166550D01*
X589500D01*
Y165050D01*
X582300D01*
Y166400D01*
X580338D01*
G37*
G36*
G01X75668Y177822D02*
G02X74458Y175580I2732J-2922D01*
G03X73826Y175969I-394J68D01*
G02X69408Y179380I-1726J2331D01*
G03X68984Y179925I-371J149D01*
G02X71292Y181720I-384J2875D01*
G03X71716Y181175I371J-149D01*
G02X74996Y178137I384J-2875D01*
G03X75668Y177822I399J-23D01*
G37*
G36*
G01X580377Y208900D02*
X580328Y208772D01*
G02X580400Y213634I-6528J2528D01*
G01X580447Y213500D01*
X580800D01*
Y214950D01*
X588000D01*
Y213450D01*
X592500D01*
Y208950D01*
X588000D01*
Y207450D01*
X580800D01*
Y208900D01*
X580377D01*
G37*
G36*
G01X579854Y248885D02*
G02Y255915I-6054J3515D01*
G03X580600Y256116I346J201D01*
G01Y256150D01*
X587800D01*
Y254650D01*
X592300D01*
Y250150D01*
X587800D01*
Y248650D01*
X580600D01*
Y248684D01*
G03X579854Y248885I-400J0D01*
G37*
G36*
G01X47950Y306700D02*
X40450D01*
Y307123D01*
X40274Y307144D01*
G02X41039Y313901I406J3376D01*
G01X41049Y313900D01*
X41950D01*
Y318400D01*
X46450D01*
Y313900D01*
X47850D01*
Y321300D01*
X48209D01*
X48233Y321472D01*
G02X54967I3367J-472D01*
G01X54991Y321300D01*
X55350D01*
Y314100D01*
X53850D01*
Y309600D01*
X49350D01*
Y314100D01*
X47950D01*
Y306700D01*
G37*
G36*
G01X239496Y29190D02*
X240300Y29994D01*
Y33250D01*
X235200D01*
Y34750D01*
X230700D01*
Y39650D01*
X226450D01*
Y43400D01*
X225247D01*
X225191Y43352D01*
G02Y49448I-2591J3048D01*
G01X225247Y49400D01*
X226450D01*
Y53150D01*
X230700D01*
Y57850D01*
X235200D01*
Y59350D01*
X242550D01*
Y69397D01*
X236000Y75947D01*
Y135353D01*
X273547Y172900D01*
X278347D01*
X279900Y174453D01*
Y185000D01*
X279800D01*
Y185064D01*
G03X279459Y185206I-200J0D01*
G01X268526Y174273D01*
X268516Y174209D01*
G02X263046Y173373I-2866J441D01*
G02X265004Y177477I-646J2827D01*
G02X265209Y177516I646J-2827D01*
G01X265273Y177526D01*
X278644Y190897D01*
G03X278361Y191580I-283J283D01*
G01X269233D01*
X256826Y179173D01*
X256816Y179109D01*
G02X255030Y176858I-2866J441D01*
G03X254903Y176198I149J-371D01*
G02X251820Y176792I-2003J-2098D01*
G03X251947Y177452I-149J371D01*
G02X253509Y182416I2003J2098D01*
G01X253573Y182426D01*
X267327Y196180D01*
X293600D01*
Y200700D01*
X220053D01*
X207576Y188223D01*
X207566Y188159D01*
G02X204259Y191466I-2866J441D01*
G01X204323Y191476D01*
X218147Y205300D01*
X293600D01*
Y217600D01*
X285876Y225324D01*
X285650Y225097D01*
Y220103D01*
X286077Y219676D01*
X286141Y219666D01*
G02X283426Y215000I-441J-2866D01*
G01X278150D01*
Y228200D01*
X282247D01*
X282624Y228576D01*
X279100Y232100D01*
X263200D01*
X239600Y255700D01*
X186500D01*
X148464Y293736D01*
G03X147794Y293554I-283J-283D01*
G02X141754Y299594I-4794J1246D01*
G03X141936Y300264I-101J387D01*
G01X139900Y302300D01*
Y304800D01*
X137347D01*
X131234Y310913D01*
X131093Y310796D01*
G02X130678Y310495I-2402J2880D01*
G03X130558Y309933I212J-339D01*
G02Y307419I-1867J-1257D01*
G03X130678Y306857I332J-223D01*
G02X131486Y301176I-1987J-3181D01*
G02X130678Y295495I-2795J-2500D01*
G03X130558Y294933I212J-339D01*
G02Y292419I-1867J-1257D01*
G03X130678Y291857I332J-223D01*
G02X131486Y286176I-1987J-3181D01*
G02X125896I-2795J-2500D01*
G02X126704Y291857I2795J2500D01*
G03X126824Y292419I-212J339D01*
G02Y294933I1867J1257D01*
G03X126704Y295495I-332J223D01*
G02X125896Y301176I1987J3181D01*
G02X126704Y306857I2795J2500D01*
G03X126824Y307419I-212J339D01*
G02Y309933I1867J1257D01*
G03X126704Y310495I-332J223D01*
G02X125896Y316176I1987J3181D01*
G02X126704Y321857I2795J2500D01*
G03X126824Y322419I-212J339D01*
G02Y324933I1867J1257D01*
G03X126704Y325495I-332J223D01*
G02X126460Y331690I1987J3181D01*
G03X126505Y332295I-238J322D01*
G01X125600Y333200D01*
X92700D01*
X74100Y351800D01*
X73250D01*
Y365000D01*
X74700D01*
X75700Y366000D01*
Y375614D01*
G02X78300I1300J1386D01*
G01Y369566D01*
G03X78983Y369283I400J0D01*
G01X79000Y369300D01*
X85700D01*
Y375714D01*
G02X88300I1300J1386D01*
G01Y369300D01*
X95700D01*
Y375714D01*
G02X98300I1300J1386D01*
G01Y369300D01*
X105700D01*
Y375714D01*
G02X108300I1300J1386D01*
G01Y369300D01*
X115700D01*
Y375714D01*
G02X118300I1300J1386D01*
G01Y369300D01*
X125700D01*
Y375714D01*
G02X128300I1300J1386D01*
G01Y369300D01*
X135700D01*
Y375514D01*
G02X138300I1300J1386D01*
G01Y369300D01*
X145700D01*
Y375814D01*
G02X148300I1300J1386D01*
G01Y369300D01*
X155700D01*
Y375414D01*
G02X158300I1300J1386D01*
G01Y369300D01*
X165700D01*
Y375814D01*
G02X168300I1300J1386D01*
G01Y369300D01*
X175700D01*
Y375714D01*
G02X178300I1300J1386D01*
G01Y369300D01*
X185700D01*
Y375614D01*
G02X188300I1300J1386D01*
G01Y369300D01*
X195700D01*
Y375714D01*
G02X198300I1300J1386D01*
G01Y369300D01*
X205700D01*
Y375814D01*
G02X208300I1300J1386D01*
G01Y369300D01*
X215700D01*
Y375389D01*
G02X218300I1300J1386D01*
G01Y369300D01*
X235700D01*
Y375914D01*
G02X238300I1300J1386D01*
G01Y369300D01*
X245700D01*
Y375814D01*
G02X248300I1300J1386D01*
G01Y369300D01*
X255700D01*
Y375814D01*
G02X258300I1300J1386D01*
G01Y369300D01*
X265700D01*
Y375814D01*
G02X268300I1300J1386D01*
G01Y369300D01*
X336300D01*
Y376539D01*
X336420Y376658D01*
X336432Y376718D01*
G02X338900Y375077I1568J-318D01*
G01Y369300D01*
X341700D01*
Y375467D01*
G02X344300I1300J933D01*
G01Y369300D01*
X356700D01*
Y375567D01*
G02X359300I1300J933D01*
G01Y369300D01*
X361600D01*
Y375667D01*
G02X364200I1300J933D01*
G01Y369300D01*
X376700D01*
Y375867D01*
G02X379300I1300J933D01*
G01Y369300D01*
X386700D01*
Y375667D01*
G02X389300I1300J933D01*
G01Y369300D01*
X396700D01*
Y375667D01*
G02X399300I1300J933D01*
G01Y369300D01*
X406700D01*
Y375567D01*
G02X409300I1300J933D01*
G01Y369300D01*
X416700D01*
Y375667D01*
G02X419300I1300J933D01*
G01Y369300D01*
X426600D01*
Y375567D01*
G02X429200I1300J933D01*
G01Y369300D01*
X436700D01*
Y375367D01*
G02X439300I1300J933D01*
G01Y369300D01*
X441700D01*
Y375467D01*
G02X444300I1300J933D01*
G01Y369300D01*
X451700D01*
Y375567D01*
G02X454300I1300J933D01*
G01Y369300D01*
X456700D01*
Y375667D01*
G02X459300I1300J933D01*
G01Y369300D01*
X529500D01*
X529700Y369100D01*
Y343100D01*
X491000Y304400D01*
X447800D01*
X446700Y303300D01*
X447200Y302800D01*
Y249900D01*
X451650D01*
Y245300D01*
X453950D01*
Y263750D01*
X458100D01*
Y266050D01*
X454600D01*
Y270550D01*
X458100D01*
Y276000D01*
X493800D01*
Y254663D01*
G03X494483Y254380I400J0D01*
G01X549700Y309597D01*
Y315650D01*
X562900D01*
Y315326D01*
X563211D01*
X563270Y315419D01*
G02X575111Y315450I5930J-3719D01*
G01X582100D01*
Y313950D01*
X586600D01*
Y309450D01*
X582100D01*
Y307950D01*
X575111D01*
G02X563167Y308150I-5911J3750D01*
G01X554758D01*
X466608Y220000D01*
X461066D01*
G02Y224600I-1766J2300D01*
G01X464703D01*
X474370Y234267D01*
G03X474087Y234950I-283J283D01*
G01X470850D01*
Y242250D01*
X477750D01*
Y238613D01*
G03X478433Y238330I400J0D01*
G01X490320Y250217D01*
G03X490037Y250900I-283J283D01*
G01X479250D01*
Y243450D01*
X469350D01*
Y250900D01*
X463850D01*
Y233450D01*
X453950D01*
Y242100D01*
X451650D01*
Y236700D01*
X447200D01*
Y223900D01*
X448750D01*
Y222400D01*
X451250D01*
Y219400D01*
X451000D01*
Y213450D01*
X449500D01*
Y210950D01*
X447200D01*
Y182653D01*
X465606Y164247D01*
G03X466230Y164320I283J283D01*
G02X470300Y165219I2470J-1520D01*
G02Y160381I1600J-2419D01*
G02X470011Y160213I-1600J2419D01*
G01X469982Y160199D01*
X469818Y160035D01*
X472653Y157200D01*
X479700D01*
Y165800D01*
X487989D01*
X488023Y165958D01*
G02X488156Y166458I5377J-1159D01*
G01X488161Y166476D01*
X488202Y166603D01*
X486500Y168306D01*
Y168525D01*
G03X485862Y168847I-400J0D01*
G02X484681Y173859I-1662J2253D01*
G03X485150Y174253I69J394D01*
G01Y180200D01*
X486650D01*
Y184700D01*
X491150D01*
Y180200D01*
X492650D01*
Y173000D01*
X491300D01*
Y170294D01*
X491597Y169998D01*
X491713Y170035D01*
G02X494146Y170249I1687J-5235D01*
G03X494600Y170646I54J396D01*
G01Y173050D01*
X499100D01*
Y174550D01*
X506300D01*
Y173400D01*
X508050D01*
X508085Y173556D01*
G02X508755Y174937I3315J-756D01*
G01X508800Y174992D01*
Y175377D01*
X513325Y179902D01*
Y186400D01*
X501900D01*
Y193100D01*
X491575D01*
Y204500D01*
X492300D01*
Y205350D01*
X488800D01*
Y209850D01*
X492300D01*
Y211400D01*
X497200D01*
Y232100D01*
X515900D01*
Y231400D01*
X522800D01*
Y217200D01*
X521225D01*
Y216800D01*
X520700D01*
Y214600D01*
X520650D01*
Y210700D01*
X524800D01*
Y206450D01*
X528200D01*
Y207950D01*
X535400D01*
Y206922D01*
G02Y201478I-1000J-2722D01*
G01Y200450D01*
X527900D01*
Y196050D01*
X523400D01*
Y194550D01*
X523000D01*
Y193150D01*
X527500D01*
Y188650D01*
X523000D01*
Y187150D01*
X521800D01*
Y186700D01*
X523825D01*
Y175587D01*
G02X525680Y173397I-1425J-3087D01*
G01X525720Y173250D01*
X527150D01*
Y169436D01*
G03X527798Y169122I400J0D01*
G02X535484Y168250I3402J-4322D01*
G01X538241D01*
G03X538498Y168956I0J400D01*
G02X542102I1802J2144D01*
G03X542200Y168283I257J-306D01*
G01Y166750D01*
X546700D01*
Y162650D01*
X551516D01*
X551546Y162815D01*
G02X557254I2854J-515D01*
G01X557284Y162650D01*
X558000D01*
Y161278D01*
G03X558766Y161117I400J0D01*
G02Y156683I5034J-2217D01*
G03X558000Y156522I-366J-161D01*
G01Y155150D01*
X533850D01*
Y154100D01*
X532350D01*
Y149600D01*
X527850D01*
Y154100D01*
X526350D01*
Y161338D01*
G03X526520Y161910I-170J362D01*
G02X526096Y162750I4680J2889D01*
G01X521800D01*
Y162000D01*
X520460D01*
Y161784D01*
X520462Y161768D01*
G02X520470Y161721I-2863J-466D01*
G01X520495Y161550D01*
X521200D01*
Y154050D01*
X514430D01*
X514389Y153905D01*
G02X510458Y152034I-2789J795D01*
G03X509900Y151667I-158J-368D01*
G01Y148050D01*
X505400D01*
Y146550D01*
X498200D01*
Y152600D01*
X487323D01*
G03X486932Y152112I0J-400D01*
G02X481468I-2732J-612D01*
G03X481077Y152600I-390J87D01*
G01X470747D01*
X446474Y176874D01*
X443678Y174078D01*
G03X443699Y173492I283J-283D01*
G02X444700Y171354I-1899J-2192D01*
G03X445160Y170967I400J8D01*
G02X442700Y168046I440J-2867D01*
G03X442240Y168433I-400J-8D01*
G02X439608Y169401I-440J2867D01*
G03X439022Y169422I-302J-262D01*
G01X425276Y155677D01*
X425853Y155100D01*
X429134D01*
G02Y150500I1766J-2300D01*
G01X423947D01*
X422024Y152424D01*
X418900Y149300D01*
X418802D01*
X418700Y149053D01*
X432000Y135753D01*
Y120450D01*
X433300D01*
Y107976D01*
G03X433749Y107579I400J0D01*
G02Y101821I351J-2879D01*
G03X433300Y101424I-48J-397D01*
G01Y100950D01*
X420100D01*
Y102150D01*
X409100D01*
Y123550D01*
X401900D01*
Y125050D01*
X397400D01*
Y129550D01*
X401900D01*
Y131050D01*
X403824D01*
X403871Y131182D01*
G02X409100Y128730I2729J-982D01*
G01Y123650D01*
X420100D01*
Y114350D01*
X421600D01*
Y118950D01*
X426100D01*
Y120450D01*
X427400D01*
Y132860D01*
G03X426818Y133217I-400J0D01*
G02X423500Y133700I-1318J2583D01*
G01X411647D01*
X396047Y149300D01*
X380250D01*
Y141800D01*
X379805D01*
X379799Y141606D01*
G02X375670Y139074I-2899J94D01*
G03X375100Y138711I-170J-362D01*
G01Y116400D01*
X380550D01*
Y116700D01*
X382050D01*
Y121200D01*
X386550D01*
Y116700D01*
X388050D01*
Y116400D01*
X388600D01*
Y117150D01*
X387100D01*
Y123650D01*
X390400D01*
Y124200D01*
X388950D01*
Y134697D01*
G02X392866Y137841I1050J2703D01*
G01X392876Y137777D01*
X393253Y137400D01*
X396450D01*
Y124200D01*
X395000D01*
Y123650D01*
X398100D01*
Y117150D01*
X396600D01*
Y113650D01*
X398100D01*
Y103153D01*
X399500Y101753D01*
Y98115D01*
G03X400204Y97854I400J0D01*
G02X407796Y97854I3796J-3254D01*
G03X408404I304J260D01*
G02X415996I3796J-3254D01*
G03X416604I304J260D01*
G02X424196I3796J-3254D01*
G03X424804I304J260D01*
G02X432396I3796J-3254D01*
G03X433004I304J260D01*
G02X440596I3796J-3254D01*
G03X441204I304J260D01*
G02X448796I3796J-3254D01*
G03X449404I304J260D01*
G02X456996I3796J-3254D01*
G03X457604I304J260D01*
G02Y91346I3796J-3254D01*
G03X456996I-304J-260D01*
G02X449404I-3796J3254D01*
G03X448796I-304J-260D01*
G02X441204I-3796J3254D01*
G03X440596I-304J-260D01*
G02X433004I-3796J3254D01*
G03X432396I-304J-260D01*
G02X424804I-3796J3254D01*
G03X424196I-304J-260D01*
G02X416604I-3796J3254D01*
G03X415996I-304J-260D01*
G02X408404I-3796J3254D01*
G03X407796I-304J-260D01*
G02X400204Y91346I-3796J3254D01*
G03X399500Y91085I-304J-260D01*
G01Y43758D01*
G02X394900Y43985I-2600J-5957D01*
G01Y95600D01*
X373400D01*
Y100001D01*
G03X373206Y100201I-200J0D01*
G02X370683Y101850I94J2899D01*
G01X360500D01*
Y102710D01*
X360332Y102738D01*
G02Y108462I468J2862D01*
G01X360500Y108490D01*
Y109300D01*
X357500D01*
Y109530D01*
X354600D01*
Y119900D01*
X344100D01*
Y111030D01*
X336100D01*
Y120030D01*
X342100D01*
Y126070D01*
X334600D01*
Y138070D01*
X337700D01*
Y139900D01*
X335550D01*
Y149300D01*
X319291D01*
X319245Y149164D01*
G02X318800Y148334I-2745J936D01*
G01Y125447D01*
X298650Y105297D01*
Y91600D01*
X299900D01*
Y90300D01*
X303300D01*
Y77400D01*
X302750D01*
Y75600D01*
X301250D01*
Y71100D01*
X296750D01*
Y75600D01*
X295250D01*
Y76000D01*
X281150D01*
Y72700D01*
X276650D01*
Y76000D01*
X271700D01*
Y91600D01*
X281550D01*
Y116431D01*
G03X280867Y116714I-400J0D01*
G01X278800Y114647D01*
Y104100D01*
X268253D01*
X263800Y99647D01*
Y84366D01*
G02X261193Y79716I-2300J-1766D01*
G03X260750Y79318I-42J-398D01*
G01Y67897D01*
X260636Y67783D01*
G03X260919Y67100I283J-283D01*
G01X264450D01*
Y62600D01*
X265950D01*
Y62500D01*
X266550D01*
Y67000D01*
X271050D01*
Y62500D01*
X272550D01*
Y55300D01*
X271699D01*
X271676Y55126D01*
G02X265924I-2876J374D01*
G01X265901Y55300D01*
X265050D01*
Y55400D01*
X261553D01*
G02X258640Y53557I-2703J1050D01*
G02X253774Y56630I-2240J1843D01*
G03X253411Y57200I-362J170D01*
G01X252650D01*
Y70400D01*
X256150D01*
Y81137D01*
G03X255514Y81460I-400J0D01*
G02X251481Y82059I-1713J2340D01*
G02X253219Y86641I-581J2841D01*
G02X255514Y86140I581J-2841D01*
G03X256150Y86463I236J323D01*
G01Y147203D01*
X276564Y167617D01*
G03X276281Y168300I-283J283D01*
G01X275453D01*
X245031Y137878D01*
G03X245336Y137196I283J-283D01*
G02X242604Y134464I164J-2896D01*
G03X241922Y134769I-399J23D01*
G01X240600Y133447D01*
Y77853D01*
X245953Y72500D01*
X250050D01*
Y59300D01*
X249126D01*
X249079Y59168D01*
G02X243621I-2729J982D01*
G01X243574Y59300D01*
X242400D01*
Y56243D01*
X245200Y53443D01*
Y53150D01*
X246950D01*
Y48690D01*
G03X247532Y48333I400J0D01*
G02X251190Y44036I1318J-2583D01*
G03X251513Y43400I323J-236D01*
G01X255655D01*
X256450Y44195D01*
Y44721D01*
X256418Y44771D01*
G02X261282I2433J1579D01*
G01X261250Y44721D01*
Y43400D01*
X264706D01*
X265980Y44675D01*
X265991Y44738D01*
G02X269576Y41442I2859J-488D01*
G01X269523Y41428D01*
X266694Y38600D01*
X245206D01*
X244924Y38881D01*
X242400Y36357D01*
Y35250D01*
X247500D01*
Y33750D01*
X252000D01*
Y29250D01*
X247500D01*
Y27750D01*
X244844D01*
X242890Y25796D01*
X242911Y25690D01*
G02X239390Y29211I-4411J-890D01*
G01X239496Y29190D01*
G37*
G54D63*
X109600Y187400D03*
X94700Y206200D03*
G54D60*
X51800Y35600D03*
X63000Y230600D03*
X103100Y128800D03*
X120200Y157100D03*
X120100Y251000D03*
X325100Y75200D03*
X372000Y64900D03*
X453700Y138200D03*
G54D77*
X563800Y69900D03*
Y89900D03*
Y115100D03*
Y135100D03*
Y178900D03*
Y201300D03*
Y242400D03*
Y262400D03*
X559200Y301700D03*
Y321700D03*
X583800Y69900D03*
Y89900D03*
Y115100D03*
Y135100D03*
Y158900D03*
Y178900D03*
Y201300D03*
Y221300D03*
Y242400D03*
Y262400D03*
X579200Y301700D03*
Y321700D03*
G54D59*
X18500Y134100D03*
G54D74*
X416900Y37800D03*
X453700Y118200D03*
G54D57*
X20000Y20000D03*
Y380000D03*
G54D62*
X112492Y27004D03*
X178192D03*
G54D69*
X213400Y246100D03*
X372000Y54900D03*
G54D72*
X330200Y55100D03*
X360200Y45100D03*
Y35100D03*
Y55100D03*
G54D73*
Y65100D03*
X484200Y45200D03*
Y84500D03*
Y121900D03*
X506600D03*
X518000Y44800D03*
X540300Y64800D03*
Y104200D03*
Y141600D03*
G54D56*
X330200Y35100D03*
Y45100D03*
Y65100D03*
G54D75*
X484200Y133000D03*
X493400Y189300D03*
X540300Y151500D03*
X531200Y189300D03*
G54D66*
X175600Y184800D03*
Y194800D03*
Y204800D03*
Y214800D03*
Y224800D03*
Y234800D03*
G54D67*
Y244800D03*
G54D58*
X6700Y159100D03*
X6100Y170000D03*
X6600Y178300D03*
X6500Y184900D03*
X13900Y306400D03*
X82900Y219500D03*
X157000Y65000D03*
X255500Y232100D03*
X248800Y239400D03*
X331200Y103300D03*
X345600Y46800D03*
Y35000D03*
X373400Y37900D03*
X431100Y145000D03*
X473000Y173400D03*
X542200Y252800D03*
G54D70*
X293639Y17489D03*
X310961D03*
G54D68*
X185600Y184800D03*
Y194800D03*
Y204800D03*
Y214800D03*
Y224800D03*
Y234800D03*
Y244800D03*
G54D61*
X39700Y340000D03*
G54D78*
X553900Y235225D03*
G54D76*
X483975Y198800D03*
X531425Y181000D03*
X528825Y222500D03*
G54D71*
X280700Y381674D03*
X319300D03*
X531700D03*
G54D65*
X118400Y308800D03*
G54D64*
Y284000D03*
%LPD*%
G75*
G36*
G01X34300Y134700D02*
Y147450D01*
X38700D01*
Y151950D01*
X34300D01*
Y154300D01*
X24424D01*
G03X13089Y154893I-5924J-4600D01*
G02X12400Y155170I-289J277D01*
G01Y162389D01*
G02X13156Y162571I400J0D01*
G03Y168029I5344J2729D01*
G02X12400Y168211I-356J182D01*
G01Y172600D01*
X34770D01*
G03X34830I30J2900D01*
G01X38441D01*
G03X40559I1059J2700D01*
G01X47208D01*
G03X52392I2592J1300D01*
G01X70300D01*
Y134700D01*
X56419D01*
G03X55487Y135590I-2419J-1600D01*
G02X55427Y136232I205J343D01*
G03X51307Y140298I-1927J2168D01*
G02X50713Y140286I-302J262D01*
G03X47024Y135866I-2113J-1986D01*
G02X47048Y135211I-217J-336D01*
G03X46526Y134700I1752J-2311D01*
G01X34300D01*
G37*
G36*
G01X122555Y87851D02*
X123800Y86606D01*
Y83762D01*
G02X123339Y83367I-400J0D01*
G03X120066Y79885I-439J-2867D01*
G02X119675Y79400I-391J-85D01*
G01X114000D01*
Y83650D01*
X116900D01*
Y88150D01*
X114000D01*
Y97700D01*
X119514D01*
G02X119863Y97106I0J-400D01*
G03X120858Y93244I2537J-1406D01*
G02X120942Y92638I-213J-339D01*
G03X122497Y87863I2158J-1938D01*
G01X122555Y87851D01*
G37*
G36*
G01X139253Y309400D02*
X132677Y315976D01*
X132146D01*
G02X131813Y316598I0J400D01*
G03X130678Y321857I-3122J2078D01*
G02X130558Y322419I212J339D01*
G03Y324933I-1867J1257D01*
G02X130678Y325495I332J223D01*
G03X131706Y326445I-1987J3181D01*
G02X132310Y326490I322J-238D01*
G01X139900Y318900D01*
Y309400D01*
X139253D01*
G37*
G36*
G01X166900Y62700D02*
Y67650D01*
X166900Y69150D01*
X171400D01*
Y73650D01*
X166900D01*
Y75150D01*
X166900Y76900D01*
X177900D01*
Y62700D01*
X166900D01*
G37*
G36*
G01X213300Y81350D02*
X215500D01*
Y76900D01*
X205800D01*
Y92600D01*
X215500D01*
Y85850D01*
X213300D01*
Y81350D01*
G37*
G36*
G01X273700Y78000D02*
Y89600D01*
X281550D01*
Y84916D01*
G03X280950Y83103I2300J-1766D01*
G01Y82900D01*
X276650D01*
Y78400D01*
X275150D01*
Y78000D01*
X273700D01*
G37*
G36*
G01X279483Y121836D02*
G02X278800Y122119I-283J283D01*
G01Y135500D01*
X260750D01*
Y145297D01*
X279217Y163764D01*
G02X279882Y163600I283J-283D01*
G01X280501D01*
X280524Y163426D01*
G03X286266Y163359I2876J374D01*
G01X286276Y163423D01*
X286453Y163600D01*
X293600D01*
Y161300D01*
X296400Y158500D01*
Y138753D01*
X279483Y121836D01*
G37*
G36*
G01X281829Y81070D02*
G03X286150Y84916I2021J2080D01*
G01Y89600D01*
X294050D01*
Y85016D01*
G03X296350Y80350I2300J-1766D01*
G02X296750Y79950I0J-400D01*
G01Y78000D01*
X282650D01*
Y78400D01*
X281150D01*
Y80783D01*
G02X281829Y81070I400J0D01*
G37*
G36*
G01X286150Y91600D02*
Y115697D01*
X311000Y140547D01*
Y149300D01*
X313709D01*
X313755Y149164D01*
G03X314200Y148334I2745J936D01*
G01Y127353D01*
X294050Y107203D01*
Y91600D01*
X286150D01*
G37*
G36*
G01X344685Y146566D02*
G03X347491Y147500I615J2834D01*
G01X349500D01*
Y147850D01*
X351600D01*
Y146100D01*
X346200D01*
Y140100D01*
X351600D01*
Y122100D01*
X344200D01*
Y126070D01*
X345600D01*
Y138070D01*
X344200D01*
Y146175D01*
G02X344685Y146566I400J0D01*
G37*
G36*
G01X346882Y151831D02*
G03X343674Y151802I-1582J-2431D01*
G02X343050Y152133I-224J331D01*
G01Y153100D01*
X342700D01*
Y153400D01*
X342077D01*
X342045Y153561D01*
G03X340800Y155419I-2845J-561D01*
G01Y160000D01*
X342900D01*
X347500Y155400D01*
Y152166D01*
G02X346882Y151831I-400J0D01*
G37*
G36*
G01X375400Y114001D02*
X375574Y114024D01*
G03X376670Y114400I-374J2876D01*
G01X382050D01*
Y111000D01*
X386550D01*
Y114400D01*
X387100D01*
Y112150D01*
X388600D01*
Y108650D01*
X387100D01*
Y102150D01*
X392597D01*
X394000Y100747D01*
Y97600D01*
X375400D01*
Y101100D01*
G03Y105100I-2100J2000D01*
G01Y114001D01*
G37*
G36*
G01X366800Y109350D02*
Y117500D01*
X370500D01*
Y109350D01*
X366800D01*
G37*
G36*
G01X470700Y271950D02*
Y264450D01*
X472000D01*
Y263750D01*
X469350D01*
Y252900D01*
X463850D01*
Y253750D01*
X460100D01*
Y254950D01*
X462350D01*
Y262250D01*
X460100D01*
Y264550D01*
X460300D01*
Y266050D01*
X464800D01*
Y270550D01*
X460300D01*
Y272050D01*
X460100D01*
Y274000D01*
X491800D01*
Y252900D01*
X479250D01*
Y263750D01*
X476600D01*
Y264450D01*
X477900D01*
Y265950D01*
X482400D01*
Y270450D01*
X477900D01*
Y271950D01*
X470700D01*
G37*
G36*
G01X500500Y206000D02*
Y211350D01*
X499200D01*
Y230100D01*
X513900D01*
Y226700D01*
X512225D01*
Y218300D01*
X513900D01*
Y212550D01*
X506250D01*
Y206000D01*
X500500D01*
G37*
G36*
G01X513700Y205200D02*
Y206050D01*
X513750D01*
Y208700D01*
X516150D01*
Y205200D01*
X513700D01*
G37*
G36*
G01X523700Y200550D02*
Y201950D01*
X528200D01*
Y200550D01*
X523700D01*
G37*
G36*
G01X542400Y213599D02*
Y226100D01*
X549700D01*
Y218625D01*
X557331D01*
G03X558300Y216970I6469J2675D01*
G01Y210400D01*
X545499D01*
G02X545099Y210788I0J400D01*
G03X542574Y213576I-2899J-88D01*
G01X542400Y213599D01*
G37*
G54D10*
X20000Y20000D03*
Y380000D03*
X580000Y20000D03*
Y380000D03*
G54D11*
X6700Y159100D03*
X6100Y170000D03*
X6600Y178300D03*
X6500Y184900D03*
X4400Y191400D03*
X4500Y195300D03*
Y198600D03*
X6600Y228400D03*
Y234200D03*
X7000Y248000D03*
X7600Y250800D03*
X4200Y250600D03*
X5900Y244600D03*
X6700Y237500D03*
X6900Y256000D03*
X6300Y261600D03*
X4100Y292900D03*
X3700Y283300D03*
X4100Y295400D03*
X4900Y298000D03*
X6400Y346700D03*
X7300Y351900D03*
X16600Y49500D03*
X28900Y38000D03*
X28600Y44600D03*
X16000Y61900D03*
X16300Y58400D03*
X16400Y53900D03*
X22300Y50100D03*
X27000Y49800D03*
X26600Y83400D03*
X19300Y82900D03*
Y88200D03*
X27400Y88400D03*
X25300Y108000D03*
X27500Y92700D03*
X19000Y92500D03*
X9300Y128500D03*
X27000Y128700D03*
X25500Y118000D03*
X9100Y140700D03*
X27300Y140100D03*
X27700Y158000D03*
Y163200D03*
X27900Y169300D03*
X19600Y190200D03*
X11500Y190400D03*
X20800Y209200D03*
X24500Y209500D03*
X18300Y199000D03*
X21200Y203700D03*
X20900Y223500D03*
X24300D03*
X17000Y232100D03*
X11300Y231200D03*
X11100Y250900D03*
X16900Y237000D03*
X13300Y255800D03*
X22600Y256100D03*
X17400Y251400D03*
X17600Y246400D03*
Y255400D03*
X20400Y240800D03*
X20600Y245200D03*
X27700Y272600D03*
X19600Y270300D03*
X13500Y261500D03*
X20400D03*
X20300Y264400D03*
Y258700D03*
X22800Y288000D03*
X22600Y283000D03*
X27500Y286000D03*
X17400Y293300D03*
Y296300D03*
X14500D03*
X23500Y301300D03*
X27600Y305400D03*
X23700Y308500D03*
X13900Y306400D03*
X15900Y319700D03*
X12900Y319800D03*
X8800Y319500D03*
X16100Y323400D03*
X12800D03*
X8700Y323300D03*
X16000Y326400D03*
X12600D03*
X8700D03*
X13000Y346300D03*
X23400Y352600D03*
X14000Y352100D03*
X45200Y11500D03*
X43400Y37700D03*
X43700Y44100D03*
X36700Y37900D03*
X44500Y29800D03*
X42800Y49000D03*
X47300D03*
X46300Y60700D03*
X46600Y69900D03*
X36500Y58000D03*
X39900Y55400D03*
X42200Y52400D03*
X35300Y88200D03*
X49400Y78800D03*
X37700Y108100D03*
X34800Y92800D03*
X37400Y128700D03*
X48800D03*
X44500Y142400D03*
Y149700D03*
X41500Y144600D03*
X41400Y139400D03*
X36900D03*
X48800Y132900D03*
X48600Y138300D03*
X43200Y169100D03*
X35500Y169200D03*
X36500Y160500D03*
X41900Y159100D03*
X36500Y158100D03*
X42000Y155300D03*
X47100Y162600D03*
X36300Y155200D03*
X41900Y162800D03*
X36600Y162900D03*
X41100Y184800D03*
X39500Y175300D03*
X34800Y175500D03*
X33100Y186100D03*
X44200Y184800D03*
X44300Y182000D03*
X44400Y176600D03*
X47600Y189000D03*
X33900Y202500D03*
X42200Y196300D03*
X42000Y202200D03*
X39100D03*
X37700Y228200D03*
X34800Y228900D03*
X34700Y232400D03*
X38800Y238100D03*
X35400Y238200D03*
X34100Y272900D03*
X45100Y286000D03*
X35300Y292500D03*
X37900Y292400D03*
X38000Y294500D03*
X30100Y292000D03*
X29400Y348200D03*
X40100Y347300D03*
X36000Y352700D03*
X68600Y20200D03*
X50400D03*
X58900D03*
X50200Y28700D03*
X65200Y43200D03*
X51400Y49000D03*
X65200Y56700D03*
X50900Y60600D03*
X53800Y52900D03*
X65300Y77000D03*
X56200Y87900D03*
X66400Y89000D03*
X53100Y70600D03*
X50400Y70500D03*
X56200Y94900D03*
X68700Y111300D03*
X57800Y105000D03*
X55000D03*
X54900Y102100D03*
X58200Y102200D03*
X69000Y119000D03*
X64276Y127276D03*
X54100Y128700D03*
X63700Y147400D03*
X52800Y147200D03*
X54000Y133100D03*
X53500Y138400D03*
X67400Y190200D03*
X68600Y182800D03*
X68300Y193800D03*
X49800Y173900D03*
X49900Y179500D03*
X61400Y184800D03*
X51500Y184500D03*
X60800Y188800D03*
X51500Y188600D03*
X60100Y193500D03*
X51500D03*
X69100Y234600D03*
X56100Y221300D03*
X67300Y256000D03*
X65400Y241700D03*
X69100Y237400D03*
X60100Y256000D03*
X56400Y255900D03*
Y243900D03*
X59700D03*
X69200Y240400D03*
X67000Y261500D03*
X66700Y266400D03*
X55700Y274000D03*
X60000Y260700D03*
X56200D03*
X55000Y286200D03*
X57000Y314500D03*
X64400Y317200D03*
X55700Y300300D03*
X55600Y304200D03*
X64100Y321900D03*
X63900Y331900D03*
X64100Y327500D03*
X54100Y355500D03*
X60100Y349000D03*
X62800Y361300D03*
X61000Y364500D03*
X60400Y377800D03*
X68400Y361100D03*
X60800Y370800D03*
X55900Y394100D03*
X83400Y13500D03*
X73100Y43300D03*
X84800Y47700D03*
X83400Y29000D03*
X72300Y56700D03*
Y49800D03*
X79300Y70200D03*
X72000Y63300D03*
X83400Y70200D03*
X90800Y82800D03*
X71300Y77000D03*
X79000Y82400D03*
Y89100D03*
X83500Y77100D03*
X78000Y93300D03*
X74600Y111000D03*
X85900Y100800D03*
X81600Y100900D03*
X86200Y104500D03*
X81800D03*
X72700Y115600D03*
X75700Y143700D03*
X75600Y148500D03*
X87500Y144200D03*
X83000Y144100D03*
X87500Y147400D03*
X82900D03*
X80700Y161800D03*
X75200Y161600D03*
X80500Y166500D03*
X75300D03*
X85300Y184400D03*
Y191900D03*
X72100Y178300D03*
X82500Y205800D03*
X86500Y200400D03*
X86100Y213200D03*
X82300Y235800D03*
X84200Y232000D03*
X87200Y235600D03*
X82900Y219500D03*
X74300Y223100D03*
X78900Y226100D03*
X74400Y226200D03*
X84100Y239500D03*
X72400Y261400D03*
X72300Y266400D03*
X71400Y299700D03*
X72200Y304000D03*
X71700Y355600D03*
X84500Y366000D03*
X87000Y377100D03*
X77000Y377000D03*
X78700Y393700D03*
X82900Y388200D03*
X89400Y388500D03*
Y381600D03*
X82900Y381300D03*
X97100Y12500D03*
X96200Y29500D03*
X110100Y61500D03*
X104400Y61600D03*
X110700Y55800D03*
X91100Y87100D03*
X100800Y83700D03*
X100900Y87700D03*
X103000Y114500D03*
X102800Y121800D03*
X110700Y114600D03*
X92500Y144400D03*
X94500Y214800D03*
X95500Y196700D03*
X94700Y224100D03*
X98600Y226800D03*
X96300D03*
X97000Y348300D03*
X104500Y365900D03*
X94700Y366200D03*
X107000Y377100D03*
X97000D03*
X104400Y388500D03*
X96700D03*
X104400Y381600D03*
X96700D03*
X130484Y20316D03*
X120300Y19800D03*
X122900Y20000D03*
X129300Y31100D03*
X115600Y61500D03*
X127600Y55900D03*
X117000Y56000D03*
X122100Y85900D03*
X124400Y84800D03*
X130000Y79800D03*
X123100Y90700D03*
X120300Y73555D03*
X122900Y80500D03*
X122400Y95700D03*
X115600Y149500D03*
X124800Y140900D03*
X117900Y171600D03*
X125700Y165200D03*
X121100Y173900D03*
X121400Y179900D03*
X121300Y186800D03*
X121000Y195100D03*
X123600Y301400D03*
X122700Y314400D03*
X118600Y301300D03*
X114600Y365800D03*
X124600Y365500D03*
X127000Y377100D03*
X117000D03*
X114800Y389200D03*
X124500Y389300D03*
Y382400D03*
X114800Y382300D03*
X135600Y18500D03*
X139100D03*
X139311Y33500D03*
X139300Y36600D03*
X150200Y75900D03*
X150300Y71000D03*
X135100Y103300D03*
X149800Y105300D03*
X146500D03*
X132700Y105200D03*
X146600Y115400D03*
X141900Y115200D03*
X134200Y304900D03*
X135500Y299500D03*
X150200Y314700D03*
X145300Y307100D03*
X147100Y350600D03*
X134900Y365800D03*
X144600Y365900D03*
X147000Y377200D03*
X137000Y376900D03*
X132500Y389600D03*
X141000Y389700D03*
X149400D03*
Y382800D03*
X141000D03*
X132500Y382700D03*
X165500Y67100D03*
X167100Y65600D03*
X173200Y65000D03*
X170100Y64800D03*
X157000Y65000D03*
X157400Y74300D03*
X160700Y76000D03*
X159500Y84100D03*
X159600Y93500D03*
X159400Y101400D03*
X153800Y310200D03*
X162000Y347200D03*
X164700Y365700D03*
X154600Y365600D03*
X157000Y376800D03*
X167000Y377200D03*
X166200Y389700D03*
X157800D03*
X166200Y382800D03*
X157800D03*
X182995Y20695D03*
X194216Y20400D03*
X189100Y19700D03*
X185550Y19850D03*
X182900Y32000D03*
X194100Y43700D03*
Y40300D03*
X193232Y32700D03*
X176100Y64900D03*
X189000Y54100D03*
X185550Y54500D03*
X176600Y71300D03*
X187700Y80200D03*
X187900Y84700D03*
X188000Y88200D03*
X184300Y105300D03*
X183191Y100400D03*
X187000Y350400D03*
X182000Y347300D03*
X174400Y365700D03*
X184800Y365800D03*
X187000Y377000D03*
X177000Y377100D03*
X191400Y389700D03*
X174600D03*
X183000D03*
X191400Y382800D03*
X183000D03*
X174600D03*
X207405Y20605D03*
X204800Y20300D03*
X201300Y20200D03*
X207500Y31700D03*
X195582Y30100D03*
X213700Y78100D03*
X213500Y88900D03*
X211200Y85400D03*
X208800Y109000D03*
X195400D03*
X201800Y109100D03*
X201600Y93045D03*
X199300Y98055D03*
X204700Y188600D03*
X211900Y347500D03*
X194700Y365700D03*
X204600Y365800D03*
X214300Y365700D03*
X197000Y377100D03*
X207000Y377200D03*
X199800Y389700D03*
X208200D03*
Y382800D03*
X199800D03*
X224200Y13300D03*
X223700Y24200D03*
X220500Y32900D03*
X226600Y33000D03*
X228200Y61100D03*
X218800Y61600D03*
X227800Y68200D03*
X218400Y68000D03*
X228900Y55600D03*
X226000Y79500D03*
X221500Y78200D03*
X220300Y89300D03*
X227700Y74400D03*
X218300Y74100D03*
X222100Y347700D03*
X232000Y347600D03*
X224700Y365600D03*
X234500D03*
X217000Y376775D03*
X225000Y389700D03*
X230600D03*
X216600D03*
X230600Y382800D03*
X221900Y382700D03*
X216600Y382800D03*
X248850Y45750D03*
X244100Y36400D03*
X256400Y55400D03*
X246350Y60150D03*
X250900Y84900D03*
X253800Y83800D03*
X251350Y94100D03*
X252300Y106200D03*
X256350Y94250D03*
X245500Y134300D03*
X253950Y179550D03*
X252900Y174100D03*
X255500Y232100D03*
X248800Y239400D03*
X254700Y366200D03*
X244600Y365300D03*
X247000Y377200D03*
X237000Y377300D03*
X255700Y389700D03*
X239000D03*
X247300D03*
X255700Y382800D03*
X247300D03*
X239000D03*
X258850Y46350D03*
X268850Y44250D03*
X275100Y61700D03*
X272000Y61900D03*
X258850Y56450D03*
X268800Y55500D03*
X261500Y82600D03*
X276100Y83100D03*
X276200Y80200D03*
X265000Y76200D03*
X269500Y76000D03*
X269400Y72600D03*
X262200Y70600D03*
X271300Y131300D03*
X265650Y174650D03*
X262400Y176200D03*
X262000Y347100D03*
X257000Y347500D03*
X264400Y365900D03*
X257000Y377200D03*
X267000D03*
X264300Y389700D03*
X270500D03*
Y382800D03*
X264300D03*
X278850Y46350D03*
X292000Y42800D03*
X293000Y40600D03*
X297300Y45100D03*
X293850Y55550D03*
X278000Y64900D03*
X279200Y61800D03*
X286350Y58750D03*
X288900Y56300D03*
X283850Y83150D03*
X292900Y81300D03*
X290700D03*
X290400Y78900D03*
X288200Y84200D03*
X293600Y78900D03*
X289900Y72400D03*
X293000Y71300D03*
X281000Y70900D03*
X292700Y74300D03*
X286900Y74100D03*
X296350Y83250D03*
X291200Y96300D03*
X293000Y100600D03*
X290100D03*
X282000Y130100D03*
X286700Y145200D03*
X291200Y139300D03*
X291400Y151800D03*
X282000Y139900D03*
X283400Y163800D03*
X295300Y167100D03*
X285700Y216800D03*
X292800Y225000D03*
X285900Y230300D03*
X293200Y239600D03*
X293800Y368900D03*
X293500Y390700D03*
X313600Y34100D03*
X306200Y38000D03*
X317600Y37400D03*
X303056Y34600D03*
X303000Y40500D03*
X299150Y34600D03*
X299094Y40500D03*
X306800Y62100D03*
Y66200D03*
X316500Y150100D03*
X308700Y156000D03*
X314100Y160100D03*
X304650Y164150D03*
X303900Y172200D03*
X299900Y212400D03*
X302950Y214850D03*
X298900Y207400D03*
X308300Y266600D03*
X299400Y272300D03*
X302800Y276800D03*
X304300Y283000D03*
X306700Y336600D03*
X299800Y352800D03*
X307200Y369100D03*
X306200Y390600D03*
X330400Y26700D03*
X335600Y27300D03*
X323200Y34000D03*
X339200Y88400D03*
X331200Y103300D03*
X332100Y111300D03*
X332300Y116800D03*
X325800Y152700D03*
X339200Y153000D03*
X318800Y161800D03*
X335300Y160400D03*
X321700Y160000D03*
X327900Y154300D03*
X333300Y162900D03*
X337600Y185600D03*
X329450Y213250D03*
X337200Y209400D03*
X329500Y217200D03*
X335300Y382700D03*
X335700Y389200D03*
X345600Y46800D03*
Y35000D03*
X353400Y89600D03*
X350700Y86400D03*
Y82800D03*
X353700Y82900D03*
X347600Y89200D03*
X351400Y103900D03*
X354600Y105000D03*
X349000Y111600D03*
X349600Y106900D03*
X344600Y106800D03*
X350600Y124500D03*
X348100D03*
X350600Y128200D03*
X347900D03*
X350200Y115500D03*
X345300Y149400D03*
X345000Y155200D03*
X342900Y157800D03*
X348000Y161400D03*
X359700Y295000D03*
X349500Y291000D03*
X344900Y292500D03*
X359600Y302400D03*
X359350Y327370D03*
X356800Y383000D03*
X349100D03*
X341800D03*
X357200Y389500D03*
X349500D03*
X342200D03*
X373400Y37900D03*
X379500Y70800D03*
X376800Y73400D03*
X371900Y73300D03*
X376300Y77900D03*
X371800Y78000D03*
X363800Y79400D03*
X366800Y88600D03*
X367400Y91000D03*
X377600Y108300D03*
X377100Y103600D03*
X360800Y105600D03*
X373300Y103100D03*
X377600Y112800D03*
X378400Y128200D03*
X364000Y125700D03*
X374900Y120500D03*
X375200Y116900D03*
X365900Y120500D03*
X374900Y124900D03*
X368900Y113700D03*
X365000Y142000D03*
X365500Y148000D03*
X376900Y141700D03*
X379600Y154600D03*
X364900Y162400D03*
X361650Y327370D03*
X376900Y383800D03*
X367200Y383700D03*
X377300Y390300D03*
X367600Y390200D03*
X384100Y70800D03*
X395100Y78500D03*
X391400Y78300D03*
X386500Y78400D03*
X388600Y100000D03*
X384700Y99900D03*
X384600Y104400D03*
X384500Y108000D03*
X385800Y92800D03*
X393800Y92900D03*
X385100Y130200D03*
X385200Y124700D03*
X401000Y114000D03*
X390000Y137400D03*
X385100Y135100D03*
X384900Y142700D03*
X400600Y140000D03*
X401000Y134700D03*
X400400Y181700D03*
X397800Y179900D03*
X396892Y195708D03*
X383400Y305300D03*
X393000Y349900D03*
X383000Y349300D03*
X393400Y384200D03*
X384900Y384100D03*
X393800Y390700D03*
X385300Y390600D03*
X406000Y109900D03*
X401400Y107000D03*
X406600Y130200D03*
X407200Y115500D03*
X416600Y130600D03*
X412400D03*
X419400Y125900D03*
X412000Y126300D03*
X405500Y134900D03*
X415400Y205000D03*
Y201000D03*
X403100Y220300D03*
X405000Y225100D03*
X415400Y220800D03*
X418946Y237200D03*
X408100Y246000D03*
X407900Y236500D03*
X414600Y263400D03*
X415100Y259300D03*
X403000Y349300D03*
X413000Y349700D03*
X418600Y384200D03*
X410200D03*
X401800D03*
X419000Y390700D03*
X410600D03*
X402200D03*
X424300Y19900D03*
X434100Y104700D03*
X423900Y129900D03*
X426100Y125900D03*
X431100Y145000D03*
X430900Y152800D03*
X425500Y135800D03*
X441800Y171300D03*
X425500Y163000D03*
X442000Y180800D03*
X440600Y214300D03*
X427046Y205554D03*
X430754D03*
X427700Y214300D03*
X428400Y218800D03*
Y225000D03*
X422654Y237200D03*
X423000Y349900D03*
X433000Y349400D03*
X435400Y384200D03*
X427000D03*
X435800Y390700D03*
X427400D03*
X449300Y20400D03*
X445600Y168100D03*
X450500Y213400D03*
X445200Y217100D03*
X460300Y218900D03*
X449500Y223600D03*
X459300Y222300D03*
X450500Y254800D03*
X450300Y275400D03*
X450500Y267300D03*
X450600Y260400D03*
X456500Y282600D03*
X450000Y282700D03*
X460600Y384200D03*
X452200D03*
X443800D03*
X461000Y390700D03*
X452600D03*
X444200D03*
X476200Y18400D03*
X473000Y173400D03*
X468700Y162800D03*
X471900D03*
X483000Y183700D03*
X474700Y181100D03*
X484100Y187800D03*
X473900Y207900D03*
X473200Y198100D03*
X483500Y214400D03*
Y207600D03*
X467600Y271900D03*
X467900Y262800D03*
Y258700D03*
X480800Y284500D03*
X463600Y282700D03*
X470600Y298000D03*
X482900Y349300D03*
X478000Y349600D03*
X467600Y349300D03*
X483000Y384200D03*
X477400D03*
X469000D03*
X483400Y390700D03*
X477800D03*
X469400D03*
X497200Y20900D03*
X494000Y70700D03*
X502100Y130100D03*
X495000Y143900D03*
X490800Y143800D03*
X485600Y147600D03*
X490800D03*
X495800Y152500D03*
X502100Y141700D03*
X504200Y166582D03*
X488600Y188200D03*
X496600Y182300D03*
X497300Y186700D03*
X504100Y209400D03*
X504200Y214300D03*
X488000Y214400D03*
X500700Y218900D03*
X500600Y215900D03*
X504100Y219200D03*
X486000Y258000D03*
X486600Y264500D03*
Y272500D03*
X492600Y297700D03*
X488100Y348900D03*
X498000Y346500D03*
X499700Y384200D03*
X491400D03*
X500100Y390700D03*
X491800D03*
X520800Y130300D03*
X514500Y130100D03*
X508200Y130000D03*
Y141900D03*
X520800Y141800D03*
X514500D03*
X517600Y161300D03*
X507800Y155800D03*
X505100Y156000D03*
X507600Y158900D03*
X511600Y154700D03*
X516200Y174600D03*
X506800D03*
X524400Y214800D03*
X508000Y224900D03*
X508300Y221800D03*
Y215900D03*
Y219100D03*
X508100Y256100D03*
X506700Y283800D03*
X514800Y297600D03*
X510500Y310400D03*
X522900Y350400D03*
X517900Y350100D03*
X513100Y349600D03*
X509300Y349500D03*
X522900Y384200D03*
X516700D03*
X508100D03*
X523300Y390700D03*
X517100D03*
X508500D03*
X543000Y21900D03*
X527800Y70300D03*
X544900Y127400D03*
X534200D03*
X534700Y148100D03*
X545600Y148400D03*
X531500Y141200D03*
X527200Y142200D03*
X530100Y148100D03*
X535100Y173000D03*
X534200Y159000D03*
X537300Y188600D03*
X534600Y193400D03*
X525700Y187400D03*
X534400Y204200D03*
X534500Y197900D03*
X528900Y215000D03*
X526500Y212500D03*
X542200Y210700D03*
X544700Y216600D03*
X544600Y222300D03*
X528400Y231200D03*
X537800Y222100D03*
X532900Y255700D03*
X542200Y252800D03*
X532000Y310600D03*
X528800Y330300D03*
X540900Y348700D03*
X554100Y124700D03*
X550600Y141200D03*
X554400Y162300D03*
X547800Y164500D03*
X549700Y182600D03*
X546500Y188100D03*
X547400Y192100D03*
X547000Y175000D03*
X555400Y213700D03*
X547800Y214500D03*
X548200Y199600D03*
X553200Y329600D03*
X579700Y348100D03*
X593200Y79700D03*
X594400Y128500D03*
X594500Y168800D03*
X593900Y211200D03*
X594200Y252400D03*
X588100Y311700D03*
G54D20*
X63731Y283676D03*
Y288676D03*
Y293676D03*
Y298676D03*
Y303676D03*
Y308676D03*
X128691Y298676D03*
Y293676D03*
Y288676D03*
Y283676D03*
Y318676D03*
Y313676D03*
Y308676D03*
Y303676D03*
Y328676D03*
Y323676D03*
G54D21*
X68300Y381674D03*
X280700D03*
X319300D03*
X531700D03*
G54D12*
X11300Y270100D03*
Y283100D03*
G54D30*
G01X31700Y308700D02*
X28900D01*
X18600Y319000D01*
G01X42260Y219760D02*
Y229440D01*
X42200Y229500D01*
G01X33800Y248400D02*
X42200Y240000D01*
Y235500D01*
G01X30100Y292000D02*
Y301100D01*
X31700Y302700D01*
G01X40680Y310520D02*
X43980D01*
X44200Y310300D01*
G01X64276Y127276D02*
X67324D01*
X77600Y117000D01*
X78300D01*
G01X51600Y317700D02*
Y321000D01*
G01X75260Y102060D02*
Y107960D01*
X78300Y111000D01*
G01X89660Y222340D02*
Y229860D01*
X91300Y231500D01*
G01X85700Y248900D02*
X91300Y243300D01*
Y237500D01*
G01X99400Y146800D02*
Y152400D01*
X101300Y154300D01*
G01Y160300D02*
Y170300D01*
X92300Y179300D01*
G01X96600Y187400D02*
Y183600D01*
X92300Y179300D01*
G01X107700Y206200D02*
Y197200D01*
G01X496700Y170800D02*
X494200Y173300D01*
G01X502700Y170800D02*
X508600D01*
X511400Y168000D01*
G01X496825Y198800D02*
Y207525D01*
X496900Y207600D01*
G01X496825Y198800D02*
X509500D01*
X510000Y198300D01*
G01X522400Y168000D02*
Y172500D01*
G01X511400Y168000D02*
Y172800D01*
G01X518575Y181000D02*
X518100D01*
X511400Y174300D01*
Y172800D01*
G01X510000Y198300D02*
Y195100D01*
X506500Y191600D01*
X227000Y377100D03*
X317669Y186006D03*
Y182069D03*
X313732Y174195D03*
X309100Y187834D03*
X317669Y189943D03*
X317576Y197724D03*
X308900Y206400D03*
X317669Y201754D03*
X313732Y213565D03*
X302400Y206600D03*
X313300Y205300D03*
X317900Y225000D03*
X309400Y227204D03*
X317500Y233100D03*
X313700Y237000D03*
X308589Y246889D03*
X317669Y244780D03*
X304700Y236800D03*
X299700Y246800D03*
X317600Y237000D03*
X317400Y241100D03*
X317600Y248800D03*
X317400Y252800D03*
X299870Y253770D03*
X313732Y256591D03*
X315600Y265000D03*
X325543Y182069D03*
X321606D03*
Y186006D03*
X325543Y189943D03*
X329480Y186006D03*
X335245Y173800D03*
X325543Y193880D03*
X321606D03*
X329480D03*
X333417D03*
X321606Y189943D03*
X325543Y178132D03*
X337354Y182069D03*
X331308Y173600D03*
X329480Y189943D03*
X337354D03*
X333417D03*
X337354Y193880D03*
X325543Y186006D03*
X329480Y182069D03*
X325543Y197817D03*
X337354Y201754D03*
X325500Y213500D03*
X337354Y197817D03*
X329480Y205691D03*
X337354Y213565D03*
X329350Y229150D03*
X333200Y217400D03*
X337100Y217200D03*
X329400Y221300D03*
X321606Y232969D03*
X325400Y221301D03*
X333417Y229032D03*
X337354Y225095D03*
Y232969D03*
X333417Y221158D03*
X337354D03*
X321600Y229000D03*
X337354Y229032D03*
X333417Y232969D03*
Y225095D03*
X329300Y252700D03*
X321500Y252600D03*
X329500Y236900D03*
X325500Y241000D03*
X329480Y248717D03*
X333417Y236906D03*
X333200Y244900D03*
X333300Y241100D03*
X337100Y252900D03*
X337200Y249000D03*
X333300Y248700D03*
Y252800D03*
X321500Y245000D03*
X321200Y241200D03*
X321500Y237000D03*
X329300Y244800D03*
X321300Y249000D03*
X325500Y252700D03*
X337354Y236906D03*
X325400Y244900D03*
X325300Y248900D03*
X333200Y256700D03*
X327371Y260785D03*
X322800Y265000D03*
X333300Y266300D03*
X339000Y263700D03*
X338000Y376400D03*
X354930Y173500D03*
X339182Y173382D03*
X341291Y189943D03*
X349165Y186006D03*
X352900Y189800D03*
Y185300D03*
X341000Y185800D03*
X345228Y178132D03*
X353100Y193900D03*
X341291Y193880D03*
X349165Y205691D03*
X341291Y197817D03*
Y209628D03*
X345228Y197817D03*
X341300Y205200D03*
X353100Y205500D03*
X356700Y209300D03*
X349165Y213565D03*
X341291D03*
X356758D03*
X345000Y213300D03*
X349100Y225200D03*
X341291Y229032D03*
X345228Y232969D03*
X356758D03*
X357000Y229100D03*
X356900Y225300D03*
X349198Y228998D03*
X345000Y225300D03*
X344900Y229400D03*
X341291Y221158D03*
X349165D03*
Y232969D03*
X341291D03*
Y225095D03*
X356758Y221158D03*
X345228D03*
X341200Y245000D03*
X341291Y252654D03*
Y236906D03*
X345228Y240843D03*
X352900Y236900D03*
X352800Y248600D03*
X349200Y248800D03*
X353000Y244800D03*
X348900Y252700D03*
X344800Y248600D03*
X356800Y248800D03*
X352900Y252800D03*
X356758Y236906D03*
X345228D03*
X356900Y252800D03*
X356758Y256591D03*
X347056Y261344D03*
X353000Y256700D03*
X339400Y327889D03*
X341100D03*
X358000Y376500D03*
X345300Y365600D03*
X341000Y365800D03*
X343000Y376400D03*
X374615Y173115D03*
X376443Y193880D03*
X380380Y182069D03*
X364632Y189943D03*
X368569Y178132D03*
X372506Y186006D03*
X360695Y182069D03*
X376500Y213500D03*
X372506Y205691D03*
Y213565D03*
X376800Y197600D03*
X360695Y201754D03*
X364632Y213565D03*
X368569D03*
X360695D03*
X365000Y197900D03*
X364700Y209500D03*
X372900Y209300D03*
X372700Y201600D03*
X372506Y225095D03*
Y232969D03*
X380380Y229032D03*
X372600Y221200D03*
X364632Y225095D03*
Y232969D03*
X368569Y229032D03*
X360800Y229100D03*
X376443Y221158D03*
X380380D03*
X360695D03*
X368569D03*
X372900Y228800D03*
X360900Y225400D03*
X361000Y217500D03*
X376900Y229500D03*
X368569Y232969D03*
Y225095D03*
X364632Y229032D03*
X360695Y232969D03*
X364632Y221158D03*
X372506Y236906D03*
Y240843D03*
Y244780D03*
X376443D03*
X380380Y236906D03*
Y244780D03*
Y248717D03*
X360695Y236906D03*
Y244780D03*
X368569Y236906D03*
X376500Y248700D03*
X364600Y252600D03*
X368700Y241000D03*
X360800Y248800D03*
Y252700D03*
X372500D03*
X377500Y241000D03*
X375900D03*
X364800Y248700D03*
X380400Y252600D03*
X376500Y236900D03*
X364632Y236906D03*
X372500Y248700D03*
X368800Y245000D03*
X376600Y252700D03*
X368500Y248600D03*
X368600Y252700D03*
X366741Y260785D03*
X376500Y256600D03*
X360700D03*
X364600D03*
X380300Y365500D03*
X360300Y365600D03*
X365300Y365800D03*
X378000Y376800D03*
X362900Y376600D03*
X388254Y178132D03*
X384317Y189943D03*
X392191Y186006D03*
X396128Y174195D03*
X384600Y185700D03*
X392400Y205500D03*
X380700Y205700D03*
X380500Y213500D03*
X384317Y209628D03*
Y213565D03*
X388254Y197817D03*
Y213565D03*
X392191D03*
X396128D03*
X388254Y225095D03*
X396502Y225002D03*
X384317Y232969D03*
X392000Y233200D03*
X396128Y221158D03*
X392300Y221200D03*
X392200Y225300D03*
X388300Y232900D03*
X384400Y225200D03*
X399700Y225100D03*
X399900Y219400D03*
X384317Y252654D03*
X388254D03*
X392191D03*
X396128D03*
X384317Y248717D03*
X388254Y240843D03*
X396128Y236906D03*
Y244780D03*
X388500Y244800D03*
X380700Y241300D03*
X384400Y237100D03*
X396128Y256591D03*
X386426Y261274D03*
X380600Y256700D03*
X384400D03*
X400500Y365700D03*
X390200Y365600D03*
X388000Y376600D03*
X398000D03*
X408200Y214400D03*
X402000Y245500D03*
X402500Y263400D03*
X401800Y257300D03*
X420100Y365600D03*
X410100D03*
X418000Y376600D03*
X408000Y376500D03*
X439400Y345866D03*
X441100D03*
X438000Y376300D03*
X440300Y365500D03*
X430400Y365800D03*
X427900Y376500D03*
X456550Y347852D03*
X454850D03*
X463000Y366000D03*
X460100Y366100D03*
X445300Y365400D03*
X458000Y376600D03*
X453000Y376500D03*
X443000Y376400D03*
X478000Y366100D03*
X468000D03*
X473000Y364400D03*
X483000Y365500D03*
X503000Y365300D03*
X498000Y366100D03*
X488000D03*
X493000Y365400D03*
X513000Y365200D03*
X518000Y366000D03*
X508000Y365900D03*
X523000Y365300D03*
G54D13*
X20100Y101900D03*
X51800Y35600D03*
X63000Y230600D03*
X103100Y128800D03*
X120200Y157100D03*
X120100Y251000D03*
X145600Y213900D03*
X233400Y246100D03*
X223400D03*
X248500Y114800D03*
X268700Y115400D03*
X299500Y379600D03*
X383200Y16900D03*
X372000Y64900D03*
X420400Y94600D03*
X412200D03*
X404000D03*
X444400Y44100D03*
X445000Y94600D03*
X436800D03*
X428600D03*
X461400D03*
X453200D03*
X468300Y44600D03*
X495200Y315200D03*
X532000Y235600D03*
X581500Y48100D03*
G54D31*
X238500Y24800D03*
X258500D03*
X330200Y35100D03*
Y45100D03*
Y55100D03*
Y65100D03*
X360200Y45100D03*
Y35100D03*
Y55100D03*
G54D40*
X392600Y105400D03*
Y110400D03*
Y115400D03*
Y120400D03*
X414600Y110400D03*
Y105400D03*
Y120400D03*
Y115400D03*
G54D22*
X112492Y5902D03*
X146508D03*
X178192D03*
X212208D03*
G54D50*
G01X336900Y333800D02*
Y331900D01*
X339400Y329400D01*
Y327889D01*
G01X336900Y339800D02*
X337400Y340300D01*
Y346700D01*
G01X341100Y327889D02*
Y329400D01*
X343600Y331900D01*
Y333800D01*
G01X359350Y327370D02*
Y328300D01*
X360000Y328950D01*
Y332850D01*
X358850Y334000D01*
X357100D01*
G01Y340000D02*
X357200D01*
X357700Y340500D01*
Y346500D01*
G01X357900Y353600D02*
Y346700D01*
X357700Y346500D01*
G01X343400Y346700D02*
X343600Y346500D01*
Y339800D01*
G01X363900Y334000D02*
X362100D01*
X360900Y332800D01*
Y328900D01*
X361650Y328150D01*
Y327370D01*
G01X363900Y340000D02*
X363700Y340200D01*
Y346500D01*
G01X363400Y353600D02*
Y346800D01*
X363700Y346500D01*
G54D23*
X112492Y27004D03*
X146508D03*
X178192D03*
X212208D03*
G54D32*
X293639Y17489D03*
X310961D03*
G54D41*
X458900Y238600D03*
Y248600D03*
Y258600D03*
X474300D03*
Y248600D03*
Y238600D03*
G54D14*
X18500Y134100D03*
Y149700D03*
Y165300D03*
G54D51*
G01X56600Y355600D02*
Y352500D01*
X60100Y349000D01*
G01X317500Y233100D02*
X292600D01*
X275200Y250500D01*
X266900D01*
X242900Y274500D01*
X194900D01*
X128700Y340700D01*
X101800D01*
X96200Y346300D01*
X96171D01*
X95000Y347471D01*
Y347500D01*
X87100Y355400D01*
G01X321600Y229000D02*
Y229100D01*
X319600Y231100D01*
X290200D01*
X282700Y238600D01*
X264200D01*
X235900Y266900D01*
X186400D01*
X147500Y305800D01*
Y315400D01*
X126600Y336300D01*
X96100D01*
X77000Y355400D01*
G01X87000Y377100D02*
Y361500D01*
X87100Y361400D01*
G01X77000Y377000D02*
Y361400D01*
G01X321500Y237000D02*
X321400D01*
X319400Y235000D01*
X294300D01*
X250000Y279300D01*
X197700D01*
X132000Y345000D01*
X117400D01*
X107000Y355400D01*
G01X97000D02*
Y348300D01*
G01X107000Y377100D02*
Y361400D01*
G01X97000Y377100D02*
Y361400D01*
G01X129300Y31100D02*
Y21500D01*
X130484Y20316D01*
G01X145300Y307100D02*
X138300D01*
X131724Y313676D01*
X128691D01*
G01X317600Y237000D02*
X315700Y238900D01*
X297600D01*
X253600Y282900D01*
X199800D01*
X135000Y347700D01*
X124700D01*
X117000Y355400D01*
G01X127000D02*
X132000D01*
X200900Y286500D01*
X255800D01*
X284800Y257500D01*
Y255700D01*
X299400Y241100D01*
X317400D01*
G01X127000Y377100D02*
Y361400D01*
G01X117000Y377100D02*
Y361400D01*
G01X321500Y245000D02*
X321400D01*
X319500Y243100D01*
X300200D01*
X290600Y252700D01*
Y258300D01*
X259000Y289900D01*
X203600D01*
X138100Y355400D01*
X137000D01*
G01X147100D02*
Y350600D01*
G01X147000Y377200D02*
Y361500D01*
X147100Y361400D01*
G01X137000Y376900D02*
Y361400D01*
G01X157000Y355400D02*
X218600Y293800D01*
X260600D01*
X294900Y259500D01*
Y253900D01*
X300000Y248800D01*
X317600D01*
G01X167000Y355400D02*
Y353700D01*
X225000Y295700D01*
X263100D01*
X299870Y258930D01*
Y253770D01*
G01X157000Y376800D02*
Y361400D01*
G01X167000Y377200D02*
Y361400D01*
G01X189100Y19700D02*
Y54000D01*
X189000Y54100D01*
G01X185550Y19850D02*
Y54500D01*
G01X184300Y105300D02*
X190600Y99000D01*
Y55700D01*
X189000Y54100D01*
G01X183191Y100400D02*
X185550Y98041D01*
Y54500D01*
G01X187000Y355400D02*
Y350400D01*
G01X177000Y355400D02*
X231800Y300600D01*
X262300D01*
X288400Y274500D01*
X313300D01*
X319000Y268800D01*
Y251400D01*
X321300Y249100D01*
Y249000D01*
G01X187000Y377000D02*
Y361400D01*
G01X177000Y377100D02*
Y361400D01*
G01X204800Y20300D02*
Y33000D01*
X194100Y43700D01*
G01X201300Y20200D02*
Y33100D01*
X194100Y40300D01*
G01X195582Y30100D02*
Y21766D01*
X194216Y20400D01*
G01X201600Y93045D02*
X194100Y85545D01*
Y43700D01*
G01X204700Y188600D02*
X219100Y203000D01*
X311100D01*
X313300Y205200D01*
Y205300D01*
G01X325300Y248900D02*
Y250600D01*
X324300Y251600D01*
Y252061D01*
X324200Y252161D01*
Y253239D01*
X324300Y253339D01*
Y267600D01*
X312200Y279700D01*
X291800D01*
X266900Y304600D01*
X241300D01*
X197000Y348900D01*
Y355400D01*
G01X207000D02*
Y347600D01*
X244700Y309900D01*
X271600D01*
X298500Y283000D01*
X304300D01*
G01X197000Y377100D02*
Y361400D01*
G01X207000Y377200D02*
Y361400D01*
G01X217000Y355400D02*
X218500D01*
X258600Y315300D01*
X281800D01*
X325500Y271600D01*
Y252700D01*
G01X217000Y376775D02*
Y361400D01*
G01X246300Y68900D02*
X238300Y76900D01*
Y134400D01*
X274500Y170600D01*
X279300D01*
X298643Y189943D01*
X317669D01*
G01X253950Y179550D02*
X268280Y193880D01*
X321606D01*
G01X237000Y355400D02*
Y352600D01*
X265700Y323900D01*
X282300D01*
X329300Y276900D01*
Y252700D01*
G01X247000Y355100D02*
Y352200D01*
X265400Y333800D01*
X280000D01*
X331300Y282500D01*
Y254700D01*
X333200Y252800D01*
X333300D01*
G01X247000Y377200D02*
Y361100D01*
G01X237000Y377300D02*
Y361400D01*
G01X321606Y186006D02*
X320106Y187506D01*
X315006D01*
X313100Y185600D01*
X297800D01*
X258450Y146250D01*
Y68850D01*
X256400Y66800D01*
G01X304650Y164150D02*
X298700Y158200D01*
Y137800D01*
X261500Y100600D01*
Y82600D01*
G01X265650Y174650D02*
X282700Y191700D01*
X323400D01*
X325543Y193843D01*
Y193880D01*
G01X267000Y355100D02*
X337100Y285000D01*
Y252900D01*
G01X257000Y354800D02*
Y347500D01*
G01Y377200D02*
Y360800D01*
G01X267000Y377200D02*
Y361100D01*
G01X308700Y156000D02*
Y141500D01*
X283850Y116650D01*
Y83150D01*
G01X316500Y150100D02*
Y126400D01*
X296350Y106250D01*
Y83250D01*
G01X283400Y163800D02*
X299500Y179900D01*
X311600D01*
X317669Y185969D01*
Y186006D01*
G01X281900Y218600D02*
X283900D01*
X285700Y216800D01*
G01X302950Y214850D02*
X292800Y225000D01*
G01X285900Y230300D02*
X286100D01*
X287600Y228800D01*
X293400D01*
X305000Y217200D01*
X329500D01*
G01X285900Y230300D02*
X285700Y230100D01*
Y228400D01*
X281900Y224600D01*
G01X314100Y160100D02*
Y163500D01*
X319400Y168800D01*
Y179900D01*
X321569Y182069D01*
X321606D01*
G01X311900Y196400D02*
X316252D01*
X317576Y197724D01*
G01X306400Y204900D02*
X307400D01*
X308900Y206400D01*
G01X317100Y206300D02*
X316800Y206600D01*
X309100D01*
X308900Y206400D01*
G01X302400Y204900D02*
Y206600D01*
G01X317669Y201754D02*
X316315Y200400D01*
X311900D01*
G01X313732Y213565D02*
X313897Y213400D01*
X316000D01*
G01X299900Y212400D02*
X300900Y211400D01*
X327500D01*
X329350Y213250D01*
X329450D01*
G01X298900Y207400D02*
X300000Y208500D01*
X336300D01*
X337200Y209400D01*
G01X315300Y223000D02*
X315900D01*
X317900Y225000D01*
G01X309400Y227204D02*
X311300Y225304D01*
Y223000D01*
G01X311400Y236800D02*
X313500D01*
X313700Y237000D01*
G01X305200Y246300D02*
X308000D01*
X308589Y246889D01*
G01X307400Y236800D02*
X304700D01*
G01X301200Y246300D02*
X300200D01*
X299700Y246800D01*
G01X299400Y272300D02*
X311600D01*
X317400Y266500D01*
Y252800D01*
G01X318800Y161800D02*
X323500Y166500D01*
Y180000D01*
X325543Y182043D01*
Y182069D01*
G01X321700Y160000D02*
X327400Y165700D01*
Y187800D01*
X329480Y189880D01*
Y189943D01*
G01X337354D02*
Y187754D01*
X333945Y184345D01*
Y170845D01*
X329500Y166400D01*
Y163000D01*
X325800Y159300D01*
Y152700D01*
G01X370100Y105600D02*
X372800Y108300D01*
Y145100D01*
X362800Y155100D01*
X351100D01*
X336900Y169300D01*
Y175100D01*
X335800Y176200D01*
Y183800D01*
X337600Y185600D01*
G01X331900Y183000D02*
Y183586D01*
X329480Y186006D01*
G01X331600Y188100D02*
X331574D01*
X329480Y186006D01*
G01X331600Y192100D02*
X331637D01*
X333417Y193880D01*
G01X339800Y180000D02*
X339423D01*
X337354Y182069D01*
G01X331900Y179000D02*
Y174192D01*
X331308Y173600D01*
G01X323700Y200300D02*
Y199660D01*
X325543Y197817D01*
G01X333900Y202600D02*
X336508D01*
X337354Y201754D01*
G01X320000Y213400D02*
X325400D01*
X325500Y213500D01*
G01X321100Y206300D02*
Y205185D01*
X317669Y201754D01*
G01X319700Y200300D02*
X319123D01*
X317669Y201754D01*
G01X334600Y211200D02*
X334989D01*
X337354Y213565D01*
G01X329480Y205691D02*
X329900Y205271D01*
Y202600D01*
G01X334600Y215200D02*
Y216000D01*
X333200Y217400D01*
G01X331600Y223100D02*
X331200D01*
X329400Y221300D01*
G01X324700Y235100D02*
X323737D01*
X321606Y232969D01*
G01X335500Y227100D02*
X335349D01*
X333417Y229032D01*
G01X338200Y231200D02*
Y232123D01*
X337354Y232969D01*
G01X325400Y221301D02*
X326400Y222301D01*
Y226700D01*
G01X321606Y232969D02*
X323075Y231500D01*
X327100D01*
G01X335600Y223100D02*
Y222912D01*
X337354Y221158D01*
G01X331100Y231500D02*
X331948D01*
X333417Y232969D01*
G01X330400Y226700D02*
X331812D01*
X333417Y225095D01*
G01X321300Y255300D02*
Y252800D01*
X321500Y252600D01*
G01X328700Y235100D02*
Y236100D01*
X329500Y236900D01*
G01X327900Y239400D02*
Y238500D01*
X329500Y236900D01*
G01X327900Y239400D02*
X327100D01*
X325500Y241000D01*
G01X332900Y235100D02*
Y236389D01*
X333417Y236906D01*
G01X334800Y243000D02*
Y243300D01*
X333200Y244900D01*
G01X331900Y239400D02*
Y239700D01*
X333300Y241100D01*
G01X336900Y235100D02*
Y236452D01*
X337354Y236906D01*
G01X334200Y259100D02*
Y257700D01*
X333200Y256700D01*
G01X322800Y265000D02*
Y261000D01*
X321300Y259500D01*
Y259300D01*
G01X333300Y266300D02*
X334200Y265400D01*
Y263100D01*
G01X337600Y353600D02*
Y346900D01*
X337400Y346700D01*
G01X337600Y359600D02*
Y376000D01*
X338000Y376400D01*
G01X376500Y145400D02*
X363200Y158700D01*
X350700D01*
X348000Y161400D01*
G01X339182Y173382D02*
X350164Y162400D01*
X364900D01*
G01X425500Y135800D02*
X425300Y136000D01*
X412600D01*
X380900Y167700D01*
X352200D01*
X347000Y172900D01*
Y211300D01*
X345000Y213300D01*
G01X344400Y188000D02*
X343234D01*
X341291Y189943D01*
G01X352900Y185300D02*
X353800Y184400D01*
Y182000D01*
G01X352900Y189800D02*
X354100Y188600D01*
X355900D01*
G01X341000Y185800D02*
X342800Y184000D01*
X344400D01*
G01X343800Y180000D02*
Y179560D01*
X345228Y178132D01*
G01X355900Y192600D02*
X354400D01*
X353100Y193900D01*
G01X357800Y182000D02*
X360626D01*
X360695Y182069D01*
G01X350900Y202800D02*
Y203956D01*
X349165Y205691D01*
G01X343600Y206400D02*
X342500D01*
X341300Y205200D01*
G01X354900Y202800D02*
Y203700D01*
X353100Y205500D01*
G01X351900Y207400D02*
Y206700D01*
X353100Y205500D01*
G01X356700Y211500D02*
Y209300D01*
G01X349200Y215500D02*
Y213600D01*
X349165Y213565D01*
G01X351900Y211400D02*
X351330D01*
X349165Y213565D01*
G01X343600Y210400D02*
Y211256D01*
X341291Y213565D01*
G01X350500Y223100D02*
Y223800D01*
X349100Y225200D01*
G01X356400Y234900D02*
Y233327D01*
X356758Y232969D01*
G01X355700Y231000D02*
Y231911D01*
X356758Y232969D01*
G01X349200Y218500D02*
Y221123D01*
X349165Y221158D01*
G01X354800Y227200D02*
X355100D01*
X357000Y229100D01*
G01X358800Y223100D02*
Y223053D01*
X360695Y221158D01*
G01X341291D02*
Y219310D01*
X345101Y215500D01*
X345200D01*
G01X356000Y217500D02*
Y217100D01*
X359535Y213565D01*
X360695D01*
G01X358800Y227200D02*
X359100D01*
X360900Y225400D01*
G01X351700Y231000D02*
X351134D01*
X349165Y232969D01*
G01X342200Y231200D02*
Y232060D01*
X341291Y232969D01*
G01X339500Y227100D02*
Y226886D01*
X341291Y225095D01*
G01X354500Y223100D02*
X354816D01*
X356758Y221158D01*
G01X345200Y218500D02*
Y221130D01*
X345228Y221158D01*
G01X338800Y243000D02*
X339200D01*
X341200Y245000D01*
G01X354700Y250800D02*
X354800Y250900D01*
Y252539D01*
X356758Y254497D01*
Y256591D01*
G01X343500Y234900D02*
X343297D01*
X341291Y236906D01*
G01X358900Y238800D02*
Y238701D01*
X360695Y236906D01*
G01X345228Y240843D02*
X344200Y241871D01*
Y245400D01*
G01X341291Y252654D02*
X340700Y253245D01*
Y257600D01*
G01X358700Y250800D02*
X362800D01*
X364600Y252600D01*
G01X348200Y245400D02*
X349600D01*
X352800Y248600D01*
G01X348900Y252700D02*
X349000D01*
X351000Y254700D01*
Y289671D01*
X354700Y293371D01*
Y308700D01*
X393000Y347000D01*
Y349900D01*
G01X344800Y248600D02*
X347000Y250800D01*
Y258800D01*
X348700Y260500D01*
Y264800D01*
X347500Y266000D01*
Y307400D01*
X383000Y342900D01*
Y349300D01*
G01X352900Y252800D02*
X354900Y254800D01*
Y286000D01*
X413000Y344100D01*
Y349700D01*
G01X347500Y234900D02*
X347234D01*
X345228Y236906D01*
G01X340700Y261300D02*
Y262000D01*
X339000Y263700D01*
G01X344700Y261300D02*
X347012D01*
X347056Y261344D01*
G01X344700Y257600D02*
Y257919D01*
X347056Y260274D01*
Y261344D01*
G01X353000Y256700D02*
Y288500D01*
X357600Y293100D01*
Y307900D01*
X398000Y348300D01*
Y353600D01*
G01X349500Y291000D02*
X350800Y292300D01*
Y307500D01*
X388000Y344700D01*
Y353600D01*
G01X344900Y292500D02*
Y307792D01*
X378000Y340892D01*
Y353600D01*
G01X343100D02*
Y347000D01*
X343400Y346700D01*
G01X358000Y376500D02*
Y359700D01*
X357900Y359600D01*
G01X343000Y376400D02*
Y359700D01*
X343100Y359600D01*
G01X364100Y105600D02*
X360800D01*
G01X373300Y103100D02*
X370800Y105600D01*
X370100D01*
G01X376500Y151400D02*
Y151500D01*
X379600Y154600D01*
G01X376900Y141700D02*
Y145000D01*
X376500Y145400D01*
G01X374615Y173115D02*
X375300Y173800D01*
Y176100D01*
G01X378000Y191000D02*
Y192323D01*
X376443Y193880D01*
G01X367200Y188500D02*
X366075D01*
X364632Y189943D01*
G01X371300Y176100D02*
X370601D01*
X368569Y178132D01*
G01X371200Y188500D02*
Y187312D01*
X372506Y186006D01*
G01X377100Y215400D02*
Y214100D01*
X376500Y213500D01*
G01X378600Y203300D02*
Y203600D01*
X380700Y205700D01*
G01X370700Y211300D02*
Y211759D01*
X372506Y213565D01*
G01X378600Y199300D02*
X378500D01*
X376800Y197600D01*
G01X360000Y199700D02*
Y201059D01*
X360695Y201754D01*
G01X372506Y213565D02*
X372600Y213659D01*
Y215600D01*
G01X368600D02*
Y213596D01*
X368569Y213565D01*
G01X360700Y211500D02*
Y213560D01*
X360695Y213565D01*
G01X364000Y199700D02*
Y198900D01*
X365000Y197900D01*
G01X366700Y211300D02*
X366500D01*
X364700Y209500D01*
G01X373300Y231200D02*
Y232175D01*
X372506Y232969D01*
G01X372600Y218900D02*
Y221200D01*
G01X377600Y223300D02*
Y222315D01*
X376443Y221158D01*
G01X366300Y234900D02*
Y234637D01*
X364632Y232969D01*
G01X363500Y226900D02*
Y226227D01*
X364632Y225095D01*
G01X368600Y218900D02*
X364400D01*
X363000Y217500D01*
G01D02*
X361000D01*
G01X377300Y231200D02*
Y229900D01*
X376900Y229500D01*
G01X377500Y226900D02*
Y228900D01*
X376900Y229500D01*
G01X377700Y234100D02*
Y235700D01*
X376500Y236900D01*
G01X360400Y234900D02*
Y233264D01*
X360695Y232969D01*
G01X367500Y226900D02*
Y226164D01*
X368569Y225095D01*
G01X362800Y223100D02*
Y222990D01*
X364632Y221158D01*
G01X361500Y242600D02*
Y243975D01*
X360695Y244780D01*
G01X370400Y238800D02*
Y238737D01*
X368569Y236906D01*
G01X365500Y242600D02*
X367100D01*
X368700Y241000D01*
G01X427900Y353600D02*
Y343800D01*
X362800Y278700D01*
Y254700D01*
X360800Y252700D01*
G01X372500D02*
X372600D01*
X374700Y254800D01*
Y272900D01*
X438300Y336500D01*
X459700D01*
X473000Y349800D01*
Y353600D01*
G01X374400Y238800D02*
X374600D01*
X376500Y236900D01*
G01X362900Y238800D02*
Y238638D01*
X364632Y236906D01*
G01X370300Y234900D02*
X374500D01*
X376500Y236900D01*
G01X360700Y256600D02*
Y286400D01*
X418000Y343700D01*
Y353600D01*
G01X359700Y295000D02*
Y296500D01*
X408000Y344800D01*
Y353600D01*
G01X359600Y302400D02*
Y305900D01*
X403000Y349300D01*
G01X378000Y376800D02*
Y359600D01*
G01X362900Y376600D02*
Y360100D01*
X363400Y359600D01*
G01X396900Y37800D02*
X397200Y38100D01*
Y100800D01*
X392600Y105400D01*
G01X392700Y127800D02*
Y120500D01*
X392600Y120400D01*
G01X392700Y133800D02*
Y134700D01*
X390000Y137400D01*
G01X384600Y185700D02*
Y175700D01*
X391500Y168800D01*
X395700D01*
X429700Y134800D01*
Y116700D01*
G01X388600Y181300D02*
Y178478D01*
X388254Y178132D01*
G01X382000Y191000D02*
X383260D01*
X384317Y189943D01*
G01X392191Y186006D02*
X391485Y185300D01*
X388600D01*
G01X430900Y152800D02*
X424900D01*
X397800Y179900D01*
G01X390900Y195400D02*
X396584D01*
X396892Y195708D01*
G01X390800Y207500D02*
Y207100D01*
X392400Y205500D01*
G01X381100Y215400D02*
Y214100D01*
X380500Y213500D01*
G01X386800Y207500D02*
X386445D01*
X384317Y209628D01*
G01X386900Y195400D02*
Y196463D01*
X388254Y197817D01*
G01X381500Y226900D02*
Y227912D01*
X380380Y229032D01*
G01X390100Y222800D02*
Y223249D01*
X388254Y225095D01*
G01X381700Y234100D02*
X383186D01*
X384317Y232969D01*
G01X394100Y230300D02*
Y231100D01*
X392000Y233200D01*
G01X390100Y230300D02*
Y231100D01*
X388300Y232900D01*
G01X381600Y223300D02*
X382500D01*
X384400Y225200D01*
G01X386100Y222800D02*
Y223500D01*
X384400Y225200D01*
G01X399300Y229200D02*
Y225500D01*
X399700Y225100D01*
G01X399900Y214400D02*
Y219400D01*
G01X386200Y246800D02*
Y246834D01*
X384317Y248717D01*
G01X386700Y242600D02*
Y242397D01*
X388254Y240843D01*
G01X396128Y244780D02*
X395400Y244052D01*
Y242100D01*
G01X396128Y236906D02*
X395934Y237100D01*
X390200D01*
G01X391400Y242100D02*
X391200D01*
X388500Y244800D01*
G01X498000Y346500D02*
X469300Y317800D01*
X434100D01*
X382600Y266300D01*
Y254600D01*
X380600Y252600D01*
X380400D01*
G01X382700Y242600D02*
X382000D01*
X380700Y241300D01*
G01X382200Y246800D02*
Y243100D01*
X382700Y242600D01*
G01X386200Y237100D02*
X384400D01*
G01X393700Y259600D02*
Y259019D01*
X396128Y256591D01*
G01X389700Y259600D02*
X388100D01*
X386426Y261274D01*
G01X493000Y353600D02*
Y347800D01*
X471600Y326400D01*
X437100D01*
X380600Y269900D01*
Y256700D01*
G01X384400D02*
Y263400D01*
X429300Y308300D01*
X468100D01*
X503000Y343200D01*
Y353600D01*
G01X383400Y305300D02*
X423000Y344900D01*
Y349900D01*
G01X388000Y359600D02*
Y376600D01*
G01X398000D02*
Y359600D01*
G01X414600Y110400D02*
X423500D01*
X423700Y110600D01*
G01X405500Y127300D02*
Y129100D01*
X406600Y130200D01*
G01X400400Y181700D02*
X419100Y163000D01*
X425500D01*
G01X415400Y205000D02*
X435800Y184600D01*
X442000D01*
X471700Y154900D01*
X498800D01*
X501700Y157800D01*
G01X427046Y205554D02*
X420100Y212500D01*
Y236046D01*
X418946Y237200D01*
G01X406100Y220300D02*
X403100D01*
G01X405900Y214400D02*
X408200D01*
G01X405000Y225100D02*
X405300Y225400D01*
Y229200D01*
G01X415400Y220800D02*
X412600D01*
X412100Y220300D01*
G01X408100Y246000D02*
Y243000D01*
X408000Y242900D01*
G01X402000D02*
Y245500D01*
G01X411900Y263400D02*
X414600D01*
G01X411800Y257300D02*
X413100D01*
X415100Y259300D01*
G01X405900Y263400D02*
X402500D01*
G01X405800Y257300D02*
X401800D01*
G01X418000Y376600D02*
Y359600D01*
G01X408000Y376500D02*
Y359600D01*
G01X429700Y104700D02*
X434100D01*
G01X429700Y116700D02*
Y110600D01*
G01X423700Y104700D02*
Y110600D01*
G01X430754Y205554D02*
X421300Y215007D01*
Y235846D01*
X422654Y237200D01*
G01X437300Y214300D02*
X440600D01*
G01X427700D02*
X431300D01*
G01X438000Y376300D02*
Y360100D01*
X437500Y359600D01*
G01X427900D02*
Y376500D01*
G01X553300Y311900D02*
Y309944D01*
X465656Y222300D01*
X459300D01*
G01X458000Y376600D02*
Y360000D01*
X458400Y359600D01*
G01X453000Y376500D02*
Y360200D01*
X452400Y359600D01*
G01X443000Y376400D02*
Y359600D01*
G01X474300Y258600D02*
Y268200D01*
G01X473000Y364400D02*
Y359600D01*
G01X483000Y365500D02*
Y359700D01*
X482900Y359600D01*
G01X503000Y365300D02*
Y359600D01*
G01X493000Y365400D02*
Y359600D01*
G01X513000Y365200D02*
Y359700D01*
X513100Y359600D01*
G01X523000Y365300D02*
Y359700D01*
X522900Y359600D01*
G01X559300Y311900D02*
X569000D01*
X569200Y311700D01*
G01X584200Y79700D02*
X574000D01*
X573800Y79900D01*
G01X588400Y125100D02*
X573800D01*
G01X584400Y211200D02*
X573900D01*
X573800Y211300D01*
G01X584200Y252400D02*
X573800D01*
G01X584500Y311700D02*
X588100D01*
G01X578500D02*
X569200D01*
G01X590200Y79700D02*
X593200D01*
G01X590400Y211200D02*
X593900D01*
G01X590200Y252400D02*
X594200D01*
G54D42*
X484200Y45200D03*
Y84500D03*
Y121900D03*
Y161300D03*
X506600Y121900D03*
X518000Y44800D03*
X527800Y121900D03*
X540300Y64800D03*
Y104200D03*
Y141600D03*
Y181000D03*
G54D24*
X109600Y187400D03*
X96600D03*
X94700Y206200D03*
X107700D03*
G54D33*
X316000Y213400D03*
X306400Y204900D03*
X302400D03*
X317100Y206300D03*
X315300Y223000D03*
X311300D03*
X305200Y246300D03*
X301200D03*
X311400Y236800D03*
X307400D03*
X320000Y213400D03*
X323700Y200300D03*
X319700D03*
X321100Y206300D03*
X333900Y202600D03*
X329900D03*
X336900Y235100D03*
X332900D03*
X335500Y227100D03*
X335600Y223100D03*
X331600D03*
X338200Y231200D03*
X331100Y231500D03*
X327100D03*
X330400Y226700D03*
X326400D03*
X328700Y235100D03*
X324700D03*
X338800Y243000D03*
X334800D03*
X327900Y239400D03*
X331900D03*
X357800Y182000D03*
X353800D03*
X343800Y180000D03*
X339800D03*
X356700Y211500D03*
X360000Y199700D03*
X350900Y202800D03*
X354900D03*
X356400Y234900D03*
X347500D03*
X343500D03*
X339500Y227100D03*
X345200Y218500D03*
X349200D03*
X351700Y231000D03*
X355700D03*
X358800Y223100D03*
X349200Y215500D03*
X345200D03*
X342200Y231200D03*
X354500Y223100D03*
X350500D03*
X358800Y227200D03*
X354800D03*
X358900Y238800D03*
X358700Y250800D03*
X354700D03*
X348200Y245400D03*
X344200D03*
X344700Y261300D03*
X340700D03*
X344700Y257600D03*
X340700D03*
X371200Y188500D03*
X367200D03*
X378000Y191000D03*
X375300Y176100D03*
X371300D03*
X360700Y211500D03*
X366700Y211300D03*
X370700D03*
X364000Y199700D03*
X377700Y234100D03*
X377500Y226900D03*
X370300Y234900D03*
X366300D03*
X360400D03*
X367500Y226900D03*
X363500D03*
X377600Y223300D03*
X362800Y223100D03*
X368600Y215600D03*
X372600D03*
X368600Y218900D03*
X372600D03*
X377100Y215400D03*
X377300Y231200D03*
X373300D03*
X362900Y238800D03*
X374400D03*
X370400D03*
X365500Y242600D03*
X361500D03*
X382000Y191000D03*
X390800Y207500D03*
X386800D03*
X390900Y195400D03*
X386900D03*
X381700Y234100D03*
X381500Y226900D03*
X381600Y223300D03*
X381100Y215400D03*
X386100Y222800D03*
X390100D03*
Y230300D03*
X394100D03*
X382700Y242600D03*
X386700D03*
X386200Y237100D03*
X390200D03*
X382200Y246800D03*
X386200D03*
X391400Y242100D03*
X395400D03*
X389700Y259600D03*
X393700D03*
X445500Y220900D03*
X449500D03*
G54D15*
X18500Y180900D03*
G54D52*
G01X53800Y52900D02*
Y59400D01*
X55800Y61400D01*
G01X49400Y78800D02*
X55800Y72400D01*
Y67400D01*
G01X120300Y73555D02*
Y19800D01*
G01X122900Y80500D02*
Y20000D01*
G01X123100Y90700D02*
X132400Y81400D01*
Y21700D01*
X135600Y18500D01*
G01X122400Y95700D02*
X134600Y83500D01*
Y23000D01*
X139100Y18500D01*
G01X232800Y55600D02*
X228900D01*
G01X243900Y31500D02*
Y30200D01*
X238500Y24800D01*
G01X242200Y45000D02*
X246200Y41000D01*
X256649D01*
G01X246350Y60150D02*
Y62850D01*
X246300Y62900D01*
G01X251350Y94100D02*
Y95650D01*
X250500Y96500D01*
G01X252300Y106200D02*
X250500Y104400D01*
Y102500D01*
G01X262600Y33900D02*
Y28900D01*
X258500Y24800D01*
G01X256649Y41000D02*
X258850Y43201D01*
Y46350D01*
G01X256649Y41000D02*
X265700D01*
X268850Y44150D01*
Y44250D01*
G01X256400Y60800D02*
Y55400D01*
G01X268800Y58900D02*
Y55500D01*
G01X258850Y56450D02*
X261400Y59000D01*
X262200D01*
G01X282700Y42800D02*
X282400D01*
X278850Y46350D01*
G01X297300Y45100D02*
X288900Y53500D01*
Y56300D01*
G01X293800Y59800D02*
Y55600D01*
X293850Y55550D01*
G01X286350Y58750D02*
Y61550D01*
X286400Y61600D01*
G01X303000Y40500D02*
X301500Y39000D01*
Y36156D01*
X303056Y34600D01*
G01X299094Y40500D02*
X300100Y39494D01*
Y35550D01*
X299150Y34600D01*
G01X339200Y84900D02*
Y88400D01*
G01X344975Y96000D02*
Y85125D01*
X345200Y84900D01*
G01D02*
Y75300D01*
X345100Y75200D01*
G01X339200Y153000D02*
Y149600D01*
X339300Y149500D01*
G01X340100Y132070D02*
Y142700D01*
X339300Y143500D01*
G01X360100Y132070D02*
X362430D01*
X368900Y125600D01*
G01X362000Y142000D02*
X365000D01*
G01X362000Y148000D02*
X365500D01*
G01X399100Y235500D02*
X397534D01*
X396128Y236906D01*
G01X405100Y235500D02*
X406900D01*
X407900Y236500D01*
G01X448000Y212700D02*
X449800D01*
G01D02*
X450500Y213400D01*
G01X445500Y220900D02*
Y217400D01*
X445200Y217100D01*
G01X448000Y216700D02*
X445600D01*
X445200Y217100D01*
G01X449500Y220900D02*
Y223600D01*
G01X482900Y353600D02*
Y349300D01*
G01X502100Y132900D02*
Y130100D01*
G01Y138900D02*
Y141700D01*
G01X501800Y150300D02*
Y152700D01*
X505100Y156000D01*
G01X501700Y163800D02*
X504200Y166300D01*
Y166582D01*
G01X501700Y157800D02*
X503300D01*
X505100Y156000D01*
G01X488900Y176600D02*
Y169300D01*
X493400Y164800D01*
G01X520800Y132900D02*
Y130300D01*
G01X514500Y132900D02*
Y130100D01*
G01X508200Y132900D02*
Y130000D01*
G01X507800Y150300D02*
Y155800D01*
G01X508200Y138900D02*
Y141900D01*
G01X520800Y138900D02*
Y141800D01*
G01X514500Y138900D02*
Y141800D01*
G01X517600Y157800D02*
Y161300D01*
G01X511600Y157800D02*
Y154700D01*
G01Y157800D02*
X508700D01*
X507600Y158900D01*
G01X519400Y190900D02*
Y181825D01*
X518575Y181000D01*
G01X519800Y198300D02*
X510000D01*
G01X522900Y353600D02*
Y350400D01*
G01X513100Y353600D02*
Y349600D01*
G01X542500Y127400D02*
X544900D01*
G01X536500Y121700D02*
Y127400D01*
G01D02*
X534200D01*
G01X548100Y121700D02*
X542500D01*
G01X530100Y151700D02*
Y148100D01*
G01X544600Y164500D02*
X547800D01*
G01X538600D02*
Y160600D01*
X536900Y158900D01*
G01X534200Y159000D02*
X536800D01*
X536900Y158900D01*
G01X542900D02*
X548400D01*
G01X530100Y157700D02*
Y163700D01*
X531200Y164800D01*
G01X531800Y204200D02*
X534400D01*
G01X554100Y121700D02*
Y124700D01*
G01X554400Y158900D02*
Y162300D01*
G01X585900Y168800D02*
X573900D01*
X573800Y168900D01*
G01X594400Y125100D02*
Y128500D01*
G01X591900Y168800D02*
X594500D01*
G54D25*
X118400Y284000D03*
Y308800D03*
X143000Y294800D03*
X167800D03*
G54D43*
X493400Y164800D03*
X531200D03*
G54D16*
G01X30600Y149700D02*
X18500D01*
G01X31400Y180900D02*
X18500D01*
G01X36600Y149700D02*
X44500D01*
G01X355700Y143100D02*
Y136470D01*
X360100Y132070D01*
X30100Y222000D03*
X78400Y174900D03*
X81800Y214100D03*
X222600Y46400D03*
X484200Y133000D03*
Y151500D03*
Y171100D03*
X493400Y189300D03*
X512300D03*
X540300Y133000D03*
Y151500D03*
Y171100D03*
X531200Y189300D03*
G54D34*
X311900Y196400D03*
Y200400D03*
X331900Y183000D03*
Y179000D03*
X331600Y188100D03*
Y192100D03*
X334600Y215200D03*
Y211200D03*
X321300Y255300D03*
X334200Y259100D03*
Y263100D03*
X321300Y259300D03*
X355900Y192600D03*
Y188600D03*
X344400Y188000D03*
Y184000D03*
X343600Y210400D03*
Y206400D03*
X351900Y211400D03*
Y207400D03*
X378600Y203300D03*
Y199300D03*
X388600Y181300D03*
Y185300D03*
X448000Y212700D03*
Y216700D03*
G54D53*
G01X11200Y248000D02*
X7000D01*
G01X11200Y242000D02*
Y238900D01*
G01X11300Y283100D02*
Y289700D01*
G01X37400Y180900D02*
X41300D01*
G01X44200Y316300D02*
X40600D01*
G01X94700Y206200D02*
X87200D01*
G01X108800Y85900D02*
X105200D01*
G01X114800D02*
Y83300D01*
G01Y85900D02*
Y88400D01*
G01Y85900D02*
X118400D01*
G01X231200Y46400D02*
X222600D01*
G01X232800Y37000D02*
X226900D01*
G01X232800D02*
Y33600D01*
G01X242200Y45000D02*
Y40400D01*
X238800Y37000D01*
G01X242200Y46400D02*
Y52200D01*
X238800Y55600D01*
G01X242200Y46400D02*
Y45000D01*
G01X268800Y64900D02*
X272100D01*
G01X262200Y65000D02*
Y67800D01*
G01X288700Y42800D02*
X292000D01*
G01X286400Y67600D02*
Y71000D01*
G01X299000Y79200D02*
X296300D01*
G01X340100Y115530D02*
X346170D01*
G01X349700Y151600D02*
X348300D01*
X346000Y153900D01*
G01X355700Y143100D02*
Y151600D01*
G01X368900Y119600D02*
Y116500D01*
G01X392600Y110400D02*
X388000D01*
G01X399500Y127300D02*
Y131000D01*
G01X392600Y115400D02*
X398700D01*
G01X423700Y116700D02*
Y121100D01*
G01X462700Y268300D02*
X466600D01*
G01X459500Y258600D02*
X463200Y262300D01*
G01X460900Y258600D02*
X465500D01*
G01X460900D02*
X464000Y255500D01*
G01X459500Y258600D02*
X460900D01*
G01X458900D02*
X459500D01*
G01X480300Y268200D02*
X484200D01*
G01X490900Y207600D02*
X487200D01*
G01X518400Y206500D02*
X515700D01*
G01X515150D02*
X512350Y209300D01*
X510000D01*
G01X518400Y212500D02*
X521200D01*
G01X515500Y222500D02*
X511100D01*
G01X515500D02*
X511700Y226300D01*
G01X515900Y222500D02*
X515500D01*
G01X515900D02*
X511500Y218100D01*
G01X515975Y222500D02*
X515900D01*
G01X528600Y193000D02*
X526500Y190900D01*
X525400D01*
G01X525800Y198300D02*
X529200D01*
G54D26*
X175600Y184800D03*
Y194800D03*
Y204800D03*
Y214800D03*
Y224800D03*
Y234800D03*
X185600Y184800D03*
Y194800D03*
Y204800D03*
Y214800D03*
Y224800D03*
Y234800D03*
Y244800D03*
G54D35*
X325100Y75200D03*
X345100D03*
X396900Y37800D03*
X416900D03*
X453700Y118200D03*
Y138200D03*
G54D44*
X522400Y168000D03*
X511400D03*
G54D17*
X11200Y248000D03*
Y242000D03*
X42200Y235500D03*
Y229500D03*
X31700Y308700D03*
Y302700D03*
X44200Y316300D03*
Y310300D03*
X55800Y67400D03*
Y61400D03*
X51600Y311700D03*
Y317700D03*
X78300Y111000D03*
Y117000D03*
X91300Y231500D03*
Y237500D03*
X77000Y355400D03*
X87100D03*
X77000Y361400D03*
X87100D03*
X101300Y160300D03*
Y154300D03*
X97000Y355400D03*
X107000D03*
X97000Y361400D03*
X107000D03*
X117000Y355400D03*
X127000D03*
X117000Y361400D03*
X127000D03*
X137000Y355400D03*
X147100D03*
X137000Y361400D03*
X147100D03*
X157000Y355400D03*
X167000D03*
X157000Y361400D03*
X167000D03*
X177000Y355400D03*
X187000D03*
X177000Y361400D03*
X187000D03*
X197000Y355400D03*
X207000D03*
X197000Y361400D03*
X207000D03*
X217000Y355400D03*
Y361400D03*
X227000Y380400D03*
Y386400D03*
X246300Y62900D03*
Y68900D03*
X256400Y66800D03*
Y60800D03*
X250500Y96500D03*
Y102500D03*
X237000Y355400D03*
X247000Y355100D03*
X257000Y354800D03*
X237000Y361400D03*
X247000Y361100D03*
X257000Y360800D03*
X268800Y58900D03*
Y64900D03*
X262200Y59000D03*
Y65000D03*
X267000Y355100D03*
Y361100D03*
X286400Y61600D03*
Y67600D03*
X293800Y59800D03*
Y65800D03*
X278900Y80800D03*
Y74800D03*
X281900Y218600D03*
Y224600D03*
X299000Y79200D03*
Y73200D03*
X339300Y149500D03*
Y143500D03*
X336900Y339800D03*
Y333800D03*
X337600Y359600D03*
Y353600D03*
X343600Y333800D03*
Y339800D03*
X357100Y334000D03*
X343100Y359600D03*
Y353600D03*
X357900Y359600D03*
Y353600D03*
X357100Y340000D03*
X368900Y125600D03*
Y119600D03*
X376500Y151400D03*
Y145400D03*
X362000Y142000D03*
Y148000D03*
X363900Y334000D03*
X363400Y359600D03*
Y353600D03*
X378000Y359600D03*
Y353600D03*
X363900Y340000D03*
X392700Y127800D03*
X384300Y119100D03*
Y113100D03*
X392700Y133800D03*
X388000Y359600D03*
Y353600D03*
X398000Y359600D03*
Y353600D03*
X408000Y359600D03*
Y353600D03*
X418000Y359600D03*
Y353600D03*
X430100Y247000D03*
Y241000D03*
X427900Y359600D03*
Y353600D03*
X437500Y359600D03*
Y353600D03*
X443000Y359600D03*
Y353600D03*
X447900Y246300D03*
Y240300D03*
X458400Y359600D03*
Y353600D03*
X452400Y359600D03*
Y353600D03*
X473000D03*
Y359600D03*
X482900Y353600D03*
Y359600D03*
X502100Y132900D03*
Y138900D03*
X501700Y163800D03*
Y157800D03*
X488900Y182600D03*
Y176600D03*
X493000Y353600D03*
Y359600D03*
X503000Y353600D03*
Y359600D03*
X514500Y132900D03*
X520800D03*
X508200D03*
X514500Y138900D03*
X520800D03*
X508200D03*
X518400Y212500D03*
Y206500D03*
X513100Y353600D03*
Y359600D03*
X522900Y353600D03*
Y359600D03*
X530100Y151700D03*
Y157700D03*
G54D54*
G01X215400Y83600D02*
X211800D01*
G01X213100Y86800D02*
X215400Y84500D01*
Y83600D01*
G01X212900Y79900D02*
X215400Y82400D01*
Y83600D01*
G54D27*
X175600Y244800D03*
G54D18*
X18600Y319000D03*
X50200Y65700D03*
X48550Y223750D03*
X34300Y217500D03*
X42260Y219760D03*
X33800Y248400D03*
X40840Y302840D03*
X40680Y310520D03*
X41800Y328900D03*
X39700Y340000D03*
X53600Y232915D03*
X53220Y227880D03*
X51600Y321000D03*
X75260Y102060D03*
X89660Y222340D03*
X85700Y248900D03*
X99400Y146800D03*
X94100Y156200D03*
Y164000D03*
X96800Y160100D03*
X92300Y179300D03*
X107700Y197200D03*
X101560Y233240D03*
X522400Y172500D03*
X511400Y172800D03*
X506500Y191600D03*
G54D45*
X510000Y209300D03*
Y198300D03*
G54D36*
X340100Y132070D03*
Y115530D03*
X360100Y132070D03*
Y115530D03*
G54D55*
G01X3300Y20000D02*
X20000D01*
G01X6100Y270100D02*
X11300D01*
G01X6100Y283100D02*
X11300D01*
G01X3300Y380000D02*
X20000D01*
G01Y3300D02*
Y20000D01*
G01D02*
Y36700D01*
G01Y20000D02*
X36700D01*
G01X18500Y127900D02*
Y134100D01*
G01D02*
Y140300D01*
G01X12300Y134100D02*
X18500D01*
G01D02*
X24700D01*
G01X18500Y159100D02*
Y165300D01*
G01D02*
Y171500D01*
G01Y165300D02*
X24700D01*
G01X11200Y248000D02*
Y250300D01*
G01Y248000D02*
X13650D01*
G01X8750Y242000D02*
X11200D01*
G01D02*
X13650D01*
G01X11300Y265400D02*
Y270100D01*
G01D02*
X16500D01*
G01X11300Y283100D02*
X16500D01*
G01X20000Y363300D02*
Y380000D01*
G01D02*
Y396700D01*
G01Y380000D02*
X36700D01*
G01X36600Y147250D02*
Y149700D01*
G01D02*
Y152150D01*
G01X37400Y178450D02*
Y180900D01*
G01D02*
Y183350D01*
G01X49150Y311700D02*
X51600D01*
G01X44200Y316300D02*
Y318600D01*
G01Y316300D02*
X46650D01*
G01X51600Y309400D02*
Y311700D01*
G01D02*
X54050D01*
G01X61281Y303676D02*
X63731D01*
G01D02*
X66181D01*
G01X68300Y377429D02*
Y381674D01*
G01D02*
X72545D01*
G01X108800Y83450D02*
Y85900D01*
G01D02*
Y88350D01*
G01X109600Y182200D02*
Y187400D01*
G01D02*
Y192600D01*
G01X104900Y187400D02*
X109600D01*
G01D02*
X114300D01*
G01X94700Y201000D02*
Y206200D01*
G01D02*
Y211400D01*
G01Y206200D02*
X99400D01*
G01X126241Y293676D02*
X128691D01*
G01D02*
X131141D01*
G01X118400Y305147D02*
Y308800D01*
G01D02*
Y312453D01*
G01X114747Y308800D02*
X118400D01*
G01D02*
X122053D01*
G01X126241Y308676D02*
X128691D01*
G01D02*
X131141D01*
G01X126241Y323676D02*
X128691D01*
G01D02*
X131141D01*
G01X169300Y68950D02*
Y71400D01*
G01D02*
Y73850D01*
G01Y71400D02*
X171600D01*
G01X163300D02*
Y73850D01*
G01X161000Y71400D02*
X163300D01*
G01X172150Y184800D02*
X175600D01*
G01X172150Y214800D02*
X175600D01*
G01X172150Y204800D02*
X175600D01*
G01X172150Y194800D02*
X175600D01*
G01X172150Y234800D02*
X175600D01*
G01X172150Y224800D02*
X175600D01*
G01X172150Y244800D02*
X175600D01*
G01Y191350D02*
Y194800D01*
G01Y181350D02*
Y184800D01*
G01D02*
Y188250D01*
G01Y184800D02*
X179050D01*
G01X175600Y211350D02*
Y214800D01*
G01D02*
Y218250D01*
G01Y214800D02*
X179050D01*
G01X175600Y201350D02*
Y204800D01*
G01D02*
Y208250D01*
G01Y204800D02*
X179050D01*
G01X175600Y194800D02*
Y198250D01*
G01Y194800D02*
X179050D01*
G01X175600Y231350D02*
Y234800D01*
G01D02*
Y238250D01*
G01Y234800D02*
X179050D01*
G01X175600Y221350D02*
Y224800D01*
G01D02*
Y228250D01*
G01Y224800D02*
X179050D01*
G01X175600Y241350D02*
Y244800D01*
G01D02*
Y248250D01*
G01Y244800D02*
X179050D01*
G01X213400Y242400D02*
Y246100D01*
G01D02*
Y249800D01*
G01X209700Y246100D02*
X213400D01*
G01D02*
X217100D01*
G01X221400Y81150D02*
Y83600D01*
G01D02*
Y86050D01*
G01Y83600D02*
X223700D01*
G01X249900Y29050D02*
Y31500D01*
G01D02*
Y33950D01*
G01Y31500D02*
X252200D01*
G01X248050Y102500D02*
X250500D01*
G01D02*
X252950D01*
G01X268600Y31450D02*
Y33900D01*
G01D02*
Y36350D01*
G01Y33900D02*
X270900D01*
G01X268800Y64900D02*
Y67200D01*
G01X266350Y64900D02*
X268800D01*
G01X276450Y80800D02*
X278900D01*
G01X276450Y74800D02*
X278900D01*
G01X276455Y381674D02*
X280700D01*
G01X288700Y40350D02*
Y42800D01*
G01D02*
Y45250D01*
G01X293800Y65800D02*
Y68100D01*
G01X291350Y65800D02*
X293800D01*
G01D02*
X296250D01*
G01X283950Y67600D02*
X286400D01*
G01D02*
X288850D01*
G01X278900Y80800D02*
Y83100D01*
G01Y80800D02*
X281350D01*
G01X296550Y73200D02*
X299000D01*
G01X278900Y72500D02*
Y74800D01*
G01D02*
X281350D01*
G01X280700Y377429D02*
Y381674D01*
G01D02*
Y385919D01*
G01Y381674D02*
X284945D01*
G01X299000Y70900D02*
Y73200D01*
G01D02*
X301450D01*
G01X315055Y381674D02*
X319300D01*
G01X325100Y70000D02*
Y75200D01*
G01X330200Y51900D02*
Y55100D01*
G01D02*
Y58300D01*
G01X327000Y55100D02*
X330200D01*
G01D02*
X333400D01*
G01X325100Y75200D02*
Y80400D01*
G01X319900Y75200D02*
X325100D01*
G01D02*
X330300D01*
G01X335900Y115530D02*
X340100D01*
G01X319300Y377429D02*
Y381674D01*
G01D02*
Y385919D01*
G01Y381674D02*
X323545D01*
G01X357000Y35100D02*
X360200D01*
G01X357000Y45100D02*
X360200D01*
G01X357000Y55100D02*
X360200D01*
G01X357825Y91600D02*
Y96000D01*
G01D02*
Y100400D01*
G01X353875Y96000D02*
X357825D01*
G01D02*
X361775D01*
G01X340100Y110830D02*
Y115530D01*
G01D02*
Y120230D01*
G01X348700Y139900D02*
Y143100D01*
G01D02*
Y146300D01*
G01X346000Y143100D02*
X348700D01*
G01X360200Y31900D02*
Y35100D01*
G01D02*
Y38300D01*
G01Y35100D02*
X363400D01*
G01X360200Y41900D02*
Y45100D01*
G01D02*
Y48300D01*
G01Y45100D02*
X363400D01*
G01X372000Y51200D02*
Y54900D01*
G01D02*
Y58600D01*
G01X368300Y54900D02*
X372000D01*
G01D02*
X375700D01*
G01X360200Y51900D02*
Y55100D01*
G01D02*
Y58300D01*
G01Y55100D02*
X363400D01*
G01X384300Y110800D02*
Y113100D01*
G01X381850D02*
X384300D01*
G01D02*
X386750D01*
G01X384300Y119100D02*
Y121400D01*
G01X381850Y119100D02*
X384300D01*
G01D02*
X386750D01*
G01X399500Y124850D02*
Y127300D01*
G01X397200D02*
X399500D01*
G01X453700Y133000D02*
Y138200D01*
G01D02*
Y143400D01*
G01X448500Y138200D02*
X453700D01*
G01D02*
X458900D01*
G01X462700Y265850D02*
Y268300D01*
G01D02*
Y270750D01*
G01X456700Y265850D02*
Y268300D01*
G01D02*
Y270750D01*
G01X454400Y268300D02*
X456700D01*
G01X479500Y45200D02*
X484200D01*
G01X479500Y84500D02*
X484200D01*
G01X479500Y121900D02*
X484200D01*
G01X479500Y161300D02*
X484200D01*
G01X480025Y198800D02*
X483975D01*
G01X474300Y234750D02*
Y238600D01*
G01D02*
Y242450D01*
G01X470650Y238600D02*
X474300D01*
G01D02*
X477950D01*
G01X480300Y265750D02*
Y268200D01*
G01D02*
Y270650D01*
G01X484200Y40500D02*
Y45200D01*
G01D02*
Y49900D01*
G01Y45200D02*
X488900D01*
G01X484200Y79800D02*
Y84500D01*
G01D02*
Y89200D01*
G01Y84500D02*
X488900D01*
G01X501900Y121900D02*
X506600D01*
G01X484200Y117200D02*
Y121900D01*
G01D02*
Y126600D01*
G01Y121900D02*
X488900D01*
G01X496700Y170800D02*
Y173250D01*
G01X494400Y170800D02*
X496700D01*
G01X484200Y161300D02*
Y166000D01*
G01X488900Y182600D02*
Y184900D01*
G01X486450Y182600D02*
X488900D01*
G01D02*
X491350D01*
G01X483975Y194400D02*
Y198800D01*
G01D02*
Y203200D01*
G01Y198800D02*
X487925D01*
G01X490900Y205150D02*
Y207600D01*
G01D02*
Y210050D01*
G01X518000Y40100D02*
Y44800D01*
G01D02*
Y49500D01*
G01X513300Y44800D02*
X518000D01*
G01D02*
X522700D01*
G01X523100Y121900D02*
X527800D01*
G01X506600Y117200D02*
Y121900D01*
G01D02*
Y126600D01*
G01Y121900D02*
X511300D01*
G01X507800Y147850D02*
Y150300D01*
G01D02*
X510100D01*
G01X510000Y209300D02*
Y212750D01*
G01X506050Y209300D02*
X510000D01*
G01X524875Y222500D02*
X528825D01*
G01X540300Y60100D02*
Y64800D01*
G01D02*
Y69500D01*
G01X535600Y64800D02*
X540300D01*
G01D02*
X545000D01*
G01X540300Y99500D02*
Y104200D01*
G01D02*
Y108900D01*
G01X535600Y104200D02*
X540300D01*
G01D02*
X545000D01*
G01X527800Y117200D02*
Y121900D01*
G01D02*
Y126600D01*
G01Y121900D02*
X532500D01*
G01X527650Y151700D02*
X530100D01*
G01D02*
X532550D01*
G01X540300Y136900D02*
Y141600D01*
G01D02*
Y146300D01*
G01X535600Y141600D02*
X540300D01*
G01D02*
X545000D01*
G01X531425Y176600D02*
Y181000D01*
G01D02*
Y185400D01*
G01X527475Y181000D02*
X531425D01*
G01D02*
X535375D01*
G01X540300Y176300D02*
Y181000D01*
G01D02*
Y185700D01*
G01X535600Y181000D02*
X540300D01*
G01D02*
X545000D01*
G01X525400Y188450D02*
Y190900D01*
G01D02*
Y193350D01*
G01X525800Y201750D02*
Y204200D01*
G01D02*
Y206650D01*
G01Y195850D02*
Y198300D01*
G01D02*
Y200750D01*
G01X528825Y218100D02*
Y222500D01*
G01D02*
Y226900D01*
G01Y222500D02*
X532775D01*
G01X531700Y377429D02*
Y381674D01*
G01D02*
Y385919D01*
G01X527455Y381674D02*
X531700D01*
G01D02*
X535945D01*
G01X563300Y20000D02*
X580000D01*
G01X563800Y64200D02*
Y69900D01*
G01D02*
Y75600D01*
G01X558100Y69900D02*
X563800D01*
G01D02*
X569500D01*
G01X563800Y84200D02*
Y89900D01*
G01D02*
Y95600D01*
G01X558100Y89900D02*
X563800D01*
G01D02*
X569500D01*
G01X563800Y109400D02*
Y115100D01*
G01Y129400D02*
Y135100D01*
G01Y115100D02*
Y120800D01*
G01X558100Y115100D02*
X563800D01*
G01D02*
X569500D01*
G01X563800Y135100D02*
Y140800D01*
G01X558100Y135100D02*
X563800D01*
G01D02*
X569500D01*
G01X563800Y153200D02*
Y158900D01*
G01D02*
Y164600D01*
G01Y158900D02*
X569500D01*
G01X563800Y173200D02*
Y178900D01*
G01D02*
Y184600D01*
G01X558100Y178900D02*
X563800D01*
G01D02*
X569500D01*
G01X563800Y195600D02*
Y201300D01*
G01D02*
Y207000D01*
G01X558100Y201300D02*
X563800D01*
G01D02*
X569500D01*
G01X553900Y218425D02*
Y222375D01*
G01X549500D02*
X553900D01*
G01Y231275D02*
Y235225D01*
G01D02*
Y239175D01*
G01X549500Y235225D02*
X553900D01*
G01D02*
X558300D01*
G01X563800Y215600D02*
Y221300D01*
G01D02*
Y227000D01*
G01Y221300D02*
X569500D01*
G01X563800Y236700D02*
Y242400D01*
G01D02*
Y248100D01*
G01X558100Y242400D02*
X563800D01*
G01D02*
X569500D01*
G01X563800Y256700D02*
Y262400D01*
G01D02*
Y268100D01*
G01X558100Y262400D02*
X563800D01*
G01D02*
X569500D01*
G01X559200Y296000D02*
Y301700D01*
G01Y316000D02*
Y321700D01*
G01Y301700D02*
Y307400D01*
G01X553500Y301700D02*
X559200D01*
G01D02*
X564900D01*
G01X559200Y321700D02*
Y327400D01*
G01X553500Y321700D02*
X559200D01*
G01D02*
X564900D01*
G01X563300Y380000D02*
X580000D01*
G01Y3300D02*
Y20000D01*
G01D02*
Y36700D01*
G01X583800Y64200D02*
Y69900D01*
G01D02*
Y75600D01*
G01X578100Y69900D02*
X583800D01*
G01D02*
X589500D01*
G01X583800Y84200D02*
Y89900D01*
G01D02*
Y95600D01*
G01X578100Y89900D02*
X583800D01*
G01D02*
X589500D01*
G01X583800Y109400D02*
Y115100D01*
G01Y129400D02*
Y135100D01*
G01Y115100D02*
Y120800D01*
G01X578100Y115100D02*
X583800D01*
G01D02*
X589500D01*
G01X583800Y135100D02*
Y140800D01*
G01X578100Y135100D02*
X583800D01*
G01D02*
X589500D01*
G01X583800Y173200D02*
Y178900D01*
G01Y153200D02*
Y158900D01*
G01D02*
Y164600D01*
G01X578100Y158900D02*
X583800D01*
G01D02*
X589500D01*
G01X583800Y178900D02*
Y184600D01*
G01X578100Y178900D02*
X583800D01*
G01D02*
X589500D01*
G01X583800Y195600D02*
Y201300D01*
G01D02*
Y207000D01*
G01X578100Y201300D02*
X583800D01*
G01D02*
X589500D01*
G01X583800Y215600D02*
Y221300D01*
G01D02*
Y227000D01*
G01X578100Y221300D02*
X583800D01*
G01D02*
X589500D01*
G01X583800Y236700D02*
Y242400D01*
G01D02*
Y248100D01*
G01X578100Y242400D02*
X583800D01*
G01D02*
X589500D01*
G01X583800Y256700D02*
Y262400D01*
G01D02*
Y268100D01*
G01X578100Y262400D02*
X583800D01*
G01D02*
X589500D01*
G01X579200Y296000D02*
Y301700D01*
G01X584500Y309250D02*
Y311700D01*
G01D02*
Y314150D01*
G01X579200Y316000D02*
Y321700D01*
G01Y301700D02*
Y307400D01*
G01X573500Y301700D02*
X579200D01*
G01D02*
X584900D01*
G01X579200Y321700D02*
Y327400D01*
G01X573500Y321700D02*
X579200D01*
G01D02*
X584900D01*
G01X580000Y363300D02*
Y380000D01*
G01D02*
Y396700D01*
G01X590200Y77250D02*
Y79700D01*
G01D02*
Y82150D01*
G01X591900Y166350D02*
Y168800D01*
G01D02*
Y171250D01*
G01X590400Y208750D02*
Y211200D01*
G01D02*
Y213650D01*
G01X590200Y249950D02*
Y252400D01*
G01D02*
Y254850D01*
G54D28*
X213400Y246100D03*
X248500Y124800D03*
X268700Y125400D03*
X372000Y54900D03*
G54D37*
X360200Y65100D03*
G54D19*
X36600Y149700D03*
X30600D03*
X37400Y180900D03*
X31400D03*
X108800Y85900D03*
X114800D03*
X169300Y71400D03*
X163300D03*
X215400Y83600D03*
X232800Y37000D03*
Y55600D03*
X221400Y83600D03*
X243900Y31500D03*
X249900D03*
X238800Y37000D03*
Y55600D03*
X262600Y33900D03*
X268600D03*
X282700Y42800D03*
X288700D03*
X339200Y84900D03*
X337400Y346700D03*
X345200Y84900D03*
X355700Y151600D03*
X349700D03*
X343400Y346700D03*
X357700Y346500D03*
X364100Y105600D03*
X370100D03*
X363700Y346500D03*
X399500Y127300D03*
X399900Y214400D03*
X399300Y229200D03*
X399100Y235500D03*
X405500Y127300D03*
X405900Y214400D03*
X406100Y220300D03*
X412100D03*
X405300Y229200D03*
X405100Y235500D03*
X408000Y242900D03*
X402000D03*
X411900Y263400D03*
X405900D03*
X411800Y257300D03*
X405800D03*
X423700Y110600D03*
X429700D03*
X423700Y104700D03*
X429700D03*
Y116700D03*
X423700D03*
X431300Y214300D03*
X437300D03*
X435900Y240100D03*
X441900D03*
X436100Y247600D03*
X442100D03*
X456700Y268300D03*
X462700D03*
X480300Y268200D03*
X474300D03*
X501800Y150300D03*
X496700Y170800D03*
X502700D03*
X490900Y207600D03*
X496900D03*
X507800Y150300D03*
X517600Y157800D03*
X511600D03*
X525400Y190900D03*
X519400D03*
X525800Y198300D03*
X519800D03*
X525800Y204200D03*
X542500Y127400D03*
X536500D03*
X542500Y121700D03*
X536500D03*
X542900Y158900D03*
X536900D03*
X544600Y164500D03*
X538600D03*
X531800Y204200D03*
X548100Y121700D03*
X554100D03*
X548400Y158900D03*
X554400D03*
X553300Y311900D03*
X559300D03*
X584200Y79700D03*
X585900Y168800D03*
X584400Y211200D03*
X584200Y252400D03*
X584500Y311700D03*
X578500D03*
X590200Y79700D03*
X594400Y125100D03*
X588400D03*
X591900Y168800D03*
X590400Y211200D03*
X590200Y252400D03*
G54D46*
X563800Y69900D03*
Y89900D03*
Y115100D03*
Y135100D03*
Y158900D03*
Y178900D03*
Y201300D03*
Y221300D03*
Y242400D03*
Y262400D03*
X559200Y301700D03*
X569200Y311700D03*
X559200Y321700D03*
X583800Y69900D03*
X573800Y79900D03*
X583800Y89900D03*
Y115100D03*
X573800Y125100D03*
X583800Y135100D03*
X573800Y168900D03*
X583800Y158900D03*
Y178900D03*
X573800Y211300D03*
X583800Y201300D03*
Y221300D03*
X573800Y252400D03*
X583800Y242400D03*
Y262400D03*
X579200Y301700D03*
Y321700D03*
G54D29*
X231200Y46400D03*
X242200D03*
G54D38*
X357825Y96000D03*
X344975D03*
X483975Y198800D03*
X496825D03*
X518575Y181000D03*
X515975Y222500D03*
X531425Y181000D03*
X528825Y222500D03*
G54D47*
X553900Y235225D03*
Y222375D03*
G54D48*
G01X2500Y0D02*
X597500D01*
G03X600000Y2500I0J2500D01*
G01Y397500D01*
G03X597500Y400000I-2500J0D01*
G01X2500D01*
G03X0Y397500I0J-2500D01*
G01Y2500D01*
G03X2500Y0I2500J0D01*
G54D39*
X348700Y143100D03*
X355700D03*
X356000Y217500D03*
X363000D03*
G54D49*
G01X227000Y386400D02*
X65900D01*
X56600Y377100D01*
Y355600D01*
G01X227000Y377100D02*
Y380400D01*
G01X430100Y247000D02*
X429400D01*
X421900Y239500D01*
X377900D01*
X377500Y239900D01*
Y241000D01*
G01X375900D02*
Y240300D01*
X377500Y238700D01*
X422231D01*
X426272Y242741D01*
X428359D01*
X430100Y241000D01*
G01Y247000D02*
X430700Y247600D01*
X436100D01*
G01X430100Y241000D02*
X431000Y240100D01*
X435900D01*
G01X437500Y353600D02*
Y351333D01*
X439900Y348933D01*
Y347000D01*
X439400Y346500D01*
Y345866D01*
G01X441100D02*
Y346600D01*
X440700Y347000D01*
Y349117D01*
X443000Y351417D01*
Y353600D01*
G01X447900Y246300D02*
Y245100D01*
X448900Y244100D01*
X458000D01*
X458900Y245000D01*
Y248600D01*
G01X447900Y246300D02*
X443400D01*
X442100Y247600D01*
G01X447900Y240300D02*
Y242200D01*
X449000Y243300D01*
X458100D01*
X458900Y242500D01*
Y238600D01*
G01X441900Y240100D02*
X442100Y240300D01*
X447900D01*
G01X456550Y347852D02*
Y351750D01*
X458400Y353600D01*
G01X454850Y347852D02*
Y351150D01*
X452400Y353600D01*
M02*
