G04 ================== begin FILE IDENTIFICATION RECORD ==================*
G04 Layout Name:  E:/Work_File/CEPC/Schematic-and-PCB-of-DIF_V1.1/DIF_1V1.brd*
G04 Film Name:    soldtop*
G04 File Format:  Gerber RS274X*
G04 File Origin:  Cadence Allegro 16.6-2015-S066*
G04 Origin Date:  Sun Jul 30 13:49:13 2017*
G04 *
G04 Layer:  VIA CLASS/SOLDERMASK_TOP*
G04 Layer:  PIN/SOLDERMASK_TOP*
G04 Layer:  PACKAGE GEOMETRY/SOLDERMASK_TOP*
G04 Layer:  BOARD GEOMETRY/OUTLINE*
G04 Layer:  BOARD GEOMETRY/SOLDERMASK_TOP*
G04 *
G04 Offset:    (0.000 0.000)*
G04 Mirror:    No*
G04 Mode:      Positive*
G04 Rotation:  0*
G04 FullContactRelief:  No*
G04 UndefLineWidth:     5.000*
G04 ================== end FILE IDENTIFICATION RECORD ====================*
%FSLAX25Y25*MOIN*%
%IR0*IPPOS*OFA0.00000B0.00000*MIA0B0*SFA1.00000B1.00000*%
%ADD13R,.1X.09*%
%ADD21R,.09X.1*%
%ADD50R,.028X.11*%
%ADD26R,.051201X.110201*%
%ADD43C,.1*%
%ADD11R,.135X.07*%
%ADD15C,.12*%
%ADD10C,.32*%
%ADD52C,.105*%
%ADD16R,.12X.12*%
%ADD34C,.11811*%
%ADD29R,.051181X.110236*%
%ADD20R,.118098X.118098*%
%ADD31R,.185039X.026772*%
%ADD39R,.02X.08*%
%ADD24R,.06X.05*%
%ADD23R,.043X.04*%
%ADD17R,.05X.06*%
%ADD12R,.04X.043*%
%ADD45R,.025X.08*%
%ADD33R,.015X.035*%
%ADD49C,.05*%
%ADD38C,.06*%
%ADD22C,.07*%
%ADD51C,.08*%
%ADD47R,.048X.028*%
%ADD35C,.044*%
%ADD46R,.065X.074*%
%ADD25C,.045*%
%ADD14C,.064*%
%ADD41C,.047*%
%ADD36C,.065*%
%ADD44R,.06X.06*%
%ADD48R,.09X.09*%
%ADD40R,.098X.086*%
%ADD37R,.065X.065*%
%ADD28R,.0335X.0335*%
%ADD27C,.070902*%
%ADD42C,.023598*%
%ADD32R,.043307X.031496*%
%ADD30R,.043307X.086614*%
%ADD19R,.041299X.013799*%
%ADD18R,.013799X.041299*%
%ADD53C,.003*%
%ADD54C,.0002*%
G75*
%LPD*%
G75*
G54D10*
X20000Y20000D03*
Y380000D03*
X580000Y20000D03*
Y380000D03*
G54D20*
X27600Y305400D03*
X50300Y65700D03*
X39700Y233000D03*
X72700Y115600D03*
X87100Y235800D03*
X97700Y160100D03*
G54D11*
X11300Y204800D03*
Y222800D03*
X59500Y158700D03*
Y176700D03*
G54D30*
X112492Y27004D03*
X146508D03*
X178192D03*
X212208D03*
G54D12*
X4900Y301400D03*
X24200Y215900D03*
X21500Y251500D03*
X27500D03*
X10900Y301400D03*
X26400Y322900D03*
X47900Y82500D03*
X35900D03*
X41900D03*
X48400Y108200D03*
X38600Y189000D03*
X44600D03*
X30200Y215900D03*
X50100Y217200D03*
X46000Y249400D03*
X40000D03*
X32400Y322900D03*
X45700Y336300D03*
X39700D03*
X67600Y36000D03*
X61600D03*
X65200Y49600D03*
X59200D03*
X65600Y70800D03*
X53900Y82500D03*
X66700D03*
X60700D03*
X54400Y108200D03*
X59400Y132300D03*
X65400D03*
X68500Y221800D03*
X62500D03*
X56100Y217200D03*
X58100Y249400D03*
X52100D03*
X62900Y238100D03*
X56900D03*
X69800Y343500D03*
X63800D03*
X71600Y70800D03*
X77500Y130800D03*
X71500D03*
X89100D03*
X83100D03*
X88300Y120700D03*
X75800Y154300D03*
X81800D03*
X83300Y174900D03*
X89300D03*
X78500Y187300D03*
X72500D03*
X87100Y252400D03*
X74600Y251300D03*
X80600D03*
X94300Y120700D03*
X102800Y176600D03*
X96800D03*
X108800D03*
X103100Y220700D03*
X97100D03*
X93100Y252400D03*
X105100D03*
X99100D03*
X109500Y240900D03*
X103500D03*
X118400Y128500D03*
X112400D03*
X128100Y157500D03*
X119100Y165200D03*
X113100D03*
X114800Y176600D03*
X129700Y237900D03*
X123700D03*
X134100Y157500D03*
X145000Y283700D03*
X139000D03*
X147800Y307100D03*
X153800D03*
X210800Y214900D03*
Y204900D03*
Y234900D03*
Y224700D03*
X222300Y39600D03*
X216300D03*
X216800Y214900D03*
Y204900D03*
Y234900D03*
Y224700D03*
X248800Y40900D03*
X254800D03*
X242800Y242600D03*
X248800D03*
X259600Y232100D03*
X265600D03*
X328500Y19100D03*
X334500D03*
X336900Y46800D03*
X337000Y35000D03*
X331200Y106500D03*
X337200D03*
X327500Y346300D03*
X333500D03*
X342900Y46800D03*
X343000Y35000D03*
X357400Y85400D03*
X347900Y346300D03*
X353900D03*
X376700Y37900D03*
X363400Y85400D03*
X367100Y346200D03*
X373100D03*
X382700Y37900D03*
X387300Y64900D03*
X381300D03*
X415300Y233100D03*
X421300D03*
X415300Y226100D03*
X421300D03*
X417800Y240700D03*
X434700Y37600D03*
X428700D03*
X441800Y174200D03*
X442000Y184000D03*
X431600Y225000D03*
X437600D03*
X431600Y218800D03*
X437600D03*
X423800Y240700D03*
X447800Y174200D03*
X448000Y184000D03*
X449400Y208700D03*
X455400D03*
X544500Y211000D03*
X545000Y252800D03*
X550500Y211000D03*
X551000Y252800D03*
G54D21*
X24400Y336300D03*
X11400D03*
X37500Y118100D03*
X50500D03*
X87300Y264000D03*
X100300D03*
G54D40*
X285765Y5875D03*
Y26741D03*
X318835Y5875D03*
Y26741D03*
G54D22*
X51800Y35600D03*
X63000Y230600D03*
X103100Y128800D03*
X120200Y157100D03*
X120100Y251000D03*
X233400Y246100D03*
X223400D03*
X248500Y114800D03*
X268700Y115400D03*
X372000Y64900D03*
X420400Y94600D03*
X412200D03*
X404000D03*
X445000D03*
X436800D03*
X428600D03*
X461400D03*
X453200D03*
G54D31*
X111600Y65900D03*
Y90900D03*
Y85900D03*
Y80900D03*
Y75900D03*
Y70900D03*
Y100900D03*
Y95900D03*
X139900Y65900D03*
Y70900D03*
Y75900D03*
Y80900D03*
Y85900D03*
Y90900D03*
Y95900D03*
Y100900D03*
X173300Y90400D03*
Y85400D03*
Y80400D03*
Y75400D03*
Y70400D03*
Y105400D03*
Y100400D03*
Y95400D03*
X201600Y70400D03*
Y75400D03*
Y80400D03*
Y85400D03*
Y90400D03*
Y95400D03*
Y100400D03*
Y105400D03*
G54D13*
X26800Y59100D03*
Y72100D03*
X43600Y274100D03*
Y261100D03*
G54D32*
X117295Y23500D03*
X141705D03*
X182995D03*
X207405D03*
G54D41*
X293639Y17489D03*
X310961D03*
G54D14*
X20100Y101900D03*
X145600Y213900D03*
X299500Y379600D03*
X383200Y16900D03*
X444400Y44100D03*
X468300Y44600D03*
X495200Y315200D03*
X532000Y235600D03*
X581500Y48100D03*
G54D23*
X36700Y44600D03*
Y50600D03*
X35600Y280900D03*
Y286900D03*
X38500Y328900D03*
Y322900D03*
X65300Y94900D03*
Y100900D03*
X53800Y335400D03*
Y341400D03*
X63600Y355200D03*
Y349200D03*
X76800Y214100D03*
Y220100D03*
X81900Y352000D03*
Y358000D03*
X106900Y138200D03*
Y144200D03*
X92000Y352000D03*
Y358000D03*
X101900Y352000D03*
Y358000D03*
X112100Y352000D03*
Y358000D03*
X122000Y352000D03*
Y358000D03*
X132100Y352000D03*
Y358000D03*
X139900Y105100D03*
Y111100D03*
X143800Y312600D03*
Y318600D03*
X138000Y317000D03*
Y323000D03*
X142000Y352000D03*
Y358000D03*
X152000Y352000D03*
Y358000D03*
X162000Y352000D03*
Y358000D03*
X171900Y352000D03*
Y358000D03*
X182000Y352000D03*
Y358000D03*
X192000Y352000D03*
Y358000D03*
X202000Y352000D03*
Y358000D03*
X211900Y352000D03*
Y358000D03*
X222100Y352000D03*
Y358000D03*
X232000Y352000D03*
Y358000D03*
X248800Y99600D03*
Y105600D03*
X248600Y130800D03*
Y136800D03*
X242000Y352000D03*
Y358000D03*
X252000Y352000D03*
Y358000D03*
X268900Y99200D03*
Y105200D03*
X275000Y105100D03*
Y99100D03*
Y131300D03*
Y125300D03*
X262000Y352000D03*
Y358000D03*
X272000Y352000D03*
Y358000D03*
X281400Y104300D03*
Y98300D03*
X326900Y333900D03*
X333900D03*
X327600Y353600D03*
Y359600D03*
X333400Y353600D03*
Y359600D03*
X326900Y339900D03*
X333900D03*
X347500Y339700D03*
Y333700D03*
X354600Y333600D03*
Y339600D03*
X353700Y353600D03*
Y359600D03*
X347900Y353600D03*
Y359600D03*
X366400Y339700D03*
Y333700D03*
X373100D03*
Y339700D03*
X372900Y353600D03*
Y359600D03*
X367100Y353600D03*
Y359600D03*
X383000Y353600D03*
Y359600D03*
X393000Y353600D03*
Y359600D03*
X412200Y80200D03*
Y86200D03*
X420400Y80200D03*
Y86200D03*
X404000Y80200D03*
Y86200D03*
X409500Y232700D03*
Y226700D03*
X416400Y246600D03*
Y252600D03*
X403000Y353600D03*
Y359600D03*
X413000Y353600D03*
Y359600D03*
X436800Y80200D03*
Y86200D03*
X428600Y80200D03*
Y86200D03*
X431100Y142000D03*
Y136000D03*
X424400Y246500D03*
Y252500D03*
X423000Y353600D03*
Y359600D03*
X433000Y353600D03*
Y359600D03*
X461400Y80200D03*
Y86200D03*
X453200Y80200D03*
Y86200D03*
X445000Y80200D03*
Y86200D03*
X449000Y168100D03*
Y162100D03*
X447400Y353600D03*
Y359600D03*
X453000Y353600D03*
Y359600D03*
X467900D03*
Y353600D03*
X478000Y359600D03*
Y353600D03*
X488100Y359600D03*
Y353600D03*
X498000Y359600D03*
Y353600D03*
X511500Y359600D03*
Y353600D03*
X517900Y359600D03*
Y353600D03*
X551200Y85800D03*
Y79800D03*
X549500Y121300D03*
Y127300D03*
X552300Y169000D03*
Y175000D03*
G54D50*
X502100Y148700D03*
X498900D03*
X497300Y181000D03*
X500500D03*
X503600D03*
X524100Y148700D03*
X520900D03*
X517800D03*
X514600D03*
X511500D03*
X508300D03*
X505200D03*
X506800Y181000D03*
X509900D03*
X513100D03*
X516200D03*
X519400D03*
X522500D03*
X527200Y148700D03*
X525700Y181000D03*
G54D42*
X311623Y176023D03*
Y179960D03*
Y183897D03*
Y187834D03*
Y191771D03*
X315560Y176023D03*
Y179960D03*
Y183897D03*
Y187834D03*
Y191771D03*
X311623Y195708D03*
Y199645D03*
Y203582D03*
Y207519D03*
Y211456D03*
X315560Y195708D03*
Y199645D03*
Y203582D03*
Y207519D03*
Y211456D03*
X311623Y215393D03*
Y219330D03*
Y223267D03*
Y227204D03*
Y231141D03*
Y235078D03*
X315560Y215393D03*
Y219330D03*
Y223267D03*
Y227204D03*
Y231141D03*
Y235078D03*
X311623Y239015D03*
Y242952D03*
Y246889D03*
Y250826D03*
Y254763D03*
X315560Y239015D03*
Y242952D03*
Y246889D03*
Y250826D03*
Y254763D03*
X311623Y258700D03*
X315560D03*
X319497Y176023D03*
Y179960D03*
Y183897D03*
Y187834D03*
Y191771D03*
X323434Y176023D03*
Y179960D03*
Y183897D03*
Y187834D03*
Y191771D03*
X327371Y176023D03*
Y179960D03*
Y183897D03*
Y187834D03*
Y191771D03*
X331308Y176023D03*
Y179960D03*
Y183897D03*
Y187834D03*
Y191771D03*
X335245Y176023D03*
Y179960D03*
Y183897D03*
Y187834D03*
Y191771D03*
X319497Y195708D03*
Y199645D03*
Y203582D03*
Y207519D03*
Y211456D03*
X323434Y195708D03*
Y199645D03*
Y203582D03*
Y207519D03*
Y211456D03*
X327371Y195708D03*
Y199645D03*
Y203582D03*
Y207519D03*
Y211456D03*
X331308Y195708D03*
Y199645D03*
Y203582D03*
Y207519D03*
Y211456D03*
X335245Y195708D03*
Y199645D03*
Y203582D03*
Y207519D03*
Y211456D03*
X319497Y215393D03*
Y219330D03*
Y223267D03*
Y227204D03*
Y231141D03*
Y235078D03*
X323434Y215393D03*
Y219330D03*
Y223267D03*
Y227204D03*
Y231141D03*
Y235078D03*
X327371Y215393D03*
Y219330D03*
Y223267D03*
Y227204D03*
Y231141D03*
Y235078D03*
X331308Y215393D03*
Y219330D03*
Y223267D03*
Y227204D03*
Y231141D03*
Y235078D03*
X335245Y215393D03*
Y219330D03*
Y223267D03*
Y227204D03*
Y231141D03*
Y235078D03*
X319497Y239015D03*
Y242952D03*
Y246889D03*
Y250826D03*
Y254763D03*
X323434Y239015D03*
Y242952D03*
Y246889D03*
Y250826D03*
Y254763D03*
X327371Y239015D03*
Y242952D03*
Y246889D03*
Y250826D03*
Y254763D03*
X331308Y239015D03*
Y242952D03*
Y246889D03*
Y250826D03*
Y254763D03*
X335245Y239015D03*
Y242952D03*
Y246889D03*
Y250826D03*
Y254763D03*
X319497Y258700D03*
X323434D03*
X327371D03*
X331308D03*
X335245D03*
X339182Y176023D03*
Y179960D03*
Y183897D03*
Y187834D03*
Y191771D03*
X343119Y176023D03*
Y179960D03*
Y183897D03*
Y187834D03*
Y191771D03*
X347056Y176023D03*
Y179960D03*
Y183897D03*
Y187834D03*
Y191771D03*
X350993Y176023D03*
Y179960D03*
Y183897D03*
Y187834D03*
Y191771D03*
X354930Y176023D03*
Y179960D03*
Y183897D03*
Y187834D03*
Y191771D03*
X358867Y176023D03*
Y179960D03*
Y183897D03*
Y187834D03*
Y191771D03*
X339182Y195708D03*
Y199645D03*
Y203582D03*
Y207519D03*
Y211456D03*
X343119Y195708D03*
Y199645D03*
Y203582D03*
Y207519D03*
Y211456D03*
X347056Y195708D03*
Y199645D03*
Y203582D03*
Y207519D03*
Y211456D03*
X350993Y195708D03*
Y199645D03*
Y203582D03*
Y207519D03*
Y211456D03*
X354930Y195708D03*
Y199645D03*
Y203582D03*
Y207519D03*
Y211456D03*
X358867Y195708D03*
Y199645D03*
Y203582D03*
Y207519D03*
Y211456D03*
X339182Y215393D03*
Y219330D03*
Y223267D03*
Y227204D03*
Y231141D03*
Y235078D03*
X343119Y215393D03*
Y219330D03*
Y223267D03*
Y227204D03*
Y231141D03*
Y235078D03*
X347056Y215393D03*
Y219330D03*
Y223267D03*
Y227204D03*
Y231141D03*
Y235078D03*
X350993Y215393D03*
Y219330D03*
Y223267D03*
Y227204D03*
Y231141D03*
Y235078D03*
X354930Y215393D03*
Y219330D03*
Y223267D03*
Y227204D03*
Y231141D03*
Y235078D03*
X358867Y215393D03*
Y219330D03*
Y223267D03*
Y227204D03*
Y231141D03*
Y235078D03*
X339182Y239015D03*
Y242952D03*
Y246889D03*
Y250826D03*
Y254763D03*
X343119Y239015D03*
Y242952D03*
Y246889D03*
Y250826D03*
Y254763D03*
X347056Y239015D03*
Y242952D03*
Y246889D03*
Y250826D03*
Y254763D03*
X350993Y239015D03*
Y242952D03*
Y246889D03*
Y250826D03*
Y254763D03*
X354930Y239015D03*
Y242952D03*
Y246889D03*
Y250826D03*
Y254763D03*
X358867Y239015D03*
Y242952D03*
Y246889D03*
Y250826D03*
Y254763D03*
X339182Y258700D03*
X343119D03*
X347056D03*
X350993D03*
X354930D03*
X358867D03*
X362804Y176023D03*
Y179960D03*
Y183897D03*
Y187834D03*
Y191771D03*
X366741Y176023D03*
Y179960D03*
Y183897D03*
Y187834D03*
Y191771D03*
X370678Y176023D03*
Y179960D03*
Y183897D03*
Y187834D03*
Y191771D03*
X374615Y176023D03*
Y179960D03*
Y183897D03*
Y187834D03*
Y191771D03*
X378552Y176023D03*
Y179960D03*
Y183897D03*
Y187834D03*
Y191771D03*
X362804Y195708D03*
Y199645D03*
Y203582D03*
Y207519D03*
Y211456D03*
X366741Y195708D03*
Y199645D03*
Y203582D03*
Y207519D03*
Y211456D03*
X370678Y195708D03*
Y199645D03*
Y203582D03*
Y207519D03*
Y211456D03*
X374615Y195708D03*
Y199645D03*
Y203582D03*
Y207519D03*
Y211456D03*
X378552Y195708D03*
Y199645D03*
Y203582D03*
Y207519D03*
Y211456D03*
X362804Y215393D03*
Y219330D03*
Y223267D03*
Y227204D03*
Y231141D03*
Y235078D03*
X366741Y215393D03*
Y219330D03*
Y223267D03*
Y227204D03*
Y231141D03*
Y235078D03*
X370678Y215393D03*
Y219330D03*
Y223267D03*
Y227204D03*
Y231141D03*
Y235078D03*
X374615Y215393D03*
Y219330D03*
Y223267D03*
Y227204D03*
Y231141D03*
Y235078D03*
X378552Y215393D03*
Y219330D03*
Y223267D03*
Y227204D03*
Y231141D03*
Y235078D03*
X362804Y239015D03*
Y242952D03*
Y246889D03*
Y250826D03*
Y254763D03*
X366741Y239015D03*
Y242952D03*
Y246889D03*
Y250826D03*
Y254763D03*
X370678Y239015D03*
Y242952D03*
Y246889D03*
Y250826D03*
Y254763D03*
X374615Y239015D03*
Y242952D03*
Y246889D03*
Y250826D03*
Y254763D03*
X378552Y239015D03*
Y242952D03*
Y246889D03*
Y250826D03*
Y254763D03*
X362804Y258700D03*
X366741D03*
X370678D03*
X374615D03*
X378552D03*
X382489Y176023D03*
Y179960D03*
Y183897D03*
Y187834D03*
Y191771D03*
X386426Y176023D03*
Y179960D03*
Y183897D03*
Y187834D03*
Y191771D03*
X390363Y176023D03*
Y179960D03*
Y183897D03*
Y187834D03*
Y191771D03*
X394300Y176023D03*
Y179960D03*
Y183897D03*
Y187834D03*
Y191771D03*
X382489Y195708D03*
Y199645D03*
Y203582D03*
Y207519D03*
Y211456D03*
X386426Y195708D03*
Y199645D03*
Y203582D03*
Y207519D03*
Y211456D03*
X390363Y195708D03*
Y199645D03*
Y203582D03*
Y207519D03*
Y211456D03*
X394300Y195708D03*
Y199645D03*
Y203582D03*
Y207519D03*
Y211456D03*
X382489Y215393D03*
Y219330D03*
Y223267D03*
Y227204D03*
Y231141D03*
Y235078D03*
X386426Y215393D03*
Y219330D03*
Y223267D03*
Y227204D03*
Y231141D03*
Y235078D03*
X390363Y215393D03*
Y219330D03*
Y223267D03*
Y227204D03*
Y231141D03*
Y235078D03*
X394300Y215393D03*
Y219330D03*
Y223267D03*
Y227204D03*
Y231141D03*
Y235078D03*
X382489Y239015D03*
Y242952D03*
Y246889D03*
Y250826D03*
Y254763D03*
X386426Y239015D03*
Y242952D03*
Y246889D03*
Y250826D03*
Y254763D03*
X390363Y239015D03*
Y242952D03*
Y246889D03*
Y250826D03*
Y254763D03*
X394300Y239015D03*
Y242952D03*
Y246889D03*
Y250826D03*
Y254763D03*
X382489Y258700D03*
X386426D03*
X390363D03*
X394300D03*
G54D51*
X493400Y164800D03*
X531200D03*
G54D33*
X127532Y28500D03*
X125563D03*
X123594D03*
X121626D03*
X119658D03*
X117689D03*
X131468D03*
X120642Y23500D03*
X122610D03*
X124579D03*
X126547D03*
X128516D03*
X130484D03*
X141311Y28500D03*
X139342D03*
X137374D03*
X135406D03*
X133437D03*
X132453Y23500D03*
X134421D03*
X136390D03*
X138358D03*
X193232Y28500D03*
X191263D03*
X189294D03*
X187326D03*
X185358D03*
X183389D03*
X186342Y23500D03*
X188310D03*
X190279D03*
X192247D03*
X207011Y28500D03*
X205043D03*
X203074D03*
X201106D03*
X199137D03*
X197168D03*
X194216Y23500D03*
X196184D03*
X198153D03*
X200121D03*
X202090D03*
X204058D03*
G54D24*
X63400Y215100D03*
Y206100D03*
X133000Y244200D03*
Y253200D03*
X342200Y10000D03*
Y19000D03*
X420400Y63700D03*
X412200D03*
X404000D03*
X420400Y72700D03*
X412200D03*
X404000D03*
X436800Y63700D03*
X428600D03*
X436800Y72700D03*
X428600D03*
X461400Y63700D03*
X453200D03*
X445000D03*
X461400Y72700D03*
X453200D03*
X445000D03*
G54D15*
X18500Y134100D03*
Y149700D03*
Y165300D03*
G54D25*
X63731Y283676D03*
Y288676D03*
Y293676D03*
Y298676D03*
Y303676D03*
Y308676D03*
X128691Y298676D03*
Y293676D03*
Y288676D03*
Y283676D03*
Y318676D03*
Y313676D03*
Y308676D03*
Y303676D03*
Y328676D03*
Y323676D03*
G54D34*
X118400Y284000D03*
Y308800D03*
X143000Y294800D03*
X167800D03*
G54D16*
X18500Y180900D03*
G54D52*
X563800Y69900D03*
Y89900D03*
Y115100D03*
Y135100D03*
Y158900D03*
Y178900D03*
Y201300D03*
Y221300D03*
Y242400D03*
Y262400D03*
X559200Y301700D03*
X569200Y311700D03*
X559200Y321700D03*
X583800Y69900D03*
X573800Y79900D03*
X583800Y89900D03*
Y115100D03*
X573800Y125100D03*
X583800Y135100D03*
X573800Y168900D03*
X583800Y158900D03*
Y178900D03*
X573800Y211300D03*
X583800Y201300D03*
Y221300D03*
X573800Y252400D03*
X583800Y242400D03*
Y262400D03*
X579200Y301700D03*
Y321700D03*
G54D43*
X325100Y75200D03*
X345100D03*
X396900Y37800D03*
X416900D03*
X453700Y118200D03*
Y138200D03*
G54D53*
G01X2500Y0D02*
X597500D01*
G03X600000Y2500I0J2500D01*
G01Y397500D01*
G03X597500Y400000I-2500J0D01*
G01X2500D01*
G03X0Y397500I0J-2500D01*
G01Y2500D01*
G03X2500Y0I2500J0D01*
G54D44*
X360200Y65100D03*
G54D35*
X116000Y345000D03*
X144800Y275200D03*
G54D17*
X27000Y196400D03*
X36000D03*
X67600Y28800D03*
X58600D03*
X109800Y121400D03*
X118800D03*
X125100Y150100D03*
X134100D03*
X272500Y232100D03*
X281500D03*
X412600Y217000D03*
X421600D03*
X455100Y174200D03*
X464100D03*
X455200Y162800D03*
X464200D03*
X455300Y184000D03*
X464300D03*
G54D26*
X67513Y371300D03*
Y392560D03*
X281487Y371300D03*
Y392560D03*
X318513Y371300D03*
Y392560D03*
X532487Y371300D03*
Y392560D03*
G54D54*
G01X136000Y287800D02*
X174800D01*
Y301800D01*
X136000D01*
Y287800D01*
G54D18*
X22480Y296150D03*
X25040D03*
X27600D03*
Y314650D03*
X25040D03*
X22480D03*
X45180Y56450D03*
X47740D03*
Y74950D03*
X45180D03*
X34580Y223750D03*
X37140D03*
X39700D03*
X42260D03*
X44820D03*
Y242250D03*
X42260D03*
X39700D03*
X37140D03*
X34580D03*
X30160Y296150D03*
X32720D03*
Y314650D03*
X30160D03*
X50300Y56450D03*
X52860D03*
X55420D03*
Y74950D03*
X52860D03*
X50300D03*
X67580Y106350D03*
Y124850D03*
X70140Y106350D03*
X72700D03*
X75260D03*
X77820D03*
Y124850D03*
X75260D03*
X72700D03*
X70140D03*
X81980Y226550D03*
X84540D03*
X87100D03*
X89660D03*
Y245050D03*
X87100D03*
X84540D03*
X81980D03*
X92580Y150850D03*
X95140D03*
X97700D03*
X100260D03*
X102820D03*
Y169350D03*
X100260D03*
X97700D03*
X95140D03*
X92580D03*
X92220Y226550D03*
Y245050D03*
G54D27*
X68300Y381674D03*
X280700D03*
X319300D03*
X531700D03*
G54D36*
X175600Y184800D03*
Y194800D03*
Y204800D03*
Y214800D03*
Y224800D03*
Y234800D03*
X185600Y184800D03*
Y194800D03*
Y204800D03*
Y214800D03*
Y224800D03*
Y234800D03*
Y244800D03*
G54D45*
X355300Y97850D03*
X350300D03*
X345300D03*
Y134750D03*
X350300D03*
X355300D03*
X380300Y97850D03*
X375300D03*
X370300D03*
X365300D03*
X360300D03*
Y134750D03*
X365300D03*
X370300D03*
X375300D03*
X380300D03*
G54D19*
X18350Y310520D03*
Y307960D03*
Y305400D03*
Y302840D03*
Y300280D03*
X41050Y68260D03*
Y65700D03*
Y63140D03*
Y60580D03*
Y70820D03*
X30450Y233000D03*
Y230440D03*
Y227880D03*
X48950D03*
Y230440D03*
Y233000D03*
X30450Y238120D03*
Y235560D03*
X48950D03*
Y238120D03*
X36850Y300280D03*
Y302840D03*
Y305400D03*
Y307960D03*
Y310520D03*
X59550Y60580D03*
Y63140D03*
Y65700D03*
Y68260D03*
Y70820D03*
X63450Y110480D03*
Y120720D03*
Y118160D03*
Y115600D03*
Y113040D03*
X81950Y110480D03*
Y113040D03*
Y115600D03*
Y118160D03*
Y120720D03*
X88450Y165220D03*
Y162660D03*
Y160100D03*
Y157540D03*
Y154980D03*
X77850Y233240D03*
Y230680D03*
Y240920D03*
Y238360D03*
Y235800D03*
X106950Y154980D03*
Y157540D03*
Y160100D03*
Y162660D03*
Y165220D03*
X96350Y230680D03*
Y233240D03*
Y235800D03*
Y238360D03*
Y240920D03*
G54D28*
X77000Y373800D03*
X82000D03*
X87000D03*
X77000Y368800D03*
X82000D03*
X87000D03*
X92000Y373800D03*
X97000D03*
X102000D03*
X107000D03*
X92000Y368800D03*
X97000D03*
X102000D03*
X107000D03*
X112000Y373800D03*
X117000D03*
X122000D03*
X127000D03*
X132000D03*
X112000Y368800D03*
X117000D03*
X122000D03*
X127000D03*
X132000D03*
X137000Y373800D03*
X142000D03*
X147000D03*
X152000D03*
X137000Y368800D03*
X142000D03*
X147000D03*
X152000D03*
X157000Y373800D03*
X162000D03*
X167000D03*
X172000D03*
X157000Y368800D03*
X162000D03*
X167000D03*
X172000D03*
X177000Y373800D03*
X182000D03*
X187000D03*
X192000D03*
X177000Y368800D03*
X182000D03*
X187000D03*
X192000D03*
X197000Y373800D03*
X202000D03*
X207000D03*
X212000D03*
X197000Y368800D03*
X202000D03*
X207000D03*
X212000D03*
X217000Y373800D03*
X222000D03*
X227000D03*
X232000D03*
X217000Y368800D03*
X222000D03*
X227000D03*
X232000D03*
X237000Y373800D03*
X242000D03*
X247000D03*
X252000D03*
X237000Y368800D03*
X242000D03*
X247000D03*
X252000D03*
X257000Y373800D03*
X262000D03*
X267000D03*
X272000D03*
X257000Y368800D03*
X262000D03*
X267000D03*
X272000D03*
X328000Y373800D03*
X333000D03*
X338000D03*
X328000Y368800D03*
X333000D03*
X338000D03*
X343000Y373800D03*
X348000D03*
X353000D03*
X358000D03*
X343000Y368800D03*
X348000D03*
X353000D03*
X358000D03*
X363000Y373800D03*
X368000D03*
X373000D03*
X378000D03*
X363000Y368800D03*
X368000D03*
X373000D03*
X378000D03*
X383000Y373800D03*
X388000D03*
X393000D03*
X398000D03*
X383000Y368800D03*
X388000D03*
X393000D03*
X398000D03*
X403000Y373800D03*
X408000D03*
X413000D03*
X418000D03*
X403000Y368800D03*
X408000D03*
X413000D03*
X418000D03*
X423000Y373800D03*
X428000D03*
X433000D03*
X438000D03*
X443000D03*
X423000Y368800D03*
X428000D03*
X433000D03*
X438000D03*
X443000D03*
X448000Y373800D03*
X453000D03*
X458000D03*
X463000D03*
X448000Y368800D03*
X453000D03*
X458000D03*
X463000D03*
X468000Y373800D03*
X473000D03*
X478000D03*
X483000D03*
X468000Y368800D03*
X473000D03*
X478000D03*
X483000D03*
X488000Y373800D03*
X493000D03*
X498000D03*
X503000D03*
X488000Y368800D03*
X493000D03*
X498000D03*
X503000D03*
X508000Y373800D03*
X513000D03*
X518000D03*
X523000D03*
X508000Y368800D03*
X513000D03*
X518000D03*
X523000D03*
G54D37*
X175600Y244800D03*
X213400Y246100D03*
X248500Y124800D03*
X268700Y125400D03*
X372000Y54900D03*
G54D46*
X377275Y85800D03*
X390125D03*
G54D47*
X455400Y215200D03*
Y218900D03*
Y222600D03*
X445200D03*
Y215200D03*
G54D38*
X238500Y24800D03*
X258500D03*
X330200Y35100D03*
Y45100D03*
Y55100D03*
Y65100D03*
X360200Y45100D03*
Y35100D03*
Y55100D03*
G54D29*
X112492Y5902D03*
X146508D03*
X178192D03*
X212208D03*
G54D48*
X484200Y45200D03*
Y84500D03*
Y121900D03*
X506600D03*
X518000Y44800D03*
X527800Y121900D03*
X540300Y64800D03*
Y104200D03*
Y141600D03*
Y181000D03*
G54D39*
X253850Y50800D03*
X251350D03*
X248850D03*
X246350D03*
X243850D03*
X241350D03*
X238850D03*
X236350D03*
Y89800D03*
X238850D03*
X241350D03*
X243850D03*
X246350D03*
X248850D03*
X251350D03*
X253850D03*
X276350Y50800D03*
X273850D03*
X271350D03*
X268850D03*
X266350D03*
X263850D03*
X261350D03*
X258850D03*
X256350D03*
Y89800D03*
X258850D03*
X261350D03*
X263850D03*
X266350D03*
X268850D03*
X271350D03*
X273850D03*
X276350D03*
X296001Y27725D03*
X296350Y50800D03*
X293850D03*
X291350D03*
X288850D03*
X286350D03*
X283850D03*
X281350D03*
X278850D03*
Y89800D03*
X281350D03*
X283850D03*
X286350D03*
X288850D03*
X291350D03*
X293850D03*
X296350D03*
X305450Y27725D03*
X302300D03*
X299150D03*
X308599D03*
X303850Y50800D03*
X301350D03*
X298850D03*
Y89800D03*
X301350D03*
X303850D03*
G54D49*
X484200Y133000D03*
Y151500D03*
Y171100D03*
X493400Y189300D03*
X512300D03*
X540300Y133000D03*
Y151500D03*
Y171100D03*
X531200Y189300D03*
M02*
