G04 ================== begin FILE IDENTIFICATION RECORD ==================*
G04 Layout Name:  E:/Work_File/CEPC/Schematic-and-PCB-of-DIF_V1.1/DIF_1V3.brd*
G04 Film Name:    art01*
G04 File Format:  Gerber RS274X*
G04 File Origin:  Cadence Allegro 16.6-2015-S066*
G04 Origin Date:  Tue Aug 01 12:16:34 2017*
G04 *
G04 Layer:  VIA CLASS/TOP*
G04 Layer:  PIN/TOP*
G04 Layer:  ETCH/TOP*
G04 Layer:  BOARD GEOMETRY/OUTLINE*
G04 *
G04 Offset:    (0.000 0.000)*
G04 Mirror:    No*
G04 Mode:      Positive*
G04 Rotation:  0*
G04 FullContactRelief:  No*
G04 UndefLineWidth:     5.000*
G04 ================== end FILE IDENTIFICATION RECORD ====================*
%FSLAX25Y25*MOIN*%
%IR0*IPPOS*OFA0.00000B0.00000*MIA0B0*SFA1.00000B1.00000*%
%ADD12R,.125X.06*%
%ADD56C,.1*%
%ADD16C,.11*%
%ADD10C,.32*%
%ADD17R,.11X.11*%
%ADD32R,.043307X.102362*%
%ADD29R,.047201X.106299*%
%ADD22R,.118098X.118098*%
%ADD52R,.04X.02*%
%ADD34R,.177165X.018898*%
%ADD27R,.05X.04*%
%ADD18R,.04X.05*%
%ADD46R,.02X.08*%
%ADD43R,.012X.07*%
%ADD36R,.013X.033*%
%ADD25R,.035X.032*%
%ADD13R,.032X.035*%
%ADD50R,.025X.08*%
%ADD26R,.046X.014*%
%ADD37C,.012*%
%ADD14R,.09X.08*%
%ADD23R,.08X.09*%
%ADD19C,.04*%
%ADD42C,.05*%
%ADD15C,.06*%
%ADD55C,.07*%
%ADD28C,.035*%
%ADD51R,.065X.074*%
%ADD48C,.09*%
%ADD11C,.018*%
%ADD45C,.037*%
%ADD39C,.055*%
%ADD24C,.028*%
%ADD49R,.05X.05*%
%ADD41R,.06X.06*%
%ADD53R,.08X.08*%
%ADD31R,.0315X.0315*%
%ADD40R,.055X.055*%
%ADD47C,.019701*%
%ADD44R,.098X.086*%
%ADD30C,.070902*%
%ADD38C,.05906*%
%ADD54R,.02X.1*%
%ADD35R,.03937X.027559*%
%ADD33R,.03937X.082677*%
%ADD21R,.041299X.013799*%
%ADD20R,.013799X.041299*%
%ADD57C,.003*%
%ADD58C,.004*%
%ADD59C,.005*%
%ADD60C,.006*%
%ADD61C,.008*%
%ADD62C,.01*%
%ADD63C,.02*%
%ADD64C,.015*%
%ADD65C,.024*%
%ADD88R,.100004X.090004*%
%ADD81C,.100004*%
%ADD66R,.090004X.100004*%
%ADD86C,.110004*%
%ADD69C,.120004*%
%ADD87C,.140004*%
%ADD67R,.135004X.070004*%
%ADD78R,.108004X.096004*%
%ADD71R,.057204X.116304*%
%ADD89R,.187168X.028902*%
%ADD68R,.150004X.150004*%
%ADD70R,.060004X.050004*%
%ADD77R,.070004X.070004*%
%ADD79C,.060004*%
%ADD83R,.090004X.090004*%
%ADD80C,.090004*%
%ADD84C,.056004*%
%ADD74C,.065004*%
%ADD85C,.058004*%
%ADD75R,.065004X.065004*%
%ADD76C,.095004*%
%ADD73C,.068004*%
%ADD82R,.075004X.084004*%
%ADD72C,.080906*%
G75*
%LPD*%
G75*
G36*
G01X25728Y3700D02*
G02X25592Y4476I0J400D01*
G03X4086Y24358I-5592J15524D01*
G02X3300Y24464I-386J106D01*
G01Y140300D01*
X15794D01*
G02X15963Y139537I0J-400D01*
G03X21037I2537J-5437D01*
G02X21206Y140300I169J362D01*
G01X33638D01*
G02X34033Y139839I0J-400D01*
G03X38877Y137278I2867J-439D01*
G02X39423I273J-293D01*
G03X42894Y136914I1977J2122D01*
G02X43500Y136571I206J-343D01*
G01Y124100D01*
X44100D01*
Y113200D01*
X44500D01*
Y111600D01*
X50700D01*
Y110450D01*
X46300D01*
Y105950D01*
X50700D01*
Y96400D01*
X63050D01*
Y92800D01*
X67550D01*
Y96400D01*
X68300D01*
Y96700D01*
X99081D01*
G02X99364Y96017I0J-400D01*
G01X93700Y90353D01*
Y54047D01*
X113926Y33821D01*
G02X113643Y33138I-283J-283D01*
G01X108523D01*
Y20870D01*
X116461D01*
Y21622D01*
X117992D01*
Y19850D01*
X118341D01*
Y18054D01*
G03X123210Y17250I2300J-1213D01*
G03X125296Y19660I-510J2550D01*
G01X125307Y19850D01*
X130153D01*
Y18294D01*
X135747Y12700D01*
X142342D01*
Y3700D01*
X116658D01*
Y13020D01*
X108327D01*
Y3700D01*
X25728D01*
G37*
G36*
G01X18050Y206883D02*
G02X18735Y207164I400J0D01*
G03X22830Y207129I2065J2036D01*
G03X27093Y208200I1670J2371D01*
G01X29100D01*
Y200900D01*
X23000D01*
Y191900D01*
X28106D01*
X29100Y190906D01*
Y171700D01*
X44300D01*
Y165100D01*
X70100D01*
Y142300D01*
X29190D01*
G03X25410I-1890J-2200D01*
G01X22162D01*
G02X21977Y143054I0J400D01*
G03X15023I-3477J6646D01*
G02X14838Y142300I-185J-354D01*
G01X11519D01*
G03X6681I-2419J-1600D01*
G01X2800D01*
Y208200D01*
X4550D01*
Y201300D01*
X18050D01*
Y206883D01*
G37*
G36*
G01X216373Y3700D02*
Y8450D01*
X229600D01*
Y9358D01*
X229749Y9398D01*
G03Y15002I-749J2802D01*
G01X229600Y15042D01*
Y15950D01*
X226900D01*
Y20650D01*
X222400D01*
Y22150D01*
X216177D01*
Y33138D01*
X208239D01*
Y30650D01*
X207693D01*
Y32150D01*
X199469D01*
Y33018D01*
X199490Y33061D01*
G03X195341Y36081I-2322J1171D01*
G02X195059I-141J142D01*
G03X193725Y36784I-1828J-1849D01*
G01X193563Y36816D01*
Y41790D01*
X192800Y42553D01*
Y52950D01*
X181869D01*
G02X181586Y53633I0J400D01*
G01X188053Y60100D01*
X207153D01*
X214976Y67923D01*
Y75496D01*
G03X214935Y80724I-1276J2604D01*
G02X214822Y81369I170J362D01*
G01X219917Y86464D01*
G02X220600Y86181I283J-283D01*
G01Y85347D01*
X234050Y71897D01*
Y56300D01*
X233750D01*
Y45300D01*
X245980D01*
X246014Y45142D01*
G03X246016Y45135I2831J630D01*
G02X245625Y44650I-391J-85D01*
G01X245200D01*
Y37150D01*
X252400D01*
Y38650D01*
X255990D01*
G02X256273Y37967I0J-400D01*
G01X245506Y27200D01*
X242307D01*
G03Y22400I-3807J-2400D01*
G01X247494D01*
X260767Y35673D01*
G02X261450Y35390I283J-283D01*
G01Y31144D01*
X259496Y29190D01*
X259391Y29211D01*
G03X262911Y25690I-891J-4411D01*
G01X262890Y25796D01*
X266250Y29156D01*
Y41790D01*
G02X266917Y42088I400J0D01*
G03X271060Y42372I1933J2162D01*
G02X271647Y42395I305J-259D01*
G01X278443Y35600D01*
X296929D01*
G02X297316Y35096I0J-400D01*
G03X297291Y34208I1834J-495D01*
G02X296899Y33725I-391J-83D01*
G01X293001D01*
Y21725D01*
X293498D01*
Y21341D01*
X293315Y21326D01*
G03X297435Y18133I324J-3837D01*
G02X297829Y18600I394J67D01*
G01X306771D01*
G02X307165Y18133I0J-400D01*
G03X314755Y16834I3796J-644D01*
G01X314784Y17000D01*
X324900D01*
Y15350D01*
X337700D01*
Y15000D01*
X338300D01*
Y12500D01*
X339200D01*
Y7500D01*
X345200D01*
Y12500D01*
X346700D01*
Y15000D01*
X346700Y23000D01*
X337700D01*
Y22850D01*
X324900D01*
Y21800D01*
X324235D01*
Y31541D01*
X313435D01*
Y23400D01*
X310099D01*
Y32225D01*
X308450D01*
Y33725D01*
X305307D01*
G02X304915Y34208I0J400D01*
G03X301443Y35604I-1859J392D01*
G02X300763I-340J211D01*
G03X300439Y35996I-1614J-1004D01*
G02X300427Y36573I271J294D01*
G01X302514Y38660D01*
X302619Y38638D01*
G03X304881Y40228I381J1862D01*
G01X304905Y40400D01*
X321506D01*
X325810Y36096D01*
X325789Y35990D01*
G03X332771Y31407I4411J-891D01*
G02X333361Y31250I228J-328D01*
G01X346600D01*
Y32278D01*
G03Y37722I-1000J2722D01*
G01Y38750D01*
X333400D01*
Y38518D01*
X333128D01*
X333072Y38564D01*
G03X329309Y39511I-2872J-3465D01*
G01X329204Y39490D01*
X328596Y40098D01*
G02X328987Y40767I283J283D01*
G03X334206Y43050I1213J4334D01*
G01X346500D01*
Y44043D01*
G03Y49557I-900J2757D01*
G01Y50550D01*
X333300D01*
Y49200D01*
X332055D01*
X332017Y49217D01*
G03X326393Y47500I-1817J-4117D01*
G01X306450D01*
Y56300D01*
X306150D01*
Y70297D01*
X322600Y86747D01*
Y92500D01*
X342050D01*
Y91850D01*
X342300D01*
Y90298D01*
G02X341573Y90068I-400J0D01*
G03Y86732I-2373J-1668D01*
G02X342300Y86502I327J-230D01*
G01Y81066D01*
G03X350462Y78874I2800J-5866D01*
G02X350792Y79500I330J226D01*
G01X357000D01*
Y81650D01*
X361000D01*
Y83150D01*
X365500D01*
Y87650D01*
X361000D01*
Y89150D01*
X357000D01*
Y91850D01*
X367900D01*
Y69100D01*
X368163D01*
G02X368447Y68418I0J-400D01*
G03X368158Y68100I3552J-3519D01*
G01X364700D01*
Y69600D01*
X355700D01*
Y60600D01*
X364700D01*
Y62100D01*
X367857D01*
G03X376000Y61900I4143J2800D01*
G01X377700D01*
Y61150D01*
X390900D01*
Y63900D01*
X391700D01*
Y75000D01*
X383900D01*
Y84043D01*
G03Y87557I-2675J1757D01*
G01Y92500D01*
X399462D01*
G03X401500Y90270I4538J2100D01*
G01X401600Y90212D01*
Y89800D01*
X400250D01*
Y76700D01*
X399500D01*
Y68700D01*
X399500Y66100D01*
X401000D01*
Y61200D01*
X407000D01*
Y66100D01*
X409200D01*
Y61200D01*
X415200D01*
Y66100D01*
X417400D01*
Y61200D01*
X423400D01*
Y66100D01*
X425600D01*
Y61200D01*
X431600D01*
Y66100D01*
X433800D01*
Y61200D01*
X439800D01*
Y66100D01*
X442000D01*
Y61200D01*
X448000D01*
Y66100D01*
X450200D01*
Y61200D01*
X456200D01*
Y66100D01*
X458400D01*
Y61200D01*
X464400D01*
Y66100D01*
X465900D01*
Y68700D01*
X465900Y76700D01*
X465150D01*
Y89800D01*
X463800D01*
Y90212D01*
X463900Y90270D01*
G03X465938Y92500I-2500J4330D01*
G01X466300D01*
Y93604D01*
X466304Y93623D01*
G03Y95577I-4904J977D01*
G01X466300Y95596D01*
Y110081D01*
G02X466983Y110364I400J0D01*
G01X487664Y89683D01*
G02X487381Y89000I-283J-283D01*
G01X479700D01*
Y80000D01*
X488700D01*
Y87681D01*
G02X489383Y87964I400J0D01*
G01X493847Y83500D01*
X547450D01*
Y76200D01*
X554950D01*
Y77500D01*
X567224D01*
G03X567155Y82100I6576J2400D01*
G01X554950D01*
Y89400D01*
X547450D01*
Y88100D01*
X495753D01*
X474836Y109017D01*
G02X475119Y109700I283J283D01*
G01X543853D01*
X551853Y117700D01*
X553250D01*
Y121431D01*
G02X553705Y121827I400J0D01*
G03X556999Y124612I395J2873D01*
G02X557399Y125000I400J-12D01*
G01X566798D01*
X566806Y124808D01*
G03X568438Y129600I6994J292D01*
G01X566767D01*
G02X566566Y130346I0J400D01*
G03X561034I-2766J4754D01*
G02X560833Y129600I-201J-346D01*
G01X553250D01*
Y130900D01*
X545750D01*
Y118103D01*
X541947Y114300D01*
X472653D01*
X466300Y120653D01*
Y134081D01*
G02X466983Y134364I400J0D01*
G01X467247Y134100D01*
X481077D01*
G02X481468Y133612I0J-400D01*
G03X486932I2732J-612D01*
G02X487323Y134100I390J87D01*
G01X516353D01*
X521177Y138924D01*
X521241Y138934D01*
G03X521455Y138975I-441J2866D01*
G01X521477Y138980D01*
X521700D01*
Y136506D01*
X531351Y126855D01*
X531363Y126797D01*
G03X531398Y126652I2837J604D01*
G01X531405Y126626D01*
Y126400D01*
X523300D01*
Y117400D01*
X532300D01*
Y124460D01*
G02X532882Y124817I400J0D01*
G03X534803Y130237I1318J2583D01*
G01X534745Y130249D01*
X526500Y138494D01*
Y141700D01*
X527100D01*
Y143200D01*
X528700D01*
Y154200D01*
X527100D01*
Y155700D01*
X524460D01*
G02X524177Y156383I0J400D01*
G01X524394Y156600D01*
X532572D01*
G03X535798Y161420I1628J2400D01*
G02X535743Y161700I110J167D01*
G03X526464Y162004I-4543J3100D01*
G02X526119Y161400I-344J-203D01*
G01X522406D01*
X516706Y155700D01*
X514322D01*
G03X510845Y157500I-2722J-1000D01*
G02X510360Y158009I-104J386D01*
G03X507730Y161797I-2760J891D01*
G01X507652Y161801D01*
X505838Y163615D01*
G02X505888Y164224I283J283D01*
G03X501841Y168270I-1688J2359D01*
G02X501233Y168220I-325J233D01*
G01X496853Y172600D01*
X492053D01*
X466300Y198353D01*
Y201900D01*
X486134D01*
X499351Y188683D01*
G02X499068Y188000I-283J-283D01*
G01X497500D01*
Y186500D01*
X495800D01*
Y183449D01*
G03Y181151I800J-1149D01*
G01Y175500D01*
X497500D01*
Y174000D01*
X507685D01*
G02X508076Y173516I0J-400D01*
G03X514781Y172441I3324J-716D01*
G01X514789Y172511D01*
X515700Y173423D01*
Y174000D01*
X518762D01*
G02X519145Y173484I0J-400D01*
G03X525517Y173859I3255J-984D01*
G01X525500Y173897D01*
Y175500D01*
X527200D01*
Y186500D01*
X525500D01*
Y188000D01*
X522850D01*
Y189459D01*
X505817Y206492D01*
G02X505857Y207093I283J283D01*
G03X506086Y211513I-1757J2307D01*
G02X506098Y212107I274J291D01*
G03X506860Y213145I-1898J2193D01*
G02X507125Y213248I183J-80D01*
G03X510719Y217500I1175J2651D01*
G03X510867Y220450I-2419J1600D01*
G03X510585Y223586I-2567J1350D01*
G03X505715Y223114I-2585J1314D01*
G03X505442Y222293I2585J-1314D01*
G02X504933Y221978I-394J68D01*
G03X502194Y221386I-833J-2778D01*
G03X498170Y217483I-1494J-2486D01*
G03X497716Y215598I2430J-1583D01*
G02X497035Y215274I-398J-42D01*
G01X480457Y231852D01*
X466300D01*
Y255626D01*
G02X466845Y255998I400J0D01*
G03X469952Y260750I1055J2702D01*
G03X466845Y265502I-2051J2050D01*
G02X466300Y265874I-145J373D01*
G01Y268725D01*
G02X466809Y269110I400J0D01*
G03Y274690I791J2790D01*
G02X466300Y275075I-109J385D01*
G01Y324300D01*
X445466D01*
G02X445183Y324983I0J400D01*
G01X466300Y346100D01*
X487344D01*
X487369Y346094D01*
G03X488831I731J2806D01*
G01X488856Y346100D01*
X495123D01*
X495155Y345939D01*
G03X500845I2845J561D01*
G01X500877Y346100D01*
X523900D01*
Y347678D01*
G03Y353122I-1000J2722D01*
G01Y363977D01*
G03X524581Y365055I-900J1323D01*
G01X524608Y365225D01*
X526575D01*
Y372375D01*
X525075D01*
Y375875D01*
X521575D01*
Y377375D01*
X514425D01*
Y375875D01*
X511575D01*
Y377375D01*
X504425D01*
Y375875D01*
X501575D01*
Y377375D01*
X494425D01*
Y375875D01*
X491575D01*
Y377375D01*
X484425D01*
Y375875D01*
X481575D01*
Y377375D01*
X474425D01*
Y375875D01*
X471575D01*
Y377375D01*
X464425D01*
Y375875D01*
X461575D01*
Y377375D01*
X459400D01*
G03X456600I-1400J-775D01*
G01X454340D01*
G03X451660I-1340J-875D01*
G01X449425D01*
Y375875D01*
X446575D01*
Y377375D01*
X444269D01*
G03X441731I-1269J-975D01*
G01X439185D01*
G03X436815I-1185J-1075D01*
G01X434425D01*
Y375875D01*
X431575D01*
Y377375D01*
X429240D01*
G03X426560I-1340J-875D01*
G01X424425D01*
Y375875D01*
X421575D01*
Y377375D01*
X419400D01*
G03X416600I-1400J-775D01*
G01X414425D01*
Y375875D01*
X411575D01*
Y377375D01*
X409340D01*
G03X406660I-1340J-875D01*
G01X404425D01*
Y375875D01*
X401575D01*
Y377375D01*
X399400D01*
G03X396600I-1400J-775D01*
G01X394425D01*
Y375875D01*
X391575D01*
Y377375D01*
X389400D01*
G03X386600I-1400J-775D01*
G01X384425D01*
Y375875D01*
X381575D01*
Y377375D01*
X379499D01*
X379444Y377489D01*
G03X376556I-1444J-689D01*
G01X376501Y377375D01*
X374425D01*
Y375875D01*
X370925D01*
Y372375D01*
X370075D01*
Y375875D01*
X366575D01*
Y377375D01*
X364300D01*
G03X361500I-1400J-775D01*
G01X359340D01*
G03X356660I-1340J-875D01*
G01X354425D01*
Y375875D01*
X350925D01*
Y372375D01*
X350075D01*
Y375875D01*
X346575D01*
Y377375D01*
X344269D01*
G03X341731I-1269J-975D01*
G01X339269D01*
G03X336731I-1269J-975D01*
G01X334425D01*
Y375875D01*
X330925D01*
Y372375D01*
X330075D01*
Y375875D01*
X325925D01*
Y372375D01*
X324425D01*
Y365225D01*
X326700D01*
Y363200D01*
X323850D01*
Y350000D01*
X323900D01*
Y343500D01*
X323150D01*
Y330300D01*
X327700D01*
Y324300D01*
X299554D01*
X275663Y348190D01*
X275750Y348400D01*
Y361600D01*
X273300D01*
Y365225D01*
X275575D01*
Y372375D01*
X274075D01*
Y375875D01*
X270575D01*
Y377375D01*
X268900D01*
X268870Y377540D01*
G03X265130I-1870J-339D01*
G01X265100Y377375D01*
X263425D01*
Y375875D01*
X260575D01*
Y377375D01*
X258900D01*
X258870Y377540D01*
G03X255130I-1870J-339D01*
G01X255100Y377375D01*
X253425D01*
Y375875D01*
X250575D01*
Y377375D01*
X248900D01*
X248870Y377540D01*
G03X245130I-1870J-339D01*
G01X245101Y377375D01*
X243425D01*
Y375875D01*
X240575D01*
Y377375D01*
X238907D01*
X238884Y377549D01*
G03X235116I-1884J-249D01*
G01X235093Y377375D01*
X233425D01*
Y375875D01*
X230575D01*
Y377375D01*
X228584D01*
X228543Y377522D01*
G03X225457I-1543J-422D01*
G01X225416Y377375D01*
X223425D01*
Y375875D01*
X220575D01*
Y377375D01*
X218808D01*
X218757Y377499D01*
G03X215243I-1757J-724D01*
G01X215192Y377375D01*
X213425D01*
Y375875D01*
X210575D01*
Y377375D01*
X208899D01*
X208870Y377540D01*
G03X205130I-1870J-339D01*
G01X205100Y377375D01*
X203425D01*
Y375875D01*
X200575D01*
Y377375D01*
X198887D01*
X198851Y377530D01*
G03X195149I-1851J-430D01*
G01X195113Y377375D01*
X193425D01*
Y375875D01*
X190575D01*
Y377375D01*
X188869D01*
X188828Y377520D01*
G03X185172I-1828J-520D01*
G01X185131Y377375D01*
X183425D01*
Y375875D01*
X180575D01*
Y377375D01*
X178887D01*
X178851Y377530D01*
G03X175149I-1851J-430D01*
G01X175113Y377375D01*
X173425D01*
Y375875D01*
X170575D01*
Y377375D01*
X168900D01*
X168870Y377540D01*
G03X165130I-1870J-339D01*
G01X165100Y377375D01*
X163425D01*
Y375875D01*
X160575D01*
Y377375D01*
X158816D01*
X158766Y377501D01*
G03X155234I-1766J-701D01*
G01X155184Y377375D01*
X153425D01*
Y375875D01*
X150575D01*
Y377375D01*
X148899D01*
X148870Y377540D01*
G03X145130I-1870J-339D01*
G01X145100Y377375D01*
X143425D01*
Y375875D01*
X140575D01*
Y377375D01*
X138845D01*
X138799Y377511D01*
G03X135201I-1799J-611D01*
G01X135155Y377375D01*
X133425D01*
Y375875D01*
X130575D01*
Y377375D01*
X128887D01*
X128851Y377530D01*
G03X125149I-1851J-430D01*
G01X125113Y377375D01*
X123425D01*
Y375875D01*
X120575D01*
Y377375D01*
X118887D01*
X118851Y377530D01*
G03X115149I-1851J-430D01*
G01X115113Y377375D01*
X113425D01*
Y375875D01*
X110575D01*
Y377375D01*
X108887D01*
X108851Y377530D01*
G03X105149I-1851J-430D01*
G01X105113Y377375D01*
X103425D01*
Y375875D01*
X100575D01*
Y377375D01*
X98887D01*
X98851Y377530D01*
G03X95149I-1851J-430D01*
G01X95113Y377375D01*
X93425D01*
Y375875D01*
X90575D01*
Y377375D01*
X88887D01*
X88851Y377530D01*
G03X85149I-1851J-430D01*
G01X85113Y377375D01*
X83425D01*
Y375875D01*
X80575D01*
Y377375D01*
X78869D01*
X78828Y377520D01*
G03X75173I-1827J-520D01*
G01X75131Y377375D01*
X73425D01*
Y370225D01*
X74925D01*
Y366725D01*
X78425D01*
Y365225D01*
X80600D01*
Y361600D01*
X78150D01*
Y348400D01*
X79600D01*
Y295547D01*
X112847Y262300D01*
X219100D01*
Y248652D01*
G03Y243548I4300J-2552D01*
G01Y238650D01*
X207200D01*
Y237200D01*
X189699D01*
G03Y232400I-4099J-2400D01*
G01X207200D01*
Y231150D01*
X217297D01*
X219100Y229347D01*
Y228450D01*
X207200D01*
Y227100D01*
X189756D01*
G03X189639Y222300I-4156J-2300D01*
G01X207200D01*
Y220950D01*
X217297D01*
X219100Y219147D01*
Y218650D01*
X207200D01*
Y217300D01*
X189639D01*
G03X189756Y212500I-4039J-2500D01*
G01X207200D01*
Y211150D01*
X219100D01*
Y209700D01*
X218347D01*
X217297Y208650D01*
X207200D01*
Y207300D01*
X189639D01*
G03X189756Y202500I-4039J-2500D01*
G01X207200D01*
Y201150D01*
X217031D01*
G02X217314Y200467I0J-400D01*
G01X207405Y190558D01*
G02X206829Y190570I-283J283D01*
G03X201834Y189041I-2129J-1970D01*
G01X201824Y188977D01*
X116692Y103845D01*
X100742D01*
Y97394D01*
X100342Y96995D01*
G02X100000Y97136I-141J141D01*
G01Y111300D01*
X86015D01*
Y116950D01*
X91900D01*
Y118450D01*
X96400D01*
Y122950D01*
X91900D01*
Y124450D01*
X84700D01*
Y123410D01*
X80510D01*
Y127050D01*
X86700D01*
Y128550D01*
X91200D01*
Y133050D01*
X86700D01*
Y134550D01*
X76100D01*
Y141800D01*
X72100D01*
Y167100D01*
X72100Y169900D01*
X77000D01*
Y170615D01*
G02X77491Y171004I400J0D01*
G03X79792Y171150I909J3896D01*
G01X86537D01*
X88337Y169350D01*
X86897Y167910D01*
X84385D01*
Y158900D01*
X78200D01*
Y156550D01*
X73700D01*
Y152050D01*
X78200D01*
Y140500D01*
X104650D01*
Y136100D01*
X109150D01*
Y140500D01*
X112200D01*
Y158900D01*
X111015D01*
Y161450D01*
X116700D01*
Y162950D01*
X121200D01*
Y167450D01*
X116700D01*
Y168950D01*
X109500D01*
Y167910D01*
X105510D01*
Y172850D01*
X112400D01*
Y174350D01*
X116900D01*
Y178850D01*
X112400D01*
Y180350D01*
X96727D01*
X95177Y181900D01*
X94492D01*
X94437Y181945D01*
G03X88907Y179077I-2137J-2645D01*
G02X88508Y178650I-399J-26D01*
G01X79792D01*
G03X77491Y178796I-1392J-3750D01*
G02X77000Y179185I-91J390D01*
G01Y185050D01*
X80600D01*
Y189550D01*
X77000D01*
Y198600D01*
X46500D01*
Y192750D01*
X35000D01*
G02X34317Y192477I-400J10D01*
G01X34077Y192717D01*
G02X34360Y193400I283J283D01*
G01X38500D01*
Y199400D01*
X33500D01*
Y210300D01*
X31100D01*
Y210200D01*
X3300D01*
Y217800D01*
X19550D01*
Y227800D01*
X16400D01*
Y228806D01*
G02X16824Y229205I400J0D01*
G03X18898Y234293I176J2895D01*
G02X18886Y234887I262J302D01*
G03X19799Y236912I-1986J2113D01*
G02X20199Y237300I400J-12D01*
G01X24400D01*
Y233400D01*
X26385D01*
Y225190D01*
X27100D01*
Y224647D01*
X27052Y224591D01*
G03X26576Y220107I3048J-2591D01*
G01X26600Y220063D01*
Y218150D01*
X22100D01*
Y213650D01*
X26600D01*
Y212150D01*
X33800D01*
Y213323D01*
X34589Y214111D01*
X34659Y214119D01*
G03X37302Y219097I-359J3381D01*
G02X37655Y219685I353J188D01*
G01X38855D01*
X38870Y219500D01*
G03X45650I3390J260D01*
G01X45664Y219685D01*
X46500D01*
Y213450D01*
X53700D01*
Y214950D01*
X58200D01*
Y219450D01*
X53700D01*
Y220950D01*
X52500D01*
Y223194D01*
X51951Y223743D01*
X51949Y223824D01*
G03X51928Y224141I-3399J-73D01*
G02X52419Y224575I397J46D01*
G03X53215Y231280I801J3305D01*
G02X53015Y231480I0J200D01*
G01Y233400D01*
X53500D01*
Y234350D01*
X58764D01*
G02X59078Y233702I0J-400D01*
G03X60019Y226586I3922J-3102D01*
G01X60100Y226526D01*
Y225550D01*
X58900D01*
Y211100D01*
X67900D01*
Y216206D01*
X69744Y218050D01*
X70900D01*
Y216300D01*
X74550D01*
Y212000D01*
X79050D01*
Y216300D01*
X101500D01*
Y218450D01*
X105200D01*
Y222950D01*
X101500D01*
Y233200D01*
X100415D01*
Y237150D01*
X107100D01*
Y238650D01*
X111600D01*
Y243150D01*
X107100D01*
Y244650D01*
X99900D01*
Y243610D01*
X94910D01*
Y244063D01*
X95700Y244853D01*
Y248650D01*
X102700D01*
Y250150D01*
X107200D01*
Y254650D01*
X102700D01*
Y256150D01*
X96200D01*
Y259000D01*
X104800D01*
Y269000D01*
X96200D01*
Y270500D01*
X93300D01*
X81300Y270500D01*
Y261600D01*
X79400D01*
Y271700D01*
X61400D01*
Y246600D01*
X73300D01*
Y239800D01*
X73785D01*
Y233200D01*
X70900D01*
Y225550D01*
X64900D01*
Y225973D01*
X65019Y226026D01*
G03X64194Y235456I-2019J4574D01*
G01X64042Y235493D01*
Y235850D01*
X65000D01*
Y240350D01*
X60500D01*
Y241850D01*
X53300D01*
Y241800D01*
X48700D01*
Y244400D01*
X53500D01*
Y245650D01*
X55700D01*
Y247150D01*
X60200D01*
Y251650D01*
X55700D01*
Y253150D01*
X53500D01*
Y267100D01*
X53500Y269900D01*
X48600D01*
Y278600D01*
X38600D01*
Y269900D01*
X26000D01*
Y268900D01*
X22745D01*
G02X22364Y269421I0J400D01*
G03X16836I-2764J879D01*
G02X16455Y268900I-381J-121D01*
G01X14400D01*
Y268700D01*
X3300D01*
Y299150D01*
X6000D01*
Y288300D01*
X31850D01*
Y283300D01*
X33350D01*
Y278800D01*
X37850D01*
Y283300D01*
X39350D01*
Y288300D01*
X41500D01*
Y307217D01*
X41644Y307259D01*
G03X38600Y313210I-964J3261D01*
G01X35410D01*
Y318715D01*
X35320D01*
Y319150D01*
X36000D01*
Y319300D01*
X42250D01*
Y326500D01*
X40750D01*
Y331000D01*
X36250D01*
Y326650D01*
X30700D01*
Y331500D01*
X28900D01*
Y341300D01*
X19900D01*
Y331500D01*
X17700D01*
Y341900D01*
X17400D01*
Y342800D01*
X5400D01*
Y341900D01*
X3300D01*
Y375536D01*
G02X4086Y375642I400J0D01*
G03Y384358I15914J4358D01*
G02X3300Y384464I-386J106D01*
G01Y397300D01*
X64653D01*
Y386745D01*
X70373D01*
Y397300D01*
X278627D01*
Y386745D01*
X284347D01*
Y397300D01*
X315653D01*
Y386745D01*
X321373D01*
Y397300D01*
X529627D01*
Y386745D01*
X535347D01*
Y397300D01*
X596600D01*
Y384814D01*
G02X595817Y384700I-400J0D01*
G03Y375300I-15817J-4700D01*
G02X596600Y375186I383J-114D01*
G01Y24814D01*
G02X595817Y24700I-400J0D01*
G03X574408Y4476I-15817J-4700D01*
G02X574272Y3700I-136J-376D01*
G01X324235D01*
Y10675D01*
X313435D01*
Y3700D01*
X291165D01*
Y10675D01*
X280365D01*
Y3700D01*
X216373D01*
G37*
G36*
G01X13648Y249515D02*
G02X14400Y249324I351J-191D01*
G01Y237300D01*
X14400Y226300D01*
X4550D01*
X3200Y226300D01*
Y247355D01*
G02X3673Y247748I400J0D01*
G03X4115Y247701I527J2852D01*
G03X9888Y247738I2885J299D01*
G02X10385Y248089I398J-36D01*
G03X13648Y249515I715J2811D01*
G37*
G36*
G01X14400Y252476D02*
G02X13648Y252285I-400J0D01*
G03X9284Y253161I-2548J-1385D01*
G03X5762Y253044I-1684J-2361D01*
G03X3673Y253452I-1562J-2443D01*
G02X3200Y253845I-73J393D01*
G01Y266700D01*
X14400D01*
Y252476D01*
G37*
G36*
G01X4900Y313500D02*
Y339900D01*
X6900D01*
Y331300D01*
X15700D01*
Y329500D01*
X28700D01*
Y325150D01*
X24300D01*
Y320650D01*
X28700D01*
Y318715D01*
X27470D01*
Y317215D01*
X21290D01*
Y313500D01*
X4900D01*
G37*
G36*
G01X16812Y239899D02*
G02X16400Y240299I-12J400D01*
G01Y261467D01*
G03Y261533I-2900J33D01*
G01Y266900D01*
X24000D01*
Y255250D01*
X23900D01*
Y253750D01*
X19400D01*
Y249250D01*
X23900D01*
Y247750D01*
X24000D01*
Y239300D01*
X18667D01*
G03X16812Y239899I-1767J-2300D01*
G37*
G36*
G01X27885Y238250D02*
X26400D01*
Y249250D01*
X29600D01*
Y253750D01*
X26400D01*
Y265100D01*
X38600D01*
Y256600D01*
X48600D01*
Y265100D01*
X51500D01*
Y253150D01*
X42400D01*
Y251650D01*
X37900D01*
Y247150D01*
X42220D01*
Y246315D01*
X39570D01*
Y244815D01*
X33390D01*
Y240905D01*
X31795D01*
Y239310D01*
X27885D01*
Y238250D01*
G37*
G36*
G01X8000Y290300D02*
Y297650D01*
X8500D01*
Y299150D01*
X13000D01*
Y303650D01*
X8500D01*
Y305200D01*
X14285D01*
Y300150D01*
X15785D01*
Y299090D01*
X19695D01*
Y297495D01*
X21290D01*
Y293585D01*
X27470D01*
Y293265D01*
X27452Y293184D01*
Y293183D01*
G03X27434Y290858I2648J-1183D01*
G02X27067Y290300I-368J-158D01*
G01X24567D01*
G03X21033I-1767J-2300D01*
G01X8000D01*
G37*
G36*
G01X59385Y115200D02*
X55000D01*
Y123100D01*
X46100D01*
Y124100D01*
X62900D01*
Y128550D01*
X63000D01*
Y130050D01*
X67500D01*
Y134550D01*
X63000D01*
Y136050D01*
X62900D01*
Y139800D01*
X74100D01*
Y134550D01*
X73900D01*
Y133050D01*
X69400D01*
Y128550D01*
X72570D01*
Y127415D01*
X66390D01*
Y123505D01*
X64795D01*
Y121910D01*
X60885D01*
Y120850D01*
X59385D01*
Y115200D01*
G37*
G36*
G01X60900Y139700D02*
Y134550D01*
X57300D01*
Y130050D01*
X60900D01*
Y126100D01*
X45500D01*
Y139678D01*
G03X45559Y139700I-999J2723D01*
G01X60900D01*
G37*
G36*
G01X46500Y173700D02*
X31100D01*
Y187940D01*
G02X31783Y188223I400J0D01*
G01X33406Y186600D01*
X35000D01*
Y185250D01*
X46500D01*
Y173700D01*
G37*
G36*
G01X33133Y290300D02*
G02X32766Y290858I0J400D01*
G03X32860Y292892I-2666J1142D01*
G01X32850Y292922D01*
Y293585D01*
X33910D01*
Y297495D01*
X35505D01*
Y299090D01*
X39500D01*
Y290300D01*
X33133D01*
G37*
G36*
G01X71698Y103785D02*
G02X72073Y103245I0J-400D01*
G03X73127Y99412I3187J-1186D01*
G02X72876Y98700I-251J-312D01*
G01X67550D01*
Y103000D01*
X63050D01*
Y98500D01*
X61550D01*
Y98400D01*
X52700D01*
Y105950D01*
X56500D01*
Y110450D01*
X52700D01*
Y111600D01*
X56500D01*
Y113200D01*
X59385D01*
Y110350D01*
X60885D01*
Y109290D01*
X64795D01*
Y107695D01*
X66390D01*
Y103785D01*
X71698D01*
G37*
G36*
G01X48500Y171900D02*
Y186243D01*
G03Y191757I-900J2757D01*
G01Y196600D01*
X75000D01*
Y191050D01*
X74900D01*
Y189550D01*
X70400D01*
Y185050D01*
X74900D01*
Y183550D01*
X75000D01*
Y177008D01*
G03X74971Y172839I3400J-2108D01*
G01X75000Y172792D01*
Y171900D01*
X48500D01*
G37*
G36*
G01X73300Y248600D02*
X63400D01*
Y269700D01*
X77400D01*
Y255050D01*
X77000D01*
Y253550D01*
X72500D01*
Y249050D01*
X73300D01*
Y248600D01*
G37*
G36*
G01X79010Y103785D02*
Y107695D01*
X80605D01*
Y109290D01*
X84515D01*
Y109300D01*
X98000D01*
Y98700D01*
X77643D01*
G02X77392Y99412I0J400D01*
G03X78447Y103245I-2133J2648D01*
G02X78822Y103785I375J139D01*
G01X79010D01*
G37*
G36*
G01X95758Y148285D02*
G02X96141Y147771I0J-400D01*
G03X102781Y146441I3259J-971D01*
G01X102789Y146511D01*
X102860Y146583D01*
Y146785D01*
X102950D01*
Y148285D01*
X104010D01*
Y152195D01*
X105605D01*
Y153790D01*
X109515D01*
Y154790D01*
X110200D01*
Y142500D01*
X109150D01*
Y146300D01*
X104650D01*
Y142500D01*
X80200D01*
Y152050D01*
X83900D01*
Y156900D01*
X84385D01*
Y154850D01*
X85885D01*
Y153790D01*
X89795D01*
Y152195D01*
X91390D01*
Y148285D01*
X95758D01*
G37*
G36*
G01X92872Y223454D02*
G02X93250Y223985I378J131D01*
G01X93410D01*
Y227895D01*
X95005D01*
Y229490D01*
X98915D01*
Y230550D01*
X99480D01*
G03X99500Y230535I2078J2691D01*
G01Y224450D01*
X99500Y222950D01*
X95000D01*
Y218300D01*
X79050D01*
Y222200D01*
X74550D01*
Y218300D01*
X72900D01*
Y231200D01*
X73785D01*
Y230550D01*
X75285D01*
Y229490D01*
X79195D01*
Y227895D01*
X80790D01*
Y223985D01*
X86069D01*
G02X86447Y223454I0J-400D01*
G03X92872I3213J-1114D01*
G37*
G36*
G01X75300Y241800D02*
Y246800D01*
X77500D01*
Y246900D01*
X79500D01*
Y250600D01*
X79800D01*
Y259600D01*
X83500D01*
Y268200D01*
X91200D01*
Y256800D01*
X88700D01*
Y252900D01*
X88600D01*
Y249700D01*
X86700D01*
Y244200D01*
X78800D01*
Y241800D01*
X75300D01*
G37*
G36*
G01X112817Y44736D02*
X100900Y56653D01*
Y67955D01*
X122700D01*
Y53147D01*
X123014Y52833D01*
G02X122731Y52150I-283J-283D01*
G01X120006D01*
X119991Y52334D01*
G03X114209I-2891J-234D01*
G01X114194Y52150D01*
X113500D01*
Y45019D01*
G02X112817Y44736I-400J0D01*
G37*
G36*
G01X150673Y3700D02*
Y12700D01*
X151347D01*
X152400Y11647D01*
Y9050D01*
X165600D01*
Y9923D01*
X165762Y9955D01*
G03Y15645I-561J2845D01*
G01X165600Y15677D01*
Y16550D01*
X164100D01*
Y20950D01*
X159600D01*
Y22450D01*
X152400D01*
Y18353D01*
X151347Y17300D01*
X137653D01*
X135786Y19167D01*
G02X136069Y19850I283J283D01*
G01X141008D01*
Y21622D01*
X142539D01*
Y20870D01*
X150477D01*
Y33138D01*
X142539D01*
Y30650D01*
X141993D01*
Y32150D01*
X133800D01*
Y50753D01*
X128900Y55653D01*
Y62955D01*
X150758D01*
Y64105D01*
X153217Y66564D01*
G02X153900Y66281I283J-283D01*
G01Y57800D01*
X170400D01*
Y61910D01*
X170568Y61938D01*
G03X171808Y62456I-468J2862D01*
G03X174564Y62440I1392J2544D01*
G03X178297Y66794I1536J2460D01*
G02X178600Y67455I303J261D01*
G01X184158D01*
Y75900D01*
X190742D01*
Y68000D01*
X186647D01*
X159647Y41000D01*
X143947D01*
X141632Y38685D01*
X141586Y38670D01*
G03X144490Y34654I814J-2470D01*
G03X147012Y34600I1310J2246D01*
G01X162553D01*
X176541Y48588D01*
G02X177208Y48413I283J-283D01*
G03X179438Y46355I2791J787D01*
G01X179600Y46323D01*
Y45450D01*
X181100D01*
Y40650D01*
X185600D01*
Y39150D01*
X188963D01*
Y38233D01*
G02X188398Y37869I-400J0D01*
G03X184726Y35539I-1072J-2369D01*
G02X184303Y35146I-400J6D01*
G03X181655Y33282I-153J-2596D01*
G01X181613Y33138D01*
X174223D01*
Y20870D01*
X182161D01*
Y21622D01*
X183692D01*
Y19850D01*
X184042D01*
Y18772D01*
X184020Y18729D01*
G03X188832Y16810I2322J-1171D01*
G03X191200Y19443I-232J2590D01*
G02X191600Y19850I400J7D01*
G01X194183D01*
G03X195695Y18737I2001J1135D01*
G01X195853Y18702D01*
Y18094D01*
X201547Y12400D01*
X208042D01*
Y3700D01*
X182358D01*
Y13020D01*
X174027D01*
Y3700D01*
X150673D01*
G37*
G36*
G01X126400Y83000D02*
X122458D01*
Y83845D01*
X120100D01*
Y84455D01*
X120958D01*
Y87345D01*
X120100D01*
Y87955D01*
X122458D01*
Y88100D01*
X126400D01*
Y83000D01*
G37*
G36*
G01X128359Y75294D02*
X123336Y80317D01*
G02X123619Y81000I283J283D01*
G01X128400D01*
Y90100D01*
X122458D01*
Y103106D01*
X127617Y108264D01*
G02X128300Y107981I283J-283D01*
G01Y97500D01*
X129042D01*
Y82955D01*
X150758D01*
Y97500D01*
X151300D01*
Y78455D01*
X151082D01*
X151064Y78458D01*
G03X150933Y78479I-465J-2558D01*
G01X150758Y78501D01*
Y78845D01*
X129042D01*
Y75577D01*
G02X128359Y75294I-400J0D01*
G37*
G36*
G01X149258Y102345D02*
X130300D01*
Y107100D01*
X137650D01*
Y103000D01*
X142150D01*
Y106800D01*
X150800D01*
Y99500D01*
X149258D01*
Y102345D01*
G37*
G36*
G01X129419Y109100D02*
G02X129136Y109783I0J400D01*
G01X132845Y113492D01*
G02X133421Y113480I283J-283D01*
G03X137044Y112964I2129J1969D01*
G02X137650Y112621I206J-343D01*
G01Y109100D01*
X129419D01*
G37*
G36*
G01X142150D02*
Y113200D01*
X138283D01*
G02X137952Y113824I0J400D01*
G03X138416Y115009I-2402J1626D01*
G01X138426Y115073D01*
X218417Y195064D01*
G02X219100Y194781I283J-283D01*
G01Y182053D01*
X151300Y114253D01*
Y109100D01*
X142150D01*
G37*
G36*
G01Y108800D02*
Y113200D01*
X140400D01*
Y117047D01*
X140453Y117100D01*
X148900D01*
Y108800D01*
X142150D01*
G37*
G36*
G01X156434Y71566D02*
G03X160040Y73100I967J2734D01*
G01X160667D01*
G03X160733I33J2900D01*
G01X162442D01*
Y72455D01*
X168400D01*
Y71845D01*
X163942D01*
Y68955D01*
X168400D01*
Y59800D01*
X155900D01*
Y69247D01*
X155900Y71188D01*
G02X156434Y71566I400J0D01*
G37*
G36*
G01X155900Y75100D02*
Y112347D01*
X218417Y174864D01*
G02X219100Y174581I283J-283D01*
G01Y173753D01*
X185600Y140253D01*
Y108475D01*
G02X185091Y108090I-400J0D01*
G03X184158Y108197I-791J-2790D01*
G01Y108345D01*
X162442D01*
Y92455D01*
X184158D01*
Y94506D01*
X190200Y100547D01*
Y138347D01*
X218417Y166564D01*
G02X219100Y166281I283J-283D01*
G01Y164453D01*
X212900Y158253D01*
Y95853D01*
X212800Y95753D01*
G02X212458Y95894I-141J141D01*
G01Y103345D01*
X190742D01*
Y91900D01*
X184000D01*
Y88345D01*
X162442D01*
Y75100D01*
X155900D01*
G37*
G36*
G01X190742Y77900D02*
X186000D01*
Y89900D01*
X190742D01*
Y87455D01*
X194100D01*
Y86845D01*
X192242D01*
Y83955D01*
X194100D01*
Y83345D01*
X190742D01*
Y77900D01*
G37*
G36*
G01X215200Y17000D02*
X203453D01*
X201286Y19167D01*
G02X201569Y19850I283J283D01*
G01X206708D01*
Y21622D01*
X208239D01*
Y20870D01*
X215200D01*
Y17000D01*
G37*
G36*
G01X256900Y39560D02*
Y43150D01*
X252400D01*
Y44650D01*
X252075D01*
G02X251684Y45135I0J400D01*
G03X251686Y45142I-2829J637D01*
G01X251720Y45300D01*
X256147D01*
G03X258756Y43451I2703J1050D01*
G02X258950Y43251I-6J-200D01*
G01Y40644D01*
X257583Y39277D01*
G02X256900Y39560I-283J283D01*
G37*
G36*
G01X280183Y39800D02*
X275366Y44617D01*
G02X275649Y45300I283J283D01*
G01X276147D01*
G03X281553I2703J1050D01*
G01X289706D01*
X294606Y40400D01*
X297189D01*
X297213Y40228D01*
G03X297248Y40048I1881J272D01*
G01X297254Y40024D01*
Y39800D01*
X280183D01*
G37*
G36*
G01X262900Y56300D02*
Y80060D01*
G03X264166Y83742I-1400J2540D01*
G02X264533Y84300I368J158D01*
G01X272900D01*
Y76800D01*
X281450D01*
Y56300D01*
X271591D01*
X271545Y56436D01*
G03X266055I-2745J-936D01*
G01X266009Y56300D01*
X262900D01*
G37*
G36*
G01X280400Y78800D02*
X274900D01*
Y84300D01*
X280400D01*
Y78800D01*
G37*
G36*
G01X293950Y74100D02*
Y58649D01*
G02X293756Y58449I-200J0D01*
G03X291958Y57748I94J-2899D01*
G02X291358Y57839I-261J303D01*
G03X289218Y59183I-2458J-1539D01*
G03X286444Y61649I-2868J-433D01*
G02X286250Y61849I6J200D01*
G01Y81522D01*
G03X286356Y81690I-2400J1628D01*
G02X286636Y81757I173J-101D01*
G03X287545Y81375I1564J2443D01*
G01X287700Y81339D01*
Y79959D01*
X287687Y79925D01*
G03X287700Y77842I2713J-1025D01*
G01Y74100D01*
X293950D01*
G37*
G36*
G01X293114Y84300D02*
G02X293507Y83821I0J-400D01*
G03X293950Y81622I2843J-571D01*
G01Y77489D01*
G02X293447Y77102I-400J0D01*
G03X290484Y76171I-747J-2802D01*
G01X290424Y76100D01*
X289700D01*
Y84300D01*
X293114D01*
G37*
G36*
G01X288650Y95300D02*
Y102200D01*
X294050D01*
Y95300D01*
X288650D01*
G37*
G36*
G01X323700Y373100D02*
Y380000D01*
X527200D01*
Y373100D01*
X525075D01*
Y375875D01*
X521575D01*
Y377375D01*
X514425D01*
Y375875D01*
X511575D01*
Y377375D01*
X504425D01*
Y375875D01*
X501575D01*
Y377375D01*
X494425D01*
Y375875D01*
X491575D01*
Y377375D01*
X484425D01*
Y375875D01*
X481575D01*
Y377375D01*
X474425D01*
Y375875D01*
X471575D01*
Y377375D01*
X464425D01*
Y375875D01*
X461575D01*
Y377375D01*
X459400D01*
G03X456600I-1400J-775D01*
G01X454340D01*
G03X451660I-1340J-875D01*
G01X449425D01*
Y375875D01*
X446575D01*
Y377375D01*
X444269D01*
G03X441731I-1269J-975D01*
G01X439185D01*
G03X436815I-1185J-1075D01*
G01X434425D01*
Y375875D01*
X431575D01*
Y377375D01*
X429240D01*
G03X426560I-1340J-875D01*
G01X424425D01*
Y375875D01*
X421575D01*
Y377375D01*
X419400D01*
G03X416600I-1400J-775D01*
G01X414425D01*
Y375875D01*
X411575D01*
Y377375D01*
X409340D01*
G03X406660I-1340J-875D01*
G01X404425D01*
Y375875D01*
X401575D01*
Y377375D01*
X399400D01*
G03X396600I-1400J-775D01*
G01X394425D01*
Y375875D01*
X391575D01*
Y377375D01*
X389400D01*
G03X386600I-1400J-775D01*
G01X384425D01*
Y375875D01*
X381575D01*
Y377375D01*
X379499D01*
X379444Y377489D01*
G03X376556I-1444J-689D01*
G01X376501Y377375D01*
X374425D01*
Y375875D01*
X370925D01*
Y373100D01*
X370075D01*
Y375875D01*
X366575D01*
Y377375D01*
X364300D01*
G03X361500I-1400J-775D01*
G01X359340D01*
G03X356660I-1340J-875D01*
G01X354425D01*
Y375875D01*
X350925D01*
Y373100D01*
X350075D01*
Y375875D01*
X346575D01*
Y377375D01*
X344269D01*
G03X341731I-1269J-975D01*
G01X339269D01*
G03X336731I-1269J-975D01*
G01X334425D01*
Y375875D01*
X330925D01*
Y373100D01*
X330075D01*
Y375875D01*
X325925D01*
Y373100D01*
X323700D01*
G37*
G36*
G01X346701Y81500D02*
G03X344723Y81689I-1601J-6300D01*
G02X344300Y82089I-23J399D01*
G01Y91850D01*
X348550D01*
Y93000D01*
X352050D01*
Y91850D01*
X355000D01*
Y81500D01*
X346701D01*
G37*
G36*
G01X384900Y67150D02*
Y68650D01*
X377700D01*
Y67900D01*
X377200D01*
Y71100D01*
X369900D01*
Y89530D01*
G03X370245Y90439I-2500J1470D01*
G01X370277Y90600D01*
X381900D01*
Y73000D01*
X389700D01*
Y67150D01*
X384900D01*
G37*
G36*
G01X377400Y128750D02*
Y115699D01*
X377226Y115676D01*
G03X374701Y112888I374J-2876D01*
G02X374301Y112500I-400J12D01*
G01X362800D01*
Y128750D01*
X373550D01*
Y130250D01*
X377050D01*
Y128750D01*
X377400D01*
G37*
G36*
G01X473053Y141100D02*
X466300Y147853D01*
Y153300D01*
X481322D01*
G02X481682Y152725I0J-400D01*
G03X486718I2518J-1225D01*
G02X487078Y153300I360J175D01*
G01X497400D01*
Y143200D01*
X499100D01*
Y141700D01*
X499194D01*
X499206Y141513D01*
G03X499224Y141326I2894J186D01*
G01X499226Y141313D01*
Y141100D01*
X473053D01*
G37*
G36*
G01X466300Y188500D02*
Y190881D01*
G02X466983Y191164I400J0D01*
G01X483669Y174478D01*
G02X483488Y173808I-283J-283D01*
G03X486908Y170388I712J-2708D01*
G02X487578Y170569I387J-102D01*
G01X489484Y168663D01*
G03X488023Y165958I3916J-3863D01*
G01X487989Y165800D01*
X479700D01*
Y157900D01*
X468200D01*
Y159501D01*
G02X468612Y159901I400J0D01*
G03X470300Y160381I88J2899D01*
G03X472341Y165666I1600J2419D01*
G01X472277Y165676D01*
X468100Y169853D01*
Y174081D01*
G02X468783Y174364I400J0D01*
G01X470124Y173023D01*
X470134Y172959D01*
G03X473441Y176266I2866J441D01*
G01X473377Y176276D01*
X468300Y181353D01*
Y188500D01*
X466300D01*
G37*
G36*
G01X509896Y191774D02*
G03X503114Y191295I-3396J-174D01*
G02X502432Y190977I-398J-36D01*
G01X487709Y205700D01*
X466300D01*
Y228051D01*
X478883D01*
X518251Y188683D01*
G02X517968Y188000I-283J-283D01*
G01X515371D01*
G02X514987Y188513I0J400D01*
G03X510546Y191483I-2687J787D01*
G02X509896Y191774I-251J312D01*
G37*
%LPC*%
G75*
G36*
G01X71600Y33300D02*
Y24300D01*
X63600D01*
X60900Y24300D01*
Y25800D01*
X56100D01*
Y31800D01*
X60900D01*
Y32250D01*
X58000D01*
Y33400D01*
X56290D01*
G02X55800Y38600I-4490J2200D01*
G01X58000D01*
Y39750D01*
X71200D01*
Y33300D01*
X71600D01*
G37*
G36*
G01X38950Y42500D02*
X34450D01*
Y45400D01*
X31800D01*
Y54600D01*
X21800D01*
Y63100D01*
X14000D01*
Y78700D01*
X13900D01*
Y96200D01*
X39800D01*
Y95000D01*
X52300D01*
Y86250D01*
X64300D01*
Y84750D01*
X68800D01*
Y80250D01*
X64300D01*
Y78750D01*
X58110D01*
Y73510D01*
X58978D01*
X58998Y73514D01*
G02X59871Y73552I552J-2694D01*
G01X59882Y73550D01*
X62000D01*
Y74550D01*
X69200D01*
Y73050D01*
X73700D01*
Y68550D01*
X69200D01*
Y67050D01*
X63615D01*
Y57890D01*
X63600D01*
Y51850D01*
X67300D01*
Y47350D01*
X63600D01*
Y45100D01*
X38950D01*
Y42500D01*
G37*
G36*
G01X554600Y255100D02*
X567342D01*
G02X567063Y250500I6458J-2700D01*
G01X554600D01*
Y249050D01*
X541400D01*
Y250009D01*
X541264Y250055D01*
G02Y255545I936J2745D01*
G01X541400Y255591D01*
Y256550D01*
X554600D01*
Y255100D01*
G37*
G36*
G01X121300Y245659D02*
G03X120841Y246055I-400J0D01*
G02X124930Y249706I-741J4945D01*
G01X124900Y249594D01*
X126100Y248394D01*
Y241650D01*
X127100D01*
Y241977D01*
X128500Y243377D01*
Y248200D01*
X137500D01*
Y240200D01*
X133300D01*
Y234150D01*
X120100D01*
Y241650D01*
X121300D01*
Y245659D01*
G37*
G36*
G01X558700Y213300D02*
X567092D01*
G02X567301Y208700I6708J-2000D01*
G01X554100D01*
Y207250D01*
X540900D01*
Y208108D01*
G02Y213292I1300J2592D01*
G01Y214750D01*
X541735D01*
G03X542095Y215326I0J400D01*
G02X543195Y219079I2605J1274D01*
G03X543182Y219770I-208J342D01*
G02X546105Y219821I1417J2530D01*
G03X546118Y219130I208J-342D01*
G02X547492Y217384I-1417J-2530D01*
G02X550670Y214921I308J-2884D01*
G01X550694Y214750D01*
X552697D01*
G02X558300Y213700I2703J-1050D01*
G03X558700Y213300I400J0D01*
G37*
G36*
G01X138100Y154600D02*
Y145600D01*
X130100D01*
Y153750D01*
X124500D01*
Y154101D01*
X124202D01*
X124142Y154024D01*
G02X123927Y153767I-3942J3076D01*
G03X124225Y153100I298J-267D01*
G01X127600D01*
Y147100D01*
X122600D01*
Y152084D01*
G03X122052Y152455I-400J0D01*
G02X123808Y160562I-1852J4645D01*
G01X123867Y160500D01*
X124500D01*
Y161250D01*
X137700D01*
Y154600D01*
X138100D01*
G37*
G36*
G01X225900Y36601D02*
Y35850D01*
X218700D01*
Y36700D01*
X216600D01*
Y37350D01*
X214200D01*
Y41850D01*
X216600D01*
Y54400D01*
X229100D01*
Y36700D01*
X226469D01*
X226444Y36694D01*
G02X226075Y36623I-744J2906D01*
G01X225900Y36601D01*
G37*
G36*
G01X386300Y34150D02*
X373100D01*
Y35010D01*
X372932Y35038D01*
G02Y40762I468J2862D01*
G01X373100Y40790D01*
Y41650D01*
X386300D01*
Y40200D01*
X390859D01*
G02X390784Y35600I6041J-2400D01*
G01X386300D01*
Y34150D01*
G37*
G36*
G01X66526Y286176D02*
G02X60936I-2795J-2500D01*
G02Y291176I2795J2500D01*
G02Y296176I2795J2500D01*
G02X61744Y301857I2795J2500D01*
G03X61864Y302419I-212J339D01*
G02Y304933I1867J1257D01*
G03X61744Y305495I-332J223D01*
G02X63722Y312426I1987J3181D01*
G01X63804Y312426D01*
X67200Y315822D01*
Y339750D01*
X63727D01*
X62777Y338800D01*
X57550D01*
Y332359D01*
X58950D01*
Y326959D01*
X57450D01*
Y323341D01*
X54867D01*
G03X54523Y322736I0J-400D01*
G02X48389Y322118I-2923J-1737D01*
G01X48400Y322149D01*
Y323341D01*
X44150D01*
Y325741D01*
X48400D01*
Y326747D01*
X48188Y326959D01*
X42650D01*
Y332550D01*
X36100D01*
Y340050D01*
X36295D01*
X36308Y340236D01*
G02X43092I3392J-236D01*
G01X43105Y340050D01*
X49300D01*
Y336377D01*
X49550Y336127D01*
Y332359D01*
X50050D01*
Y345000D01*
X57550D01*
Y344000D01*
X60200D01*
Y345600D01*
X59850D01*
Y346106D01*
X59679Y346130D01*
G02Y351870I421J2870D01*
G01X59850Y351895D01*
Y352800D01*
X61350D01*
Y357300D01*
X65850D01*
Y352800D01*
X67350D01*
Y347250D01*
X73400D01*
Y339750D01*
X72400D01*
Y313668D01*
X67481Y308749D01*
X67481Y308667D01*
G02X65718Y305495I-3750J9D01*
G03X65598Y304933I212J-339D01*
G02Y302419I-1867J-1257D01*
G03X65718Y301857I332J-223D01*
G02X66526Y296176I-1987J-3181D01*
G02Y291176I-2795J-2500D01*
G02Y286176I-2795J-2500D01*
G37*
G36*
G01X555296Y165400D02*
Y165062D01*
X555426Y165013D01*
G02X552732Y164673I-1026J-2713D01*
G03X552502Y165400I-230J327D01*
G01X548550D01*
Y171907D01*
G03X548010Y172282I-400J0D01*
G02X544266Y175966I-1010J2718D01*
G03X543888Y176500I-377J133D01*
G01X535800D01*
Y185500D01*
X544800D01*
Y177766D01*
G03X545418Y177431I400J0D01*
G02X548010Y177718I1582J-2431D01*
G03X548550Y178093I139J375D01*
G01Y178600D01*
X556050D01*
Y171300D01*
X567224D01*
G02X567155Y166700I6576J-2400D01*
G01X556050D01*
Y165400D01*
X555296D01*
G37*
G36*
G01X505538Y131151D02*
G02X505502Y128937I2662J-1151D01*
G03X504762Y128949I-372J-147D01*
G02X504798Y131163I-2662J1151D01*
G03X505538Y131151I372J147D01*
G37*
G36*
G01X122800Y116900D02*
X114800D01*
Y124750D01*
X112300D01*
Y118400D01*
X107300D01*
Y124400D01*
X108800D01*
Y125900D01*
X107173D01*
G02X107540Y131100I-4073J2900D01*
G01X108800D01*
Y132250D01*
X122000D01*
Y125900D01*
X122800D01*
Y116900D01*
G37*
G36*
G01X422900Y35300D02*
G02X423052Y39900I-6000J2500D01*
G01X425100D01*
Y41350D01*
X432300D01*
Y39850D01*
X436800D01*
Y35350D01*
X432300D01*
Y33850D01*
X425100D01*
Y35300D01*
X422900D01*
G37*
G54D81*
X325100Y75200D03*
G54D66*
X37500Y118100D03*
G54D86*
X563800Y69900D03*
Y89900D03*
Y115100D03*
Y158900D03*
Y178900D03*
Y201300D03*
Y221300D03*
Y242400D03*
Y262400D03*
X559200Y301700D03*
Y321700D03*
X583800Y69900D03*
Y89900D03*
Y115100D03*
Y135100D03*
Y158900D03*
Y178900D03*
Y201300D03*
Y221300D03*
Y242400D03*
Y262400D03*
X579200Y301700D03*
Y321700D03*
G54D69*
X18500Y165300D03*
G54D87*
X569200Y311700D03*
G54D67*
X59500Y158700D03*
Y176700D03*
G54D78*
X285765Y26741D03*
G54D71*
X67513Y371300D03*
X281487D03*
X318513D03*
X532487D03*
G54D89*
X111600Y65900D03*
X139900Y80900D03*
X201600Y105400D03*
X173300Y90400D03*
G54D68*
X18500Y180900D03*
G54D70*
X63400Y206100D03*
X133000Y253200D03*
G54D77*
X213400Y246100D03*
X372000Y54900D03*
G54D79*
X330200Y55100D03*
X360200Y45100D03*
Y35100D03*
Y55100D03*
G54D83*
X484200Y45200D03*
Y121900D03*
X506600D03*
X518000Y44800D03*
X540300Y64800D03*
Y104200D03*
Y141600D03*
G54D80*
X330200Y65100D03*
G54D84*
X493400Y189300D03*
X540300Y133000D03*
Y151500D03*
Y171100D03*
X531200Y189300D03*
G54D74*
X175600Y184800D03*
Y194800D03*
Y204800D03*
Y214800D03*
Y224800D03*
Y234800D03*
G54D85*
X486000Y258000D03*
X486600Y264500D03*
Y272500D03*
X520800Y130300D03*
X514500Y130100D03*
X517600Y161300D03*
X534400Y204200D03*
G54D75*
X175600Y244800D03*
G54D76*
X185600Y184800D03*
Y194800D03*
Y244800D03*
G54D73*
X107700Y197200D03*
G54D82*
X390125Y85800D03*
X377275D03*
G54D72*
X68300Y381674D03*
X280700D03*
X319300D03*
X531700D03*
%LPD*%
G75*
G36*
G01X16000Y65100D02*
Y78700D01*
X39800D01*
Y80250D01*
X44000D01*
Y84750D01*
X39800D01*
Y93000D01*
X50300D01*
Y86250D01*
X50300Y84750D01*
X45800D01*
Y80250D01*
X50300D01*
Y79015D01*
X50170D01*
Y77515D01*
X43990D01*
Y73605D01*
X42395D01*
Y72010D01*
X38485D01*
Y70950D01*
X36985D01*
Y65100D01*
X33300D01*
X20300Y65100D01*
X16000Y65100D01*
G37*
G36*
G01X33800Y80700D02*
X15900D01*
Y94200D01*
X37800D01*
Y84750D01*
X33800D01*
Y80700D01*
G37*
G36*
G01X56610Y53617D02*
Y56500D01*
X61600D01*
Y53350D01*
X61600Y51850D01*
X57100D01*
Y47100D01*
X40450D01*
Y48200D01*
X38950D01*
Y52700D01*
X34450D01*
Y48200D01*
X33800D01*
Y63000D01*
X36985D01*
Y60450D01*
X38485D01*
Y59390D01*
X42395D01*
Y57795D01*
X42600D01*
Y56500D01*
X43990D01*
Y53885D01*
X50170D01*
Y52385D01*
X50921D01*
X50952Y52354D01*
G03X56616Y53593I2848J546D01*
G01X56610Y53617D01*
G37*
G36*
G01X218600Y52400D02*
X227100D01*
Y38700D01*
X224400D01*
Y41850D01*
X219900D01*
Y43350D01*
X219053D01*
X219050Y43547D01*
G03X218600Y45008I-2750J-47D01*
G01Y52400D01*
G37*
%LPC*%
G75*
G54D88*
X26800Y72100D03*
%LPD*%
G75*
G54D10*
X20000Y20000D03*
Y380000D03*
X580000Y20000D03*
Y380000D03*
G54D20*
X22480Y296150D03*
X25040D03*
X27600D03*
Y314650D03*
X25040D03*
X22480D03*
X45180Y56450D03*
X47740D03*
Y74950D03*
X45180D03*
X34580Y223750D03*
X37140D03*
X39700D03*
X42260D03*
X44820D03*
Y242250D03*
X42260D03*
X39700D03*
X37140D03*
X34580D03*
X30160Y296150D03*
X32720D03*
Y314650D03*
X30160D03*
X50300Y56450D03*
X52860D03*
X55420D03*
Y74950D03*
X52860D03*
X50300D03*
X67580Y106350D03*
Y124850D03*
X70140Y106350D03*
X72700D03*
X75260D03*
X77820D03*
Y124850D03*
X75260D03*
X72700D03*
X70140D03*
X81980Y226550D03*
X84540D03*
X87100D03*
X89660D03*
Y245050D03*
X87100D03*
X84540D03*
X81980D03*
X92580Y150850D03*
X95140D03*
X97700D03*
X100260D03*
X102820D03*
Y169350D03*
X100260D03*
X97700D03*
X95140D03*
X92580D03*
X92220Y226550D03*
Y245050D03*
G54D11*
X6700Y159100D03*
X6100Y170000D03*
X6600Y178300D03*
X6500Y184900D03*
X4400Y191400D03*
X4500Y195300D03*
Y198600D03*
X6600Y228400D03*
Y234200D03*
X7000Y248000D03*
X7600Y250800D03*
X4200Y250600D03*
X5900Y244600D03*
X6700Y237500D03*
X6900Y256000D03*
X6300Y261600D03*
X4100Y292900D03*
X3700Y283300D03*
X4100Y295400D03*
X4900Y298000D03*
X6400Y346700D03*
X7300Y351900D03*
X28600Y44600D03*
X16000Y61900D03*
X16300Y58400D03*
X16400Y53900D03*
X16600Y49500D03*
X22300Y50100D03*
X27000Y49800D03*
X26600Y83400D03*
X19300Y82900D03*
Y88200D03*
X27400Y88400D03*
X25300Y108000D03*
X27500Y92700D03*
X19000Y92500D03*
X9300Y128500D03*
X27000Y128700D03*
X25500Y118000D03*
X9100Y140700D03*
X27300Y140100D03*
X27700Y158000D03*
Y163200D03*
X27900Y169300D03*
X19600Y190200D03*
X11500Y190400D03*
X20800Y209200D03*
X24500Y209500D03*
X18300Y199000D03*
X21200Y203700D03*
X20900Y223500D03*
X24300D03*
X17000Y232100D03*
X11300Y231200D03*
X11100Y250900D03*
X16900Y237000D03*
X13300Y255800D03*
X22600Y256100D03*
X17400Y251400D03*
X17600Y246400D03*
Y255400D03*
X20400Y240800D03*
X20600Y245200D03*
X27700Y272600D03*
X19600Y270300D03*
X13500Y261500D03*
X20400D03*
X20300Y264400D03*
Y258700D03*
X22800Y288000D03*
X22600Y283000D03*
X27500Y286000D03*
X17400Y293300D03*
Y296300D03*
X14500D03*
X23500Y301300D03*
X27600Y305400D03*
X23700Y308500D03*
X13900Y306400D03*
X15900Y319700D03*
X12900Y319800D03*
X8800Y319500D03*
X16100Y323400D03*
X12800D03*
X8700Y323300D03*
X16000Y326400D03*
X12600D03*
X8700D03*
X13000Y346300D03*
X23400Y352600D03*
X14000Y352100D03*
X45200Y11500D03*
X28900Y38000D03*
X43400Y37700D03*
X43700Y44100D03*
X36700Y37900D03*
X44500Y29800D03*
X42800Y49000D03*
X47300D03*
X46300Y60700D03*
X46600Y69900D03*
X36500Y58000D03*
X39900Y55400D03*
X42200Y52400D03*
X35300Y88200D03*
X49400Y78800D03*
X37700Y108100D03*
X34800Y92800D03*
X37400Y128700D03*
X48800D03*
X44500Y142400D03*
Y149700D03*
X41500Y144600D03*
X41400Y139400D03*
X36900D03*
X48800Y132900D03*
X48600Y138300D03*
X43200Y169100D03*
X35500Y169200D03*
X36500Y160500D03*
X41900Y159100D03*
X36500Y158100D03*
X42000Y155300D03*
X47100Y162600D03*
X36300Y155200D03*
X41900Y162800D03*
X36600Y162900D03*
X41100Y184800D03*
X39500Y175300D03*
X34800Y175500D03*
X33100Y186100D03*
X44200Y184800D03*
X44300Y182000D03*
X44400Y176600D03*
X47600Y189000D03*
X33900Y202500D03*
X42200Y196300D03*
X42000Y202200D03*
X39100D03*
X37700Y228200D03*
X34800Y228900D03*
X34700Y232400D03*
X38800Y238100D03*
X35400Y238200D03*
X34100Y272900D03*
X45100Y286000D03*
X35300Y292500D03*
X37900Y292400D03*
X38000Y294500D03*
X30100Y292000D03*
X29400Y348200D03*
X40100Y347300D03*
X36000Y352700D03*
X68600Y20200D03*
X50400D03*
X58900D03*
X50200Y28700D03*
X65200Y43200D03*
X51400Y49000D03*
X65200Y56700D03*
X50900Y60600D03*
X53800Y52900D03*
X65300Y77000D03*
X56200Y87900D03*
X66400Y89000D03*
X53100Y70600D03*
X50400Y70500D03*
X56200Y94900D03*
X68700Y111300D03*
X57800Y105000D03*
X55000D03*
X54900Y102100D03*
X58200Y102200D03*
X69000Y119000D03*
X64276Y127276D03*
X54100Y128700D03*
X63700Y147400D03*
X52800Y147200D03*
X54000Y133100D03*
X53500Y138400D03*
X67400Y190200D03*
X68600Y182800D03*
X68300Y193800D03*
X49800Y173900D03*
X49900Y179500D03*
X61400Y184800D03*
X51500Y184500D03*
X60800Y188800D03*
X51500Y188600D03*
X60100Y193500D03*
X51500D03*
X69100Y234600D03*
X56100Y221300D03*
X67300Y256000D03*
X65400Y241700D03*
X69100Y237400D03*
X60100Y256000D03*
X56400Y255900D03*
Y243900D03*
X59700D03*
X69200Y240400D03*
X67000Y261500D03*
X66700Y266400D03*
X55700Y274000D03*
X60000Y260700D03*
X56200D03*
X55000Y286200D03*
X57000Y314500D03*
X64400Y317200D03*
X55700Y300300D03*
X55600Y304200D03*
X64100Y321900D03*
X63900Y331900D03*
X64100Y327500D03*
X54100Y355500D03*
X60100Y349000D03*
X62800Y361300D03*
X61000Y364500D03*
X60400Y377800D03*
X68400Y361100D03*
X60800Y370800D03*
X55900Y394100D03*
X83400Y13500D03*
X73100Y43300D03*
X84800Y47700D03*
X83400Y29000D03*
X72300Y56700D03*
Y49800D03*
X72000Y63300D03*
X79300Y70200D03*
X71300Y77000D03*
X83400Y70200D03*
X79000Y82400D03*
Y89100D03*
X83500Y77100D03*
X78000Y93300D03*
X74600Y111000D03*
X85900Y100800D03*
X81600Y100900D03*
X86200Y104500D03*
X81800D03*
X72700Y115600D03*
X75700Y143700D03*
X75600Y148500D03*
X87500Y144200D03*
X83000Y144100D03*
X87500Y147400D03*
X82900D03*
X80700Y161800D03*
X75200Y161600D03*
X80500Y166500D03*
X75300D03*
X85300Y184400D03*
Y191900D03*
X72100Y178300D03*
X82500Y205800D03*
X86500Y200400D03*
X86100Y213200D03*
X84200Y232000D03*
X82900Y219500D03*
X74300Y223100D03*
X78900Y226100D03*
X74400Y226200D03*
X82300Y235800D03*
X84100Y239500D03*
X87200Y235600D03*
X72400Y261400D03*
X72300Y266400D03*
X71400Y299700D03*
X72200Y304000D03*
X71700Y355600D03*
X84500Y366000D03*
X87000Y377100D03*
X77000Y377000D03*
X78700Y393700D03*
X82900Y388200D03*
X89400Y388500D03*
Y381600D03*
X82900Y381300D03*
X97100Y12500D03*
X96200Y29500D03*
X110500Y51100D03*
X110100Y61500D03*
X104400Y61600D03*
X110700Y55800D03*
X90800Y82800D03*
X91100Y87100D03*
X100800Y83700D03*
X100900Y87700D03*
X103000Y114500D03*
X102800Y121800D03*
X110700Y114600D03*
X92500Y144400D03*
X95500Y196700D03*
X94500Y214800D03*
X94700Y224100D03*
X98600Y226800D03*
X96300D03*
X97000Y348300D03*
X104500Y365900D03*
X94700Y366200D03*
X107000Y377100D03*
X97000D03*
X104400Y388500D03*
X96700D03*
X104400Y381600D03*
X96700D03*
X115600Y61500D03*
X117000Y56000D03*
X117100Y52100D03*
X122100Y85900D03*
X130000Y79800D03*
X121900Y71000D03*
X115600Y149500D03*
X124800Y140900D03*
X117900Y171600D03*
X125700Y165200D03*
X121100Y173900D03*
X121400Y179900D03*
X121300Y186800D03*
X121000Y195100D03*
X123600Y301400D03*
X122700Y314400D03*
X118600Y301300D03*
X114600Y365800D03*
X124600Y365500D03*
X127000Y377100D03*
X117000D03*
X114800Y389200D03*
X124500Y389300D03*
Y382400D03*
X114800Y382300D03*
X145400Y19400D03*
X152500Y52400D03*
X146100Y52300D03*
X135100Y103300D03*
X149800Y105300D03*
X146500D03*
X132700Y105200D03*
X146600Y115400D03*
X141900Y115200D03*
X135550Y115450D03*
X134200Y304900D03*
X135500Y299500D03*
X150200Y314700D03*
X145300Y307100D03*
X147100Y350600D03*
X134900Y365800D03*
X144600Y365900D03*
X147000Y377200D03*
X137000Y376900D03*
X132500Y389600D03*
X141000Y389700D03*
X149400D03*
Y382800D03*
X141000D03*
X132500Y382700D03*
X169700Y19000D03*
X165200Y12800D03*
X157500Y29500D03*
X171700Y29800D03*
X171800Y35700D03*
X165500Y67100D03*
X167100Y65600D03*
X173200Y65000D03*
X170100Y64800D03*
X161800Y65400D03*
X157400Y74300D03*
X160700Y76000D03*
X159500Y84100D03*
X159600Y93500D03*
X159400Y101400D03*
X153800Y310200D03*
X162000Y347200D03*
X164700Y365700D03*
X154600Y365600D03*
X157000Y376800D03*
X167000Y377200D03*
X166200Y389700D03*
X157800D03*
X166200Y382800D03*
X157800D03*
X180000Y49200D03*
X176100Y64900D03*
X176600Y71300D03*
X187700Y80200D03*
X187900Y84700D03*
X188000Y88200D03*
X184300Y105300D03*
X183191Y100400D03*
X187000Y350400D03*
X182000Y347300D03*
X174400Y365700D03*
X184800Y365800D03*
X187000Y377000D03*
X177000Y377100D03*
X191400Y389700D03*
X174600D03*
X183000D03*
X191400Y382800D03*
X183000D03*
X174600D03*
X210900Y18700D03*
X213700Y78100D03*
X213500Y88900D03*
X211200Y85400D03*
X208800Y109000D03*
X195400D03*
X201800Y109100D03*
X201600Y93045D03*
X199300Y98055D03*
X204700Y188600D03*
X211900Y347500D03*
X194700Y365700D03*
X204600Y365800D03*
X214300Y365700D03*
X197000Y377100D03*
X207000Y377200D03*
X199800Y389700D03*
X208200D03*
Y382800D03*
X199800D03*
X223700Y24200D03*
X229000Y12200D03*
X220500Y32900D03*
X226600Y33000D03*
X228200Y61100D03*
X218800Y61600D03*
X227800Y68200D03*
X218400Y68000D03*
X228900Y55600D03*
X226000Y79500D03*
X221500Y78200D03*
X220300Y89300D03*
X227700Y74400D03*
X218300Y74100D03*
X222100Y347700D03*
X232000Y347600D03*
X224700Y365600D03*
X234500D03*
X217000Y376775D03*
X225000Y389700D03*
X230600D03*
X216600D03*
X230600Y382800D03*
X221900Y382700D03*
X216600Y382800D03*
X248850Y45750D03*
X244100Y36400D03*
X246350Y60150D03*
X250900Y84900D03*
X253800Y83800D03*
X251350Y94100D03*
X252300Y106200D03*
X245500Y134300D03*
X253950Y179550D03*
X252900Y174100D03*
X255500Y232100D03*
X248800Y239400D03*
X254700Y366200D03*
X244600Y365300D03*
X247000Y377200D03*
X237000Y377300D03*
X255700Y389700D03*
X239000D03*
X247300D03*
X255700Y382800D03*
X247300D03*
X239000D03*
X258850Y46350D03*
X268850Y44250D03*
X275100Y61700D03*
X272000Y61900D03*
X256400Y55400D03*
X258850Y56450D03*
X268800Y55500D03*
X261500Y82600D03*
X276100Y83100D03*
X276200Y80200D03*
X265000Y76200D03*
X269500Y76000D03*
X269400Y72600D03*
X262200Y70600D03*
X256350Y94250D03*
X271300Y131300D03*
X265650Y174650D03*
X262400Y176200D03*
X262000Y347100D03*
X257000Y347500D03*
X264400Y365900D03*
X257000Y377200D03*
X267000D03*
X264300Y389700D03*
X270500D03*
Y382800D03*
X264300D03*
X278850Y46350D03*
X292000Y42800D03*
X293000Y40600D03*
X297300Y45100D03*
X293850Y55550D03*
X278000Y64900D03*
X279200Y61800D03*
X286350Y58750D03*
X288900Y56300D03*
X283850Y83150D03*
X292900Y81300D03*
X290700D03*
X290400Y78900D03*
X288200Y84200D03*
X293600Y78900D03*
X289900Y72400D03*
X293000Y71300D03*
X281000Y70900D03*
X292700Y74300D03*
X286900Y74100D03*
X296350Y83250D03*
X291200Y96300D03*
X293000Y100600D03*
X290100D03*
X282000Y130100D03*
X286700Y145200D03*
X291200Y139300D03*
X291400Y151800D03*
X282000Y139900D03*
X283400Y163800D03*
X295300Y167100D03*
X285700Y216800D03*
X292800Y225000D03*
X285900Y230300D03*
X293200Y239600D03*
X293800Y368900D03*
X293500Y390700D03*
X313600Y34100D03*
X306200Y38000D03*
X317600Y37400D03*
X303056Y34600D03*
X303000Y40500D03*
X299150Y34600D03*
X299094Y40500D03*
X306800Y62100D03*
Y66200D03*
X316500Y150100D03*
X308700Y156000D03*
X314100Y160100D03*
X304650Y164150D03*
X303900Y172200D03*
X299900Y212400D03*
X298900Y207400D03*
X302950Y214850D03*
X308300Y266600D03*
X299400Y272300D03*
X302800Y276800D03*
X304300Y283000D03*
X306700Y336600D03*
X299800Y352800D03*
X307200Y369100D03*
X306200Y390600D03*
X330400Y26700D03*
X335600Y27300D03*
X323200Y34000D03*
X331200Y103300D03*
X332100Y111300D03*
X332300Y116800D03*
X325800Y152700D03*
X318800Y161800D03*
X335300Y160400D03*
X321700Y160000D03*
X327900Y154300D03*
X333300Y162900D03*
X337600Y185600D03*
X329450Y213250D03*
X337200Y209400D03*
X329500Y217200D03*
X335300Y382700D03*
X335700Y389200D03*
X345600Y46800D03*
Y35000D03*
X353400Y89600D03*
X350700Y86400D03*
Y82800D03*
X353700Y82900D03*
X347600Y89200D03*
X339200Y88400D03*
X351400Y103900D03*
X354600Y105000D03*
X349600Y106900D03*
X344600Y106800D03*
X350600Y124500D03*
X348100D03*
X350600Y128200D03*
X347900D03*
X349000Y111600D03*
X350200Y115500D03*
X345300Y149400D03*
X345000Y155200D03*
X342900Y157800D03*
X348000Y161400D03*
X339200Y153000D03*
X349500Y291000D03*
X344900Y292500D03*
X359350Y327370D03*
X356800Y383000D03*
X349100D03*
X341800D03*
X357200Y389500D03*
X349500D03*
X342200D03*
X373400Y37900D03*
X379500Y70800D03*
X376800Y73400D03*
X371900Y73300D03*
X376300Y77900D03*
X371800Y78000D03*
X363800Y79400D03*
X366800Y88600D03*
X377600Y108300D03*
X377100Y103600D03*
X360800Y105600D03*
X367400Y91000D03*
X373300Y103100D03*
X377600Y112800D03*
X378400Y128200D03*
X364000Y125700D03*
X374900Y120500D03*
X375200Y116900D03*
X365900Y120500D03*
X374900Y124900D03*
X368900Y113700D03*
X365000Y142000D03*
X365500Y148000D03*
X376900Y141700D03*
X379600Y154600D03*
X364900Y162400D03*
X359700Y295000D03*
X359600Y302400D03*
X361650Y327370D03*
X376900Y383800D03*
X367200Y383700D03*
X377300Y390300D03*
X367600Y390200D03*
X384100Y70800D03*
X395100Y78500D03*
X391400Y78300D03*
X386500Y78400D03*
X388600Y100000D03*
X384700Y99900D03*
X384600Y104400D03*
X384500Y108000D03*
X385800Y92800D03*
X393800Y92900D03*
X385100Y130200D03*
X385200Y124700D03*
X390000Y137400D03*
X385100Y135100D03*
X384900Y142700D03*
X400600Y140000D03*
X400400Y181700D03*
X397800Y179900D03*
X396892Y195708D03*
X383400Y305300D03*
X393000Y349900D03*
X383000Y349300D03*
X393400Y384200D03*
X384900Y384100D03*
X393800Y390700D03*
X385300Y390600D03*
X406000Y109900D03*
X401400Y107000D03*
X406600Y130200D03*
X407200Y115500D03*
X401000Y114000D03*
X416600Y130600D03*
X412400D03*
X419400Y125900D03*
X412000Y126300D03*
X405500Y134900D03*
X401000Y134700D03*
X415400Y205000D03*
Y201000D03*
X403100Y220300D03*
X405000Y225100D03*
X415400Y220800D03*
X418946Y237200D03*
X408100Y246000D03*
X407900Y236500D03*
X414600Y263400D03*
X415100Y259300D03*
X403000Y349300D03*
X413000Y349700D03*
X418600Y384200D03*
X410200D03*
X401800D03*
X419000Y390700D03*
X410600D03*
X402200D03*
X424300Y19900D03*
X434100Y104700D03*
X423900Y129900D03*
X426100Y125900D03*
X431100Y145000D03*
X425500Y135800D03*
X441800Y171300D03*
X425500Y163000D03*
X430900Y152800D03*
X442000Y180800D03*
X440600Y214300D03*
X427046Y205554D03*
X430754D03*
X427700Y214300D03*
X428400Y218800D03*
Y225000D03*
X422654Y237200D03*
X423000Y349900D03*
X433000Y349400D03*
X435400Y384200D03*
X427000D03*
X435800Y390700D03*
X427400D03*
X449300Y20400D03*
X445600Y168100D03*
X450500Y213400D03*
X445200Y217100D03*
X460300Y218900D03*
X449500Y223600D03*
X459300Y222300D03*
X450500Y254800D03*
X450300Y275400D03*
X450500Y267300D03*
X450600Y260400D03*
X456500Y282600D03*
X450000Y282700D03*
X460600Y384200D03*
X452200D03*
X443800D03*
X461000Y390700D03*
X452600D03*
X444200D03*
X476200Y18400D03*
X473000Y173400D03*
X468700Y162800D03*
X471900D03*
X483000Y183700D03*
X474700Y181100D03*
X473900Y207900D03*
X473200Y198100D03*
X467600Y271900D03*
X467900Y262800D03*
Y258700D03*
X480800Y284500D03*
X463600Y282700D03*
X470600Y298000D03*
X482900Y349300D03*
X478000Y349600D03*
X467600Y349300D03*
X483000Y384200D03*
X477400D03*
X469000D03*
X483400Y390700D03*
X477800D03*
X469400D03*
X497200Y20900D03*
X494000Y70700D03*
X502100Y130100D03*
X495000Y143900D03*
X490800Y143800D03*
X485600Y147600D03*
X490800D03*
X495800Y152500D03*
X502100Y141700D03*
X488600Y188200D03*
X496600Y182300D03*
X484100Y187800D03*
X497300Y186700D03*
X504100Y209400D03*
X483500Y214400D03*
X488000D03*
X483500Y207600D03*
X500700Y218900D03*
X500600Y215900D03*
X504100Y219200D03*
X486000Y258000D03*
X486600Y264500D03*
Y272500D03*
X492600Y297700D03*
X488100Y348900D03*
X498000Y346500D03*
X499700Y384200D03*
X491400D03*
X500100Y390700D03*
X491800D03*
X520800Y130300D03*
X514500Y130100D03*
X508200Y130000D03*
Y141900D03*
X520800Y141800D03*
X514500D03*
X504200Y166582D03*
X517600Y161300D03*
X507800Y155800D03*
X505100Y156000D03*
X507600Y158900D03*
X511600Y154700D03*
X516200Y174600D03*
X506800D03*
X504200Y214300D03*
X508000Y224900D03*
X508300Y221800D03*
Y215900D03*
Y219100D03*
X524400Y214800D03*
X508100Y256100D03*
X506700Y283800D03*
X510500Y310400D03*
X514800Y297600D03*
X522900Y350400D03*
X517900Y350100D03*
X513100Y349600D03*
X509300Y349500D03*
X522900Y384200D03*
X516700D03*
X508100D03*
X523300Y390700D03*
X517100D03*
X508500D03*
X543000Y21900D03*
X527800Y70300D03*
X544900Y127400D03*
X534200D03*
X534700Y148100D03*
X531500Y141200D03*
X527200Y142200D03*
X530100Y148100D03*
X535100Y173000D03*
X534200Y159000D03*
X537300Y188600D03*
X534600Y193400D03*
X525700Y187400D03*
X534400Y204200D03*
X534500Y197900D03*
X526500Y212500D03*
X542200Y210700D03*
X544700Y216600D03*
X544600Y222300D03*
X528400Y231200D03*
X537800Y222100D03*
X528900Y215000D03*
X532900Y255700D03*
X542200Y252800D03*
X532000Y310600D03*
X528800Y330300D03*
X540900Y348700D03*
X554100Y124700D03*
X545600Y148400D03*
X550600Y141200D03*
X554400Y162300D03*
X547800Y164500D03*
X549700Y182600D03*
X546500Y188100D03*
X547400Y192100D03*
X547000Y175000D03*
X555400Y213700D03*
X547800Y214500D03*
X548200Y199600D03*
X553200Y329600D03*
X579700Y348100D03*
X593200Y79700D03*
X594400Y128500D03*
X594500Y168800D03*
X593900Y211200D03*
X594200Y252400D03*
X588100Y311700D03*
G54D21*
X18350Y310520D03*
Y307960D03*
Y305400D03*
Y302840D03*
Y300280D03*
X41050Y68260D03*
Y65700D03*
Y63140D03*
Y60580D03*
Y70820D03*
X30450Y233000D03*
Y230440D03*
Y227880D03*
X48950D03*
Y230440D03*
Y233000D03*
X30450Y238120D03*
Y235560D03*
X48950D03*
Y238120D03*
X36850Y300280D03*
Y302840D03*
Y305400D03*
Y307960D03*
Y310520D03*
X59550Y60580D03*
Y63140D03*
Y65700D03*
Y68260D03*
Y70820D03*
X63450Y110480D03*
Y120720D03*
Y118160D03*
Y115600D03*
Y113040D03*
X81950Y110480D03*
Y113040D03*
Y115600D03*
Y118160D03*
Y120720D03*
X88450Y165220D03*
Y162660D03*
Y160100D03*
Y157540D03*
Y154980D03*
X77850Y233240D03*
Y230680D03*
Y240920D03*
Y238360D03*
Y235800D03*
X106950Y154980D03*
Y157540D03*
Y160100D03*
Y162660D03*
Y165220D03*
X96350Y230680D03*
Y233240D03*
Y235800D03*
Y238360D03*
Y240920D03*
G54D30*
X68300Y381674D03*
X280700D03*
X319300D03*
X531700D03*
G54D12*
X11300Y204800D03*
Y222800D03*
X59500Y158700D03*
Y176700D03*
G54D40*
X175600Y244800D03*
G54D31*
X77000Y373800D03*
X82000D03*
X87000D03*
X77000Y368800D03*
X82000D03*
X87000D03*
X92000Y373800D03*
X97000D03*
X102000D03*
X107000D03*
X92000Y368800D03*
X97000D03*
X102000D03*
X107000D03*
X112000Y373800D03*
X117000D03*
X122000D03*
X127000D03*
X132000D03*
X112000Y368800D03*
X117000D03*
X122000D03*
X127000D03*
X132000D03*
X137000Y373800D03*
X142000D03*
X147000D03*
X152000D03*
X137000Y368800D03*
X142000D03*
X147000D03*
X152000D03*
X157000Y373800D03*
X162000D03*
X167000D03*
X172000D03*
X157000Y368800D03*
X162000D03*
X167000D03*
X172000D03*
X177000Y373800D03*
X182000D03*
X187000D03*
X192000D03*
X177000Y368800D03*
X182000D03*
X187000D03*
X192000D03*
X197000Y373800D03*
X202000D03*
X207000D03*
X212000D03*
X197000Y368800D03*
X202000D03*
X207000D03*
X212000D03*
X217000Y373800D03*
X222000D03*
X227000D03*
X232000D03*
X217000Y368800D03*
X222000D03*
X227000D03*
X232000D03*
X237000Y373800D03*
X242000D03*
X247000D03*
X252000D03*
X237000Y368800D03*
X242000D03*
X247000D03*
X252000D03*
X257000Y373800D03*
X262000D03*
X267000D03*
X272000D03*
X257000Y368800D03*
X262000D03*
X267000D03*
X272000D03*
X328000Y373800D03*
X333000D03*
X338000D03*
X328000Y368800D03*
X333000D03*
X338000D03*
X343000Y373800D03*
X348000D03*
X353000D03*
X358000D03*
X343000Y368800D03*
X348000D03*
X353000D03*
X358000D03*
X363000Y373800D03*
X368000D03*
X373000D03*
X378000D03*
X363000Y368800D03*
X368000D03*
X373000D03*
X378000D03*
X383000Y373800D03*
X388000D03*
X393000D03*
X398000D03*
X383000Y368800D03*
X388000D03*
X393000D03*
X398000D03*
X403000Y373800D03*
X408000D03*
X413000D03*
X418000D03*
X403000Y368800D03*
X408000D03*
X413000D03*
X418000D03*
X423000Y373800D03*
X428000D03*
X433000D03*
X438000D03*
X423000Y368800D03*
X428000D03*
X433000D03*
X438000D03*
X443000Y373800D03*
X448000D03*
X453000D03*
X458000D03*
X463000D03*
X443000Y368800D03*
X448000D03*
X453000D03*
X458000D03*
X463000D03*
X468000Y373800D03*
X473000D03*
X478000D03*
X483000D03*
X468000Y368800D03*
X473000D03*
X478000D03*
X483000D03*
X488000Y373800D03*
X493000D03*
X498000D03*
X503000D03*
X488000Y368800D03*
X493000D03*
X498000D03*
X503000D03*
X508000Y373800D03*
X513000D03*
X518000D03*
X523000D03*
X508000Y368800D03*
X513000D03*
X518000D03*
X523000D03*
G54D13*
X4900Y301400D03*
X24200Y215900D03*
X21500Y251500D03*
X27500D03*
X10900Y301400D03*
X26400Y322900D03*
X47900Y82500D03*
X35900D03*
X41900D03*
X48400Y108200D03*
X38600Y189000D03*
X44600D03*
X30200Y215900D03*
X46000Y249400D03*
X40000D03*
X32400Y322900D03*
X45700Y336300D03*
X39700D03*
X67600Y36000D03*
X61600D03*
X65200Y49600D03*
X59200D03*
X65600Y70800D03*
X53900Y82500D03*
X66700D03*
X60700D03*
X54400Y108200D03*
X59400Y132300D03*
X65400D03*
X68500Y221800D03*
X62500D03*
X56100Y217200D03*
X50100D03*
X58100Y249400D03*
X52100D03*
X62900Y238100D03*
X56900D03*
X69800Y343500D03*
X63800D03*
X71600Y70800D03*
X77500Y130800D03*
X71500D03*
X89100D03*
X83100D03*
X88300Y120700D03*
X75800Y154300D03*
X81800D03*
X83300Y174900D03*
X89300D03*
X78500Y187300D03*
X72500D03*
X87100Y252400D03*
X74600Y251300D03*
X80600D03*
X94300Y120700D03*
X102800Y176600D03*
X96800D03*
X108800D03*
X103100Y220700D03*
X97100D03*
X93100Y252400D03*
X105100D03*
X99100D03*
X109500Y240900D03*
X103500D03*
X117100Y48400D03*
X123100D03*
Y42300D03*
X117100D03*
X118400Y128500D03*
X112400D03*
X128100Y157500D03*
X119100Y165200D03*
X113100D03*
X114800Y176600D03*
X129700Y237900D03*
X123700D03*
X134100Y157500D03*
X145000Y283700D03*
X139000D03*
X147800Y307100D03*
X162000Y12800D03*
X156000D03*
Y18700D03*
X162000D03*
X153800Y307100D03*
X183200Y49200D03*
X189200D03*
Y42900D03*
X183200D03*
X210800Y214900D03*
Y204900D03*
Y234900D03*
Y224700D03*
X226000Y12200D03*
X220000D03*
X218800Y18400D03*
X224800D03*
X222300Y39600D03*
X216300D03*
X216800Y214900D03*
Y204900D03*
Y234900D03*
Y224700D03*
X248800Y40900D03*
X254800D03*
X242800Y242600D03*
X248800D03*
X259600Y232100D03*
X265600D03*
X328500Y19100D03*
X334500D03*
X336900Y46800D03*
X337000Y35000D03*
X331200Y106500D03*
X337200D03*
X327500Y346300D03*
X333500D03*
X342900Y46800D03*
X343000Y35000D03*
X357400Y85400D03*
X347900Y346300D03*
X353900D03*
X376700Y37900D03*
X363400Y85400D03*
X367100Y346200D03*
X373100D03*
X382700Y37900D03*
X387300Y64900D03*
X381300D03*
X415300Y233100D03*
X421300D03*
X415300Y226100D03*
X421300D03*
X417800Y240700D03*
X434700Y37600D03*
X428700D03*
X442000Y184000D03*
X441800Y174200D03*
X431600Y225000D03*
X437600D03*
X431600Y218800D03*
X437600D03*
X423800Y240700D03*
X448000Y184000D03*
X447800Y174200D03*
X449400Y208700D03*
X455400D03*
X544500Y211000D03*
X545000Y252800D03*
X550500Y211000D03*
X551000Y252800D03*
G54D22*
X27600Y305400D03*
X50300Y65700D03*
X39700Y233000D03*
X72700Y115600D03*
X87100Y235800D03*
X97700Y160100D03*
G54D41*
X213400Y246100D03*
X248500Y124800D03*
X268700Y125400D03*
X372000Y54900D03*
G54D23*
X24400Y336300D03*
X11400D03*
X37500Y118100D03*
X50500D03*
X87300Y264000D03*
X100300D03*
G54D14*
X26800Y59100D03*
Y72100D03*
X43600Y274100D03*
Y261100D03*
G54D50*
X355300Y97850D03*
X350300D03*
X345300D03*
Y134750D03*
X350300D03*
X355300D03*
X375300Y97850D03*
X370300D03*
X365300D03*
X360300D03*
Y134750D03*
X365300D03*
X370300D03*
X375300D03*
X380300Y97850D03*
Y134750D03*
G54D32*
X112492Y5902D03*
X146508D03*
X178192D03*
X212208D03*
G54D60*
G01X51600Y321000D02*
X50700Y321900D01*
Y327700D01*
X48741Y329659D01*
X46950D01*
G01X60100Y349000D02*
X63400D01*
X63600Y349200D01*
G01X81900Y352000D02*
Y296500D01*
X113800Y264600D01*
X234200D01*
X260900Y237900D01*
X287200D01*
X296000Y229100D01*
X317600D01*
X319496Y227204D01*
X319497D01*
G01X81900Y358000D02*
Y368700D01*
X82000Y368800D01*
G01X84500Y366000D02*
X87000Y368500D01*
Y368800D01*
G01Y373800D02*
Y377100D01*
G01X77000Y373800D02*
Y377000D01*
G01X111600Y90900D02*
X101271D01*
X98600Y88229D01*
Y55700D01*
X121600Y32700D01*
Y28526D01*
X121626Y28500D01*
G01X119658D02*
Y31342D01*
X96000Y55000D01*
Y89400D01*
X102500Y95900D01*
X111600D01*
G01X101900Y352000D02*
Y293600D01*
X124500Y271000D01*
X238800D01*
X266600Y243200D01*
X294300D01*
X296600Y240900D01*
X313700D01*
X315560Y239040D01*
Y239015D01*
G01X92000Y352000D02*
Y296300D01*
X120000Y268300D01*
X235300D01*
X263100Y240500D01*
X288000D01*
X297359Y231141D01*
X311623D01*
G01X101900Y358000D02*
Y368700D01*
X102000Y368800D01*
G01X92000Y358000D02*
Y368800D01*
G01X104500Y365900D02*
X107000Y368400D01*
Y368800D01*
G01X94700Y366200D02*
X97000Y368500D01*
Y368800D01*
G01X107000Y373800D02*
Y377100D01*
G01X97000Y373800D02*
Y377100D01*
G01X120642Y23500D02*
Y16842D01*
G01X122610Y23500D02*
Y19890D01*
X122700Y19800D01*
G01X127532Y28500D02*
Y51568D01*
X125000Y54100D01*
Y70729D01*
X119829Y75900D01*
X111600D01*
G01X123100Y48400D02*
Y42300D01*
G01D02*
X125563Y39837D01*
Y28500D01*
G01X111600Y80900D02*
X119500D01*
X126600Y73800D01*
Y54700D01*
X131500Y49800D01*
Y28532D01*
X131468Y28500D01*
G01X117100Y48400D02*
Y52100D01*
G01X121900Y71000D02*
X111700D01*
X111600Y70900D01*
G01Y100900D02*
X117000D01*
X204700Y188600D01*
G01X311623Y242952D02*
X300548D01*
X297900Y245600D01*
X267500D01*
X238400Y274700D01*
X168900D01*
X129924Y313676D01*
X128691D01*
G01X112100Y352000D02*
X116200D01*
X158400Y309800D01*
Y296500D01*
X170400Y284500D01*
X241200D01*
X275300Y250400D01*
X304300D01*
X306000Y248700D01*
X313800D01*
X315560Y246940D01*
Y246889D01*
G01X128691Y318676D02*
X130824D01*
X139250Y310250D01*
G01X122000Y352000D02*
Y350800D01*
X185900Y286900D01*
X246800D01*
X247400Y286300D01*
Y286100D01*
X277000Y256500D01*
X301500D01*
X307174Y250826D01*
X311623D01*
G01X112100Y358000D02*
Y368700D01*
X112000Y368800D01*
G01X122000Y358000D02*
Y368800D01*
G01X114600Y365800D02*
X117000Y368200D01*
Y368800D01*
G01X124600Y365500D02*
X127000Y367900D01*
Y368800D01*
G01Y373800D02*
Y377100D01*
G01X117000Y373800D02*
Y377100D01*
G01X152300Y15000D02*
X136700D01*
X132453Y19247D01*
Y23500D01*
G01X201600Y75400D02*
X212076D01*
X212676Y74800D01*
Y68876D01*
X206200Y62400D01*
X187100D01*
X161600Y36900D01*
X145800D01*
G01X201600Y70400D02*
X196900Y65700D01*
X187600D01*
X160600Y38700D01*
X144900D01*
X142400Y36200D01*
G01X139900Y65900D02*
X149300D01*
X153600Y70200D01*
Y113300D01*
X241900Y201600D01*
X313700D01*
X315560Y203460D01*
Y203582D01*
G01X139900Y75900D02*
X150600D01*
G01X139900Y70900D02*
X149200D01*
G01X135550Y115450D02*
X223682Y203582D01*
X311623D01*
G01X143800Y318600D02*
X146300D01*
X150200Y314700D01*
G01X139250Y310250D02*
X167900Y281600D01*
X235400D01*
X268900Y248100D01*
X302000D01*
X305000Y245100D01*
X313500D01*
X315560Y243040D01*
Y242952D01*
G01X143800Y312600D02*
X141600D01*
X139250Y310250D01*
G01X147800Y307100D02*
X145300D01*
G01X132100Y352000D02*
X194100Y290000D01*
X249100D01*
X279300Y259800D01*
X301800D01*
X309000Y252600D01*
X313700D01*
X315474Y250826D01*
X315560D01*
G01X142000Y358000D02*
Y368800D01*
G01Y352000D02*
Y350400D01*
X199300Y293100D01*
X251200D01*
X280500Y263800D01*
X302586D01*
X311623Y254763D01*
G01X132100Y358000D02*
Y368700D01*
X132000Y368800D01*
G01X134900Y365800D02*
X137000Y367900D01*
Y368800D01*
G01X144600Y365900D02*
X147000Y368300D01*
Y368800D01*
G01Y373800D02*
Y377200D01*
G01X137000Y373800D02*
Y376900D01*
G01X162000Y12800D02*
X165200D01*
G01X156000Y18700D02*
X152300Y15000D01*
G01X156000Y12800D02*
X154500D01*
X152300Y15000D01*
G01X153800Y307100D02*
Y310200D01*
G01X152000Y352000D02*
Y351000D01*
X207200Y295800D01*
X254000D01*
X280000Y269800D01*
X313500D01*
X317600Y265700D01*
Y256700D01*
X319497Y254803D01*
Y254763D01*
G01X171900Y358000D02*
Y368700D01*
X172000Y368800D01*
G01X162000Y352000D02*
Y347200D01*
G01X171900Y352000D02*
X221700Y302200D01*
X255600D01*
X278000Y279800D01*
X291300D01*
X298800Y272300D01*
X299400D01*
G01X152000Y358000D02*
Y368800D01*
G01X162000Y358000D02*
Y368800D01*
G01X164700Y365700D02*
X167000Y368000D01*
Y368800D01*
G01X154600Y365600D02*
X157000Y368000D01*
Y368800D01*
G01Y373800D02*
Y376800D01*
G01X167000Y373800D02*
Y377200D01*
G01X186342Y23500D02*
Y17558D01*
G01X188310Y23500D02*
Y19690D01*
X188600Y19400D01*
G01X187326Y35500D02*
Y28500D01*
G01X184150Y32550D02*
X185358Y31342D01*
Y28500D01*
G01X189200Y42900D02*
Y49200D01*
G01X191263Y28500D02*
Y40837D01*
X189200Y42900D01*
G01X183200Y49200D02*
X180000D01*
G01X173300Y95400D02*
X181800D01*
X187900Y101500D01*
Y139300D01*
X248245Y199645D01*
X311623D01*
G01X184300Y105300D02*
X173400D01*
X173300Y105400D01*
G01X183191Y100400D02*
X173300D01*
G01X182000Y358000D02*
Y368800D01*
G01X323434Y254763D02*
Y254866D01*
X321400Y256900D01*
Y268600D01*
X310300Y279700D01*
X300200D01*
X271100Y308800D01*
X235200D01*
X192000Y352000D01*
G01X182000D02*
Y347300D01*
G01X192000Y358000D02*
Y368800D01*
G01X174400Y365700D02*
X177000Y368300D01*
Y368800D01*
G01X184800Y365800D02*
X187000Y368000D01*
Y368800D01*
G01Y373800D02*
Y377000D01*
G01X177000Y373800D02*
Y377100D01*
G01X217500Y14700D02*
X202500D01*
X198153Y19047D01*
Y23500D01*
G01X196184D02*
Y20984D01*
G01X197168Y28500D02*
Y34232D01*
G01X193232Y28500D02*
Y34232D01*
G01X311623Y195708D02*
X261008D01*
X218100Y152800D01*
Y87900D01*
X210600Y80400D01*
X201600D01*
G01X315560Y199645D02*
Y199560D01*
X313700Y197700D01*
X255600D01*
X215200Y157300D01*
Y94900D01*
X210700Y90400D01*
X201600D01*
G01Y93045D02*
Y95400D01*
G01X199300Y98055D02*
Y98100D01*
X201600Y100400D01*
G01X211900Y352000D02*
Y347500D01*
G01Y358000D02*
Y368700D01*
X212000Y368800D01*
G01X202000Y358000D02*
Y368800D01*
G01X327371Y254763D02*
X325400Y256734D01*
Y272200D01*
X273200Y324400D01*
X228600D01*
X202000Y351000D01*
Y352000D01*
G01X194700Y365700D02*
X197000Y368000D01*
Y368800D01*
G01X204600Y365800D02*
X207000Y368200D01*
Y368800D01*
G01X197000Y373800D02*
Y377100D01*
G01X207000Y373800D02*
Y377200D01*
G01X226000Y12200D02*
X229000D01*
G01X217500Y14700D02*
Y17100D01*
X218800Y18400D01*
G01X220000Y12200D02*
X217500Y14700D01*
G01X253950Y179550D02*
X222900Y148500D01*
Y86300D01*
X236350Y72850D01*
Y50800D01*
G01X262400Y176200D02*
X229900Y143700D01*
Y89300D01*
X241350Y77850D01*
Y50800D01*
G01X252900Y174100D02*
X227100Y148300D01*
Y86800D01*
X238850Y75050D01*
Y50800D01*
G01X265650Y174650D02*
X232400Y141400D01*
Y98900D01*
X236350Y94950D01*
Y89800D01*
G01X298900Y207400D02*
X219300D01*
X216800Y204900D01*
G01Y214900D02*
X284771D01*
X284871Y214800D01*
X286529D01*
X286629Y214900D01*
X297400D01*
X299900Y212400D01*
G01X327371Y215393D02*
X325464Y217300D01*
X297200D01*
X294300Y220200D01*
X221300D01*
X216800Y224700D01*
G01X292800Y225000D02*
X289900Y227900D01*
X223800D01*
X216800Y234900D01*
G01X242800Y242600D02*
X236900D01*
X233400Y246100D01*
G01X331308Y227204D02*
X329056Y224952D01*
X322736D01*
X321749Y223965D01*
Y222569D01*
X320380Y221200D01*
X299700D01*
X284600Y236300D01*
X232400D01*
X223400Y245300D01*
Y246100D01*
G01X222100Y358000D02*
Y368700D01*
X222000Y368800D01*
G01X222100Y352000D02*
Y347700D01*
G01X232000Y358000D02*
Y368800D01*
G01Y352000D02*
Y347600D01*
G01X224700Y365600D02*
X227000Y367900D01*
Y368800D01*
G01X214300Y365700D02*
X217000Y368400D01*
Y368800D01*
G01Y373800D02*
Y376775D01*
G01X315560Y187834D02*
X315334D01*
X313200Y185700D01*
X289600D01*
X240800Y136900D01*
Y98500D01*
X243850Y95450D01*
Y89800D01*
G01X311623Y183897D02*
X290497D01*
X243000Y136400D01*
Y100353D01*
X246350Y97003D01*
Y89800D01*
G01X311623Y191771D02*
X286971D01*
X235200Y140000D01*
Y98700D01*
X238850Y95050D01*
Y89800D01*
G01X315560Y191771D02*
Y191760D01*
X313600Y189800D01*
X288800D01*
X238200Y139200D01*
Y98100D01*
X241350Y94950D01*
Y89800D01*
G01X315560Y183897D02*
X315497D01*
X313500Y181900D01*
X293200D01*
X253000Y141700D01*
Y113501D01*
X248800Y109301D01*
Y105600D01*
G01Y242600D02*
Y239400D01*
G01X335245Y258700D02*
Y277855D01*
X273600Y339500D01*
X261400D01*
X252000Y348900D01*
Y352000D01*
G01Y358000D02*
Y368800D01*
G01X242000Y352000D02*
Y351400D01*
X261900Y331500D01*
X274600D01*
X331308Y274792D01*
Y268400D01*
G01X242000Y358000D02*
Y368800D01*
G01X254700Y366200D02*
X257000Y368500D01*
Y368800D01*
G01X234500Y365600D02*
X237000Y368100D01*
Y368800D01*
G01X244600Y365300D02*
X247000Y367700D01*
Y368800D01*
G01Y373800D02*
Y377200D01*
G01X237000Y373800D02*
Y377300D01*
G01X258850Y89800D02*
Y94950D01*
X256400Y97400D01*
Y136800D01*
X283400Y163800D01*
G01X275000Y105100D02*
Y106400D01*
X305900Y137300D01*
Y161100D01*
X317400Y172600D01*
Y178000D01*
X319360Y179960D01*
X319497D01*
G01X311623D02*
X297660D01*
X286200Y168500D01*
Y161500D01*
X259300Y134600D01*
Y97500D01*
X261350Y95450D01*
Y89800D01*
G01X263850D02*
Y95450D01*
X261700Y97600D01*
Y131600D01*
X289400Y159300D01*
Y165800D01*
X301400Y177800D01*
X313500D01*
X315560Y179860D01*
Y179960D01*
G01X295300Y167100D02*
Y161300D01*
X263600Y129600D01*
Y99000D01*
X266200Y96400D01*
Y89950D01*
X266350Y89800D01*
G01X303900Y172200D02*
X298700Y167000D01*
Y135000D01*
X268900Y105200D01*
G01X259600Y232100D02*
X255500D01*
G01X272500D02*
X265600D01*
G01X262000Y358000D02*
Y368800D01*
G01X272000Y352000D02*
Y348601D01*
X337000Y283601D01*
Y257000D01*
X339182Y254818D01*
Y254763D01*
G01X262000Y352000D02*
Y347100D01*
G01X272000Y358000D02*
Y368800D01*
G01X264400Y365900D02*
X267000Y368500D01*
Y368800D01*
G01X257000Y373800D02*
Y377200D01*
G01X267000Y373800D02*
Y377200D01*
G01X318800Y161800D02*
Y137000D01*
X286350Y104550D01*
Y89800D01*
G01X314100Y160100D02*
Y135800D01*
X284700Y106400D01*
Y96553D01*
X283850Y95703D01*
Y89800D01*
G01X323434Y179960D02*
X323260D01*
X321600Y178300D01*
Y171500D01*
X311600Y161500D01*
Y136900D01*
X281400Y106700D01*
Y104300D01*
G01X321700Y160000D02*
Y135500D01*
X296350Y110150D01*
Y89800D01*
G01X285900Y230300D02*
X283300D01*
X281500Y232100D01*
G01X293200Y239600D02*
X299000D01*
X305600Y233000D01*
X313700D01*
X315559Y231141D01*
X315560D01*
G01X335300Y160400D02*
Y123700D01*
X320300Y108700D01*
Y87700D01*
X303850Y71250D01*
Y50800D01*
G01X335245Y179960D02*
X335160D01*
X333400Y178200D01*
Y166300D01*
X330400Y163300D01*
Y127600D01*
X307100Y104300D01*
Y85700D01*
X298850Y77450D01*
Y50800D01*
G01X333300Y162900D02*
X332908Y162508D01*
Y126708D01*
X315100Y108900D01*
Y87700D01*
X301350Y73950D01*
Y50800D01*
G01X298850Y89800D02*
Y107950D01*
X323800Y132900D01*
Y157400D01*
X324600Y158200D01*
Y164300D01*
X329400Y169100D01*
Y178200D01*
X331160Y179960D01*
X331308D01*
G01X325800Y152700D02*
Y130800D01*
X301350Y106350D01*
Y89800D01*
G01X327900Y154300D02*
Y130300D01*
X303850Y106250D01*
Y89800D01*
G01X316500Y150100D02*
Y162900D01*
X323434Y169834D01*
Y176023D01*
G01X308700Y156000D02*
Y161200D01*
X319497Y171997D01*
Y176023D01*
G01X304650Y164150D02*
X311623Y171123D01*
Y176023D01*
G01X315560D02*
X313732Y174195D01*
G01X311623Y187834D02*
X309100D01*
G01X315560Y195708D02*
X317576Y197724D01*
G01X308900Y206400D02*
X310504D01*
X311623Y207519D01*
G01X315560Y215393D02*
X313732Y213565D01*
G01X315560Y207519D02*
X315519D01*
X313300Y205300D01*
G01X302950Y214850D02*
X308400Y209400D01*
X333400D01*
X335245Y211245D01*
Y211456D01*
G01X311623Y227204D02*
X309400D01*
G01X313700Y237000D02*
X315560Y235140D01*
Y235078D01*
G01X311623Y246889D02*
X308589D01*
G01X315560Y254763D02*
X313732Y256591D01*
G01X308300Y266600D02*
X311623Y263277D01*
Y258700D01*
G01X315560D02*
X315600Y258740D01*
Y265000D01*
G01X302800Y276800D02*
X309900D01*
X319497Y267203D01*
Y258700D01*
G01X304300Y283000D02*
X310000D01*
X324200Y268800D01*
Y259466D01*
X323434Y258700D01*
G01X331200Y106500D02*
Y103300D01*
G01X339182Y179960D02*
X339160D01*
X337300Y178100D01*
Y160000D01*
X341400Y155900D01*
Y110700D01*
X337200Y106500D01*
G01D02*
X340400D01*
X345300Y101600D01*
Y97850D01*
G01X327371Y183897D02*
X325543Y182069D01*
G01X323434Y183897D02*
X321606Y182069D01*
G01X319497Y187834D02*
X317669Y186006D01*
G01X323434Y187834D02*
X321606Y186006D01*
G01X327371Y191771D02*
X325543Y189943D01*
G01X331308Y187834D02*
X329480Y186006D01*
G01X319497Y183897D02*
X317669Y182069D01*
G01X335245Y176023D02*
Y173800D01*
G01X323434Y191771D02*
X321606Y189943D01*
G01X327371Y179960D02*
X325543Y178132D01*
G01X339182Y183897D02*
X337354Y182069D01*
G01X331308Y173600D02*
Y176023D01*
G01Y191771D02*
X329480Y189943D01*
G01X339182Y191771D02*
X337354Y189943D01*
G01X335245Y191771D02*
X333417Y189943D01*
G01X335245Y187834D02*
X337479Y185600D01*
X337600D01*
G01X327371Y187834D02*
X325543Y186006D01*
G01X319497Y191771D02*
X317669Y189943D01*
G01X331308Y183897D02*
X329480Y182069D01*
G01X327371Y199645D02*
X325543Y197817D01*
G01X339182Y203582D02*
X337354Y201754D01*
G01X323434Y211456D02*
X323456D01*
X325500Y213500D01*
G01X327371Y195708D02*
X325543Y193880D01*
G01X323434Y195708D02*
X321606Y193880D01*
G01X339182Y199645D02*
X337354Y197817D01*
G01X331308Y195708D02*
X329480Y193880D01*
G01X319497Y203582D02*
X317669Y201754D01*
G01X331308Y207519D02*
X329480Y205691D01*
G01X335245Y195708D02*
X333417Y193880D01*
G01X339182Y215393D02*
X337354Y213565D01*
G01X339182Y195708D02*
X337354Y193880D01*
G01X329450Y213250D02*
X331244Y211456D01*
X331308D01*
G01X339182D02*
Y211382D01*
X337200Y209400D01*
G01X329350Y229150D02*
X331308Y231108D01*
Y231141D01*
G01X319497Y223267D02*
Y223403D01*
X317900Y225000D01*
G01X331308Y219330D02*
Y219292D01*
X333200Y217400D01*
G01X335245Y215393D02*
X335293D01*
X337100Y217200D01*
G01X331308Y223267D02*
Y223208D01*
X329400Y221300D01*
G01X323434Y231141D02*
X321606Y232969D01*
G01X327371Y219330D02*
X325400Y221301D01*
G01X335245Y227204D02*
X333417Y229032D01*
G01X339182Y223267D02*
X337354Y225095D01*
G01X339182Y231141D02*
X337354Y232969D01*
G01X335245Y219330D02*
X333417Y221158D01*
G01X339182Y219330D02*
X337354Y221158D01*
G01X319497Y231141D02*
X319459D01*
X317500Y233100D01*
G01X323434Y227204D02*
X323396D01*
X321600Y229000D01*
G01X331308Y215393D02*
X331307D01*
X329500Y217200D01*
G01X339182Y227204D02*
X337354Y229032D01*
G01X335245Y231141D02*
X333417Y232969D01*
G01X335245Y223267D02*
X333417Y225095D01*
G01X329300Y252700D02*
X331174Y250826D01*
X331308D01*
G01X335245Y254763D02*
X335137D01*
X333200Y256700D01*
G01X323434Y250826D02*
X323274D01*
X321500Y252600D01*
G01X327371Y239015D02*
Y239129D01*
X325500Y241000D01*
G01X319497Y242952D02*
X317669Y244780D01*
G01X331308Y246889D02*
X329480Y248717D01*
G01X335245Y235078D02*
X333417Y236906D01*
G01X337100Y252900D02*
X339174Y250826D01*
X339182D01*
G01Y246889D02*
Y247018D01*
X337200Y249000D01*
G01X335245Y246889D02*
X335111D01*
X333300Y248700D01*
G01X335245Y250826D02*
Y250855D01*
X333300Y252800D01*
G01X319497Y235078D02*
Y235103D01*
X317600Y237000D01*
G01X323434Y242952D02*
Y243066D01*
X321500Y245000D01*
G01X323434Y239015D02*
X323385D01*
X321200Y241200D01*
G01X319497Y239015D02*
X319485D01*
X317400Y241100D01*
G01X323434Y235078D02*
X323422D01*
X321500Y237000D01*
G01X319497Y246889D02*
Y246903D01*
X317600Y248800D01*
G01X331308Y242952D02*
X331148D01*
X329300Y244800D01*
G01X317400Y252800D02*
X319374Y250826D01*
X319497D01*
G01X323434Y246889D02*
X323411D01*
X321300Y249000D01*
G01X327371Y250826D02*
Y250829D01*
X325500Y252700D01*
G01X339182Y235078D02*
X337354Y236906D01*
G01X327371Y242952D02*
X327348D01*
X325400Y244900D01*
G01X327371Y246889D02*
X327311D01*
X325300Y248900D01*
G01X327371Y258700D02*
Y260785D01*
G01X333000Y368800D02*
Y360000D01*
X333400Y359600D01*
G01X328000Y368800D02*
Y360000D01*
X327600Y359600D01*
G01X350300Y134750D02*
Y165000D01*
X343119Y172181D01*
Y176023D01*
G01X345300Y134750D02*
Y149400D01*
G01X348000Y161400D02*
X341100Y168300D01*
Y178000D01*
X343060Y179960D01*
X343119D01*
G01Y191771D02*
X341291Y189943D01*
G01X350993Y187834D02*
X349165Y186006D01*
G01X354930Y176023D02*
Y173500D01*
G01X339182Y176023D02*
Y173382D01*
G01X347056Y179960D02*
X345228Y178132D01*
G01X350993Y207519D02*
X349165Y205691D01*
G01X343119Y199645D02*
X341291Y197817D01*
G01X343119Y211456D02*
X341291Y209628D01*
G01X347056Y199645D02*
X345228Y197817D01*
G01X350993Y215393D02*
X349165Y213565D01*
G01X343119Y215393D02*
X341291Y213565D01*
G01X354930Y195708D02*
X354908D01*
X353100Y193900D01*
G01X354930Y215393D02*
X356758Y213565D01*
G01X345000Y213300D02*
X347056Y215356D01*
Y215393D01*
G01X343119Y195708D02*
X341291Y193880D01*
G01X350993Y223267D02*
Y223307D01*
X349100Y225200D01*
G01X343119Y227204D02*
X341291Y229032D01*
G01X347056Y231141D02*
X345228Y232969D01*
G01X354930Y231141D02*
X356758Y232969D01*
G01X354930Y227204D02*
X355104D01*
X357000Y229100D01*
G01X354930Y223267D02*
Y223330D01*
X356900Y225300D01*
G01X350993Y227204D02*
X349198Y228998D01*
G01X347056Y223267D02*
X347033D01*
X345000Y225300D01*
G01X347056Y227204D02*
Y227244D01*
X344900Y229400D01*
G01X343119Y219330D02*
X341291Y221158D01*
G01X350993Y219330D02*
X349165Y221158D01*
G01X350993Y231141D02*
X349165Y232969D01*
G01X343119Y231141D02*
X341291Y232969D01*
G01X343119Y223267D02*
X341291Y225095D01*
G01X354930Y219330D02*
X356758Y221158D01*
G01X347056Y219330D02*
X345228Y221158D01*
G01X339182Y242952D02*
Y242982D01*
X341200Y245000D01*
G01X343119Y250826D02*
X341291Y252654D01*
G01X354930Y254763D02*
X356758Y256591D01*
G01X343119Y235078D02*
X341291Y236906D01*
G01X347056Y239015D02*
X345228Y240843D01*
G01X350993Y235078D02*
X351078D01*
X352900Y236900D01*
G01X350993Y246889D02*
X351089D01*
X352800Y248600D01*
G01X347056Y246889D02*
X347289D01*
X349200Y248800D01*
G01X350993Y242952D02*
X351152D01*
X353000Y244800D01*
G01X347056Y250826D02*
Y250856D01*
X348900Y252700D01*
G01X350993Y254763D02*
X351063D01*
X353000Y256700D01*
G01X349500Y291000D02*
X348900Y290400D01*
Y256700D01*
X347056Y254856D01*
Y254763D01*
G01X343119Y246889D02*
Y246919D01*
X344800Y248600D01*
G01X344900Y292500D02*
Y256600D01*
X343119Y254819D01*
Y254763D01*
G01X354930Y246889D02*
Y246930D01*
X356800Y248800D01*
G01X350993Y250826D02*
Y250893D01*
X352900Y252800D01*
G01X354930Y235078D02*
X356758Y236906D01*
G01X347056Y235078D02*
X345228Y236906D01*
G01X354930Y250826D02*
Y250830D01*
X356900Y252800D01*
G01X347056Y258700D02*
Y261344D01*
G01X358000Y373800D02*
Y376500D01*
G01Y368800D02*
Y367900D01*
X360300Y365600D01*
G01X343000Y368800D02*
Y367900D01*
X345300Y365600D01*
G01X338000Y368800D02*
X341000Y365800D01*
G01X353000Y368800D02*
Y360300D01*
X353700Y359600D01*
G01X338000Y373800D02*
Y376400D01*
G01X343000Y373800D02*
Y376400D01*
G01X348000Y368800D02*
Y359700D01*
X347900Y359600D01*
G01X376700Y37900D02*
X373400D01*
G01X375300Y97850D02*
Y101100D01*
X373300Y103100D01*
G01X380300Y134750D02*
Y138300D01*
X376900Y141700D01*
G01X380300Y97850D02*
Y126629D01*
X382800Y129129D01*
Y144500D01*
X364900Y162400D01*
G01X428600Y94600D02*
Y97100D01*
X403500Y122200D01*
Y145800D01*
X378552Y170748D01*
Y176023D01*
G01X370678D02*
Y166722D01*
X387300Y150100D01*
Y115900D01*
X404000Y99200D01*
Y94600D01*
G01X420400D02*
Y98800D01*
X409499Y109701D01*
Y109801D01*
X398100Y121200D01*
Y147500D01*
X376500Y169100D01*
Y182012D01*
X374615Y183897D01*
G01X412200Y94600D02*
Y100600D01*
X401900Y110900D01*
X399200D01*
X392900Y117200D01*
Y148900D01*
X372700Y169100D01*
Y177000D01*
X370678Y179022D01*
Y179960D01*
G01X374615Y176023D02*
Y173115D01*
G01X378552Y183897D02*
X380380Y182069D01*
G01X362804Y191771D02*
X364632Y189943D01*
G01X366741Y179960D02*
X368569Y178132D01*
G01X370678Y187834D02*
X372506Y186006D01*
G01X358867Y183897D02*
X360695Y182069D01*
G01X436800Y94600D02*
Y97500D01*
X409500Y124800D01*
Y143800D01*
X380600Y172700D01*
Y177800D01*
X378552Y179848D01*
Y179960D01*
G01X374615Y215393D02*
Y215385D01*
X376500Y213500D01*
G01X370678Y207519D02*
X372506Y205691D01*
G01X370678Y215393D02*
X372506Y213565D01*
G01X374615Y195708D02*
X376443Y193880D01*
G01X358867Y203582D02*
X360695Y201754D01*
G01X362804Y215393D02*
X364632Y213565D01*
G01X366741Y215393D02*
X368569Y213565D01*
G01X358867Y215393D02*
X360695Y213565D01*
G01X366741Y199645D02*
Y199641D01*
X365000Y197900D01*
G01X370678Y223267D02*
X372506Y225095D01*
G01X370678Y231141D02*
X372506Y232969D01*
G01X378552Y227204D02*
X380380Y229032D01*
G01X362804Y223267D02*
X364632Y225095D01*
G01X362804Y231141D02*
X364632Y232969D01*
G01X370678Y227204D02*
X370397D01*
X368569Y229032D01*
G01X366741Y227204D02*
X368569Y229032D01*
G01X358867Y227204D02*
X358904D01*
X360800Y229100D01*
G01X378552Y215393D02*
X378607D01*
X380500Y213500D01*
G01X374615Y219330D02*
X376443Y221158D01*
G01X378552Y219330D02*
X380380Y221158D01*
G01X358867Y219330D02*
X360695Y221158D01*
G01X366741Y219330D02*
X368569Y221158D01*
G01X374615Y231141D02*
Y230515D01*
X372900Y228800D01*
G01X412600Y217000D02*
X412300Y217300D01*
X372600D01*
X370678Y219222D01*
Y219330D01*
G01X358867Y223267D02*
Y223367D01*
X360900Y225400D01*
G01X374615Y227204D02*
Y227215D01*
X376900Y229500D01*
G01X378552Y231141D02*
X378541D01*
X376900Y229500D01*
G01X366741Y231141D02*
X368569Y232969D01*
G01X366741Y223267D02*
X368569Y225095D01*
G01X362804Y227204D02*
X364632Y229032D01*
G01X358867Y231141D02*
X360695Y232969D01*
G01X362804Y219330D02*
X364632Y221158D01*
G01X370678Y235078D02*
X372506Y236906D01*
G01X370678Y239015D02*
X372506Y240843D01*
G01X370678Y242952D02*
X372506Y244780D01*
G01X374615Y242952D02*
X376443Y244780D01*
G01X378552Y235078D02*
X380380Y236906D01*
G01X378552Y242952D02*
X380380Y244780D01*
G01X378552Y246889D02*
X380380Y248717D01*
G01X358867Y235078D02*
X360695Y236906D01*
G01X358867Y242952D02*
X360695Y244780D01*
G01X366741Y235078D02*
X368569Y236906D01*
G01X374615Y246889D02*
X374689D01*
X376500Y248700D01*
G01X374615Y254763D02*
X374663D01*
X376500Y256600D01*
G01X362804Y250826D02*
X362826D01*
X364600Y252600D01*
G01X358867Y246889D02*
X358889D01*
X360800Y248800D01*
G01X358867Y250826D02*
X358926D01*
X360800Y252700D01*
G01X370678Y250826D02*
Y250878D01*
X372500Y252700D01*
G01X378552Y254763D02*
X378663D01*
X380600Y256700D01*
G01X358867Y254763D02*
Y254767D01*
X360700Y256600D01*
G01X362804Y246889D02*
X362989D01*
X364800Y248700D01*
G01X378552Y250826D02*
X378626D01*
X380400Y252600D01*
G01X362804Y235078D02*
X364632Y236906D01*
G01X370678Y246889D02*
X370689D01*
X372500Y248700D01*
G01X366741Y242952D02*
X366752D01*
X368800Y245000D01*
G01X374615Y250826D02*
X374726D01*
X376600Y252700D01*
G01X366741Y246889D02*
X366789D01*
X368500Y248600D01*
G01X366741Y250826D02*
Y250841D01*
X368600Y252700D01*
G01X362804Y254763D02*
Y254804D01*
X364600Y256600D01*
G01X366741Y258700D02*
Y260785D01*
G01X378000Y368800D02*
Y367800D01*
X380300Y365500D01*
G01X363000Y368800D02*
Y368100D01*
X365300Y365800D01*
G01X378000Y373800D02*
Y376800D01*
G01X373000Y368800D02*
Y359700D01*
X372900Y359600D01*
G01X363000Y373800D02*
Y376500D01*
X362900Y376600D01*
G01X368000Y368800D02*
Y360500D01*
X367100Y359600D01*
G01X382700Y37900D02*
X396800D01*
X396900Y37800D01*
G01X445000Y94600D02*
Y97300D01*
X414600Y127700D01*
Y142800D01*
X384500Y172900D01*
Y177700D01*
X382489Y179711D01*
Y179960D01*
G01X386426Y176023D02*
Y174874D01*
X418700Y142600D01*
Y129800D01*
X453200Y95300D01*
Y94600D01*
G01X386426Y179960D02*
X388254Y178132D01*
G01X382489Y191771D02*
X384317Y189943D01*
G01X390363Y187834D02*
X392191Y186006D01*
G01X394300Y176023D02*
X396128Y174195D01*
G01X520800Y141800D02*
X515400Y136400D01*
X468200D01*
X460300Y144300D01*
X446900D01*
X427500Y163700D01*
Y163829D01*
X426329Y165000D01*
X426200D01*
X399429Y191771D01*
X394300D01*
G01X400400Y181700D02*
X392103D01*
X390363Y179960D01*
G01X394300D02*
X397740D01*
X397800Y179900D01*
G01X384600Y185700D02*
Y185723D01*
X382489Y187834D01*
G01X461400Y94600D02*
Y96000D01*
X421800Y135600D01*
Y163700D01*
X401603Y183897D01*
X394300D01*
G01Y195708D02*
X396892D01*
G01X390363Y207519D02*
X390381D01*
X392400Y205500D01*
G01X382489Y211456D02*
X384317Y209628D01*
G01X382489Y215393D02*
X384317Y213565D01*
G01X386426Y199645D02*
X388254Y197817D01*
G01X386426Y215393D02*
X388254Y213565D01*
G01X390363Y215393D02*
X392191Y213565D01*
G01X394300Y215393D02*
X396128Y213565D01*
G01X390363Y199645D02*
X392408Y197600D01*
X406300D01*
X448300Y155600D01*
X499697D01*
X502100Y153197D01*
Y148700D01*
G01X415400Y205000D02*
X412881Y207519D01*
X394300D01*
G01X508200Y141900D02*
X505100Y138800D01*
X472100D01*
X461900Y149000D01*
X447300D01*
X402800Y193500D01*
X392700D01*
X390492Y195708D01*
X390363D01*
G01Y211456D02*
Y210437D01*
X391500Y209300D01*
X415300D01*
X426700Y197900D01*
X463500D01*
X491100Y170300D01*
X495900D01*
X507300Y158900D01*
X507600D01*
G01X394300Y211456D02*
X446644D01*
X449400Y208700D01*
G01X415400Y201000D02*
X414800Y201600D01*
X392500D01*
X390518Y203582D01*
X390363D01*
G01X386426Y223267D02*
X388254Y225095D01*
G01X394300Y227204D02*
X396502Y225002D01*
G01X382489Y231141D02*
X384317Y232969D01*
G01X394300Y219330D02*
X396128Y221158D01*
G01X392300Y221200D02*
X390430Y219330D01*
X390363D01*
G01Y227204D02*
Y227137D01*
X392200Y225300D01*
G01X390363Y235078D02*
Y234963D01*
X388300Y232900D01*
G01X386426Y231141D02*
X386541D01*
X388300Y232900D01*
G01X382489Y223267D02*
Y223289D01*
X384400Y225200D01*
G01X382489Y250826D02*
X384317Y252654D01*
G01X386426Y250826D02*
X388254Y252654D01*
G01X390363Y250826D02*
X392191Y252654D01*
G01X394300Y250826D02*
X396128Y252654D01*
G01X394300Y254763D02*
X396128Y256591D01*
G01X382489Y246889D02*
X384317Y248717D01*
G01X386426Y239015D02*
X388254Y240843D01*
G01X394300Y235078D02*
X396128Y236906D01*
G01X394300Y242952D02*
X396128Y244780D01*
G01X382489Y254763D02*
Y254789D01*
X384400Y256700D01*
G01X386426Y258700D02*
Y261274D01*
G01X393000Y353600D02*
Y349900D01*
G01X383000Y353600D02*
Y349300D01*
G01Y368800D02*
Y359600D01*
G01X393000Y368800D02*
Y359600D01*
G01X398000Y368800D02*
Y368200D01*
X400500Y365700D01*
G01X388000Y368800D02*
Y367800D01*
X390200Y365600D01*
G01X388000Y373800D02*
Y376600D01*
G01X398000Y373800D02*
Y376600D01*
G01X428700Y37600D02*
X417100D01*
X416900Y37800D01*
G01X409500Y226700D02*
X414700D01*
X415300Y226100D01*
G01X409500Y232700D02*
X414900D01*
X415300Y233100D01*
G01X419300Y226100D02*
X421300D01*
G01X419300Y233100D02*
X421300D01*
G01X412600Y217000D02*
Y218000D01*
X415400Y220800D01*
G01X417800Y240700D02*
X417100Y241400D01*
Y245800D01*
X416400Y246500D01*
Y246600D01*
G01X418946Y237200D02*
Y239554D01*
X417800Y240700D01*
G01X403000Y353600D02*
Y349300D01*
G01X413000Y353600D02*
Y349700D01*
G01Y359600D02*
Y368800D01*
G01X418000D02*
Y367700D01*
X420100Y365600D01*
G01X408000Y368800D02*
Y367700D01*
X410100Y365600D01*
G01X403000Y359600D02*
Y368800D01*
G01X418000Y373800D02*
Y376600D01*
G01X408000Y373800D02*
Y376500D01*
G01X425500Y163000D02*
Y155100D01*
X494800Y85800D01*
X551200D01*
G01X430900Y152800D02*
X471700Y112000D01*
X542900D01*
X549500Y118600D01*
Y121300D01*
G01X431100Y136000D02*
X435900D01*
X453700Y118200D01*
G01X425500Y135800D02*
X425700Y136000D01*
X431100D01*
G01X427046Y205554D02*
X429400Y203200D01*
X486673D01*
X501450Y188423D01*
Y186250D01*
X500500Y185300D01*
Y181000D01*
G01X430754Y205554D02*
X431907Y204400D01*
X487170D01*
X502650Y188920D01*
Y186250D01*
X503600Y185300D01*
Y181000D01*
G01X431600Y218800D02*
X428400D01*
G01X431600Y225000D02*
X428400D01*
G01X437600D02*
X442800D01*
X445200Y222600D01*
G01X437600Y218800D02*
Y225000D01*
G01X421300Y226100D02*
X421524D01*
X424776Y229351D01*
X479421D01*
X520350Y188423D01*
Y186150D01*
X519400Y185200D01*
Y181000D01*
G01X421300Y233100D02*
X422200D01*
X424748Y230551D01*
X479919D01*
X521550Y188920D01*
Y186250D01*
X522500Y185300D01*
Y181000D01*
G01X421600Y217000D02*
X425000D01*
X427700Y214300D01*
G01X422654Y237200D02*
Y239554D01*
X423800Y240700D01*
G01D02*
X424400Y241300D01*
Y246500D01*
G01X423000Y353600D02*
Y349900D01*
G01X433000Y353600D02*
Y349400D01*
G01X423000Y359600D02*
Y368800D01*
G01X438000Y373800D02*
Y376300D01*
G01Y368800D02*
Y367800D01*
X440300Y365500D01*
G01X428000Y368800D02*
Y368200D01*
X430400Y365800D01*
G01X427900Y376500D02*
Y373900D01*
X428000Y373800D01*
G01X433000Y368800D02*
Y359600D01*
G01X449000Y168100D02*
X445600D01*
G01X441800Y174200D02*
Y171300D01*
G01X455200Y162800D02*
X449700D01*
X449000Y162100D01*
G01X442000Y184000D02*
Y180800D01*
G01X447800Y174200D02*
X455100D01*
G01X455300Y184000D02*
X448000D01*
G01X455400Y215200D02*
Y208700D01*
G01X445200Y215200D02*
Y217100D01*
G01X455400Y218900D02*
X460300D01*
G01X459300Y222300D02*
X455700D01*
X455400Y222600D01*
G01X458000Y368800D02*
Y368200D01*
X460100Y366100D01*
G01X443000Y368800D02*
Y367700D01*
X445300Y365400D01*
G01X453000Y368800D02*
Y359600D01*
G01X458000Y373800D02*
Y376600D01*
G01X453000Y373800D02*
Y376500D01*
G01X448000Y368800D02*
Y360200D01*
X447400Y359600D01*
G01X443000Y373800D02*
Y376400D01*
G01X464200Y162800D02*
X468700D01*
G01X471900D02*
X464100Y170600D01*
Y174200D01*
G01X473000Y173400D02*
X464300Y182100D01*
Y184000D01*
G01X467900Y353600D02*
Y349600D01*
X467600Y349300D01*
G01X468000Y373800D02*
X465625Y371425D01*
Y361875D01*
X467900Y359600D01*
G01X478000Y368800D02*
Y366100D01*
G01X468000Y368800D02*
Y366100D01*
G01X463000Y368800D02*
Y366000D01*
G01X478000Y359600D02*
X475600Y362000D01*
Y371500D01*
X477900Y373800D01*
X478000D01*
G01X473000Y368800D02*
Y364400D01*
G01X488100Y353600D02*
Y348900D01*
G01X498000Y353600D02*
Y346500D01*
G01X503000Y368800D02*
Y365300D01*
G01X498000Y359600D02*
X495500Y362100D01*
Y371300D01*
X498000Y373800D01*
G01Y368800D02*
Y366100D01*
G01X488000Y368800D02*
Y366100D01*
G01X493000Y368800D02*
Y365400D01*
G01X483000Y368800D02*
Y365500D01*
G01X488100Y359600D02*
X485500Y362200D01*
Y371400D01*
X487900Y373800D01*
X488000D01*
G01X513000Y368800D02*
Y365200D01*
G01X518000Y368800D02*
Y366000D01*
G01X508000Y368800D02*
Y365900D01*
G01X517900Y359600D02*
X520500Y362200D01*
Y371400D01*
X518100Y373800D01*
X518000D01*
G01X511500Y359600D02*
X510500Y360600D01*
Y371100D01*
X508000Y373600D01*
Y373800D01*
G01X523000Y368800D02*
Y365300D01*
G01X551200Y79800D02*
X573700D01*
X573800Y79900D01*
G01X549500Y127300D02*
X571600D01*
X573800Y125100D01*
G01X552300Y169000D02*
X573700D01*
X573800Y168900D01*
G01X552300Y175000D02*
X547000D01*
G01X550500Y211000D02*
X573500D01*
X573800Y211300D01*
G01X551000Y252800D02*
X573400D01*
X573800Y252400D01*
G54D33*
X112492Y27004D03*
X146508D03*
X178192D03*
X212208D03*
G54D24*
X18600Y319000D03*
X48550Y223750D03*
X34300Y217500D03*
X42260Y219760D03*
X33800Y248400D03*
X40840Y302840D03*
X40680Y310520D03*
X41800Y328900D03*
X39700Y340000D03*
X50200Y65700D03*
X53600Y232915D03*
X53220Y227880D03*
X51600Y321000D03*
X75260Y102060D03*
X89660Y222340D03*
X85700Y248900D03*
X99400Y146800D03*
X94100Y156200D03*
Y164000D03*
X96800Y160100D03*
X92300Y179300D03*
X107700Y197200D03*
X101560Y233240D03*
X522400Y172500D03*
X511400Y172800D03*
X506500Y191600D03*
G54D51*
X377275Y85800D03*
X390125D03*
G54D15*
G01X11300Y204800D02*
Y195000D01*
G01Y222800D02*
Y231200D01*
X20100Y101900D03*
X51800Y35600D03*
X63000Y230600D03*
X103100Y128800D03*
X120200Y157100D03*
X120100Y251000D03*
X145600Y213900D03*
X233400Y246100D03*
X223400D03*
X248500Y114800D03*
X268700Y115400D03*
X299500Y379600D03*
X372000Y64900D03*
X383200Y16900D03*
X420400Y94600D03*
X412200D03*
X404000D03*
X444400Y44100D03*
X436800Y94600D03*
X428600D03*
X461400D03*
X453200D03*
X445000D03*
X468300Y44600D03*
X495200Y315200D03*
X532000Y235600D03*
X581500Y48100D03*
G54D42*
X238500Y24800D03*
X258500D03*
X330200Y35100D03*
Y45100D03*
Y55100D03*
Y65100D03*
X360200Y45100D03*
Y35100D03*
Y55100D03*
G54D61*
G01X38600Y189000D02*
X34400D01*
X27000Y196400D01*
G01X44600Y189000D02*
X47600D01*
G01X50100Y217200D02*
Y222200D01*
X48550Y223750D01*
G01X52860Y56450D02*
Y53840D01*
X53800Y52900D01*
G01X56100Y217200D02*
Y221300D01*
G01X62500Y221800D02*
Y230100D01*
X63000Y230600D01*
G01X68500Y221800D02*
Y220200D01*
X63400Y215100D01*
G01X139900Y80900D02*
X131100D01*
X130000Y79800D01*
G01X123700Y237900D02*
Y247400D01*
X120100Y251000D01*
G01X118400Y284000D02*
X128367D01*
X128691Y283676D01*
G01Y323676D02*
X135367Y317000D01*
X138000D01*
G01X128691Y328676D02*
Y332309D01*
X116000Y345000D01*
G01X138000Y323000D02*
X136800D01*
X131124Y328676D01*
X128691D01*
G01X145000Y283700D02*
Y275400D01*
X144800Y275200D01*
G01X145000Y283700D02*
Y292800D01*
X143000Y294800D01*
G01X210800Y204900D02*
X185700D01*
X185600Y204800D01*
G01X210800Y214900D02*
X185700D01*
X185600Y214800D01*
G01X210800Y224700D02*
X185700D01*
X185600Y224800D01*
G01Y234800D02*
X210700D01*
X210800Y234900D01*
G01X222300Y46100D02*
X222600Y46400D01*
G01X238500Y24800D02*
X246500D01*
X261350Y39650D01*
Y50800D01*
G01X248800Y40900D02*
Y45700D01*
X248850Y45750D01*
G01Y50800D02*
Y45750D01*
G01X253000Y44800D02*
X251350Y46450D01*
Y50800D01*
G01X243300Y43400D02*
X243850Y43950D01*
G01D02*
Y50800D01*
G01X253850D02*
Y74950D01*
X261500Y82600D01*
G01X246350Y50800D02*
Y60150D01*
G01X251350Y89800D02*
Y85350D01*
X250900Y84900D01*
G01X253800Y83800D02*
Y89750D01*
X253850Y89800D01*
G01X248800Y99600D02*
Y89850D01*
X248850Y89800D01*
G01X251350D02*
Y94100D01*
G01X248800Y99600D02*
X245200Y103200D01*
Y111500D01*
X248500Y114800D01*
G01X248600Y130800D02*
Y124900D01*
X248500Y124800D01*
G01X248600Y136800D02*
X248000D01*
X245500Y134300D01*
G01X263850Y50800D02*
Y30150D01*
X258500Y24800D01*
G01X268000Y40400D02*
X266350Y42050D01*
G01D02*
Y50800D01*
G01X303000Y40500D02*
X302374D01*
X298874Y37000D01*
X279023D01*
X271900Y44123D01*
Y45834D01*
X271350Y46384D01*
Y50800D01*
G01X299094Y40500D02*
Y39200D01*
X298294Y38400D01*
X279603D01*
X273300Y44703D01*
Y45834D01*
X273850Y46384D01*
Y50800D01*
G01X258850D02*
Y46350D01*
G01X268850Y50800D02*
Y44250D01*
G01X264400Y58200D02*
X266350Y56250D01*
Y50800D01*
G01X275000Y58600D02*
X276350Y57250D01*
G01X256400Y55400D02*
Y50850D01*
X256350Y50800D01*
G01X268800Y55500D02*
Y50850D01*
X268850Y50800D01*
G01X258850D02*
Y56450D01*
G01X256350Y89800D02*
Y94250D01*
G01X275000Y99100D02*
X271350Y95450D01*
Y89800D01*
G01X268850D02*
Y99150D01*
X268900Y99200D01*
G01D02*
X265700Y102400D01*
Y112400D01*
X268700Y115400D01*
G01X275000Y125300D02*
X268800D01*
X268700Y125400D01*
G01X275000Y131300D02*
X271300D01*
G01X328500Y19100D02*
X328200Y19400D01*
X314400D01*
X312800Y21000D01*
X298700D01*
X296001Y23699D01*
Y27725D01*
G01X278850Y50800D02*
Y46350D01*
G01X330200Y35100D02*
X322500Y42800D01*
X295600D01*
X291350Y47050D01*
Y50800D01*
G01X283850D02*
Y83150D01*
G01X293850Y50800D02*
Y55550D01*
G01X279900Y58600D02*
X281350Y57150D01*
G01X276350Y57250D02*
Y50800D01*
G01X281350Y57150D02*
Y50800D01*
G01X296350D02*
Y83250D01*
G01X286350Y50800D02*
Y58750D01*
G01X288900Y56300D02*
Y50850D01*
X288850Y50800D01*
G01X281400Y98300D02*
Y89850D01*
X281350Y89800D01*
G01X303056Y34600D02*
X302800Y34344D01*
Y28225D01*
X302300Y27725D01*
G01X299150Y34600D02*
Y27725D01*
G01X330200Y45100D02*
X297300D01*
G01X334500Y19100D02*
X334700Y18900D01*
X342100D01*
X342200Y19000D01*
G01X337000Y35000D02*
X330300D01*
X330200Y35100D01*
G01X336900Y46800D02*
X331900D01*
X330200Y45100D01*
G01X342900Y46800D02*
X345600D01*
G01X343000Y35000D02*
X345600D01*
G01X420400Y72700D02*
Y80200D01*
G01X404000Y86200D02*
Y94600D01*
G01X420400Y86200D02*
Y94600D01*
G01X404000Y72700D02*
Y80200D01*
G01X412200Y72700D02*
Y80200D01*
G01Y86200D02*
Y94600D01*
G01X436800Y72700D02*
Y80200D01*
G01X428600Y86200D02*
Y94600D01*
G01X436800Y86200D02*
Y94600D01*
G01X428600Y72700D02*
Y80200D01*
G01X431100Y142000D02*
Y145000D01*
G01X445000Y86200D02*
Y94600D01*
G01X453200Y72700D02*
Y80200D01*
G01X461400Y86200D02*
Y94600D01*
G01Y72700D02*
Y80200D01*
G01X453200Y86200D02*
Y94600D01*
G01X445000Y72700D02*
Y80200D01*
G01X478000Y353600D02*
Y349600D01*
G01X498900Y148700D02*
X495800Y151800D01*
G01X502100Y141700D02*
Y148700D01*
G01X495800Y151800D02*
Y152500D01*
G01X497300Y181000D02*
Y186700D01*
G01X505100Y156000D02*
Y148800D01*
X505200Y148700D01*
G01X508200Y141900D02*
Y148600D01*
X508300Y148700D01*
G01X511600Y154700D02*
Y148800D01*
X511500Y148700D01*
G01X520800Y141800D02*
Y148600D01*
X520900Y148700D01*
G01X534200Y159000D02*
X523400D01*
X517800Y153400D01*
Y148700D01*
G01X514500Y141800D02*
Y148600D01*
X514600Y148700D01*
G01X516200Y181000D02*
Y174600D01*
G01X506800Y181000D02*
Y174600D01*
G01X517900Y353600D02*
Y350100D01*
G01X511500Y353600D02*
Y351700D01*
X509300Y349500D01*
G01X524100Y148700D02*
Y137500D01*
X534200Y127400D01*
G01X527200Y148700D02*
Y142200D01*
G01X525700Y181000D02*
Y187400D01*
G54D25*
X36700Y44600D03*
Y50600D03*
X35600Y280900D03*
Y286900D03*
X38500Y328900D03*
Y322900D03*
X65300Y94900D03*
Y100900D03*
X53800Y335400D03*
Y341400D03*
X63600Y355200D03*
Y349200D03*
X76800Y214100D03*
Y220100D03*
X81900Y352000D03*
Y358000D03*
X106900Y138200D03*
Y144200D03*
X92000Y352000D03*
Y358000D03*
X101900Y352000D03*
Y358000D03*
X112100Y352000D03*
Y358000D03*
X122000Y352000D03*
Y358000D03*
X132100Y352000D03*
Y358000D03*
X139900Y105100D03*
Y111100D03*
X143800Y312600D03*
Y318600D03*
X138000Y317000D03*
Y323000D03*
X142000Y352000D03*
Y358000D03*
X152000Y352000D03*
Y358000D03*
X162000Y352000D03*
Y358000D03*
X171900Y352000D03*
Y358000D03*
X182000Y352000D03*
Y358000D03*
X192000Y352000D03*
Y358000D03*
X202000Y352000D03*
Y358000D03*
X211900Y352000D03*
Y358000D03*
X222100Y352000D03*
Y358000D03*
X232000Y352000D03*
Y358000D03*
X248800Y99600D03*
Y105600D03*
X248600Y130800D03*
Y136800D03*
X242000Y352000D03*
Y358000D03*
X252000Y352000D03*
Y358000D03*
X268900Y99200D03*
Y105200D03*
X275000Y105100D03*
Y99100D03*
Y131300D03*
Y125300D03*
X262000Y352000D03*
Y358000D03*
X272000Y352000D03*
Y358000D03*
X281400Y104300D03*
Y98300D03*
X326900Y333900D03*
X333900D03*
X327600Y353600D03*
Y359600D03*
X333400Y353600D03*
Y359600D03*
X326900Y339900D03*
X333900D03*
X347500Y333700D03*
X354600Y333600D03*
X353700Y353600D03*
Y359600D03*
X347900Y353600D03*
Y359600D03*
X347500Y339700D03*
X354600Y339600D03*
X366400Y333700D03*
X373100D03*
X372900Y353600D03*
Y359600D03*
X367100Y353600D03*
Y359600D03*
X366400Y339700D03*
X373100D03*
X383000Y353600D03*
Y359600D03*
X393000Y353600D03*
Y359600D03*
X412200Y80200D03*
Y86200D03*
X420400Y80200D03*
Y86200D03*
X404000Y80200D03*
Y86200D03*
X409500Y232700D03*
Y226700D03*
X416400Y246600D03*
Y252600D03*
X403000Y353600D03*
Y359600D03*
X413000Y353600D03*
Y359600D03*
X436800Y80200D03*
Y86200D03*
X428600Y80200D03*
Y86200D03*
X431100Y142000D03*
Y136000D03*
X424400Y246500D03*
Y252500D03*
X423000Y353600D03*
Y359600D03*
X433000Y353600D03*
Y359600D03*
X461400Y80200D03*
Y86200D03*
X453200Y80200D03*
Y86200D03*
X445000Y80200D03*
Y86200D03*
X449000Y168100D03*
Y162100D03*
X447400Y353600D03*
Y359600D03*
X453000Y353600D03*
Y359600D03*
X467900D03*
Y353600D03*
X478000Y359600D03*
Y353600D03*
X488100Y359600D03*
Y353600D03*
X498000Y359600D03*
Y353600D03*
X511500Y359600D03*
Y353600D03*
X517900Y359600D03*
Y353600D03*
X551200Y85800D03*
Y79800D03*
X549500Y121300D03*
Y127300D03*
X552300Y169000D03*
Y175000D03*
G54D43*
X253850Y50800D03*
X251350D03*
X248850D03*
X246350D03*
X243850D03*
X241350D03*
X238850D03*
X236350D03*
Y89800D03*
X238850D03*
X241350D03*
X243850D03*
X246350D03*
X248850D03*
X251350D03*
X253850D03*
X276350Y50800D03*
X273850D03*
X271350D03*
X268850D03*
X266350D03*
X263850D03*
X261350D03*
X258850D03*
X256350D03*
Y89800D03*
X258850D03*
X261350D03*
X263850D03*
X266350D03*
X268850D03*
X271350D03*
X273850D03*
X276350D03*
X296350Y50800D03*
X293850D03*
X291350D03*
X288850D03*
X286350D03*
X283850D03*
X281350D03*
X278850D03*
Y89800D03*
X281350D03*
X283850D03*
X286350D03*
X288850D03*
X291350D03*
X293850D03*
X296350D03*
X303850Y50800D03*
X301350D03*
X298850D03*
Y89800D03*
X301350D03*
X303850D03*
G54D34*
X111600Y65900D03*
Y85900D03*
Y80900D03*
Y75900D03*
Y70900D03*
Y100900D03*
Y95900D03*
Y90900D03*
X139900Y65900D03*
Y70900D03*
Y75900D03*
Y80900D03*
Y85900D03*
Y90900D03*
Y95900D03*
Y100900D03*
X173300Y90400D03*
Y85400D03*
Y80400D03*
Y75400D03*
Y70400D03*
Y105400D03*
Y100400D03*
Y95400D03*
X201600Y70400D03*
Y75400D03*
Y80400D03*
Y85400D03*
Y90400D03*
Y95400D03*
Y100400D03*
Y105400D03*
G54D52*
X455400Y215200D03*
Y218900D03*
Y222600D03*
X445200D03*
Y215200D03*
G54D16*
X18500Y134100D03*
Y149700D03*
Y165300D03*
G54D62*
G01X109500Y36400D02*
X110895D01*
G01X116900Y20000D02*
X117295Y20395D01*
G01D02*
Y23500D01*
G01X112400Y46200D02*
X116300Y42300D01*
X117100D01*
G01X110895Y36400D02*
X117689Y29607D01*
Y28500D01*
G01X142300Y20600D02*
X141705Y21195D01*
G01D02*
Y23500D01*
G01X148600Y33600D02*
X145304D01*
G01D02*
X141311Y29607D01*
Y28500D01*
G01X179900Y34113D02*
X183389Y30624D01*
Y28500D01*
G01X183200Y42900D02*
X179800D01*
G01X183200D02*
Y39900D01*
G01X208900Y34800D02*
X207011Y32911D01*
G01D02*
Y28500D01*
G01X293850Y96050D02*
Y89800D01*
G01X288850Y96850D02*
Y89800D01*
G01X293000Y96900D02*
X293850Y96050D01*
G01X289300Y97300D02*
X288850Y96850D01*
G54D35*
X117295Y23500D03*
X141705D03*
X182995D03*
X207405D03*
G54D44*
X285765Y5875D03*
Y26741D03*
X318835Y5875D03*
Y26741D03*
G54D53*
X484200Y45200D03*
Y84500D03*
Y121900D03*
Y161300D03*
X506600Y121900D03*
X518000Y44800D03*
X527800Y121900D03*
X540300Y64800D03*
Y104200D03*
Y141600D03*
Y181000D03*
G54D26*
X46950Y329659D03*
Y324541D03*
X54650D03*
Y327100D03*
Y329659D03*
G54D17*
X18500Y180900D03*
G54D63*
G01Y165300D02*
X23900Y159900D01*
G01X13200Y170500D02*
X18400Y165300D01*
G01X13200Y160300D02*
X18200Y165300D01*
G01X23400Y170100D02*
X18600Y165300D01*
G01X24200Y215900D02*
Y219500D01*
G01X27600Y296150D02*
X25040D01*
G01D02*
X22480D01*
G01X18350Y300280D02*
Y298250D01*
G01X25040Y314650D02*
X22480D01*
G01X27600D02*
X25040D01*
G01X26400Y322900D02*
X27600Y321700D01*
Y314650D01*
G01X18350Y310520D02*
Y315050D01*
G01X47740Y56450D02*
X50300D01*
G01X45180D02*
X47740D01*
G01X45180D02*
Y52880D01*
G01X47740Y74950D02*
X50300D01*
G01X45180D02*
X47740D01*
G01X45180D02*
Y78320D01*
G01X47740Y74950D02*
Y78360D01*
G01X41050Y70820D02*
Y72750D01*
G01X30100Y222000D02*
Y227530D01*
X30450Y227880D01*
G01X34580Y223750D02*
X31850D01*
X30100Y222000D01*
G01X37140Y223750D02*
X39700D01*
G01X34580D02*
X37140D01*
G01Y242250D02*
X34580D01*
G01X39700D02*
X37140D01*
G01X35600Y280900D02*
X39700D01*
G01X32720Y296150D02*
X34750D01*
G01X35600Y286900D02*
Y290300D01*
G01X36850Y300280D02*
Y298150D01*
G01X46950Y324541D02*
Y321950D01*
G01X58600Y28800D02*
X55800D01*
G01X57100Y55400D02*
X56050Y56450D01*
X55420D01*
G01X59200Y49600D02*
X56500D01*
G01X59550Y60580D02*
Y56250D01*
G01X66700Y82500D02*
X70100D01*
G01X67580Y106350D02*
X70140D01*
G01X67580D02*
X64850D01*
G01X70140Y124850D02*
X67580D01*
G01X63450Y120720D02*
Y122950D01*
G01X67580Y124850D02*
Y127620D01*
G01Y124850D02*
X65050D01*
G01X51700Y118100D02*
X57200D01*
G01X51700D02*
X56000Y122400D01*
G01X50500Y118100D02*
X51700D01*
G01X72500Y187300D02*
X69100D01*
G01X59500Y176700D02*
Y182500D01*
G01Y176700D02*
X69900D01*
G01X74600Y251300D02*
X69200D01*
G01X62900Y238100D02*
X66800D01*
G01X62900D02*
Y240900D01*
G01X71600Y70800D02*
X75100D01*
G01X81950Y110480D02*
Y107650D01*
G01X77820Y106350D02*
X80050D01*
G01X70140D02*
X72700D01*
G01Y124850D02*
X70140D01*
G01X89300Y174900D02*
Y172630D01*
X92580Y169350D01*
G01X88450Y165220D02*
X92580Y169350D01*
G01X78500Y187300D02*
X82800D01*
G01X83300Y174900D02*
X78400D01*
G01X76800Y214100D02*
X81800D01*
G01X84540Y226550D02*
X87100D01*
G01X81980D02*
X84540D01*
G01X81980D02*
Y222320D01*
G01X74600Y251300D02*
Y257000D01*
G01X84540Y245050D02*
X87100D01*
G01X81980D02*
X84540D01*
G01X80600Y251300D02*
Y246430D01*
G01D02*
X81980Y245050D01*
G01X106900Y138200D02*
X110400D01*
G01X95140Y150850D02*
X92580D01*
G01X97700D02*
X95140D01*
G01Y169350D02*
X97700D01*
G01X92580D02*
X95140D01*
G01X103100Y220700D02*
Y224600D01*
G01X109500Y240900D02*
X112800D01*
G01X111600Y85900D02*
X122100D01*
G01X125100Y150100D02*
X120100D01*
G01X125100D02*
Y145100D01*
G01X128100Y157500D02*
X120600D01*
X120200Y157100D01*
G01X114800Y176600D02*
X118100D01*
G01X139900Y111100D02*
X144100D01*
G01X134100Y150100D02*
Y157500D01*
G01X168800Y70400D02*
X165500Y67100D01*
G01X168800Y70400D02*
X162600D01*
G01X173300D02*
X168800D01*
G01X182995Y23500D02*
Y20495D01*
G01X201600Y85400D02*
X189100D01*
G01X207405Y23500D02*
Y20195D01*
G01X222300Y39600D02*
X225700D01*
G01X222300D02*
Y42100D01*
G01X254800Y40900D02*
Y43300D01*
G01X285765Y5875D02*
X278525D01*
G01X285765Y26741D02*
X278059D01*
G01X308599Y27725D02*
Y35599D01*
G01X318835Y5875D02*
X326625D01*
G01X318835Y26741D02*
X326759D01*
G01X357400Y85400D02*
X353900D01*
G01X350300Y97850D02*
Y90400D01*
G01X372000Y64900D02*
X381300D01*
G01X360200Y65100D02*
X371800D01*
X372000Y64900D01*
G01X375300Y134750D02*
Y128100D01*
G01X387300Y64900D02*
Y68700D01*
G01X390125Y85800D02*
Y90725D01*
G01X434700Y37600D02*
X438200D01*
G01X436800Y63700D02*
Y60400D01*
G01X428600Y63700D02*
Y60100D01*
G01X445000Y63700D02*
Y60000D01*
G54D54*
X502100Y148700D03*
X498900D03*
X497300Y181000D03*
X500500D03*
X503600D03*
X524100Y148700D03*
X520900D03*
X517800D03*
X514600D03*
X511500D03*
X508300D03*
X505200D03*
X506800Y181000D03*
X509900D03*
X513100D03*
X516200D03*
X519400D03*
X522500D03*
X527200Y148700D03*
X525700Y181000D03*
G54D45*
X293639Y17489D03*
X310961D03*
G54D36*
X127532Y28500D03*
X125563D03*
X123594D03*
X121626D03*
X119658D03*
X117689D03*
X120642Y23500D03*
X122610D03*
X124579D03*
X126547D03*
X128516D03*
X130484D03*
X141311Y28500D03*
X139342D03*
X137374D03*
X135406D03*
X133437D03*
X131468D03*
X132453Y23500D03*
X134421D03*
X136390D03*
X138358D03*
X193232Y28500D03*
X191263D03*
X189294D03*
X187326D03*
X185358D03*
X183389D03*
X186342Y23500D03*
X188310D03*
X190279D03*
X192247D03*
X207011Y28500D03*
X205043D03*
X203074D03*
X201106D03*
X199137D03*
X197168D03*
X194216Y23500D03*
X196184D03*
X198153D03*
X200121D03*
X202090D03*
X204058D03*
G54D18*
X27000Y196400D03*
X36000D03*
X67600Y28800D03*
X58600D03*
X109800Y121400D03*
X118800D03*
X125100Y150100D03*
X134100D03*
X272500Y232100D03*
X281500D03*
X412600Y217000D03*
X421600D03*
X455100Y174200D03*
X455200Y162800D03*
X455300Y184000D03*
X464100Y174200D03*
X464200Y162800D03*
X464300Y184000D03*
G54D27*
X63400Y215100D03*
Y206100D03*
X133000Y244200D03*
Y253200D03*
X342200Y10000D03*
Y19000D03*
X420400Y63700D03*
X412200D03*
X404000D03*
X420400Y72700D03*
X412200D03*
X404000D03*
X436800Y63700D03*
X428600D03*
X436800Y72700D03*
X428600D03*
X461400Y63700D03*
X453200D03*
X445000D03*
X461400Y72700D03*
X453200D03*
X445000D03*
G54D64*
G01X36700Y50600D02*
Y54100D01*
G01Y50600D02*
X39900D01*
G01X41050Y60580D02*
X36280D01*
G01X41050D02*
Y58450D01*
G01X37140Y242250D02*
Y245440D01*
G01X38600Y245400D02*
X39700Y244300D01*
Y242250D01*
G01X30450Y238120D02*
Y240950D01*
G01X59550Y63140D02*
X65960D01*
G01X49300Y52800D02*
X50300Y53800D01*
Y56450D01*
G01X65600Y70800D02*
X59570D01*
X59550Y70820D01*
G01X53900Y82500D02*
X60700D01*
G01X63450Y110480D02*
Y108350D01*
G01X60300Y109300D02*
X61480Y110480D01*
X63450D01*
G01X57200Y321600D02*
X54650Y324150D01*
Y324541D01*
G01Y327100D02*
X60400D01*
G01X63600Y355200D02*
X58900D01*
G01X70140Y106350D02*
Y102560D01*
G01X81950Y113040D02*
X87260D01*
G01X88450Y154980D02*
Y152350D01*
G01X84540Y226550D02*
Y223360D01*
G01X77850Y230680D02*
Y227750D01*
G01X73800Y229200D02*
X75280Y230680D01*
X77850D01*
G01X85700Y222900D02*
X87100Y224300D01*
Y226550D01*
G01X77850Y240920D02*
Y242450D01*
G01X82000Y373800D02*
Y376500D01*
G01X77000Y368800D02*
Y365900D01*
G01Y368800D02*
X73500D01*
G01X95140Y150850D02*
Y147440D01*
G01X104700Y148100D02*
X102820Y149980D01*
Y150850D01*
G01X106900Y144200D02*
Y147400D01*
G01Y144200D02*
X103700D01*
G01X106950Y157540D02*
X112540D01*
G01X106950Y154980D02*
Y152750D01*
G01X96350Y230680D02*
Y229050D01*
G01X97100Y220700D02*
X93900D01*
G01X97100D02*
Y224100D01*
G01X92220Y226550D02*
X94250D01*
G01X98600Y228900D02*
X96820Y230680D01*
X96350D01*
G01X102000Y373800D02*
Y376800D01*
G01X92000Y373800D02*
Y376700D01*
G01X122000Y373800D02*
Y376600D01*
G01X112000Y373800D02*
Y376700D01*
G01X152000Y373800D02*
Y376700D01*
G01X142000Y373800D02*
Y376600D01*
G01X132000Y373800D02*
Y376800D01*
G01X172000Y373800D02*
Y377000D01*
G01X162000Y373800D02*
Y376600D01*
G01X192000Y373800D02*
Y377100D01*
G01X182000Y373800D02*
Y377200D01*
G01X212000Y373800D02*
Y376700D01*
G01X202000Y373800D02*
Y376900D01*
G01X216300Y39600D02*
Y43500D01*
G01X232000Y373800D02*
Y376800D01*
G01X222000Y373800D02*
Y377000D01*
G01X252000Y373800D02*
Y377100D01*
G01X242000Y373800D02*
Y376600D01*
G01X272000Y373800D02*
Y377400D01*
G01X262000Y373800D02*
Y377100D01*
G01X278850Y89800D02*
Y83050D01*
G01X291350Y89800D02*
Y83250D01*
G01X348000Y373800D02*
Y376900D01*
G01X393000Y373800D02*
Y377000D01*
G01X383000Y373800D02*
Y376900D01*
G01X413000Y373800D02*
Y376600D01*
G01X403000Y373800D02*
Y377200D01*
G01X433000Y373800D02*
Y376800D01*
G01X423000Y373800D02*
Y376600D01*
G01X448000Y373800D02*
Y376900D01*
G01X473000Y373800D02*
Y376600D01*
G01X463000Y373800D02*
Y377100D01*
G01X503000Y373800D02*
Y376900D01*
G01X493000Y373800D02*
Y376500D01*
G01X483000Y373800D02*
Y376600D01*
G01X513000Y373800D02*
Y376800D01*
G54D28*
X63731Y283676D03*
Y288676D03*
Y293676D03*
Y298676D03*
Y303676D03*
Y308676D03*
X128691Y298676D03*
Y293676D03*
Y288676D03*
Y283676D03*
Y318676D03*
Y313676D03*
Y308676D03*
Y303676D03*
Y328676D03*
Y323676D03*
G54D55*
X493400Y164800D03*
X531200D03*
G54D19*
G01X24400Y337300D02*
X33400Y346300D01*
G01X24400Y337300D02*
Y336300D01*
G01Y346700D02*
Y337300D01*
G01X59200Y49600D02*
Y52500D01*
X30100Y222000D03*
X78400Y174900D03*
X81800Y214100D03*
X116000Y345000D03*
X144800Y275200D03*
X222600Y46400D03*
X484200Y133000D03*
Y151500D03*
Y171100D03*
X493400Y189300D03*
X512300D03*
X540300Y133000D03*
Y151500D03*
Y171100D03*
X531200Y189300D03*
G54D37*
G01X4900Y301400D02*
Y298000D01*
G01X44820Y223750D02*
X48550D01*
G01X30200Y215900D02*
X32700D01*
X34300Y217500D01*
G01X42260Y223750D02*
Y219760D01*
G01X46000Y249400D02*
X52100D01*
G01X44820Y242250D02*
Y248220D01*
X46000Y249400D01*
G01X30100Y292000D02*
Y292700D01*
X30160Y292760D01*
Y296150D01*
G01X36850Y302840D02*
X40840D01*
G01X32720Y314650D02*
Y322580D01*
X32400Y322900D01*
G01X36850Y310520D02*
X40680D01*
G01X46950Y329659D02*
Y335050D01*
X45700Y336300D01*
G01X38500Y328900D02*
X41800D01*
G01X39700Y336300D02*
Y340000D01*
G01X32400Y322900D02*
X38500D01*
G01X61600Y36000D02*
X52200D01*
X51800Y35600D01*
G01X67600Y36000D02*
Y28800D01*
G01X50300Y65700D02*
X50200D01*
G01X53900Y82500D02*
Y78645D01*
X55420Y77124D01*
Y74950D01*
G01X48950Y230440D02*
X51125D01*
X53600Y232915D01*
G01X48950Y227880D02*
X53220D01*
G01X56900Y238100D02*
X48970D01*
X48950Y238120D01*
G01X69800Y343500D02*
Y314745D01*
X63731Y308676D01*
G01X54650Y329659D02*
Y334550D01*
X53800Y335400D01*
G01Y341400D02*
X61700D01*
X63800Y343500D01*
G01X63600Y349200D02*
Y343700D01*
X63800Y343500D01*
G01X75260Y106350D02*
Y102060D01*
G01X89100Y130800D02*
X92600D01*
G01X71500D02*
Y127801D01*
G01D02*
X72700Y126601D01*
Y124850D01*
G01X77500Y130800D02*
Y125170D01*
X77820Y124850D01*
G01X77500Y130800D02*
X83100D01*
G01X88300Y120700D02*
X81970D01*
X81950Y120720D01*
G01X89660Y226550D02*
Y222340D01*
G01X85700Y248900D02*
X87400Y247200D01*
Y245350D01*
X87100Y245050D01*
G01X94300Y120700D02*
X97600D01*
G01X112400Y128500D02*
X103400D01*
X103100Y128800D01*
G01X100260Y150850D02*
Y147660D01*
X99400Y146800D01*
G01X97700Y160100D02*
X96800D01*
G01X113100Y165200D02*
X106970D01*
X106950Y165220D01*
G01X102800Y176600D02*
Y169370D01*
X102820Y169350D01*
G01X96800Y176600D02*
Y172761D01*
X95140Y171101D01*
Y169350D01*
G01X102800Y176600D02*
X108800D01*
G01X92300Y179300D02*
X94100D01*
X96800Y176600D01*
G01X96350Y233240D02*
X101560D01*
G01X93100Y252400D02*
Y245930D01*
X92220Y245050D01*
G01X93100Y252400D02*
X99100D01*
G01X103500Y240900D02*
X96370D01*
X96350Y240920D01*
G01X118400Y128500D02*
Y121800D01*
X118800Y121400D01*
G01X129700Y237900D02*
Y240900D01*
X133000Y244200D01*
G01X139000Y283700D02*
X128715D01*
X128691Y283676D01*
G01X511400Y172800D02*
X513100Y174500D01*
Y181000D01*
G01X506500Y191600D02*
Y189400D01*
X509900Y186000D01*
Y181000D01*
X120642Y16842D03*
X122700Y19800D03*
X145800Y36900D03*
X142400Y36200D03*
X150600Y75900D03*
X149200Y70900D03*
X186342Y17558D03*
X188600Y19400D03*
X187326Y35500D03*
X184150Y32550D03*
X193232Y34232D03*
X197168D03*
X227000Y377100D03*
X317669Y186006D03*
Y182069D03*
X313732Y174195D03*
X309100Y187834D03*
X317669Y189943D03*
X317576Y197724D03*
X308900Y206400D03*
X317669Y201754D03*
X313732Y213565D03*
X302400Y206600D03*
X313300Y205300D03*
X317900Y225000D03*
X309400Y227204D03*
X317500Y233100D03*
X313700Y237000D03*
X308589Y246889D03*
X317669Y244780D03*
X304700Y236800D03*
X299700Y246800D03*
X317600Y237000D03*
X317400Y241100D03*
X317600Y248800D03*
X317400Y252800D03*
X299870Y253770D03*
X313732Y256591D03*
X315600Y265000D03*
X325543Y182069D03*
X321606D03*
Y186006D03*
X325543Y189943D03*
X329480Y186006D03*
X335245Y173800D03*
X325543Y193880D03*
X321606D03*
X329480D03*
X333417D03*
X321606Y189943D03*
X325543Y178132D03*
X337354Y182069D03*
X331308Y173600D03*
X329480Y189943D03*
X337354D03*
X333417D03*
X337354Y193880D03*
X325543Y186006D03*
X329480Y182069D03*
X325543Y197817D03*
X337354Y201754D03*
X325500Y213500D03*
X337354Y197817D03*
X329480Y205691D03*
X337354Y213565D03*
X329350Y229150D03*
X333200Y217400D03*
X337100Y217200D03*
X329400Y221300D03*
X321606Y232969D03*
X325400Y221301D03*
X333417Y229032D03*
X337354Y225095D03*
Y232969D03*
X333417Y221158D03*
X337354D03*
X321600Y229000D03*
X337354Y229032D03*
X333417Y232969D03*
Y225095D03*
X329300Y252700D03*
X321500Y252600D03*
X329500Y236900D03*
X325500Y241000D03*
X329480Y248717D03*
X333417Y236906D03*
X333200Y244900D03*
X333300Y241100D03*
X337100Y252900D03*
X337200Y249000D03*
X333300Y248700D03*
Y252800D03*
X321500Y245000D03*
X321200Y241200D03*
X321500Y237000D03*
X329300Y244800D03*
X321300Y249000D03*
X325500Y252700D03*
X337354Y236906D03*
X325400Y244900D03*
X325300Y248900D03*
X333200Y256700D03*
X327371Y260785D03*
X322800Y265000D03*
X333300Y266300D03*
X338000Y376400D03*
X341291Y189943D03*
X349165Y186006D03*
X354930Y173500D03*
X352900Y189800D03*
Y185300D03*
X341000Y185800D03*
X339182Y173382D03*
X345228Y178132D03*
X341291Y193880D03*
X349165Y205691D03*
X341291Y197817D03*
Y209628D03*
X345228Y197817D03*
X341300Y205200D03*
X353100Y205500D03*
X356700Y209300D03*
X349165Y213565D03*
X341291D03*
X353100Y193900D03*
X356758Y213565D03*
X345000Y213300D03*
X349100Y225200D03*
X341291Y229032D03*
X345228Y232969D03*
X356758D03*
X357000Y229100D03*
X356900Y225300D03*
X349198Y228998D03*
X345000Y225300D03*
X344900Y229400D03*
X341291Y221158D03*
X349165D03*
Y232969D03*
X341291D03*
Y225095D03*
X356758Y221158D03*
X345228D03*
X341200Y245000D03*
X341291Y252654D03*
Y236906D03*
X345228Y240843D03*
X352900Y236900D03*
X352800Y248600D03*
X349200Y248800D03*
X353000Y244800D03*
X348900Y252700D03*
X344800Y248600D03*
X356800Y248800D03*
X352900Y252800D03*
X356758Y236906D03*
X345228D03*
X356900Y252800D03*
X356758Y256591D03*
X339000Y263700D03*
X347056Y261344D03*
X353000Y256700D03*
X339400Y327889D03*
X341100D03*
X358000Y376500D03*
X345300Y365600D03*
X341000Y365800D03*
X343000Y376400D03*
X374615Y173115D03*
X376443Y193880D03*
X364632Y189943D03*
X368569Y178132D03*
X372506Y186006D03*
X360695Y182069D03*
X376500Y213500D03*
X372506Y205691D03*
Y213565D03*
X376800Y197600D03*
X360695Y201754D03*
X364632Y213565D03*
X368569D03*
X360695D03*
X365000Y197900D03*
X364700Y209500D03*
X372900Y209300D03*
X372700Y201600D03*
X372506Y225095D03*
Y232969D03*
X372600Y221200D03*
X364632Y225095D03*
Y232969D03*
X368569Y229032D03*
X360800Y229100D03*
X376443Y221158D03*
X360695D03*
X368569D03*
X372900Y228800D03*
X360900Y225400D03*
X361000Y217500D03*
X376900Y229500D03*
X368569Y232969D03*
Y225095D03*
X364632Y229032D03*
X360695Y232969D03*
X364632Y221158D03*
X372506Y236906D03*
Y240843D03*
Y244780D03*
X376443D03*
X360695Y236906D03*
Y244780D03*
X368569Y236906D03*
X376500Y248700D03*
X364600Y252600D03*
X368700Y241000D03*
X360800Y248800D03*
Y252700D03*
X372500D03*
X377500Y241000D03*
X375900D03*
X364800Y248700D03*
X376500Y236900D03*
X364632Y236906D03*
X372500Y248700D03*
X368800Y245000D03*
X376600Y252700D03*
X368500Y248600D03*
X368600Y252700D03*
X366741Y260785D03*
X376500Y256600D03*
X360700D03*
X364600D03*
X360300Y365600D03*
X365300Y365800D03*
X378000Y376800D03*
X362900Y376600D03*
X388254Y178132D03*
X384317Y189943D03*
X380380Y182069D03*
X392191Y186006D03*
X396128Y174195D03*
X384600Y185700D03*
X392400Y205500D03*
X380700Y205700D03*
X380500Y213500D03*
X384317Y209628D03*
Y213565D03*
X388254Y197817D03*
Y213565D03*
X392191D03*
X396128D03*
X380380Y229032D03*
X388254Y225095D03*
X396502Y225002D03*
X384317Y232969D03*
X392000Y233200D03*
X380380Y221158D03*
X396128D03*
X392300Y221200D03*
X392200Y225300D03*
X388300Y232900D03*
X384400Y225200D03*
X399700Y225100D03*
X399900Y219400D03*
X384317Y252654D03*
X388254D03*
X392191D03*
X396128D03*
X380380Y236906D03*
Y244780D03*
Y248717D03*
X384317D03*
X388254Y240843D03*
X396128Y236906D03*
Y244780D03*
X388500Y244800D03*
X380400Y252600D03*
X380700Y241300D03*
X384400Y237100D03*
X396128Y256591D03*
X386426Y261274D03*
X380600Y256700D03*
X384400D03*
X400500Y365700D03*
X390200Y365600D03*
X380300Y365500D03*
X388000Y376600D03*
X398000D03*
X408200Y214400D03*
X402000Y245500D03*
X402500Y263400D03*
X401800Y257300D03*
X420100Y365600D03*
X410100D03*
X418000Y376600D03*
X408000Y376500D03*
X439400Y345866D03*
X441100D03*
X438000Y376300D03*
X440300Y365500D03*
X430400Y365800D03*
X427900Y376500D03*
X456550Y347852D03*
X454850D03*
X460100Y366100D03*
X445300Y365400D03*
X458000Y376600D03*
X453000Y376500D03*
X443000Y376400D03*
X478000Y366100D03*
X468000D03*
X463000Y366000D03*
X473000Y364400D03*
X483000Y365500D03*
X503000Y365300D03*
X498000Y366100D03*
X488000D03*
X493000Y365400D03*
X513000Y365200D03*
X518000Y366000D03*
X508000Y365900D03*
X523000Y365300D03*
G54D46*
X296001Y27725D03*
X305450D03*
X302300D03*
X299150D03*
X308599D03*
G54D65*
G01X4350Y204800D02*
X11300D01*
G01X6700Y336300D02*
X11400D01*
G01X20000Y20000D02*
Y36700D01*
G01Y20000D02*
X36700D01*
G01X26800Y54400D02*
Y59100D01*
G01X21600D02*
X26800D01*
G01Y67400D02*
Y72100D01*
G01D02*
Y76800D01*
G01X21600Y72100D02*
X26800D01*
G01D02*
X32000D01*
G01X18500Y127900D02*
Y134100D01*
G01X12300D02*
X18500D01*
G01D02*
X24700D01*
G01X18400Y165300D02*
X18500D01*
G01X18200D02*
X18400D01*
G01X18500Y159100D02*
Y165300D01*
G01D02*
Y171500D01*
G01X18600Y165300D02*
X24700D01*
G01X24200Y213450D02*
Y215900D01*
G01X11300Y204800D02*
X18250D01*
G01X21900Y215900D02*
X24200D01*
G01X21500Y249050D02*
Y251500D01*
G01D02*
Y253950D01*
G01X19200Y251500D02*
X21500D01*
G01X27500Y249050D02*
Y251500D01*
G01D02*
Y253950D01*
G01Y251500D02*
X29800D01*
G01X22480Y293385D02*
Y296150D01*
G01X21090D02*
X22480D01*
G01X10900Y298950D02*
Y301400D01*
G01D02*
Y303850D01*
G01Y301400D02*
X13200D01*
G01X22480Y314650D02*
Y317415D01*
G01X21090Y314650D02*
X22480D01*
G01X19700Y336300D02*
X24400D01*
G01D02*
X29100D01*
G01X11400Y331100D02*
Y336300D01*
G01X26400Y320450D02*
Y322900D01*
G01D02*
Y325350D01*
G01X24100Y322900D02*
X26400D01*
G01X20000Y363300D02*
Y380000D01*
G01D02*
Y396700D01*
G01Y380000D02*
X36700D01*
G01X36700Y42300D02*
Y44600D01*
G01X34250D02*
X36700D01*
G01X35900Y82500D02*
Y84950D01*
G01X33600Y82500D02*
X35900D01*
G01X41900Y80050D02*
Y82500D01*
G01D02*
Y84950D01*
G01Y82500D02*
X44200D01*
G01X47900Y80050D02*
Y82500D01*
G01D02*
Y84950D01*
G01X45600Y82500D02*
X47900D01*
G01X48400Y105750D02*
Y108200D01*
G01D02*
Y110650D01*
G01X46100Y108200D02*
X48400D01*
G01X37500Y112900D02*
Y118100D01*
G01D02*
Y123300D01*
G01X32800Y118100D02*
X37500D01*
G01D02*
X42200D01*
G01X36000Y193200D02*
Y196400D01*
G01D02*
Y199600D01*
G01Y196400D02*
X38700D01*
G01X40000Y246950D02*
Y249400D01*
G01D02*
Y251850D01*
G01X37700Y249400D02*
X40000D01*
G01X34580Y242250D02*
Y245015D01*
G01X33190Y242250D02*
X34580D01*
G01X43600Y274100D02*
Y278800D01*
G01X38400Y274100D02*
X43600D01*
G01D02*
X48800D01*
G01X43600Y256400D02*
Y261100D01*
G01X38400D02*
X43600D01*
G01D02*
X48800D01*
G01X35600Y278600D02*
Y280900D01*
G01X33150D02*
X35600D01*
G01X38500Y328900D02*
Y331200D01*
G01X36050Y328900D02*
X38500D01*
G01X46950Y324541D02*
Y325941D01*
G01X43950Y324541D02*
X46950D01*
G01X58600Y25600D02*
Y28800D01*
G01X65200Y47150D02*
Y49600D01*
G01X58600Y28800D02*
Y32000D01*
G01X65200Y49600D02*
Y52050D01*
G01Y49600D02*
X67500D01*
G01X66700Y80050D02*
Y82500D01*
G01D02*
Y84950D01*
G01X65300Y92600D02*
Y94900D01*
G01X62850D02*
X65300D01*
G01D02*
X67750D01*
G01X65300Y100900D02*
Y103200D01*
G01X62850Y100900D02*
X65300D01*
G01D02*
X67750D01*
G01X54400Y105750D02*
Y108200D01*
G01D02*
Y110650D01*
G01Y108200D02*
X56700D01*
G01X69200Y130800D02*
X71500D01*
G01X65400Y129850D02*
Y132300D01*
G01X59400Y129850D02*
Y132300D01*
G01X65400D02*
Y134750D01*
G01Y132300D02*
X67700D01*
G01X59400D02*
Y134750D01*
G01X57100Y132300D02*
X59400D01*
G01X59500Y155000D02*
Y158700D01*
G01D02*
Y162400D01*
G01X52550Y158700D02*
X59500D01*
G01D02*
X66450D01*
G01X59500Y173000D02*
Y176700D01*
G01X52550D02*
X59500D01*
G01X63400Y203400D02*
Y206100D01*
G01D02*
Y208800D01*
G01X60200Y206100D02*
X63400D01*
G01D02*
X66600D01*
G01X56100Y214750D02*
Y217200D01*
G01D02*
X58400D01*
G01X58100Y246950D02*
Y249400D01*
G01D02*
Y251850D01*
G01X61281Y303676D02*
X63731D01*
G01D02*
X66181D01*
G01X63600Y355200D02*
Y357500D01*
G01Y355200D02*
X66050D01*
G01X68300Y377429D02*
Y381674D01*
G01X67513Y365285D02*
Y371300D01*
G01D02*
Y377315D01*
G01X64453Y371300D02*
X67513D01*
G01D02*
X70573D01*
G01X67513Y386545D02*
Y392560D01*
G01X64453D02*
X67513D01*
G01D02*
X70573D01*
G01X68300Y381674D02*
Y385919D01*
G01X64055Y381674D02*
X68300D01*
G01D02*
X72545D01*
G01X71600Y68350D02*
Y70800D01*
G01D02*
Y73250D01*
G01X89100Y128350D02*
Y130800D01*
G01D02*
Y133250D01*
G01X71500Y130800D02*
Y133250D01*
G01X75800Y151850D02*
Y154300D01*
G01X81800Y151850D02*
Y154300D01*
G01X75800D02*
Y156750D01*
G01X73500Y154300D02*
X75800D01*
G01X81800D02*
X84100D01*
G01X78500Y184850D02*
Y187300D01*
G01D02*
Y189750D01*
G01X72500Y184850D02*
Y187300D01*
G01D02*
Y189750D01*
G01X76800Y211800D02*
Y214100D01*
G01X74350D02*
X76800D01*
G01Y220100D02*
Y222400D01*
G01X74350Y220100D02*
X76800D01*
G01D02*
X79250D01*
G01X102042Y65900D02*
X111600D01*
G01X94300Y118250D02*
Y120700D01*
G01D02*
Y123150D01*
G01X109800Y118200D02*
Y121400D01*
G01X107100D02*
X109800D01*
G01D02*
X112500D01*
G01X106900Y135900D02*
Y138200D01*
G01X104450D02*
X106900D01*
G01X92580Y148085D02*
Y150850D01*
G01X91190D02*
X92580D01*
G01X103100Y218250D02*
Y220700D01*
G01D02*
X105400D01*
G01X109500Y238450D02*
Y240900D01*
G01D02*
Y243350D01*
G01X105100Y249950D02*
Y252400D01*
G01D02*
Y254850D01*
G01Y252400D02*
X107400D01*
G01X100300Y258800D02*
Y264000D01*
G01D02*
Y269200D01*
G01Y264000D02*
X105000D01*
G01X111600Y64255D02*
Y65900D01*
G01D02*
Y67545D01*
G01Y65900D02*
X121159D01*
G01X125100Y150100D02*
Y153300D01*
G01Y150100D02*
X127800D01*
G01X119100Y162750D02*
Y165200D01*
G01D02*
Y167650D01*
G01Y165200D02*
X121400D01*
G01X114800Y174150D02*
Y176600D01*
G01D02*
Y179050D01*
G01X129800Y253200D02*
X133000D01*
G01X139900Y79255D02*
Y80900D01*
G01D02*
Y82545D01*
G01Y80900D02*
X149458D01*
G01X139900Y102800D02*
Y105100D01*
G01X137450D02*
X139900D01*
G01D02*
X142350D01*
G01X139900Y100900D02*
Y102545D01*
G01Y100900D02*
X149458D01*
G01X139900Y111100D02*
Y113400D01*
G01X137450Y111100D02*
X139900D01*
G01X133000Y250500D02*
Y253200D01*
G01D02*
Y255900D01*
G01Y253200D02*
X136200D01*
G01X162000Y18700D02*
Y21150D01*
G01Y18700D02*
X164300D01*
G01X163742Y90400D02*
X173300D01*
G01X172150Y184800D02*
X175600D01*
G01X172150Y204800D02*
X175600D01*
G01X172150Y194800D02*
X175600D01*
G01X172150Y234800D02*
X175600D01*
G01X172150Y224800D02*
X175600D01*
G01X172150Y214800D02*
X175600D01*
G01X172150Y244800D02*
X175600D01*
G01X173300Y88755D02*
Y90400D01*
G01D02*
Y92045D01*
G01X192042Y105400D02*
X201600D01*
G01X175600Y191350D02*
Y194800D01*
G01Y181350D02*
Y184800D01*
G01D02*
Y188250D01*
G01Y184800D02*
X179050D01*
G01X175600Y211350D02*
Y214800D01*
G01Y201350D02*
Y204800D01*
G01D02*
Y208250D01*
G01Y204800D02*
X179050D01*
G01X175600Y194800D02*
Y198250D01*
G01Y194800D02*
X179050D01*
G01X175600Y231350D02*
Y234800D01*
G01D02*
Y238250D01*
G01Y234800D02*
X179050D01*
G01X175600Y221350D02*
Y224800D01*
G01D02*
Y228250D01*
G01Y224800D02*
X179050D01*
G01X175600Y214800D02*
Y218250D01*
G01Y214800D02*
X179050D01*
G01X175600Y241350D02*
Y244800D01*
G01D02*
Y248250D01*
G01Y244800D02*
X179050D01*
G01X214000Y39600D02*
X216300D01*
G01X201600Y103755D02*
Y105400D01*
G01D02*
Y107045D01*
G01Y105400D02*
X211159D01*
G01X213400Y242400D02*
Y246100D01*
G01D02*
Y249800D01*
G01X209700Y246100D02*
X213400D01*
G01D02*
X217100D01*
G01X224800Y18400D02*
Y20850D01*
G01Y18400D02*
X227100D01*
G01X216300Y37150D02*
Y39600D01*
G01X254800Y38450D02*
Y40900D01*
G01D02*
X257100D01*
G01X276455Y381674D02*
X280700D01*
G01X285765Y5875D02*
Y10875D01*
G01Y5875D02*
X291365D01*
G01X285765Y21741D02*
Y26741D01*
G01D02*
Y31741D01*
G01Y26741D02*
X291365D01*
G01X280700Y377429D02*
Y381674D01*
G01X281487Y365285D02*
Y371300D01*
G01D02*
Y377315D01*
G01X278427Y371300D02*
X281487D01*
G01D02*
X284547D01*
G01X281487Y386545D02*
Y392560D01*
G01X278427D02*
X281487D01*
G01D02*
X284547D01*
G01X280700Y381674D02*
Y385919D01*
G01Y381674D02*
X284945D01*
G01X313235Y5875D02*
X318835D01*
G01X313235Y26741D02*
X318835D01*
G01X315453Y371300D02*
X318513D01*
G01X315453Y392560D02*
X318513D01*
G01X315055Y381674D02*
X319300D01*
G01X318835Y5875D02*
Y10875D01*
G01Y26741D02*
Y31741D01*
G01X330200Y51900D02*
Y55100D01*
G01D02*
Y58300D01*
G01X327000Y55100D02*
X330200D01*
G01D02*
X333400D01*
G01X325100Y70000D02*
Y75200D01*
G01D02*
Y80400D01*
G01X319900Y75200D02*
X325100D01*
G01D02*
X330300D01*
G01X328000Y373800D02*
X330275D01*
G01X325725D02*
X328000D01*
G01D02*
Y376075D01*
G01X330725Y373800D02*
X333000D01*
G01D02*
Y376075D01*
G01X319300Y377429D02*
Y381674D01*
G01X318513Y365285D02*
Y371300D01*
G01D02*
Y377315D01*
G01Y371300D02*
X321573D01*
G01X318513Y386545D02*
Y392560D01*
G01D02*
X321573D01*
G01X319300Y381674D02*
Y385919D01*
G01Y381674D02*
X323545D01*
G01X342200Y7300D02*
Y10000D01*
G01X339000D02*
X342200D01*
G01D02*
X345400D01*
G01X357000Y35100D02*
X360200D01*
G01X357000Y45100D02*
X360200D01*
G01X357000Y55100D02*
X360200D01*
G01X350725Y373800D02*
X353000D01*
G01D02*
Y376075D01*
G01X360200Y31900D02*
Y35100D01*
G01D02*
Y38300D01*
G01Y35100D02*
X363400D01*
G01X360200Y41900D02*
Y45100D01*
G01D02*
Y48300D01*
G01Y45100D02*
X363400D01*
G01X372000Y51200D02*
Y54900D01*
G01D02*
Y58600D01*
G01X368300Y54900D02*
X372000D01*
G01D02*
X375700D01*
G01X360200Y51900D02*
Y55100D01*
G01D02*
Y58300D01*
G01Y55100D02*
X363400D01*
G01X377275Y81400D02*
Y85800D01*
G01D02*
Y90200D01*
G01X373325Y85800D02*
X377275D01*
G01D02*
X381225D01*
G01X363400Y82950D02*
Y85400D01*
G01D02*
Y87850D01*
G01Y85400D02*
X365700D01*
G01X368000Y373800D02*
X370275D01*
G01X368000D02*
Y376075D01*
G01X370725Y373800D02*
X373000D01*
G01D02*
Y376075D01*
G01X390125Y81400D02*
Y85800D01*
G01X386175D02*
X390125D01*
G01D02*
X394075D01*
G01X404000Y61000D02*
Y63700D01*
G01X400800D02*
X404000D01*
G01D02*
X407200D01*
G01X412200Y61000D02*
Y63700D01*
G01X409000D02*
X412200D01*
G01D02*
X415400D01*
G01X420400Y61000D02*
Y63700D01*
G01X417200D02*
X420400D01*
G01D02*
X423600D01*
G01X434700Y35150D02*
Y37600D01*
G01D02*
Y40050D01*
G01X441800Y63700D02*
X445000D01*
G01X425400D02*
X428600D01*
G01D02*
X431800D01*
G01X433600D02*
X436800D01*
G01D02*
X440000D01*
G01X445000D02*
X448200D01*
G01X453200Y61000D02*
Y63700D01*
G01X450000D02*
X453200D01*
G01D02*
X456400D01*
G01X461400Y61000D02*
Y63700D01*
G01X458200D02*
X461400D01*
G01D02*
X464600D01*
G01X479500Y45200D02*
X484200D01*
G01X479500Y84500D02*
X484200D01*
G01X479500Y121900D02*
X484200D01*
G01X479500Y161300D02*
X484200D01*
G01Y40500D02*
Y45200D01*
G01D02*
Y49900D01*
G01Y45200D02*
X488900D01*
G01X484200Y79800D02*
Y84500D01*
G01D02*
Y89200D01*
G01Y84500D02*
X488900D01*
G01X501900Y121900D02*
X506600D01*
G01X484200Y117200D02*
Y121900D01*
G01D02*
Y126600D01*
G01Y121900D02*
X488900D01*
G01X498900Y143000D02*
Y148700D01*
G01X497200D02*
X498900D01*
G01X484200Y161300D02*
Y166000D01*
G01X497300Y175300D02*
Y181000D01*
G01X495600D02*
X497300D01*
G01X518000Y40100D02*
Y44800D01*
G01D02*
Y49500D01*
G01X513300Y44800D02*
X518000D01*
G01D02*
X522700D01*
G01X523100Y121900D02*
X527800D01*
G01X506600Y117200D02*
Y121900D01*
G01D02*
Y126600D01*
G01Y121900D02*
X511300D01*
G01X523000Y373800D02*
X525275D01*
G01X523000D02*
Y376075D01*
G01X540300Y60100D02*
Y64800D01*
G01D02*
Y69500D01*
G01X535600Y64800D02*
X540300D01*
G01D02*
X545000D01*
G01X540300Y99500D02*
Y104200D01*
G01D02*
Y108900D01*
G01X535600Y104200D02*
X540300D01*
G01D02*
X545000D01*
G01X527800Y117200D02*
Y121900D01*
G01D02*
Y126600D01*
G01Y121900D02*
X532500D01*
G01X527200Y148700D02*
Y154400D01*
G01Y148700D02*
X528900D01*
G01X540300Y136900D02*
Y141600D01*
G01D02*
Y146300D01*
G01X535600Y141600D02*
X540300D01*
G01D02*
X545000D01*
G01X525700Y175300D02*
Y181000D01*
G01D02*
X527400D01*
G01X540300Y176300D02*
Y181000D01*
G01D02*
Y185700D01*
G01X535600Y181000D02*
X540300D01*
G01D02*
X545000D01*
G01X531700Y377429D02*
Y381674D01*
G01X532487Y365285D02*
Y371300D01*
G01D02*
Y377315D01*
G01X529427Y371300D02*
X532487D01*
G01D02*
X535547D01*
G01X532487Y386545D02*
Y392560D01*
G01X529427D02*
X532487D01*
G01D02*
X535547D01*
G01X531700Y381674D02*
Y385919D01*
G01X527455Y381674D02*
X531700D01*
G01D02*
X535945D01*
G01X563300Y20000D02*
X580000D01*
G01X563800Y64200D02*
Y69900D01*
G01Y84200D02*
Y89900D01*
G01D02*
Y95600D01*
G01X558100Y89900D02*
X563800D01*
G01D02*
X569500D01*
G01X563800Y69900D02*
Y75600D01*
G01X558100Y69900D02*
X563800D01*
G01D02*
X569500D01*
G01X563800Y109400D02*
Y115100D01*
G01D02*
Y120800D01*
G01X558100Y115100D02*
X563800D01*
G01D02*
X569500D01*
G01X563800Y135100D02*
Y140800D01*
G01X558100Y135100D02*
X563800D01*
G01D02*
X569500D01*
G01X563800Y173200D02*
Y178900D01*
G01Y153200D02*
Y158900D01*
G01D02*
Y164600D01*
G01X558100Y158900D02*
X563800D01*
G01D02*
X569500D01*
G01X563800Y178900D02*
Y184600D01*
G01X558100Y178900D02*
X563800D01*
G01D02*
X569500D01*
G01X563800Y195600D02*
Y201300D01*
G01D02*
Y207000D01*
G01X558100Y201300D02*
X563800D01*
G01D02*
X569500D01*
G01X563800Y215600D02*
Y221300D01*
G01D02*
Y227000D01*
G01X558100Y221300D02*
X563800D01*
G01D02*
X569500D01*
G01X563800Y236700D02*
Y242400D01*
G01D02*
Y248100D01*
G01X558100Y242400D02*
X563800D01*
G01D02*
X569500D01*
G01X563800Y256700D02*
Y262400D01*
G01D02*
Y268100D01*
G01X558100Y262400D02*
X563800D01*
G01D02*
X569500D01*
G01X559200Y296000D02*
Y301700D01*
G01Y316000D02*
Y321700D01*
G01Y301700D02*
Y307400D01*
G01X553500Y301700D02*
X559200D01*
G01D02*
X564900D01*
G01X559200Y321700D02*
Y327400D01*
G01X553500Y321700D02*
X559200D01*
G01D02*
X564900D01*
G01X563300Y380000D02*
X580000D01*
G01Y20000D02*
Y36700D01*
G01X583800Y64200D02*
Y69900D01*
G01Y84200D02*
Y89900D01*
G01D02*
Y95600D01*
G01X578100Y89900D02*
X583800D01*
G01D02*
X589500D01*
G01X583800Y69900D02*
Y75600D01*
G01X578100Y69900D02*
X583800D01*
G01D02*
X589500D01*
G01X583800Y109400D02*
Y115100D01*
G01Y129400D02*
Y135100D01*
G01Y115100D02*
Y120800D01*
G01X578100Y115100D02*
X583800D01*
G01D02*
X589500D01*
G01X583800Y135100D02*
Y140800D01*
G01X578100Y135100D02*
X583800D01*
G01D02*
X589500D01*
G01X583800Y173200D02*
Y178900D01*
G01Y153200D02*
Y158900D01*
G01D02*
Y164600D01*
G01X578100Y158900D02*
X583800D01*
G01D02*
X589500D01*
G01X583800Y178900D02*
Y184600D01*
G01X578100Y178900D02*
X583800D01*
G01D02*
X589500D01*
G01X583800Y195600D02*
Y201300D01*
G01D02*
Y207000D01*
G01X578100Y201300D02*
X583800D01*
G01D02*
X589500D01*
G01X583800Y215600D02*
Y221300D01*
G01D02*
Y227000D01*
G01X578100Y221300D02*
X583800D01*
G01D02*
X589500D01*
G01X583800Y236700D02*
Y242400D01*
G01D02*
Y248100D01*
G01X578100Y242400D02*
X583800D01*
G01D02*
X589500D01*
G01X583800Y256700D02*
Y262400D01*
G01D02*
Y268100D01*
G01X578100Y262400D02*
X583800D01*
G01D02*
X589500D01*
G01X579200Y296000D02*
Y301700D01*
G01Y316000D02*
Y321700D01*
G01Y301700D02*
Y307400D01*
G01X573500Y301700D02*
X579200D01*
G01D02*
X584900D01*
G01X579200Y321700D02*
Y327400D01*
G01X573500Y321700D02*
X579200D01*
G01D02*
X584900D01*
G01X580000Y363300D02*
Y380000D01*
G01D02*
Y396700D01*
G54D38*
X118400Y284000D03*
Y308800D03*
X143000Y294800D03*
X167800D03*
G54D47*
X311623Y176023D03*
Y179960D03*
Y183897D03*
Y187834D03*
Y191771D03*
X315560Y176023D03*
Y179960D03*
Y183897D03*
Y187834D03*
Y191771D03*
X311623Y195708D03*
Y199645D03*
Y203582D03*
Y207519D03*
Y211456D03*
X315560Y195708D03*
Y199645D03*
Y203582D03*
Y207519D03*
Y211456D03*
X311623Y215393D03*
Y219330D03*
Y223267D03*
Y227204D03*
Y231141D03*
Y235078D03*
X315560Y215393D03*
Y219330D03*
Y223267D03*
Y227204D03*
Y231141D03*
Y235078D03*
X311623Y239015D03*
Y242952D03*
Y246889D03*
Y250826D03*
Y254763D03*
X315560Y239015D03*
Y242952D03*
Y246889D03*
Y250826D03*
Y254763D03*
X311623Y258700D03*
X315560D03*
X319497Y176023D03*
Y179960D03*
Y183897D03*
Y187834D03*
Y191771D03*
X323434Y176023D03*
Y179960D03*
Y183897D03*
Y187834D03*
Y191771D03*
X327371Y176023D03*
Y179960D03*
Y183897D03*
Y187834D03*
Y191771D03*
X331308Y176023D03*
Y179960D03*
Y183897D03*
Y187834D03*
Y191771D03*
X335245Y176023D03*
Y179960D03*
Y183897D03*
Y187834D03*
Y191771D03*
X319497Y195708D03*
Y199645D03*
Y203582D03*
Y207519D03*
Y211456D03*
X323434Y195708D03*
Y199645D03*
Y203582D03*
Y207519D03*
Y211456D03*
X327371Y195708D03*
Y199645D03*
Y203582D03*
Y207519D03*
Y211456D03*
X331308Y195708D03*
Y199645D03*
Y203582D03*
Y207519D03*
Y211456D03*
X335245Y195708D03*
Y199645D03*
Y203582D03*
Y207519D03*
Y211456D03*
X319497Y215393D03*
Y219330D03*
Y223267D03*
Y227204D03*
Y231141D03*
Y235078D03*
X323434Y215393D03*
Y219330D03*
Y223267D03*
Y227204D03*
Y231141D03*
Y235078D03*
X327371Y215393D03*
Y219330D03*
Y223267D03*
Y227204D03*
Y231141D03*
Y235078D03*
X331308Y215393D03*
Y219330D03*
Y223267D03*
Y227204D03*
Y231141D03*
Y235078D03*
X335245Y215393D03*
Y219330D03*
Y223267D03*
Y227204D03*
Y231141D03*
Y235078D03*
X319497Y239015D03*
Y242952D03*
Y246889D03*
Y250826D03*
Y254763D03*
X323434Y239015D03*
Y242952D03*
Y246889D03*
Y250826D03*
Y254763D03*
X327371Y239015D03*
Y242952D03*
Y246889D03*
Y250826D03*
Y254763D03*
X331308Y239015D03*
Y242952D03*
Y246889D03*
Y250826D03*
Y254763D03*
X335245Y239015D03*
Y242952D03*
Y246889D03*
Y250826D03*
Y254763D03*
X319497Y258700D03*
X323434D03*
X327371D03*
X331308D03*
X335245D03*
X339182Y176023D03*
Y179960D03*
Y183897D03*
Y187834D03*
Y191771D03*
X343119Y176023D03*
Y179960D03*
Y183897D03*
Y187834D03*
Y191771D03*
X347056Y176023D03*
Y179960D03*
Y183897D03*
Y187834D03*
Y191771D03*
X350993Y176023D03*
Y179960D03*
Y183897D03*
Y187834D03*
Y191771D03*
X354930Y176023D03*
Y179960D03*
Y183897D03*
Y187834D03*
Y191771D03*
X358867Y176023D03*
Y179960D03*
Y183897D03*
Y187834D03*
Y191771D03*
X339182Y195708D03*
Y199645D03*
Y203582D03*
Y207519D03*
Y211456D03*
X343119Y195708D03*
Y199645D03*
Y203582D03*
Y207519D03*
Y211456D03*
X347056Y195708D03*
Y199645D03*
Y203582D03*
Y207519D03*
Y211456D03*
X350993Y195708D03*
Y199645D03*
Y203582D03*
Y207519D03*
Y211456D03*
X354930Y195708D03*
Y199645D03*
Y203582D03*
Y207519D03*
Y211456D03*
X358867Y195708D03*
Y199645D03*
Y203582D03*
Y207519D03*
Y211456D03*
X339182Y215393D03*
Y219330D03*
Y223267D03*
Y227204D03*
Y231141D03*
Y235078D03*
X343119Y215393D03*
Y219330D03*
Y223267D03*
Y227204D03*
Y231141D03*
Y235078D03*
X347056Y215393D03*
Y219330D03*
Y223267D03*
Y227204D03*
Y231141D03*
Y235078D03*
X350993Y215393D03*
Y219330D03*
Y223267D03*
Y227204D03*
Y231141D03*
Y235078D03*
X354930Y215393D03*
Y219330D03*
Y223267D03*
Y227204D03*
Y231141D03*
Y235078D03*
X358867Y215393D03*
Y219330D03*
Y223267D03*
Y227204D03*
Y231141D03*
Y235078D03*
X339182Y239015D03*
Y242952D03*
Y246889D03*
Y250826D03*
Y254763D03*
X343119Y239015D03*
Y242952D03*
Y246889D03*
Y250826D03*
Y254763D03*
X347056Y239015D03*
Y242952D03*
Y246889D03*
Y250826D03*
Y254763D03*
X350993Y239015D03*
Y242952D03*
Y246889D03*
Y250826D03*
Y254763D03*
X354930Y239015D03*
Y242952D03*
Y246889D03*
Y250826D03*
Y254763D03*
X358867Y239015D03*
Y242952D03*
Y246889D03*
Y250826D03*
Y254763D03*
X339182Y258700D03*
X343119D03*
X347056D03*
X350993D03*
X354930D03*
X358867D03*
X362804Y176023D03*
Y179960D03*
Y183897D03*
Y187834D03*
Y191771D03*
X366741Y176023D03*
Y179960D03*
Y183897D03*
Y187834D03*
Y191771D03*
X370678Y176023D03*
Y179960D03*
Y183897D03*
Y187834D03*
Y191771D03*
X374615Y176023D03*
Y179960D03*
Y183897D03*
Y187834D03*
Y191771D03*
X378552Y176023D03*
Y179960D03*
Y183897D03*
Y187834D03*
Y191771D03*
X362804Y195708D03*
Y199645D03*
Y203582D03*
Y207519D03*
Y211456D03*
X366741Y195708D03*
Y199645D03*
Y203582D03*
Y207519D03*
Y211456D03*
X370678Y195708D03*
Y199645D03*
Y203582D03*
Y207519D03*
Y211456D03*
X374615Y195708D03*
Y199645D03*
Y203582D03*
Y207519D03*
Y211456D03*
X378552Y195708D03*
Y199645D03*
Y203582D03*
Y207519D03*
Y211456D03*
X362804Y215393D03*
Y219330D03*
Y223267D03*
Y227204D03*
Y231141D03*
Y235078D03*
X366741Y215393D03*
Y219330D03*
Y223267D03*
Y227204D03*
Y231141D03*
Y235078D03*
X370678Y215393D03*
Y219330D03*
Y223267D03*
Y227204D03*
Y231141D03*
Y235078D03*
X374615Y215393D03*
Y219330D03*
Y223267D03*
Y227204D03*
Y231141D03*
Y235078D03*
X378552Y215393D03*
Y219330D03*
Y223267D03*
Y227204D03*
Y231141D03*
Y235078D03*
X362804Y239015D03*
Y242952D03*
Y246889D03*
Y250826D03*
Y254763D03*
X366741Y239015D03*
Y242952D03*
Y246889D03*
Y250826D03*
Y254763D03*
X370678Y239015D03*
Y242952D03*
Y246889D03*
Y250826D03*
Y254763D03*
X374615Y239015D03*
Y242952D03*
Y246889D03*
Y250826D03*
Y254763D03*
X378552Y239015D03*
Y242952D03*
Y246889D03*
Y250826D03*
Y254763D03*
X362804Y258700D03*
X366741D03*
X370678D03*
X374615D03*
X378552D03*
X382489Y176023D03*
Y179960D03*
Y183897D03*
Y187834D03*
Y191771D03*
X386426Y176023D03*
Y179960D03*
Y183897D03*
Y187834D03*
Y191771D03*
X390363Y176023D03*
Y179960D03*
Y183897D03*
Y187834D03*
Y191771D03*
X394300Y176023D03*
Y179960D03*
Y183897D03*
Y187834D03*
Y191771D03*
X382489Y195708D03*
Y199645D03*
Y203582D03*
Y207519D03*
Y211456D03*
X386426Y195708D03*
Y199645D03*
Y203582D03*
Y207519D03*
Y211456D03*
X390363Y195708D03*
Y199645D03*
Y203582D03*
Y207519D03*
Y211456D03*
X394300Y195708D03*
Y199645D03*
Y203582D03*
Y207519D03*
Y211456D03*
X382489Y215393D03*
Y219330D03*
Y223267D03*
Y227204D03*
Y231141D03*
Y235078D03*
X386426Y215393D03*
Y219330D03*
Y223267D03*
Y227204D03*
Y231141D03*
Y235078D03*
X390363Y215393D03*
Y219330D03*
Y223267D03*
Y227204D03*
Y231141D03*
Y235078D03*
X394300Y215393D03*
Y219330D03*
Y223267D03*
Y227204D03*
Y231141D03*
Y235078D03*
X382489Y239015D03*
Y242952D03*
Y246889D03*
Y250826D03*
Y254763D03*
X386426Y239015D03*
Y242952D03*
Y246889D03*
Y250826D03*
Y254763D03*
X390363Y239015D03*
Y242952D03*
Y246889D03*
Y250826D03*
Y254763D03*
X394300Y239015D03*
Y242952D03*
Y246889D03*
Y250826D03*
Y254763D03*
X382489Y258700D03*
X386426D03*
X390363D03*
X394300D03*
G54D29*
X67513Y371300D03*
Y392560D03*
X281487Y371300D03*
Y392560D03*
X318513Y371300D03*
Y392560D03*
X532487Y371300D03*
Y392560D03*
G54D56*
X563800Y69900D03*
Y89900D03*
Y115100D03*
Y135100D03*
Y158900D03*
Y178900D03*
Y201300D03*
Y221300D03*
Y242400D03*
Y262400D03*
X559200Y301700D03*
X569200Y311700D03*
X559200Y321700D03*
X583800Y69900D03*
X573800Y79900D03*
X583800Y89900D03*
Y115100D03*
X573800Y125100D03*
X583800Y135100D03*
X573800Y168900D03*
X583800Y158900D03*
Y178900D03*
X573800Y211300D03*
X583800Y201300D03*
Y221300D03*
X573800Y252400D03*
X583800Y242400D03*
Y262400D03*
X579200Y301700D03*
Y321700D03*
G54D57*
G01X2500Y0D02*
X597500D01*
G03X600000Y2500I0J2500D01*
G01Y397500D01*
G03X597500Y400000I-2500J0D01*
G01X2500D01*
G03X0Y397500I0J-2500D01*
G01Y2500D01*
G03X2500Y0I2500J0D01*
G54D39*
X175600Y184800D03*
Y194800D03*
Y204800D03*
Y214800D03*
Y224800D03*
Y234800D03*
X185600Y184800D03*
Y194800D03*
Y204800D03*
Y214800D03*
Y224800D03*
Y234800D03*
Y244800D03*
G54D48*
X325100Y75200D03*
X345100D03*
X396900Y37800D03*
X416900D03*
X453700Y118200D03*
Y138200D03*
G54D58*
G01X227000Y373800D02*
Y377100D01*
G01X331308Y268400D02*
Y258700D01*
G01X347900Y346300D02*
X350400Y348800D01*
Y350700D01*
X347900Y353200D01*
Y353600D01*
G01X353900Y346300D02*
X353600D01*
X351200Y348700D01*
Y350800D01*
X353700Y353300D01*
Y353600D01*
G01X378552Y203582D02*
X378582D01*
X380700Y205700D01*
G01X362804Y211456D02*
Y211396D01*
X364700Y209500D01*
G01X370678Y211456D02*
X370744D01*
X372900Y209300D01*
G01X370678Y203582D02*
X370718D01*
X372700Y201600D01*
G01X366741Y239015D02*
Y239041D01*
X368700Y241000D01*
G01X366741Y254763D02*
X367910D01*
X368310Y255163D01*
Y255729D01*
X368300Y255738D01*
Y299200D01*
X360050Y307450D01*
Y325202D01*
X359350Y325902D01*
Y327370D01*
G01X370678Y254763D02*
X369510D01*
X369110Y255163D01*
Y256060D01*
X369100Y256070D01*
Y299673D01*
X360950Y307823D01*
Y325202D01*
X361650Y325902D01*
Y327370D01*
G01X377500Y241000D02*
Y239415D01*
X377900Y239015D01*
X378552D01*
G01X375900Y241000D02*
Y239415D01*
X375500Y239015D01*
X374615D01*
G01Y235078D02*
X374678D01*
X376500Y236900D01*
G01X378552Y258700D02*
X379720D01*
X380120Y259100D01*
Y280520D01*
X439850Y340250D01*
Y344267D01*
X439400Y344717D01*
Y345866D01*
G01X366400Y333700D02*
X368758Y331342D01*
X368950D01*
X369350Y330942D01*
Y306850D01*
X372246Y303954D01*
Y259100D01*
X371846Y258700D01*
X370678D01*
G01X373100Y333700D02*
X372769D01*
X370150Y331081D01*
Y307182D01*
X373046Y304285D01*
Y259100D01*
X373446Y258700D01*
X374615D01*
G01X367100Y353600D02*
Y351417D01*
X369700Y348817D01*
Y346600D01*
X369300Y346200D01*
G01X366400Y339700D02*
X366900D01*
X369700Y342500D01*
Y345800D01*
X369300Y346200D01*
G01X367100D02*
X369300D01*
G01X370900D02*
X370500Y346600D01*
Y349017D01*
X372900Y351417D01*
Y353600D01*
G01X373100Y339700D02*
X370500Y342300D01*
Y345766D01*
X370900Y346166D01*
Y346200D01*
G01D02*
X373100D01*
G01X409500Y226700D02*
X406000D01*
X403911Y228789D01*
X395463D01*
X393137Y228789D01*
X392268Y229658D01*
Y230405D01*
X391532Y231141D01*
X390363D01*
G01X409500Y232700D02*
X407029D01*
X403918Y229589D01*
X395794D01*
X395132Y229589D01*
X394625Y229589D01*
X393975Y229589D01*
X393468Y229589D01*
X393068Y229990D01*
Y230741D01*
X393468Y231141D01*
X394300D01*
G01X390363Y246889D02*
Y247363D01*
X392241Y249241D01*
X393194D01*
X395131Y249241D01*
X397810Y249241D01*
X405569Y257000D01*
X419600D01*
X424000Y252600D01*
X424400D01*
Y252500D01*
G01X394300Y246889D02*
X393800Y247389D01*
Y248041D01*
X394200Y248441D01*
X395462D01*
X395463Y248441D01*
X398141D01*
X405900Y256200D01*
X419269D01*
X419534Y255934D01*
Y255234D01*
X416900Y252600D01*
X416400D01*
G01X386426Y254763D02*
X387594D01*
X387994Y255163D01*
Y283626D01*
X449800Y345431D01*
Y349017D01*
X447400Y351417D01*
Y353600D01*
G01X390363Y254763D02*
X389194D01*
X388794Y255163D01*
Y283294D01*
X450600Y345100D01*
Y349017D01*
X453000Y351417D01*
Y353600D01*
G01X390363Y242952D02*
X390348D01*
X388500Y244800D01*
G01X386426Y246889D02*
Y246874D01*
X388500Y244800D01*
G01X382489Y239015D02*
Y239511D01*
X380700Y241300D01*
G01X456550Y347852D02*
Y346703D01*
X456100Y346253D01*
Y342769D01*
X392732Y279400D01*
Y259100D01*
X393132Y258700D01*
X394300D01*
G01X454850Y347852D02*
Y346703D01*
X455300Y346253D01*
Y343100D01*
X391932Y279732D01*
Y259100D01*
X391532Y258700D01*
X390363D01*
G01X382489D02*
X381320D01*
X380920Y259100D01*
Y280189D01*
X440650Y339919D01*
Y344267D01*
X441100Y344717D01*
Y345866D01*
G01X542200Y210700D02*
X544200D01*
X544500Y211000D01*
G01X542200Y252800D02*
X545000D01*
G54D49*
X360200Y65100D03*
G54D59*
G01X326900Y333900D02*
X327800D01*
X329950Y331750D01*
Y311177D01*
X341000Y300127D01*
Y260518D01*
X339182Y258700D01*
G01X343119D02*
X341900Y259919D01*
Y300500D01*
X330850Y311550D01*
Y331650D01*
X333100Y333900D01*
X333900D01*
G01X327600Y353600D02*
Y348754D01*
X327500Y348654D01*
Y346300D01*
G01X326900Y339900D02*
X327500D01*
Y346300D01*
G01X333400Y353600D02*
Y348754D01*
X333500Y348654D01*
Y346300D01*
G01X333900Y339900D02*
X333500Y340300D01*
Y346300D01*
G01X350993Y258700D02*
X352511Y260218D01*
Y293289D01*
X339800Y306000D01*
Y326240D01*
X339400Y326640D01*
Y327889D01*
G01X354930Y258700D02*
X353411Y260218D01*
Y293661D01*
X340700Y306373D01*
Y326240D01*
X341100Y326640D01*
Y327889D01*
G01X358867Y258700D02*
X360385Y260218D01*
Y289715D01*
X350600Y299500D01*
Y330500D01*
X347500Y333600D01*
Y333700D01*
G01X354600Y333600D02*
X351500Y330500D01*
Y299873D01*
X361285Y290087D01*
Y260218D01*
X362804Y258700D01*
G01X347500Y339700D02*
X347900Y340100D01*
Y346300D01*
G01X354600Y339600D02*
X353900Y340300D01*
Y346300D01*
M02*
