G04 ================== begin FILE IDENTIFICATION RECORD ==================*
G04 Layout Name:  E:/Work_File/CEPC/Schematic-and-PCB-of-DIF_V1.1/DIF_1V3.brd*
G04 Film Name:    plane07*
G04 File Format:  Gerber RS274X*
G04 File Origin:  Cadence Allegro 16.6-2015-S066*
G04 Origin Date:  Tue Aug 01 12:16:34 2017*
G04 *
G04 Layer:  VIA CLASS/GND7*
G04 Layer:  PIN/GND7*
G04 Layer:  ETCH/GND7*
G04 Layer:  BOARD GEOMETRY/OUTLINE*
G04 *
G04 Offset:    (0.000 0.000)*
G04 Mirror:    No*
G04 Mode:      Negative*
G04 Rotation:  0*
G04 FullContactRelief:  No*
G04 UndefLineWidth:     5.000*
G04 ================== end FILE IDENTIFICATION RECORD ====================*
%FSLAX25Y25*MOIN*%
%IR0*IPPOS*OFA0.00000B0.00000*MIA0B0*SFA1.00000B1.00000*%
%ADD15C,.11*%
%ADD42C,.13*%
%ADD23R,.047244X.12*%
%AMMACRO20*
4,1,20,.01319,.0047,
.013441,.003925,
.013646,.003137,
.013806,.002338,
.013918,.001531,
.013984,.00072,
.014002,-.000095,
.013973,-.000909,
.013896,-.00172,
.013773,-.002525,
.013603,-.003321,
.013387,-.004107,
.01319,-.0047,
.01773,-.00925,
.019067,-.006031,
.019824,-.002628,
.01998,.000854,
.019528,.004311,
.018483,.007636,
.01773,.00925,
.01319,.0047,
180.*
4,1,20,.0047,-.01319,
.003925,-.013441,
.003137,-.013646,
.002338,-.013806,
.001531,-.013918,
.00072,-.013984,
-.000095,-.014002,
-.000909,-.013973,
-.00172,-.013896,
-.002525,-.013773,
-.003321,-.013603,
-.004107,-.013387,
-.0047,-.01319,
-.00925,-.01773,
-.006031,-.019067,
-.002628,-.019824,
.000854,-.01998,
.004311,-.019528,
.007636,-.018483,
.00925,-.01773,
.0047,-.01319,
180.*
4,1,20,-.01319,-.0047,
-.013441,-.003925,
-.013646,-.003137,
-.013806,-.002338,
-.013918,-.001531,
-.013984,-.00072,
-.014002,.000095,
-.013973,.000909,
-.013896,.00172,
-.013773,.002525,
-.013603,.003321,
-.013387,.004107,
-.01319,.0047,
-.01773,.00925,
-.019067,.006031,
-.019824,.002628,
-.01998,-.000854,
-.019528,-.004311,
-.018483,-.007636,
-.01773,-.00925,
-.01319,-.0047,
180.*
4,1,20,-.0047,.01319,
-.003925,.013441,
-.003137,.013646,
-.002338,.013806,
-.001531,.013918,
-.00072,.013984,
.000095,.014002,
.000909,.013973,
.00172,.013896,
.002525,.013773,
.003321,.013603,
.004107,.013387,
.0047,.01319,
.00925,.01773,
.006031,.019067,
.002628,.019824,
-.000854,.01998,
-.004311,.019528,
-.007636,.018483,
-.00925,.01773,
-.0047,.01319,
180.*
%
%ADD20MACRO20*%
%AMMACRO14*
4,1,15,-.02,.035,
-.013639,.037943,
-.006864,.039737,
.000119,.040327,
.0071,.039695,
.013864,.037861,
.02,.035,
.028,.042,
.020314,.046227,
.012012,.049055,
.003344,.050399,
-.005426,.050216,
-.01403,.048514,
-.022209,.045344,
-.028,.042,
-.02,.035,
270.*
4,1,15,-.035,-.02,
-.037943,-.013639,
-.039737,-.006864,
-.040327,.000119,
-.039695,.0071,
-.037861,.013864,
-.035,.02,
-.042,.028,
-.046227,.020314,
-.049055,.012012,
-.050399,.003344,
-.050216,-.005426,
-.048514,-.01403,
-.045344,-.022209,
-.042,-.028,
-.035,-.02,
270.*
4,1,15,.02,-.035,
.013639,-.037943,
.006864,-.039737,
-.000119,-.040327,
-.0071,-.039695,
-.013864,-.037861,
-.02,-.035,
-.028,-.042,
-.020314,-.046227,
-.012012,-.049055,
-.003344,-.050399,
.005426,-.050216,
.01403,-.048514,
.022209,-.045344,
.028,-.042,
.02,-.035,
270.*
4,1,15,.035,.02,
.037943,.013639,
.039737,.006864,
.040327,-.000119,
.039695,-.0071,
.037861,-.013864,
.035,-.02,
.042,-.028,
.046227,-.020314,
.049055,-.012012,
.050399,-.003344,
.050216,.005426,
.048514,.01403,
.045344,.022209,
.042,.028,
.035,.02,
270.*
%
%ADD14MACRO14*%
%AMMACRO39*
4,1,15,.0289,.0148,
.031031,.009555,
.032218,.004019,
.032427,-.001639,
.031649,-.007247,
.02991,-.012635,
.0289,-.0148,
.0345,-.0203,
.037501,-.014003,
.039363,-.00728,
.040029,-.000336,
.03948,.006618,
.037731,.013372,
.034836,.019718,
.0345,.0203,
.0289,.0148,
90.*
4,1,15,.0148,-.0289,
.009555,-.031031,
.004019,-.032218,
-.001639,-.032427,
-.007247,-.031649,
-.012635,-.02991,
-.0148,-.0289,
-.0203,-.0345,
-.014003,-.037501,
-.00728,-.039363,
-.000336,-.040029,
.006618,-.03948,
.013372,-.037731,
.019718,-.034836,
.0203,-.0345,
.0148,-.0289,
90.*
4,1,15,-.0289,-.0148,
-.031031,-.009555,
-.032218,-.004019,
-.032427,.001639,
-.031649,.007247,
-.02991,.012635,
-.0289,.0148,
-.0345,.0203,
-.037501,.014003,
-.039363,.00728,
-.040029,.000336,
-.03948,-.006618,
-.037731,-.013372,
-.034836,-.019718,
-.0345,-.0203,
-.0289,-.0148,
90.*
4,1,15,-.0148,.0289,
-.009555,.031031,
-.004019,.032218,
.001639,.032427,
.007247,.031649,
.012635,.02991,
.0148,.0289,
.0203,.0345,
.014003,.037501,
.00728,.039363,
.000336,.040029,
-.006618,.03948,
-.013372,.037731,
-.019718,.034836,
-.0203,.0345,
-.0148,.0289,
90.*
%
%ADD39MACRO39*%
%AMMACRO29*
4,1,15,.0289,.0148,
.031031,.009555,
.032218,.004019,
.032427,-.001639,
.031649,-.007247,
.02991,-.012635,
.0289,-.0148,
.0345,-.0203,
.037501,-.014003,
.039363,-.00728,
.040029,-.000336,
.03948,.006618,
.037731,.013372,
.034836,.019718,
.0345,.0203,
.0289,.0148,
0.0*
4,1,15,.0148,-.0289,
.009555,-.031031,
.004019,-.032218,
-.001639,-.032427,
-.007247,-.031649,
-.012635,-.02991,
-.0148,-.0289,
-.0203,-.0345,
-.014003,-.037501,
-.00728,-.039363,
-.000336,-.040029,
.006618,-.03948,
.013372,-.037731,
.019718,-.034836,
.0203,-.0345,
.0148,-.0289,
0.0*
4,1,15,-.0289,-.0148,
-.031031,-.009555,
-.032218,-.004019,
-.032427,.001639,
-.031649,.007247,
-.02991,.012635,
-.0289,.0148,
-.0345,.0203,
-.037501,.014003,
-.039363,.00728,
-.040029,.000336,
-.03948,-.006618,
-.037731,-.013372,
-.034836,-.019718,
-.0345,-.0203,
-.0289,-.0148,
0.0*
4,1,15,-.0148,.0289,
-.009555,.031031,
-.004019,.032218,
.001639,.032427,
.007247,.031649,
.012635,.02991,
.0148,.0289,
.0203,.0345,
.014003,.037501,
.00728,.039363,
.000336,.040029,
-.006618,.03948,
-.013372,.037731,
-.019718,.034836,
-.0203,.0345,
-.0148,.0289,
0.0*
%
%ADD29MACRO29*%
%AMMACRO12*
4,1,14,-.004,.009,
-.002366,.009557,
-.00066,.009822,
.001066,.009786,
.002759,.009452,
.004,.009,
.007,.012,
.004803,.013033,
.00246,.013668,
.000042,.013887,
-.002377,.013683,
-.004724,.013061,
-.006927,.012042,
-.007,.012,
-.004,.009,
0.0*
4,1,14,-.009,-.004,
-.009557,-.002366,
-.009822,-.00066,
-.009786,.001066,
-.009452,.002759,
-.009,.004,
-.012,.007,
-.013033,.004803,
-.013668,.00246,
-.013887,.000042,
-.013683,-.002377,
-.013061,-.004724,
-.012042,-.006927,
-.012,-.007,
-.009,-.004,
0.0*
4,1,14,.004,-.009,
.002366,-.009557,
.00066,-.009822,
-.001066,-.009786,
-.002759,-.009452,
-.004,-.009,
-.007,-.012,
-.004803,-.013033,
-.00246,-.013668,
-.000042,-.013887,
.002377,-.013683,
.004724,-.013061,
.006927,-.012042,
.007,-.012,
.004,-.009,
0.0*
4,1,14,.009,.004,
.009557,.002366,
.009822,.00066,
.009786,-.001066,
.009452,-.002759,
.009,-.004,
.012,-.007,
.013033,-.004803,
.013668,-.00246,
.013887,-.000042,
.013683,.002377,
.013061,.004724,
.012042,.006927,
.012,.007,
.009,.004,
0.0*
%
%ADD12MACRO12*%
%AMMACRO38*
4,1,15,.027098,.012902,
.028927,.008002,
.029877,.002859,
.02992,-.002371,
.029054,-.007528,
.027305,-.012457,
.027098,-.012902,
.038098,-.024,
.041687,-.017021,
.044009,-.009526,
.044995,-.001741,
.044614,.006097,
.042878,.01375,
.039839,.020985,
.038098,.024,
.027098,.012902,
90.*
4,1,15,.012902,-.027098,
.008002,-.028927,
.002859,-.029877,
-.002371,-.02992,
-.007528,-.029054,
-.012457,-.027305,
-.012902,-.027098,
-.024,-.038098,
-.017021,-.041687,
-.009526,-.044009,
-.001741,-.044995,
.006097,-.044614,
.01375,-.042878,
.020985,-.039839,
.024,-.038098,
.012902,-.027098,
90.*
4,1,15,-.027098,-.012902,
-.028927,-.008002,
-.029877,-.002859,
-.02992,.002371,
-.029054,.007528,
-.027305,.012457,
-.027098,.012902,
-.038098,.024,
-.041687,.017021,
-.044009,.009526,
-.044995,.001741,
-.044614,-.006097,
-.042878,-.01375,
-.039839,-.020985,
-.038098,-.024,
-.027098,-.012902,
90.*
4,1,15,-.012902,.027098,
-.008002,.028927,
-.002859,.029877,
.002371,.02992,
.007528,.029054,
.012457,.027305,
.012902,.027098,
.024,.038098,
.017021,.041687,
.009526,.044009,
.001741,.044995,
-.006097,.044614,
-.01375,.042878,
-.020985,.039839,
-.024,.038098,
-.012902,.027098,
90.*
%
%ADD38MACRO38*%
%AMMACRO34*
4,1,15,-.017,.031,
-.011383,.033483,
-.00542,.034953,
.000708,.035366,
.006814,.034708,
.012713,.032999,
.017,.031,
.026,.04,
.018638,.043905,
.01071,.046473,
.002457,.047625,
-.005871,.047326,
-.014021,.045586,
-.021745,.042457,
-.026,.04,
-.017,.031,
0.0*
4,1,15,-.031,-.017,
-.033483,-.011383,
-.034953,-.00542,
-.035366,.000708,
-.034708,.006814,
-.032999,.012713,
-.031,.017,
-.04,.026,
-.043905,.018638,
-.046473,.01071,
-.047625,.002457,
-.047326,-.005871,
-.045586,-.014021,
-.042457,-.021745,
-.04,-.026,
-.031,-.017,
0.0*
4,1,15,.017,-.031,
.011383,-.033483,
.00542,-.034953,
-.000708,-.035366,
-.006814,-.034708,
-.012713,-.032999,
-.017,-.031,
-.026,-.04,
-.018638,-.043905,
-.01071,-.046473,
-.002457,-.047625,
.005871,-.047326,
.014021,-.045586,
.021745,-.042457,
.026,-.04,
.017,-.031,
0.0*
4,1,15,.031,.017,
.033483,.011383,
.034953,.00542,
.035366,-.000708,
.034708,-.006814,
.032999,-.012713,
.031,-.017,
.04,-.026,
.043905,-.018638,
.046473,-.01071,
.047625,-.002457,
.047326,.005871,
.045586,.014021,
.042457,.021745,
.04,.026,
.031,.017,
0.0*
%
%ADD34MACRO34*%
%AMMACRO21*
4,1,15,-.014098,.028201,
-.008987,.030221,
-.003602,.031322,
.001891,.031472,
.007328,.030665,
.012541,.028927,
.014098,.028201,
.020299,.0345,
.014,.037501,
.007275,.039362,
.000329,.040027,
-.006626,.039476,
-.013381,.037726,
-.019728,.034829,
-.020299,.0345,
-.014098,.028201,
90.*
4,1,15,-.028201,-.014098,
-.030221,-.008987,
-.031322,-.003602,
-.031472,.001891,
-.030665,.007328,
-.028927,.012541,
-.028201,.014098,
-.0345,.020299,
-.037501,.014,
-.039362,.007275,
-.040027,.000329,
-.039476,-.006626,
-.037726,-.013381,
-.034829,-.019728,
-.0345,-.020299,
-.028201,-.014098,
90.*
4,1,15,.014098,-.028201,
.008987,-.030221,
.003602,-.031322,
-.001891,-.031472,
-.007328,-.030665,
-.012541,-.028927,
-.014098,-.028201,
-.020299,-.0345,
-.014,-.037501,
-.007275,-.039362,
-.000329,-.040027,
.006626,-.039476,
.013381,-.037726,
.019728,-.034829,
.020299,-.0345,
.014098,-.028201,
90.*
4,1,15,.028201,.014098,
.030221,.008987,
.031322,.003602,
.031472,-.001891,
.030665,-.007328,
.028927,-.012541,
.028201,-.014098,
.0345,-.020299,
.037501,-.014,
.039362,-.007275,
.040027,-.000329,
.039476,.006626,
.037726,.013381,
.034829,.019728,
.0345,.020299,
.028201,.014098,
90.*
%
%ADD21MACRO21*%
%ADD25C,.02*%
%ADD17C,.04*%
%AMMACRO41*
4,1,15,.04433,.02312,
.047671,.015071,
.049564,.006564,
.049951,-.002142,
.04882,-.010784,
.046206,-.019098,
.04433,-.02312,
.05533,-.03411,
.060413,-.023984,
.063659,-.013129,
.064972,-.001875,
.064311,.009436,
.061695,.02046,
.057205,.030862,
.05533,.03411,
.04433,.02312,
0.0*
4,1,15,.02312,-.04433,
.015071,-.047671,
.006564,-.049564,
-.002142,-.049951,
-.010784,-.04882,
-.019098,-.046206,
-.02312,-.04433,
-.03411,-.05533,
-.023984,-.060413,
-.013129,-.063659,
-.001875,-.064972,
.009436,-.064311,
.02046,-.061695,
.030862,-.057205,
.03411,-.05533,
.02312,-.04433,
0.0*
4,1,15,-.04433,-.02312,
-.047671,-.015071,
-.049564,-.006564,
-.049951,.002142,
-.04882,.010784,
-.046206,.019098,
-.04433,.02312,
-.05533,.03411,
-.060413,.023984,
-.063659,.013129,
-.064972,.001875,
-.064311,-.009436,
-.061695,-.02046,
-.057205,-.030862,
-.05533,-.03411,
-.04433,-.02312,
0.0*
4,1,15,-.02312,.04433,
-.015071,.047671,
-.006564,.049564,
.002142,.049951,
.010784,.04882,
.019098,.046206,
.02312,.04433,
.03411,.05533,
.023984,.060413,
.013129,.063659,
.001875,.064972,
-.009436,.064311,
-.02046,.061695,
-.030862,.057205,
-.03411,.05533,
-.02312,.04433,
0.0*
%
%ADD41MACRO41*%
%ADD30C,.06*%
%AMMACRO32*
4,1,18,.0077,.0021,
.007809,.001649,
.007892,.001192,
.007948,.000731,
.007977,.000268,
.007979,-.000197,
.007954,-.00066,
.007902,-.001122,
.007823,-.001579,
.007718,-.002031,
.0077,-.0021,
.0108,-.0052,
.011539,-.003246,
.011927,-.001193,
.011953,.000897,
.011616,.002959,
.010926,.004931,
.0108,.0052,
.0077,.0021,
0.0*
4,1,18,.0021,-.0077,
.001649,-.007809,
.001192,-.007892,
.000731,-.007948,
.000268,-.007977,
-.000197,-.007979,
-.00066,-.007954,
-.001122,-.007902,
-.001579,-.007823,
-.002031,-.007718,
-.0021,-.0077,
-.0052,-.0108,
-.003246,-.011539,
-.001193,-.011927,
.000897,-.011953,
.002959,-.011616,
.004931,-.010926,
.0052,-.0108,
.0021,-.0077,
0.0*
4,1,18,-.0077,-.0021,
-.007809,-.001649,
-.007892,-.001192,
-.007948,-.000731,
-.007977,-.000268,
-.007979,.000197,
-.007954,.00066,
-.007902,.001122,
-.007823,.001579,
-.007718,.002031,
-.0077,.0021,
-.0108,.0052,
-.011539,.003246,
-.011927,.001193,
-.011953,-.000897,
-.011616,-.002959,
-.010926,-.004931,
-.0108,-.0052,
-.0077,-.0021,
0.0*
4,1,18,-.0021,.0077,
-.001649,.007809,
-.001192,.007892,
-.000731,.007948,
-.000268,.007977,
.000197,.007979,
.00066,.007954,
.001122,.007902,
.001579,.007823,
.002031,.007718,
.0021,.0077,
.0052,.0108,
.003246,.011539,
.001193,.011927,
-.000897,.011953,
-.002959,.011616,
-.004931,.010926,
-.0052,.0108,
-.0021,.0077,
0.0*
%
%ADD32MACRO32*%
%ADD31C,.062*%
%ADD18C,.08*%
%ADD11C,.028*%
%AMMACRO10*
4,1,16,-.03047,.05169,
-.021031,.056196,
-.010953,.058994,
-.000543,.06,
.009884,.059183,
.020011,.056567,
.02953,.052233,
.03047,.05169,
.04135,.06257,
.029857,.0688,
.017456,.072939,
.004525,.074862,
-.008543,.074511,
-.021352,.071895,
-.033512,.067095,
-.04135,.06257,
-.03047,.05169,
0.0*
4,1,16,-.05169,-.03047,
-.056196,-.021031,
-.058994,-.010953,
-.06,-.000543,
-.059183,.009884,
-.056567,.020011,
-.052233,.02953,
-.05169,.03047,
-.06257,.04135,
-.0688,.029857,
-.072939,.017456,
-.074862,.004525,
-.074511,-.008543,
-.071895,-.021352,
-.067095,-.033512,
-.06257,-.04135,
-.05169,-.03047,
0.0*
4,1,16,.03047,-.05169,
.021031,-.056196,
.010953,-.058994,
.000543,-.06,
-.009884,-.059183,
-.020011,-.056567,
-.02953,-.052233,
-.03047,-.05169,
-.04135,-.06257,
-.029857,-.0688,
-.017456,-.072939,
-.004525,-.074862,
.008543,-.074511,
.021352,-.071895,
.033512,-.067095,
.04135,-.06257,
.03047,-.05169,
0.0*
4,1,16,.05169,.03047,
.056196,.021031,
.058994,.010953,
.06,.000543,
.059183,-.009884,
.056567,-.020011,
.052233,-.02953,
.05169,-.03047,
.06257,-.04135,
.0688,-.029857,
.072939,-.017456,
.074862,-.004525,
.074511,.008543,
.071895,.021352,
.067095,.033512,
.06257,.04135,
.05169,.03047,
0.0*
%
%ADD10MACRO10*%
%ADD16C,.056*%
%ADD35C,.095*%
%AMMACRO36*
4,1,15,.02707,.01293,
.028904,.008033,
.02986,.002892,
.029908,-.002337,
.029048,-.007495,
.027305,-.012426,
.02707,-.01293,
.03446,-.02032,
.037465,-.014027,
.039332,-.007309,
.040003,-.000368,
.039459,.006584,
.037716,.013336,
.034828,.019683,
.03446,.02032,
.02707,.01293,
90.*
4,1,15,.01293,-.02707,
.008033,-.028904,
.002892,-.02986,
-.002337,-.029908,
-.007495,-.029048,
-.012426,-.027305,
-.01293,-.02707,
-.02032,-.03446,
-.014027,-.037465,
-.007309,-.039332,
-.000368,-.040003,
.006584,-.039459,
.013336,-.037716,
.019683,-.034828,
.02032,-.03446,
.01293,-.02707,
90.*
4,1,15,-.02707,-.01293,
-.028904,-.008033,
-.02986,-.002892,
-.029908,.002337,
-.029048,.007495,
-.027305,.012426,
-.02707,.01293,
-.03446,.02032,
-.037465,.014027,
-.039332,.007309,
-.040003,.000368,
-.039459,-.006584,
-.037716,-.013336,
-.034828,-.019683,
-.03446,-.02032,
-.02707,-.01293,
90.*
4,1,15,-.01293,.02707,
-.008033,.028904,
-.002892,.02986,
.002337,.029908,
.007495,.029048,
.012426,.027305,
.01293,.02707,
.02032,.03446,
.014027,.037465,
.007309,.039332,
.000368,.040003,
-.006584,.039459,
-.013336,.037716,
-.019683,.034828,
-.02032,.03446,
-.01293,.02707,
90.*
%
%ADD36MACRO36*%
%AMMACRO13*
4,1,15,.02707,.01293,
.028904,.008033,
.02986,.002892,
.029908,-.002337,
.029048,-.007495,
.027305,-.012426,
.02707,-.01293,
.03446,-.02032,
.037465,-.014027,
.039332,-.007309,
.040003,-.000368,
.039459,.006584,
.037716,.013336,
.034828,.019683,
.03446,.02032,
.02707,.01293,
0.0*
4,1,15,.01293,-.02707,
.008033,-.028904,
.002892,-.02986,
-.002337,-.029908,
-.007495,-.029048,
-.012426,-.027305,
-.01293,-.02707,
-.02032,-.03446,
-.014027,-.037465,
-.007309,-.039332,
-.000368,-.040003,
.006584,-.039459,
.013336,-.037716,
.019683,-.034828,
.02032,-.03446,
.01293,-.02707,
0.0*
4,1,15,-.02707,-.01293,
-.028904,-.008033,
-.02986,-.002892,
-.029908,.002337,
-.029048,.007495,
-.027305,.012426,
-.02707,.01293,
-.03446,.02032,
-.037465,.014027,
-.039332,.007309,
-.040003,.000368,
-.039459,-.006584,
-.037716,-.013336,
-.034828,-.019683,
-.03446,-.02032,
-.02707,-.01293,
0.0*
4,1,15,-.01293,.02707,
-.008033,.028904,
-.002892,.02986,
.002337,.029908,
.007495,.029048,
.012426,.027305,
.01293,.02707,
.02032,.03446,
.014027,.037465,
.007309,.039332,
.000368,.040003,
-.006584,.039459,
-.013336,.037716,
-.019683,.034828,
-.02032,.03446,
-.01293,.02707,
0.0*
%
%ADD13MACRO13*%
%AMMACRO19*
4,1,20,.01319,.0047,
.013441,.003925,
.013646,.003137,
.013806,.002338,
.013918,.001531,
.013984,.00072,
.014002,-.000095,
.013973,-.000909,
.013896,-.00172,
.013773,-.002525,
.013603,-.003321,
.013387,-.004107,
.01319,-.0047,
.01773,-.00925,
.019067,-.006031,
.019824,-.002628,
.01998,.000854,
.019528,.004311,
.018483,.007636,
.01773,.00925,
.01319,.0047,
0.0*
4,1,20,.0047,-.01319,
.003925,-.013441,
.003137,-.013646,
.002338,-.013806,
.001531,-.013918,
.00072,-.013984,
-.000095,-.014002,
-.000909,-.013973,
-.00172,-.013896,
-.002525,-.013773,
-.003321,-.013603,
-.004107,-.013387,
-.0047,-.01319,
-.00925,-.01773,
-.006031,-.019067,
-.002628,-.019824,
.000854,-.01998,
.004311,-.019528,
.007636,-.018483,
.00925,-.01773,
.0047,-.01319,
0.0*
4,1,20,-.01319,-.0047,
-.013441,-.003925,
-.013646,-.003137,
-.013806,-.002338,
-.013918,-.001531,
-.013984,-.00072,
-.014002,.000095,
-.013973,.000909,
-.013896,.00172,
-.013773,.002525,
-.013603,.003321,
-.013387,.004107,
-.01319,.0047,
-.01773,.00925,
-.019067,.006031,
-.019824,.002628,
-.01998,-.000854,
-.019528,-.004311,
-.018483,-.007636,
-.01773,-.00925,
-.01319,-.0047,
0.0*
4,1,20,-.0047,.01319,
-.003925,.013441,
-.003137,.013646,
-.002338,.013806,
-.001531,.013918,
-.00072,.013984,
.000095,.014002,
.000909,.013973,
.00172,.013896,
.002525,.013773,
.003321,.013603,
.004107,.013387,
.0047,.01319,
.00925,.01773,
.006031,.019067,
.002628,.019824,
-.000854,.01998,
-.004311,.019528,
-.007636,.018483,
-.00925,.01773,
-.0047,.01319,
0.0*
%
%ADD19MACRO19*%
%AMMACRO22*
4,1,13,-.0073,.01862,
-.003956,.019605,
-.000491,.019994,
.002988,.019775,
.006377,.018956,
.0073,.01862,
.01332,.02463,
.008841,.026569,
.004093,.0277,
-.00078,.02799,
-.005628,.02743,
-.010306,.026036,
-.01332,.02463,
-.0073,.01862,
0.0*
4,1,13,-.01862,-.0073,
-.019605,-.003956,
-.019994,-.000491,
-.019775,.002988,
-.018956,.006377,
-.01862,.0073,
-.02463,.01332,
-.026569,.008841,
-.0277,.004093,
-.02799,-.00078,
-.02743,-.005628,
-.026036,-.010306,
-.02463,-.01332,
-.01862,-.0073,
0.0*
4,1,13,.0073,-.01862,
.003956,-.019605,
.000491,-.019994,
-.002988,-.019775,
-.006377,-.018956,
-.0073,-.01862,
-.01332,-.02463,
-.008841,-.026569,
-.004093,-.0277,
.00078,-.02799,
.005628,-.02743,
.010306,-.026036,
.01332,-.02463,
.0073,-.01862,
0.0*
4,1,13,.01862,.0073,
.019605,.003956,
.019994,.000491,
.019775,-.002988,
.018956,-.006377,
.01862,-.0073,
.02463,-.01332,
.026569,-.008841,
.0277,-.004093,
.02799,.00078,
.02743,.005628,
.026036,.010306,
.02463,.01332,
.01862,.0073,
0.0*
%
%ADD22MACRO22*%
%ADD26C,.07874*%
%AMMACRO28*
4,1,15,.0289,.0148,
.031031,.009555,
.032218,.004019,
.032427,-.001639,
.031649,-.007247,
.02991,-.012635,
.0289,-.0148,
.0345,-.0203,
.037501,-.014003,
.039363,-.00728,
.040029,-.000336,
.03948,.006618,
.037731,.013372,
.034836,.019718,
.0345,.0203,
.0289,.0148,
270.*
4,1,15,.0148,-.0289,
.009555,-.031031,
.004019,-.032218,
-.001639,-.032427,
-.007247,-.031649,
-.012635,-.02991,
-.0148,-.0289,
-.0203,-.0345,
-.014003,-.037501,
-.00728,-.039363,
-.000336,-.040029,
.006618,-.03948,
.013372,-.037731,
.019718,-.034836,
.0203,-.0345,
.0148,-.0289,
270.*
4,1,15,-.0289,-.0148,
-.031031,-.009555,
-.032218,-.004019,
-.032427,.001639,
-.031649,.007247,
-.02991,.012635,
-.0289,.0148,
-.0345,.0203,
-.037501,.014003,
-.039363,.00728,
-.040029,.000336,
-.03948,-.006618,
-.037731,-.013372,
-.034836,-.019718,
-.0345,-.0203,
-.0289,-.0148,
270.*
4,1,15,-.0148,.0289,
-.009555,.031031,
-.004019,.032218,
.001639,.032427,
.007247,.031649,
.012635,.02991,
.0148,.0289,
.0203,.0345,
.014003,.037501,
.00728,.039363,
.000336,.040029,
-.006618,.03948,
-.013372,.037731,
-.019718,.034836,
-.0203,.0345,
-.0148,.0289,
270.*
%
%ADD28MACRO28*%
%AMMACRO27*
4,1,15,-.0289,.0148,
-.031031,.009555,
-.032218,.004019,
-.032427,-.001639,
-.031649,-.007247,
-.02991,-.012635,
-.0289,-.0148,
-.0345,-.0203,
-.037501,-.014003,
-.039363,-.00728,
-.040029,-.000336,
-.03948,.006618,
-.037731,.013372,
-.034836,.019718,
-.0345,.0203,
-.0289,.0148,
270.*
4,1,15,-.0148,-.0289,
-.009555,-.031031,
-.004019,-.032218,
.001639,-.032427,
.007247,-.031649,
.012635,-.02991,
.0148,-.0289,
.0203,-.0345,
.014003,-.037501,
.00728,-.039363,
.000336,-.040029,
-.006618,-.03948,
-.013372,-.037731,
-.019718,-.034836,
-.0203,-.0345,
-.0148,-.0289,
270.*
4,1,15,.0289,-.0148,
.031031,-.009555,
.032218,-.004019,
.032427,.001639,
.031649,.007247,
.02991,.012635,
.0289,.0148,
.0345,.0203,
.037501,.014003,
.039363,.00728,
.040029,.000336,
.03948,-.006618,
.037731,-.013372,
.034836,-.019718,
.0345,-.0203,
.0289,-.0148,
270.*
4,1,15,.0148,.0289,
.009555,.031031,
.004019,.032218,
-.001639,.032427,
-.007247,.031649,
-.012635,.02991,
-.0148,.0289,
-.0203,.0345,
-.014003,.037501,
-.00728,.039363,
-.000336,.040029,
.006618,.03948,
.013372,.037731,
.019718,.034836,
.0203,.0345,
.0148,.0289,
270.*
%
%ADD27MACRO27*%
%ADD24R,.055X.094488*%
%AMMACRO37*
4,1,15,-.017,.031,
-.011383,.033483,
-.00542,.034953,
.000708,.035366,
.006814,.034708,
.012713,.032999,
.017,.031,
.026,.04,
.018638,.043905,
.01071,.046473,
.002457,.047625,
-.005871,.047326,
-.014021,.045586,
-.021745,.042457,
-.026,.04,
-.017,.031,
270.*
4,1,15,-.031,-.017,
-.033483,-.011383,
-.034953,-.00542,
-.035366,.000708,
-.034708,.006814,
-.032999,.012713,
-.031,.017,
-.04,.026,
-.043905,.018638,
-.046473,.01071,
-.047625,.002457,
-.047326,-.005871,
-.045586,-.014021,
-.042457,-.021745,
-.04,-.026,
-.031,-.017,
270.*
4,1,15,.017,-.031,
.011383,-.033483,
.00542,-.034953,
-.000708,-.035366,
-.006814,-.034708,
-.012713,-.032999,
-.017,-.031,
-.026,-.04,
-.018638,-.043905,
-.01071,-.046473,
-.002457,-.047625,
.005871,-.047326,
.014021,-.045586,
.021745,-.042457,
.026,-.04,
.017,-.031,
270.*
4,1,15,.031,.017,
.033483,.011383,
.034953,.00542,
.035366,-.000708,
.034708,-.006814,
.032999,-.012713,
.031,-.017,
.04,-.026,
.043905,-.018638,
.046473,-.01071,
.047625,-.002457,
.047326,.005871,
.045586,.014021,
.042457,.021745,
.04,.026,
.031,.017,
270.*
%
%ADD37MACRO37*%
%AMMACRO33*
4,1,15,.009701,.020299,
.006029,.021675,
.002173,.022393,
-.001748,.02243,
-.005617,.021786,
-.009314,.020479,
-.009701,.020299,
-.015201,.025799,
-.01049,.028047,
-.00546,.029442,
-.000265,.029943,
.004939,.029534,
.009992,.028228,
.014742,.026064,
.015201,.025799,
.009701,.020299,
90.*
4,1,15,.020299,-.009701,
.021675,-.006029,
.022393,-.002173,
.02243,.001748,
.021786,.005617,
.020479,.009314,
.020299,.009701,
.025799,.015201,
.028047,.01049,
.029442,.00546,
.029943,.000265,
.029534,-.004939,
.028228,-.009992,
.026064,-.014742,
.025799,-.015201,
.020299,-.009701,
90.*
4,1,15,-.009701,-.020299,
-.006029,-.021675,
-.002173,-.022393,
.001748,-.02243,
.005617,-.021786,
.009314,-.020479,
.009701,-.020299,
.015201,-.025799,
.01049,-.028047,
.00546,-.029442,
.000265,-.029943,
-.004939,-.029534,
-.009992,-.028228,
-.014742,-.026064,
-.015201,-.025799,
-.009701,-.020299,
90.*
4,1,15,-.020299,.009701,
-.021675,.006029,
-.022393,.002173,
-.02243,-.001748,
-.021786,-.005617,
-.020479,-.009314,
-.020299,-.009701,
-.025799,-.015201,
-.028047,-.01049,
-.029442,-.00546,
-.029943,-.000265,
-.029534,.004939,
-.028228,.009992,
-.026064,.014742,
-.025799,.015201,
-.020299,.009701,
90.*
%
%ADD33MACRO33*%
%AMMACRO40*
4,1,16,.0345,.020299,
.037501,.014001,
.039363,.007279,
.040029,.000334,
.039479,-.00662,
.03773,-.013373,
.034834,-.01972,
.0345,-.020299,
.041701,-.027598,
.04586,-.019937,
.048625,-.011671,
.049913,-.00305,
.049684,.005664,
.047946,.014205,
.044751,.022315,
.041701,.027598,
.0345,.020299,
90.*
4,1,16,.020299,-.0345,
.014001,-.037501,
.007279,-.039363,
.000334,-.040029,
-.00662,-.039479,
-.013373,-.03773,
-.01972,-.034834,
-.020299,-.0345,
-.027598,-.041701,
-.019937,-.04586,
-.011671,-.048625,
-.00305,-.049913,
.005664,-.049684,
.014205,-.047946,
.022315,-.044751,
.027598,-.041701,
.020299,-.0345,
90.*
4,1,16,-.0345,-.020299,
-.037501,-.014001,
-.039363,-.007279,
-.040029,-.000334,
-.039479,.00662,
-.03773,.013373,
-.034834,.01972,
-.0345,.020299,
-.041701,.027598,
-.04586,.019937,
-.048625,.011671,
-.049913,.00305,
-.049684,-.005664,
-.047946,-.014205,
-.044751,-.022315,
-.041701,-.027598,
-.0345,-.020299,
90.*
4,1,16,-.020299,.0345,
-.014001,.037501,
-.007279,.039363,
-.000334,.040029,
.00662,.039479,
.013373,.03773,
.01972,.034834,
.020299,.0345,
.027598,.041701,
.019937,.04586,
.011671,.048625,
.00305,.049913,
-.005664,.049684,
-.014205,.047946,
-.022315,.044751,
-.027598,.041701,
-.020299,.0345,
90.*
%
%ADD40MACRO40*%
%ADD43C,.003*%
G75*
%LPD*%
G75*
G36*
G01X-650Y-650D02*
X600650D01*
Y400650D01*
X-650D01*
Y-650D01*
G37*
%LPC*%
G75*
G36*
G01X4000Y284675D02*
Y396000D01*
X596000D01*
Y4000D01*
X4000D01*
Y281925D01*
X4138Y281970D01*
G03Y284630I-438J1330D01*
G01X4000Y284675D01*
G37*
%LPD*%
G75*
G54D15*
X18500Y149700D03*
Y165300D03*
Y180900D03*
X493400Y164800D03*
X531200D03*
G54D42*
X569200Y311700D03*
X573800Y79900D03*
Y125100D03*
Y168900D03*
Y211300D03*
Y252400D03*
G54D23*
X112492Y5902D03*
X146508D03*
X178192D03*
X212208D03*
G54D20*
X63731Y303676D03*
X128691Y293676D03*
Y308676D03*
Y323676D03*
G54D14*
X18500Y134100D03*
G54D39*
X484200Y133000D03*
Y151500D03*
Y171100D03*
X493400Y189300D03*
X512300D03*
X540300Y133000D03*
Y151500D03*
Y171100D03*
X531200Y189300D03*
G54D29*
X167800Y294800D03*
G54D12*
X7000Y248000D03*
X7600Y250800D03*
X4200Y250600D03*
X4100Y292900D03*
Y295400D03*
X4900Y298000D03*
X6400Y346700D03*
X7300Y351900D03*
X28600Y44600D03*
X16000Y61900D03*
X16300Y58400D03*
X16400Y53900D03*
X16600Y49500D03*
X22300Y50100D03*
X27000Y49800D03*
X25300Y108000D03*
X9300Y128500D03*
X27000Y128700D03*
X25500Y118000D03*
X9100Y140700D03*
X27300Y140100D03*
X20800Y209200D03*
X24500Y209500D03*
X20900Y223500D03*
X24300D03*
X11100Y250900D03*
X27700Y272600D03*
X22800Y288000D03*
X22600Y283000D03*
X27500Y286000D03*
X23500Y301300D03*
X27600Y305400D03*
X23700Y308500D03*
X13000Y346300D03*
X23400Y352600D03*
X14000Y352100D03*
X45200Y11500D03*
X28900Y38000D03*
X43400Y37700D03*
X43700Y44100D03*
X36700Y37900D03*
X44500Y29800D03*
X46300Y60700D03*
X46600Y69900D03*
X37700Y108100D03*
X37400Y128700D03*
X41100Y184800D03*
X39500Y175300D03*
X34800Y175500D03*
X33100Y186100D03*
X44200Y184800D03*
X44300Y182000D03*
X44400Y176600D03*
X33900Y202500D03*
X42200Y196300D03*
X42000Y202200D03*
X39100D03*
X37700Y228200D03*
X34800Y228900D03*
X34700Y232400D03*
X38800Y238100D03*
X35400Y238200D03*
X34100Y272900D03*
X45100Y286000D03*
X29400Y348200D03*
X40100Y347300D03*
X36000Y352700D03*
X68600Y20200D03*
X50400D03*
X58900D03*
X50200Y28700D03*
X65200Y43200D03*
Y56700D03*
X50900Y60600D03*
X65300Y77000D03*
X56200Y87900D03*
X66400Y89000D03*
X53100Y70600D03*
X50400Y70500D03*
X56200Y94900D03*
X68700Y111300D03*
X69000Y119000D03*
X69100Y234600D03*
X56100Y221300D03*
X65400Y241700D03*
X69100Y237400D03*
X60100Y256000D03*
X56400Y255900D03*
Y243900D03*
X59700D03*
X69200Y240400D03*
X55700Y274000D03*
X60000Y260700D03*
X56200D03*
X55000Y286200D03*
X57000Y314500D03*
X64400Y317200D03*
X55700Y300300D03*
X55600Y304200D03*
X64100Y321900D03*
X63900Y331900D03*
X64100Y327500D03*
X54100Y355500D03*
X62800Y361300D03*
X61000Y364500D03*
X60400Y377800D03*
X68400Y361100D03*
X60800Y370800D03*
X55900Y394100D03*
X83400Y13500D03*
X73100Y43300D03*
X84800Y47700D03*
X83400Y29000D03*
X72300Y56700D03*
Y49800D03*
X72000Y63300D03*
X79300Y70200D03*
X71300Y77000D03*
X83400Y70200D03*
X79000Y82400D03*
Y89100D03*
X83500Y77100D03*
X78000Y93300D03*
X74600Y111000D03*
X72700Y115600D03*
X75700Y143700D03*
X75600Y148500D03*
X80700Y161800D03*
X75200Y161600D03*
X80500Y166500D03*
X75300D03*
X85300Y184400D03*
Y191900D03*
X82500Y205800D03*
X86500Y200400D03*
X86100Y213200D03*
X84200Y232000D03*
X82300Y235800D03*
X84100Y239500D03*
X87200Y235600D03*
X71400Y299700D03*
X72200Y304000D03*
X71700Y355600D03*
X84500Y366000D03*
X78700Y393700D03*
X82900Y388200D03*
X89400Y388500D03*
Y381600D03*
X82900Y381300D03*
X97100Y12500D03*
X96200Y29500D03*
X110500Y51100D03*
X110100Y61500D03*
X104400Y61600D03*
X110700Y55800D03*
X90800Y82800D03*
X91100Y87100D03*
X100800Y83700D03*
X100900Y87700D03*
X103000Y114500D03*
X102800Y121800D03*
X110700Y114600D03*
X95500Y196700D03*
X94500Y214800D03*
X104500Y365900D03*
X94700Y366200D03*
X104400Y388500D03*
X96700D03*
X104400Y381600D03*
X96700D03*
X115600Y61500D03*
X117000Y56000D03*
X130000Y79800D03*
X115600Y149500D03*
X124800Y140900D03*
X117900Y171600D03*
X125700Y165200D03*
X121100Y173900D03*
X121400Y179900D03*
X121300Y186800D03*
X121000Y195100D03*
X123600Y301400D03*
X122700Y314400D03*
X118600Y301300D03*
X114600Y365800D03*
X124600Y365500D03*
X114800Y389200D03*
X124500Y389300D03*
Y382400D03*
X114800Y382300D03*
X145400Y19400D03*
X152500Y52400D03*
X146100Y52300D03*
X146600Y115400D03*
X141900Y115200D03*
X134200Y304900D03*
X135500Y299500D03*
X134900Y365800D03*
X144600Y365900D03*
X132500Y389600D03*
X141000Y389700D03*
X149400D03*
Y382800D03*
X141000D03*
X132500Y382700D03*
X169700Y19000D03*
X157500Y29500D03*
X171700Y29800D03*
X171800Y35700D03*
X157400Y74300D03*
X160700Y76000D03*
X159500Y84100D03*
X159600Y93500D03*
X159400Y101400D03*
X164700Y365700D03*
X154600Y365600D03*
X166200Y389700D03*
X157800D03*
X166200Y382800D03*
X157800D03*
X174400Y365700D03*
X184800Y365800D03*
X191400Y389700D03*
X174600D03*
X183000D03*
X191400Y382800D03*
X183000D03*
X174600D03*
X210900Y18700D03*
X208800Y109000D03*
X195400D03*
X201800Y109100D03*
X194700Y365700D03*
X204600Y365800D03*
X214300Y365700D03*
X199800Y389700D03*
X208200D03*
Y382800D03*
X199800D03*
X223700Y24200D03*
X220500Y32900D03*
X226600Y33000D03*
X228200Y61100D03*
X218800Y61600D03*
X227800Y68200D03*
X218400Y68000D03*
X228900Y55600D03*
X226000Y79500D03*
X221500Y78200D03*
X220300Y89300D03*
X227700Y74400D03*
X218300Y74100D03*
X224700Y365600D03*
X234500D03*
X225000Y389700D03*
X230600D03*
X216600D03*
X230600Y382800D03*
X221900Y382700D03*
X216600Y382800D03*
X244100Y36400D03*
X252300Y106200D03*
X254700Y366200D03*
X244600Y365300D03*
X255700Y389700D03*
X239000D03*
X247300D03*
X255700Y382800D03*
X247300D03*
X239000D03*
X275100Y61700D03*
X272000Y61900D03*
X265000Y76200D03*
X269500Y76000D03*
X269400Y72600D03*
X262200Y70600D03*
X256350Y94250D03*
X264400Y365900D03*
X264300Y389700D03*
X270500D03*
Y382800D03*
X264300D03*
X292000Y42800D03*
X293000Y40600D03*
X278000Y64900D03*
X279200Y61800D03*
X289900Y72400D03*
X293000Y71300D03*
X281000Y70900D03*
X292700Y74300D03*
X286900Y74100D03*
X291200Y96300D03*
X293000Y100600D03*
X290100D03*
X282000Y130100D03*
X286700Y145200D03*
X291200Y139300D03*
X291400Y151800D03*
X282000Y139900D03*
X293800Y368900D03*
X293500Y390700D03*
X313600Y34100D03*
X306200Y38000D03*
X317600Y37400D03*
X306800Y62100D03*
Y66200D03*
X306700Y336600D03*
X299800Y352800D03*
X307200Y369100D03*
X306200Y390600D03*
X330400Y26700D03*
X335600Y27300D03*
X323200Y34000D03*
X332100Y111300D03*
X332300Y116800D03*
X335300Y382700D03*
X335700Y389200D03*
X351400Y103900D03*
X354600Y105000D03*
X349600Y106900D03*
X344600Y106800D03*
X349000Y111600D03*
X350200Y115500D03*
X345000Y155200D03*
X342900Y157800D03*
X356800Y383000D03*
X349100D03*
X341800D03*
X357200Y389500D03*
X349500D03*
X342200D03*
X363800Y79400D03*
X366800Y88600D03*
X367400Y91000D03*
X378400Y128200D03*
X364000Y125700D03*
X374900Y120500D03*
X375200Y116900D03*
X365900Y120500D03*
X374900Y124900D03*
X368900Y113700D03*
X365500Y148000D03*
X376900Y383800D03*
X367200Y383700D03*
X377300Y390300D03*
X367600Y390200D03*
X395100Y78500D03*
X391400Y78300D03*
X386500Y78400D03*
X385800Y92800D03*
X393800Y92900D03*
X385100Y130200D03*
X385200Y124700D03*
X385100Y135100D03*
X384900Y142700D03*
X400600Y140000D03*
X393400Y384200D03*
X384900Y384100D03*
X393800Y390700D03*
X385300Y390600D03*
X406000Y109900D03*
X401400Y107000D03*
X407200Y115500D03*
X401000Y114000D03*
X416600Y130600D03*
X412400D03*
X419400Y125900D03*
X412000Y126300D03*
X405500Y134900D03*
X401000Y134700D03*
X405000Y225100D03*
X414600Y263400D03*
X415100Y259300D03*
X418600Y384200D03*
X410200D03*
X401800D03*
X419000Y390700D03*
X410600D03*
X402200D03*
X424300Y19900D03*
X423900Y129900D03*
X426100Y125900D03*
X440600Y214300D03*
X428400Y225000D03*
X435400Y384200D03*
X427000D03*
X435800Y390700D03*
X427400D03*
X449300Y20400D03*
X450500Y213400D03*
X460300Y218900D03*
X449500Y223600D03*
X450500Y254800D03*
X450300Y275400D03*
X450500Y267300D03*
X450600Y260400D03*
X456500Y282600D03*
X450000Y282700D03*
X460600Y384200D03*
X452200D03*
X443800D03*
X461000Y390700D03*
X452600D03*
X444200D03*
X476200Y18400D03*
X483000Y183700D03*
X474700Y181100D03*
X473900Y207900D03*
X473200Y198100D03*
X480800Y284500D03*
X463600Y282700D03*
X470600Y298000D03*
X483000Y384200D03*
X477400D03*
X469000D03*
X483400Y390700D03*
X477800D03*
X469400D03*
X497200Y20900D03*
X494000Y70700D03*
X495000Y143900D03*
X490800Y143800D03*
X485600Y147600D03*
X490800D03*
X495800Y152500D03*
X488600Y188200D03*
X496600Y182300D03*
X484100Y187800D03*
X497300Y186700D03*
X483500Y214400D03*
X488000D03*
X483500Y207600D03*
X492600Y297700D03*
X499700Y384200D03*
X491400D03*
X500100Y390700D03*
X491800D03*
X507800Y155800D03*
X516200Y174600D03*
X506800D03*
X524400Y214800D03*
X508100Y256100D03*
X506700Y283800D03*
X510500Y310400D03*
X514800Y297600D03*
X522900Y384200D03*
X516700D03*
X508100D03*
X523300Y390700D03*
X517100D03*
X508500D03*
X543000Y21900D03*
X527800Y70300D03*
X544900Y127400D03*
X534700Y148100D03*
X531500Y141200D03*
X527200Y142200D03*
X530100Y148100D03*
X535100Y173000D03*
X537300Y188600D03*
X534600Y193400D03*
X525700Y187400D03*
X534500Y197900D03*
X526500Y212500D03*
X528400Y231200D03*
X537800Y222100D03*
X528900Y215000D03*
X532900Y255700D03*
X532000Y310600D03*
X528800Y330300D03*
X540900Y348700D03*
X545600Y148400D03*
X550600Y141200D03*
X547800Y164500D03*
X549700Y182600D03*
X546500Y188100D03*
X547400Y192100D03*
X548200Y199600D03*
X553200Y329600D03*
X579700Y348100D03*
X593200Y79700D03*
X594400Y128500D03*
X594500Y168800D03*
X593900Y211200D03*
X594200Y252400D03*
X588100Y311700D03*
G54D38*
X484200Y45200D03*
Y84500D03*
Y121900D03*
X506600D03*
X518000Y44800D03*
X527800Y121900D03*
X540300Y64800D03*
Y104200D03*
Y141600D03*
Y181000D03*
G54D34*
X325100Y75200D03*
G54D21*
X68300Y381674D03*
X280700D03*
X319300D03*
X531700D03*
G54D25*
X120642Y16842D03*
X122700Y19800D03*
X145800Y36900D03*
X142400Y36200D03*
X150600Y75900D03*
X149200Y70900D03*
X186342Y17558D03*
X188600Y19400D03*
X187326Y35500D03*
X184150Y32550D03*
X193232Y34232D03*
X197168D03*
X227000Y377100D03*
X317669Y186006D03*
Y182069D03*
Y189943D03*
X317576Y197724D03*
X308900Y206400D03*
X313300Y205300D03*
X317900Y225000D03*
X317500Y233100D03*
X313700Y237000D03*
X308589Y246889D03*
X317600Y237000D03*
X317400Y241100D03*
X317600Y248800D03*
X317400Y252800D03*
X299870Y253770D03*
X315600Y265000D03*
X325543Y182069D03*
X321606D03*
Y186006D03*
X325543Y189943D03*
X329480Y186006D03*
X335245Y173800D03*
X325543Y193880D03*
X321606D03*
X329480D03*
Y189943D03*
X337354D03*
X333417D03*
X337354Y193880D03*
X325543Y186006D03*
X329480Y182069D03*
X325543Y197817D03*
X337354Y201754D03*
X325500Y213500D03*
X337354Y197817D03*
X329350Y229150D03*
X333200Y217400D03*
X337100Y217200D03*
X337354Y221158D03*
X321600Y229000D03*
X337354Y229032D03*
X333417Y232969D03*
Y225095D03*
X329300Y252700D03*
X321500Y252600D03*
X329500Y236900D03*
X325500Y241000D03*
X337100Y252900D03*
X337200Y249000D03*
X333300Y248700D03*
Y252800D03*
X321500Y245000D03*
X321200Y241200D03*
X321500Y237000D03*
X329300Y244800D03*
X321300Y249000D03*
X325500Y252700D03*
X337354Y236906D03*
X325400Y244900D03*
X325300Y248900D03*
X333200Y256700D03*
X338000Y376400D03*
X341291Y189943D03*
X339182Y173382D03*
X345228Y178132D03*
X341291Y193880D03*
X349165Y205691D03*
X341291Y197817D03*
X349165Y213565D03*
X341291D03*
X353100Y193900D03*
X356758Y213565D03*
X345000Y213300D03*
X349165Y232969D03*
X341291D03*
Y225095D03*
X356758Y221158D03*
X345228D03*
X341200Y245000D03*
X352800Y248600D03*
X349200Y248800D03*
X353000Y244800D03*
X348900Y252700D03*
X344800Y248600D03*
X356800Y248800D03*
X352900Y252800D03*
X356758Y236906D03*
X345228D03*
X356900Y252800D03*
X347056Y261344D03*
X353000Y256700D03*
X339400Y327889D03*
X341100D03*
X358000Y376500D03*
X343000Y376400D03*
X374615Y173115D03*
X372506Y186006D03*
X360695Y182069D03*
X376500Y213500D03*
X368569Y213565D03*
X360695D03*
X365000Y197900D03*
X364700Y209500D03*
X372900Y209300D03*
X372700Y201600D03*
X372900Y228800D03*
X360900Y225400D03*
X361000Y217500D03*
X376900Y229500D03*
X368569Y232969D03*
Y225095D03*
X364632Y229032D03*
X360695Y232969D03*
X364632Y221158D03*
X376500Y248700D03*
X364600Y252600D03*
X368700Y241000D03*
X360800Y248800D03*
Y252700D03*
X372500D03*
X377500Y241000D03*
X375900D03*
X364800Y248700D03*
X376500Y236900D03*
X364632Y236906D03*
X372500Y248700D03*
X368800Y245000D03*
X376600Y252700D03*
X368500Y248600D03*
X368600Y252700D03*
X376500Y256600D03*
X360700D03*
X364600D03*
X378000Y376800D03*
X362900Y376600D03*
X388254Y178132D03*
X384317Y189943D03*
X384600Y185700D03*
X392400Y205500D03*
X380700Y205700D03*
X392300Y221200D03*
X392200Y225300D03*
X388300Y232900D03*
X384400Y225200D03*
X399700Y225100D03*
X399900Y219400D03*
X388500Y244800D03*
X380400Y252600D03*
X380700Y241300D03*
X384400Y237100D03*
X386426Y261274D03*
X380600Y256700D03*
X384400D03*
X388000Y376600D03*
X398000D03*
X402000Y245500D03*
X402500Y263400D03*
X401800Y257300D03*
X418000Y376600D03*
X408000Y376500D03*
X439400Y345866D03*
X441100D03*
X438000Y376300D03*
X427900Y376500D03*
X456550Y347852D03*
X454850D03*
X458000Y376600D03*
X453000Y376500D03*
X443000Y376400D03*
X473000Y364400D03*
X483000Y365500D03*
X503000Y365300D03*
X493000Y365400D03*
X513000Y365200D03*
X523000Y365300D03*
G54D17*
X18600Y319000D03*
X48550Y223750D03*
X34300Y217500D03*
X42260Y219760D03*
X33800Y248400D03*
X40680Y310520D03*
X39700Y340000D03*
X53220Y227880D03*
X63731Y283676D03*
Y288676D03*
Y293676D03*
Y298676D03*
Y308676D03*
X51600Y321000D03*
X75260Y102060D03*
X89660Y222340D03*
X85700Y248900D03*
X99400Y146800D03*
X92300Y179300D03*
X107700Y197200D03*
X128691Y298676D03*
Y288676D03*
Y283676D03*
Y318676D03*
Y313676D03*
Y303676D03*
Y328676D03*
X522400Y172500D03*
X511400Y172800D03*
X506500Y191600D03*
G54D30*
X238500Y24800D03*
X258500D03*
X330200Y35100D03*
Y45100D03*
Y65100D03*
X360200D03*
G54D41*
X563800Y69900D03*
Y89900D03*
Y115100D03*
Y135100D03*
Y158900D03*
Y178900D03*
Y201300D03*
Y221300D03*
Y242400D03*
Y262400D03*
X559200Y301700D03*
Y321700D03*
X583800Y69900D03*
Y89900D03*
Y115100D03*
Y135100D03*
Y158900D03*
Y178900D03*
Y201300D03*
Y221300D03*
Y242400D03*
Y262400D03*
X579200Y301700D03*
Y321700D03*
G54D32*
X313732Y174195D03*
X309100Y187834D03*
X317669Y201754D03*
X313732Y213565D03*
X302400Y206600D03*
X309400Y227204D03*
X317669Y244780D03*
X304700Y236800D03*
X299700Y246800D03*
X313732Y256591D03*
X333417Y193880D03*
X321606Y189943D03*
X325543Y178132D03*
X337354Y182069D03*
X331308Y173600D03*
X329480Y205691D03*
X337354Y213565D03*
X329400Y221300D03*
X321606Y232969D03*
X325400Y221301D03*
X333417Y229032D03*
X337354Y225095D03*
Y232969D03*
X333417Y221158D03*
X329480Y248717D03*
X333417Y236906D03*
X333200Y244900D03*
X333300Y241100D03*
X327371Y260785D03*
X322800Y265000D03*
X333300Y266300D03*
X349165Y186006D03*
X354930Y173500D03*
X352900Y189800D03*
Y185300D03*
X341000Y185800D03*
X341291Y209628D03*
X345228Y197817D03*
X341300Y205200D03*
X353100Y205500D03*
X356700Y209300D03*
X349100Y225200D03*
X341291Y229032D03*
X345228Y232969D03*
X356758D03*
X357000Y229100D03*
X356900Y225300D03*
X349198Y228998D03*
X345000Y225300D03*
X344900Y229400D03*
X341291Y221158D03*
X349165D03*
X341291Y252654D03*
Y236906D03*
X345228Y240843D03*
X352900Y236900D03*
X356758Y256591D03*
X339000Y263700D03*
X345300Y365600D03*
X341000Y365800D03*
X376443Y193880D03*
X364632Y189943D03*
X368569Y178132D03*
X372506Y205691D03*
Y213565D03*
X376800Y197600D03*
X360695Y201754D03*
X364632Y213565D03*
X372506Y225095D03*
Y232969D03*
X372600Y221200D03*
X364632Y225095D03*
Y232969D03*
X368569Y229032D03*
X360800Y229100D03*
X376443Y221158D03*
X360695D03*
X368569D03*
X372506Y236906D03*
Y240843D03*
Y244780D03*
X376443D03*
X360695Y236906D03*
Y244780D03*
X368569Y236906D03*
X366741Y260785D03*
X360300Y365600D03*
X365300Y365800D03*
X380380Y182069D03*
X392191Y186006D03*
X396128Y174195D03*
X380500Y213500D03*
X384317Y209628D03*
Y213565D03*
X388254Y197817D03*
Y213565D03*
X392191D03*
X396128D03*
X380380Y229032D03*
X388254Y225095D03*
X396502Y225002D03*
X384317Y232969D03*
X392000Y233200D03*
X380380Y221158D03*
X396128D03*
X384317Y252654D03*
X388254D03*
X392191D03*
X396128D03*
X380380Y236906D03*
Y244780D03*
Y248717D03*
X384317D03*
X388254Y240843D03*
X396128Y236906D03*
Y244780D03*
Y256591D03*
X400500Y365700D03*
X390200Y365600D03*
X380300Y365500D03*
X408200Y214400D03*
X420100Y365600D03*
X410100D03*
X440300Y365500D03*
X430400Y365800D03*
X460100Y366100D03*
X445300Y365400D03*
X478000Y366100D03*
X468000D03*
X463000Y366000D03*
X498000Y366100D03*
X488000D03*
X518000Y366000D03*
X508000Y365900D03*
G54D18*
X51800Y35600D03*
X63000Y230600D03*
X103100Y128800D03*
X120200Y157100D03*
X120100Y251000D03*
X185600Y184800D03*
Y194800D03*
Y204800D03*
Y214800D03*
Y224800D03*
Y234800D03*
Y244800D03*
X233400Y246100D03*
X223400D03*
X248500Y114800D03*
Y124800D03*
X268700Y115400D03*
Y125400D03*
X372000Y64900D03*
X420400Y94600D03*
X412200D03*
X404000D03*
X436800D03*
X428600D03*
X461400D03*
X453200D03*
X445000D03*
G54D31*
X293639Y17489D03*
X310961D03*
G54D10*
X20000Y20000D03*
Y380000D03*
X580000Y20000D03*
Y380000D03*
G54D11*
X6700Y159100D03*
X6100Y170000D03*
X6600Y178300D03*
X6500Y184900D03*
X4400Y191400D03*
X4500Y195300D03*
Y198600D03*
X6600Y228400D03*
Y234200D03*
X5900Y244600D03*
X6700Y237500D03*
X6900Y256000D03*
X6300Y261600D03*
X3700Y283300D03*
X26600Y83400D03*
X19300Y82900D03*
Y88200D03*
X27400Y88400D03*
X27500Y92700D03*
X19000Y92500D03*
X27700Y158000D03*
Y163200D03*
X27900Y169300D03*
X19600Y190200D03*
X11500Y190400D03*
X18300Y199000D03*
X21200Y203700D03*
X17000Y232100D03*
X11300Y231200D03*
X16900Y237000D03*
X13300Y255800D03*
X22600Y256100D03*
X17400Y251400D03*
X17600Y246400D03*
Y255400D03*
X20400Y240800D03*
X20600Y245200D03*
X19600Y270300D03*
X13500Y261500D03*
X20400D03*
X20300Y264400D03*
Y258700D03*
X17400Y293300D03*
Y296300D03*
X14500D03*
X13900Y306400D03*
X15900Y319700D03*
X12900Y319800D03*
X8800Y319500D03*
X16100Y323400D03*
X12800D03*
X8700Y323300D03*
X16000Y326400D03*
X12600D03*
X8700D03*
X42800Y49000D03*
X47300D03*
X36500Y58000D03*
X39900Y55400D03*
X42200Y52400D03*
X35300Y88200D03*
X49400Y78800D03*
X34800Y92800D03*
X48800Y128700D03*
X44500Y142400D03*
Y149700D03*
X41500Y144600D03*
X41400Y139400D03*
X36900D03*
X48800Y132900D03*
X48600Y138300D03*
X43200Y169100D03*
X35500Y169200D03*
X36500Y160500D03*
X41900Y159100D03*
X36500Y158100D03*
X42000Y155300D03*
X47100Y162600D03*
X36300Y155200D03*
X41900Y162800D03*
X36600Y162900D03*
X47600Y189000D03*
X35300Y292500D03*
X37900Y292400D03*
X38000Y294500D03*
X30100Y292000D03*
X51400Y49000D03*
X53800Y52900D03*
X57800Y105000D03*
X55000D03*
X54900Y102100D03*
X58200Y102200D03*
X64276Y127276D03*
X54100Y128700D03*
X63700Y147400D03*
X52800Y147200D03*
X54000Y133100D03*
X53500Y138400D03*
X67400Y190200D03*
X68600Y182800D03*
X68300Y193800D03*
X49800Y173900D03*
X49900Y179500D03*
X61400Y184800D03*
X51500Y184500D03*
X60800Y188800D03*
X51500Y188600D03*
X60100Y193500D03*
X51500D03*
X67300Y256000D03*
X67000Y261500D03*
X66700Y266400D03*
X60100Y349000D03*
X85900Y100800D03*
X81600Y100900D03*
X86200Y104500D03*
X81800D03*
X87500Y144200D03*
X83000Y144100D03*
X87500Y147400D03*
X82900D03*
X72100Y178300D03*
X82900Y219500D03*
X74300Y223100D03*
X78900Y226100D03*
X74400Y226200D03*
X72400Y261400D03*
X72300Y266400D03*
X87000Y377100D03*
X77000Y377000D03*
X92500Y144400D03*
X94700Y224100D03*
X98600Y226800D03*
X96300D03*
X97000Y348300D03*
X107000Y377100D03*
X97000D03*
X117100Y52100D03*
X122100Y85900D03*
X121900Y71000D03*
X127000Y377100D03*
X117000D03*
X135100Y103300D03*
X149800Y105300D03*
X146500D03*
X132700Y105200D03*
X135550Y115450D03*
X150200Y314700D03*
X145300Y307100D03*
X147100Y350600D03*
X147000Y377200D03*
X137000Y376900D03*
X165200Y12800D03*
X165500Y67100D03*
X167100Y65600D03*
X173200Y65000D03*
X170100Y64800D03*
X161800Y65400D03*
X153800Y310200D03*
X162000Y347200D03*
X157000Y376800D03*
X167000Y377200D03*
X180000Y49200D03*
X176100Y64900D03*
X176600Y71300D03*
X187700Y80200D03*
X187900Y84700D03*
X188000Y88200D03*
X184300Y105300D03*
X183191Y100400D03*
X187000Y350400D03*
X182000Y347300D03*
X187000Y377000D03*
X177000Y377100D03*
X213700Y78100D03*
X213500Y88900D03*
X211200Y85400D03*
X201600Y93045D03*
X199300Y98055D03*
X204700Y188600D03*
X211900Y347500D03*
X197000Y377100D03*
X207000Y377200D03*
X229000Y12200D03*
X222100Y347700D03*
X232000Y347600D03*
X217000Y376775D03*
X248850Y45750D03*
X246350Y60150D03*
X250900Y84900D03*
X253800Y83800D03*
X251350Y94100D03*
X245500Y134300D03*
X253950Y179550D03*
X252900Y174100D03*
X255500Y232100D03*
X248800Y239400D03*
X247000Y377200D03*
X237000Y377300D03*
X258850Y46350D03*
X268850Y44250D03*
X256400Y55400D03*
X258850Y56450D03*
X268800Y55500D03*
X261500Y82600D03*
X276100Y83100D03*
X276200Y80200D03*
X271300Y131300D03*
X265650Y174650D03*
X262400Y176200D03*
X262000Y347100D03*
X257000Y347500D03*
Y377200D03*
X267000D03*
X278850Y46350D03*
X297300Y45100D03*
X293850Y55550D03*
X286350Y58750D03*
X288900Y56300D03*
X283850Y83150D03*
X292900Y81300D03*
X290700D03*
X290400Y78900D03*
X288200Y84200D03*
X293600Y78900D03*
X296350Y83250D03*
X283400Y163800D03*
X295300Y167100D03*
X285700Y216800D03*
X292800Y225000D03*
X285900Y230300D03*
X293200Y239600D03*
X303056Y34600D03*
X303000Y40500D03*
X299150Y34600D03*
X299094Y40500D03*
X316500Y150100D03*
X308700Y156000D03*
X314100Y160100D03*
X304650Y164150D03*
X303900Y172200D03*
X299900Y212400D03*
X298900Y207400D03*
X302950Y214850D03*
X308300Y266600D03*
X299400Y272300D03*
X302800Y276800D03*
X304300Y283000D03*
X331200Y103300D03*
X325800Y152700D03*
X318800Y161800D03*
X335300Y160400D03*
X321700Y160000D03*
X327900Y154300D03*
X333300Y162900D03*
X337600Y185600D03*
X329450Y213250D03*
X337200Y209400D03*
X329500Y217200D03*
X345600Y46800D03*
Y35000D03*
X353400Y89600D03*
X350700Y86400D03*
Y82800D03*
X353700Y82900D03*
X347600Y89200D03*
X339200Y88400D03*
X350600Y124500D03*
X348100D03*
X350600Y128200D03*
X347900D03*
X345300Y149400D03*
X348000Y161400D03*
X339200Y153000D03*
X349500Y291000D03*
X344900Y292500D03*
X359350Y327370D03*
X373400Y37900D03*
X379500Y70800D03*
X376800Y73400D03*
X371900Y73300D03*
X376300Y77900D03*
X371800Y78000D03*
X377600Y108300D03*
X377100Y103600D03*
X360800Y105600D03*
X373300Y103100D03*
X377600Y112800D03*
X365000Y142000D03*
X376900Y141700D03*
X379600Y154600D03*
X364900Y162400D03*
X359700Y295000D03*
X359600Y302400D03*
X361650Y327370D03*
X384100Y70800D03*
X388600Y100000D03*
X384700Y99900D03*
X384600Y104400D03*
X384500Y108000D03*
X390000Y137400D03*
X400400Y181700D03*
X397800Y179900D03*
X396892Y195708D03*
X383400Y305300D03*
X393000Y349900D03*
X383000Y349300D03*
X406600Y130200D03*
X415400Y205000D03*
Y201000D03*
X403100Y220300D03*
X415400Y220800D03*
X418946Y237200D03*
X408100Y246000D03*
X407900Y236500D03*
X403000Y349300D03*
X413000Y349700D03*
X434100Y104700D03*
X431100Y145000D03*
X425500Y135800D03*
X441800Y171300D03*
X425500Y163000D03*
X430900Y152800D03*
X442000Y180800D03*
X427046Y205554D03*
X430754D03*
X427700Y214300D03*
X428400Y218800D03*
X422654Y237200D03*
X423000Y349900D03*
X433000Y349400D03*
X445600Y168100D03*
X445200Y217100D03*
X459300Y222300D03*
X473000Y173400D03*
X468700Y162800D03*
X471900D03*
X467600Y271900D03*
X467900Y262800D03*
Y258700D03*
X482900Y349300D03*
X478000Y349600D03*
X467600Y349300D03*
X502100Y130100D03*
Y141700D03*
X504100Y209400D03*
X500700Y218900D03*
X500600Y215900D03*
X504100Y219200D03*
X486000Y258000D03*
X486600Y264500D03*
Y272500D03*
X488100Y348900D03*
X498000Y346500D03*
X520800Y130300D03*
X514500Y130100D03*
X508200Y130000D03*
Y141900D03*
X520800Y141800D03*
X514500D03*
X504200Y166582D03*
X517600Y161300D03*
X505100Y156000D03*
X507600Y158900D03*
X511600Y154700D03*
X504200Y214300D03*
X508000Y224900D03*
X508300Y221800D03*
Y215900D03*
Y219100D03*
X522900Y350400D03*
X517900Y350100D03*
X513100Y349600D03*
X509300Y349500D03*
X534200Y127400D03*
Y159000D03*
X534400Y204200D03*
X542200Y210700D03*
X544700Y216600D03*
X544600Y222300D03*
X542200Y252800D03*
X554100Y124700D03*
X554400Y162300D03*
X547000Y175000D03*
X555400Y213700D03*
X547800Y214500D03*
G54D16*
X30100Y222000D03*
X78400Y174900D03*
X222600Y46400D03*
G54D35*
X345100Y75200D03*
X396900Y37800D03*
X416900D03*
X453700Y118200D03*
G54D36*
X372000Y54900D03*
G54D13*
X20100Y101900D03*
X145600Y213900D03*
X213400Y246100D03*
X299500Y379600D03*
X383200Y16900D03*
X444400Y44100D03*
X468300Y44600D03*
X495200Y315200D03*
X532000Y235600D03*
X581500Y48100D03*
G54D19*
X40840Y302840D03*
X41800Y328900D03*
X50200Y65700D03*
X53600Y232915D03*
X94100Y156200D03*
Y164000D03*
X96800Y160100D03*
X101560Y233240D03*
G54D22*
X81800Y214100D03*
G54D26*
X118400Y284000D03*
X143000Y294800D03*
G54D28*
X175600Y184800D03*
Y194800D03*
Y204800D03*
Y214800D03*
Y224800D03*
Y234800D03*
Y244800D03*
G54D24*
X112492Y27004D03*
X146508D03*
X178192D03*
X212208D03*
G54D27*
X118400Y308800D03*
G54D33*
X330200Y55100D03*
X360200Y45100D03*
Y35100D03*
Y55100D03*
G54D37*
X453700Y138200D03*
G54D40*
X484200Y161300D03*
%LPC*%
G75*
G54D43*
G01X2500Y0D02*
X597500D01*
G03X600000Y2500I0J2500D01*
G01Y397500D01*
G03X597500Y400000I-2500J0D01*
G01X2500D01*
G03X0Y397500I0J-2500D01*
G01Y2500D01*
G03X2500Y0I2500J0D01*
M02*
