G04 ================== begin FILE IDENTIFICATION RECORD ==================*
G04 Layout Name:  E:/Work_File/CEPC/Schematic-and-PCB-of-DIF_V1.1/DIF_1V2.brd*
G04 Film Name:    drill*
G04 File Format:  Gerber RS274X*
G04 File Origin:  Cadence Allegro 16.6-2015-S066*
G04 Origin Date:  Mon Jul 31 20:16:37 2017*
G04 *
G04 Layer:  MANUFACTURING/NCDRILL_LEGEND*
G04 Layer:  MANUFACTURING/NCDRILL_FIGURE*
G04 Layer:  MANUFACTURING/NCLEGEND-1-8*
G04 Layer:  BOARD GEOMETRY/OUTLINE*
G04 Layer:  BOARD GEOMETRY/DIMENSION*
G04 *
G04 Offset:    (0.000 0.000)*
G04 Mirror:    No*
G04 Mode:      Positive*
G04 Rotation:  0*
G04 FullContactRelief:  No*
G04 UndefLineWidth:     5.000*
G04 ================== end FILE IDENTIFICATION RECORD ====================*
%FSLAX25Y25*MOIN*%
%IR0*IPPOS*OFA0.00000B0.00000*MIA0B0*SFA1.00000B1.00000*%
%AMMACRO11*
1,1,.005,.02,0.0*
20,1,.005,.02,0.0,0.0,-.02,0.0*
1,1,.005,0.0,-.02*
20,1,.005,0.0,-.02,-.02,0.0,0.0*
1,1,.005,-.02,0.0*
20,1,.005,-.02,0.0,0.0,.02,0.0*
1,1,.005,0.0,.02*
20,1,.005,0.0,.02,.02,0.0,0.0*
1,1,.005,.02,0.0*
%
%ADD11MACRO11*%
%AMMACRO15*
1,1,.005,.0125,0.0*
20,1,.005,.0125,0.0,-.0125,0.0,0.0*
1,1,.005,-.0125,0.0*
1,1,.005,0.0,.0125*
20,1,.005,0.0,.0125,0.0,-.0125,0.0*
1,1,.005,0.0,-.0125*
%
%ADD15MACRO15*%
%AMMACRO10*
1,1,.005,.02,0.0*
20,1,.005,.02,0.0,.019696,-.003473,0.0*
1,1,.005,.019696,-.003473*
20,1,.005,.019696,-.003473,.018794,-.00684,0.0*
1,1,.005,.018794,-.00684*
20,1,.005,.018794,-.00684,.017321,-.01,0.0*
1,1,.005,.017321,-.01*
20,1,.005,.017321,-.01,.015321,-.012856,0.0*
1,1,.005,.015321,-.012856*
20,1,.005,.015321,-.012856,.012856,-.015321,0.0*
1,1,.005,.012856,-.015321*
20,1,.005,.012856,-.015321,.01,-.017321,0.0*
1,1,.005,.01,-.017321*
20,1,.005,.01,-.017321,.00684,-.018794,0.0*
1,1,.005,.00684,-.018794*
20,1,.005,.00684,-.018794,.003473,-.019696,0.0*
1,1,.005,.003473,-.019696*
20,1,.005,.003473,-.019696,0.0,-.02,0.0*
1,1,.005,0.0,-.02*
20,1,.005,0.0,-.02,-.003473,-.019696,0.0*
1,1,.005,-.003473,-.019696*
20,1,.005,-.003473,-.019696,-.00684,-.018794,0.0*
1,1,.005,-.00684,-.018794*
20,1,.005,-.00684,-.018794,-.01,-.017321,0.0*
1,1,.005,-.01,-.017321*
20,1,.005,-.01,-.017321,-.012856,-.015321,0.0*
1,1,.005,-.012856,-.015321*
20,1,.005,-.012856,-.015321,-.015321,-.012856,0.0*
1,1,.005,-.015321,-.012856*
20,1,.005,-.015321,-.012856,-.017321,-.01,0.0*
1,1,.005,-.017321,-.01*
20,1,.005,-.017321,-.01,-.018794,-.00684,0.0*
1,1,.005,-.018794,-.00684*
20,1,.005,-.018794,-.00684,-.019696,-.003473,0.0*
1,1,.005,-.019696,-.003473*
20,1,.005,-.019696,-.003473,-.02,0.0,0.0*
1,1,.005,-.02,0.0*
20,1,.005,-.02,0.0,-.019696,.003473,0.0*
1,1,.005,-.019696,.003473*
20,1,.005,-.019696,.003473,-.018794,.00684,0.0*
1,1,.005,-.018794,.00684*
20,1,.005,-.018794,.00684,-.017321,.01,0.0*
1,1,.005,-.017321,.01*
20,1,.005,-.017321,.01,-.015321,.012856,0.0*
1,1,.005,-.015321,.012856*
20,1,.005,-.015321,.012856,-.012856,.015321,0.0*
1,1,.005,-.012856,.015321*
20,1,.005,-.012856,.015321,-.01,.017321,0.0*
1,1,.005,-.01,.017321*
20,1,.005,-.01,.017321,-.00684,.018794,0.0*
1,1,.005,-.00684,.018794*
20,1,.005,-.00684,.018794,-.003473,.019696,0.0*
1,1,.005,-.003473,.019696*
20,1,.005,-.003473,.019696,0.0,.02,0.0*
1,1,.005,0.0,.02*
20,1,.005,0.0,.02,.003473,.019696,0.0*
1,1,.005,.003473,.019696*
20,1,.005,.003473,.019696,.00684,.018794,0.0*
1,1,.005,.00684,.018794*
20,1,.005,.00684,.018794,.01,.017321,0.0*
1,1,.005,.01,.017321*
20,1,.005,.01,.017321,.012856,.015321,0.0*
1,1,.005,.012856,.015321*
20,1,.005,.012856,.015321,.015321,.012856,0.0*
1,1,.005,.015321,.012856*
20,1,.005,.015321,.012856,.017321,.01,0.0*
1,1,.005,.017321,.01*
20,1,.005,.017321,.01,.018794,.00684,0.0*
1,1,.005,.018794,.00684*
20,1,.005,.018794,.00684,.019696,.003473,0.0*
1,1,.005,.019696,.003473*
20,1,.005,.019696,.003473,.02,0.0,0.0*
1,1,.005,.02,0.0*
1,1,.005,.01,0.0*
20,1,.005,.01,0.0,-.01,0.0,0.0*
1,1,.005,-.01,0.0*
1,1,.005,0.0,.01*
20,1,.005,0.0,.01,0.0,-.01,0.0*
1,1,.005,0.0,-.01*
%
%ADD10MACRO10*%
%AMMACRO22*
1,1,.005,.0225,.0125*
20,1,.005,.0225,.0125,.0225,-.0125,0.0*
1,1,.005,.0225,-.0125*
20,1,.005,.0225,-.0125,-.0225,-.0125,0.0*
1,1,.005,-.0225,-.0125*
20,1,.005,-.0225,-.0125,-.0225,.0125,0.0*
1,1,.005,-.0225,.0125*
20,1,.005,-.0225,.0125,.0225,.0125,0.0*
1,1,.005,.0225,.0125*
%
%ADD22MACRO22*%
%AMMACRO19*
1,1,.005,.025,0.0*
20,1,.005,.025,0.0,.02462,-.004341,0.0*
1,1,.005,.02462,-.004341*
20,1,.005,.02462,-.004341,.023492,-.008551,0.0*
1,1,.005,.023492,-.008551*
20,1,.005,.023492,-.008551,.021651,-.0125,0.0*
1,1,.005,.021651,-.0125*
20,1,.005,.021651,-.0125,.019151,-.01607,0.0*
1,1,.005,.019151,-.01607*
20,1,.005,.019151,-.01607,.01607,-.019151,0.0*
1,1,.005,.01607,-.019151*
20,1,.005,.01607,-.019151,.0125,-.021651,0.0*
1,1,.005,.0125,-.021651*
20,1,.005,.0125,-.021651,.008551,-.023492,0.0*
1,1,.005,.008551,-.023492*
20,1,.005,.008551,-.023492,.004341,-.02462,0.0*
1,1,.005,.004341,-.02462*
20,1,.005,.004341,-.02462,0.0,-.025,0.0*
1,1,.005,0.0,-.025*
20,1,.005,0.0,-.025,-.004341,-.02462,0.0*
1,1,.005,-.004341,-.02462*
20,1,.005,-.004341,-.02462,-.008551,-.023492,0.0*
1,1,.005,-.008551,-.023492*
20,1,.005,-.008551,-.023492,-.0125,-.021651,0.0*
1,1,.005,-.0125,-.021651*
20,1,.005,-.0125,-.021651,-.01607,-.019151,0.0*
1,1,.005,-.01607,-.019151*
20,1,.005,-.01607,-.019151,-.019151,-.01607,0.0*
1,1,.005,-.019151,-.01607*
20,1,.005,-.019151,-.01607,-.021651,-.0125,0.0*
1,1,.005,-.021651,-.0125*
20,1,.005,-.021651,-.0125,-.023492,-.008551,0.0*
1,1,.005,-.023492,-.008551*
20,1,.005,-.023492,-.008551,-.02462,-.004341,0.0*
1,1,.005,-.02462,-.004341*
20,1,.005,-.02462,-.004341,-.025,0.0,0.0*
1,1,.005,-.025,0.0*
20,1,.005,-.025,0.0,-.02462,.004341,0.0*
1,1,.005,-.02462,.004341*
20,1,.005,-.02462,.004341,-.023492,.008551,0.0*
1,1,.005,-.023492,.008551*
20,1,.005,-.023492,.008551,-.021651,.0125,0.0*
1,1,.005,-.021651,.0125*
20,1,.005,-.021651,.0125,-.019151,.01607,0.0*
1,1,.005,-.019151,.01607*
20,1,.005,-.019151,.01607,-.01607,.019151,0.0*
1,1,.005,-.01607,.019151*
20,1,.005,-.01607,.019151,-.0125,.021651,0.0*
1,1,.005,-.0125,.021651*
20,1,.005,-.0125,.021651,-.008551,.023492,0.0*
1,1,.005,-.008551,.023492*
20,1,.005,-.008551,.023492,-.004341,.02462,0.0*
1,1,.005,-.004341,.02462*
20,1,.005,-.004341,.02462,0.0,.025,0.0*
1,1,.005,0.0,.025*
20,1,.005,0.0,.025,.004341,.02462,0.0*
1,1,.005,.004341,.02462*
20,1,.005,.004341,.02462,.008551,.023492,0.0*
1,1,.005,.008551,.023492*
20,1,.005,.008551,.023492,.0125,.021651,0.0*
1,1,.005,.0125,.021651*
20,1,.005,.0125,.021651,.01607,.019151,0.0*
1,1,.005,.01607,.019151*
20,1,.005,.01607,.019151,.019151,.01607,0.0*
1,1,.005,.019151,.01607*
20,1,.005,.019151,.01607,.021651,.0125,0.0*
1,1,.005,.021651,.0125*
20,1,.005,.021651,.0125,.023492,.008551,0.0*
1,1,.005,.023492,.008551*
20,1,.005,.023492,.008551,.02462,.004341,0.0*
1,1,.005,.02462,.004341*
20,1,.005,.02462,.004341,.025,0.0,0.0*
1,1,.005,.025,0.0*
1,1,.005,.0125,0.0*
20,1,.005,.0125,0.0,-.0125,0.0,0.0*
1,1,.005,-.0125,0.0*
1,1,.005,0.0,.0125*
20,1,.005,0.0,.0125,0.0,-.0125,0.0*
1,1,.005,0.0,-.0125*
%
%ADD19MACRO19*%
%AMMACRO18*
1,1,.005,.011811,.031496*
20,1,.005,.011811,.031496,.011811,-.031496,0.0*
1,1,.005,.011811,-.031496*
20,1,.005,.011811,-.031496,-.011811,-.031496,0.0*
1,1,.005,-.011811,-.031496*
20,1,.005,-.011811,-.031496,-.011811,.031496,0.0*
1,1,.005,-.011811,.031496*
20,1,.005,-.011811,.031496,.011811,.031496,0.0*
1,1,.005,.011811,.031496*
%
%ADD18MACRO18*%
%AMMACRO17*
1,1,.005,.011811,.041339*
20,1,.005,.011811,.041339,.011811,-.041339,0.0*
1,1,.005,.011811,-.041339*
20,1,.005,.011811,-.041339,-.011811,-.041339,0.0*
1,1,.005,-.011811,-.041339*
20,1,.005,-.011811,-.041339,-.011811,.041339,0.0*
1,1,.005,-.011811,.041339*
20,1,.005,-.011811,.041339,.011811,.041339,0.0*
1,1,.005,.011811,.041339*
%
%ADD17MACRO17*%
%AMMACRO23*
1,1,.005,-.015417,-.0185*
20,1,.005,-.015417,-.0185,-.000001,.0185,0.0*
1,1,.005,-.000001,.0185*
20,1,.005,-.000001,.0185,.015417,-.0185,0.0*
1,1,.005,.015417,-.0185*
1,1,.005,.009866,-.005551*
20,1,.005,.009866,-.005551,-.009867,-.005551,0.0*
1,1,.005,-.009867,-.005551*
%
%ADD23MACRO23*%
%AMMACRO13*
1,1,.005,0.0,.012*
20,1,.005,0.0,.012,-.010392,.006,0.0*
1,1,.005,-.010392,.006*
20,1,.005,-.010392,.006,-.010392,-.006,0.0*
1,1,.005,-.010392,-.006*
20,1,.005,-.010392,-.006,0.0,-.012,0.0*
1,1,.005,0.0,-.012*
20,1,.005,0.0,-.012,.010392,-.006,0.0*
1,1,.005,.010392,-.006*
20,1,.005,.010392,-.006,.010392,.006,0.0*
1,1,.005,.010392,.006*
20,1,.005,.010392,.006,0.0,.012,0.0*
1,1,.005,0.0,.012*
%
%ADD13MACRO13*%
%AMMACRO14*
1,1,.005,.008,0.0*
20,1,.005,.008,0.0,.004,.006928,0.0*
1,1,.005,.004,.006928*
20,1,.005,.004,.006928,-.004,.006928,0.0*
1,1,.005,-.004,.006928*
20,1,.005,-.004,.006928,-.008,0.0,0.0*
1,1,.005,-.008,0.0*
20,1,.005,-.008,0.0,-.004,-.006928,0.0*
1,1,.005,-.004,-.006928*
20,1,.005,-.004,-.006928,.004,-.006928,0.0*
1,1,.005,.004,-.006928*
20,1,.005,.004,-.006928,.008,0.0,0.0*
1,1,.005,.008,0.0*
%
%ADD14MACRO14*%
%AMMACRO29*
1,1,.005,0.0,.03*
20,1,.005,0.0,.03,.03,-.03,0.0*
1,1,.005,.03,-.03*
20,1,.005,.03,-.03,-.03,-.03,0.0*
1,1,.005,-.03,-.03*
20,1,.005,-.03,-.03,0.0,.03,0.0*
1,1,.005,0.0,.03*
%
%ADD29MACRO29*%
%AMMACRO21*
1,1,.005,.05,0.0*
20,1,.005,.05,0.0,-.05,0.0,0.0*
1,1,.005,-.05,0.0*
1,1,.005,0.0,.05*
20,1,.005,0.0,.05,0.0,-.05,0.0*
1,1,.005,0.0,-.05*
1,1,.005,.011666,-.0125*
20,1,.005,.011666,-.0125,.017499,-.015833,0.0*
1,1,.005,.017499,-.015833*
20,1,.005,.017499,-.015833,.0225,-.016666,0.0*
1,1,.005,.0225,-.016666*
20,1,.005,.0225,-.016666,.029167,-.015,0.0*
1,1,.005,.029167,-.015*
20,1,.005,.029167,-.015,.034167,-.010834,0.0*
1,1,.005,.034167,-.010834*
20,1,.005,.034167,-.010834,.036666,-.003333,0.0*
1,1,.005,.036666,-.003333*
20,1,.005,.036666,-.003333,.036666,.033332,0.0*
1,1,.005,.036666,.033332*
1,1,.005,.036666,.046666*
20,1,.005,.036666,.046666,.035,.047499,0.0*
1,1,.005,.035,.047499*
20,1,.005,.035,.047499,.035,.049167,0.0*
1,1,.005,.035,.049167*
20,1,.005,.035,.049167,.036666,.05,0.0*
1,1,.005,.036666,.05*
20,1,.005,.036666,.05,.038333,.049167,0.0*
1,1,.005,.038333,.049167*
20,1,.005,.038333,.049167,.038333,.047499,0.0*
1,1,.005,.038333,.047499*
20,1,.005,.038333,.047499,.036666,.046666,0.0*
1,1,.005,.036666,.046666*
%
%ADD21MACRO21*%
%AMMACRO25*
1,1,.005,.05,0.0*
20,1,.005,.05,0.0,-.05,0.0,0.0*
1,1,.005,-.05,0.0*
1,1,.005,0.0,.05*
20,1,.005,0.0,.05,0.0,-.05,0.0*
1,1,.005,0.0,-.05*
1,1,.005,0.0,0.0*
20,1,.005,0.0,0.0,0.0,.033332,0.0*
1,1,.005,0.0,.033332*
1,1,.005,0.0,.024166*
20,1,.005,0.0,.024166,.002499,.028333,0.0*
1,1,.005,.002499,.028333*
20,1,.005,.002499,.028333,.006667,.031666,0.0*
1,1,.005,.006667,.031666*
20,1,.005,.006667,.031666,.0125,.033332,0.0*
1,1,.005,.0125,.033332*
20,1,.005,.0125,.033332,.018332,.031666,0.0*
1,1,.005,.018332,.031666*
20,1,.005,.018332,.031666,.0225,.028333,0.0*
1,1,.005,.0225,.028333*
20,1,.005,.0225,.028333,.024999,.024166,0.0*
1,1,.005,.024999,.024166*
20,1,.005,.024999,.024166,.024999,0.0,0.0*
1,1,.005,.024999,0.0*
1,1,.005,.024999,.024166*
20,1,.005,.024999,.024166,.0275,.028333,0.0*
1,1,.005,.0275,.028333*
20,1,.005,.0275,.028333,.031666,.031666,0.0*
1,1,.005,.031666,.031666*
20,1,.005,.031666,.031666,.0375,.033332,0.0*
1,1,.005,.0375,.033332*
20,1,.005,.0375,.033332,.043333,.031666,0.0*
1,1,.005,.043333,.031666*
20,1,.005,.043333,.031666,.047501,.028333,0.0*
1,1,.005,.047501,.028333*
20,1,.005,.047501,.028333,.05,.023333,0.0*
1,1,.005,.05,.023333*
20,1,.005,.05,.023333,.05,0.0,0.0*
1,1,.005,.05,0.0*
%
%ADD25MACRO25*%
%AMMACRO24*
1,1,.005,.05,0.0*
20,1,.005,.05,0.0,-.05,0.0,0.0*
1,1,.005,-.05,0.0*
1,1,.005,0.0,.05*
20,1,.005,0.0,.05,0.0,-.05,0.0*
1,1,.005,0.0,-.05*
1,1,.005,.010833,0.0*
20,1,.005,.010833,0.0,.010833,.033332,0.0*
1,1,.005,.010833,.033332*
1,1,.005,.010833,.024999*
20,1,.005,.010833,.024999,.014167,.029167,0.0*
1,1,.005,.014167,.029167*
20,1,.005,.014167,.029167,.019167,.032499,0.0*
1,1,.005,.019167,.032499*
20,1,.005,.019167,.032499,.025834,.033332,0.0*
1,1,.005,.025834,.033332*
20,1,.005,.025834,.033332,.031666,.032499,0.0*
1,1,.005,.031666,.032499*
20,1,.005,.031666,.032499,.036666,.029167,0.0*
1,1,.005,.036666,.029167*
20,1,.005,.036666,.029167,.039167,.023333,0.0*
1,1,.005,.039167,.023333*
20,1,.005,.039167,.023333,.039167,0.0,0.0*
1,1,.005,.039167,0.0*
%
%ADD24MACRO24*%
%AMMACRO28*
1,1,.005,.05,.05*
20,1,.005,.05,.05,.05,-.05,0.0*
1,1,.005,.05,-.05*
20,1,.005,.05,-.05,-.05,-.05,0.0*
1,1,.005,-.05,-.05*
20,1,.005,-.05,-.05,-.05,.05,0.0*
1,1,.005,-.05,.05*
20,1,.005,-.05,.05,.05,.05,0.0*
1,1,.005,.05,.05*
1,1,.005,-.011666,-.025*
20,1,.005,-.011666,-.025,-.011666,.008332,0.0*
1,1,.005,-.011666,.008332*
1,1,.005,-.011666,.001667*
20,1,.005,-.011666,.001667,-.007501,.005,0.0*
1,1,.005,-.007501,.005*
20,1,.005,-.007501,.005,-.003333,.007499,0.0*
1,1,.005,-.003333,.007499*
20,1,.005,-.003333,.007499,.0025,.008332,0.0*
1,1,.005,.0025,.008332*
20,1,.005,.0025,.008332,.006666,.007499,0.0*
1,1,.005,.006666,.007499*
20,1,.005,.006666,.007499,.011666,.005,0.0*
1,1,.005,.011666,.005*
%
%ADD28MACRO28*%
%AMMACRO20*
1,1,.005,0.0,.017715*
20,1,.005,0.0,.017715,-.015342,.008858,0.0*
1,1,.005,-.015342,.008858*
20,1,.005,-.015342,.008858,-.015342,-.008857,0.0*
1,1,.005,-.015342,-.008857*
20,1,.005,-.015342,-.008857,0.0,-.017715,0.0*
1,1,.005,0.0,-.017715*
20,1,.005,0.0,-.017715,.015342,-.008858,0.0*
1,1,.005,.015342,-.008858*
20,1,.005,.015342,-.008858,.015342,.008857,0.0*
1,1,.005,.015342,.008857*
20,1,.005,.015342,.008857,0.0,.017715,0.0*
1,1,.005,0.0,.017715*
%
%ADD20MACRO20*%
%AMMACRO16*
1,1,.005,.035451,0.0*
20,1,.005,.035451,0.0,-.035451,0.0,0.0*
1,1,.005,-.035451,0.0*
1,1,.005,0.0,.035451*
20,1,.005,0.0,.035451,0.0,-.035451,0.0*
1,1,.005,0.0,-.035451*
1,1,.005,.005908,0.0*
20,1,.005,.005908,0.0,.005908,.035451,0.0*
1,1,.005,.005908,.035451*
20,1,.005,.005908,.035451,.020089,.035451,0.0*
1,1,.005,.020089,.035451*
20,1,.005,.020089,.035451,.024816,.033678,0.0*
1,1,.005,.024816,.033678*
20,1,.005,.024816,.033678,.028361,.029543,0.0*
1,1,.005,.028361,.029543*
20,1,.005,.028361,.029543,.029543,.024816,0.0*
1,1,.005,.029543,.024816*
20,1,.005,.029543,.024816,.028361,.020089,0.0*
1,1,.005,.028361,.020089*
20,1,.005,.028361,.020089,.025407,.016544,0.0*
1,1,.005,.025407,.016544*
20,1,.005,.025407,.016544,.020089,.01477,0.0*
1,1,.005,.020089,.01477*
20,1,.005,.020089,.01477,.005908,.01477,0.0*
1,1,.005,.005908,.01477*
%
%ADD16MACRO16*%
%AMMACRO26*
1,1,.005,.025,.025*
20,1,.005,.025,.025,.025,-.025,0.0*
1,1,.005,.025,-.025*
20,1,.005,.025,-.025,-.025,-.025,0.0*
1,1,.005,-.025,-.025*
20,1,.005,-.025,-.025,-.025,.025,0.0*
1,1,.005,-.025,.025*
20,1,.005,-.025,.025,.025,.025,0.0*
1,1,.005,.025,.025*
1,1,.005,-.006667,-.01875*
20,1,.005,-.006667,-.01875,-.00375,-.020417,0.0*
1,1,.005,-.00375,-.020417*
20,1,.005,-.00375,-.020417,-.00125,-.020833,0.0*
1,1,.005,-.00125,-.020833*
20,1,.005,-.00125,-.020833,.002083,-.02,0.0*
1,1,.005,.002083,-.02*
20,1,.005,.002083,-.02,.004583,-.017917,0.0*
1,1,.005,.004583,-.017917*
20,1,.005,.004583,-.017917,.005833,-.014166,0.0*
1,1,.005,.005833,-.014166*
20,1,.005,.005833,-.014166,.005833,.004166,0.0*
1,1,.005,.005833,.004166*
1,1,.005,.005833,.010833*
20,1,.005,.005833,.010833,.005,.01125,0.0*
1,1,.005,.005,.01125*
20,1,.005,.005,.01125,.005,.012083,0.0*
1,1,.005,.005,.012083*
20,1,.005,.005,.012083,.005833,.0125,0.0*
1,1,.005,.005833,.0125*
20,1,.005,.005833,.0125,.006666,.012083,0.0*
1,1,.005,.006666,.012083*
20,1,.005,.006666,.012083,.006666,.01125,0.0*
1,1,.005,.006666,.01125*
20,1,.005,.006666,.01125,.005833,.010833,0.0*
1,1,.005,.005833,.010833*
%
%ADD26MACRO26*%
%AMMACRO27*
1,1,.005,0.0,.01*
20,1,.005,0.0,.01,.001736,.009848,0.0*
1,1,.005,.001736,.009848*
20,1,.005,.001736,.009848,.00342,.009397,0.0*
1,1,.005,.00342,.009397*
20,1,.005,.00342,.009397,.005,.00866,0.0*
1,1,.005,.005,.00866*
20,1,.005,.005,.00866,.006428,.00766,0.0*
1,1,.005,.006428,.00766*
20,1,.005,.006428,.00766,.00766,.006428,0.0*
1,1,.005,.00766,.006428*
20,1,.005,.00766,.006428,.00866,.005,0.0*
1,1,.005,.00866,.005*
20,1,.005,.00866,.005,.009397,.00342,0.0*
1,1,.005,.009397,.00342*
20,1,.005,.009397,.00342,.009848,.001736,0.0*
1,1,.005,.009848,.001736*
20,1,.005,.009848,.001736,.01,0.0,0.0*
1,1,.005,.01,0.0*
20,1,.005,.01,0.0,.009848,-.001736,0.0*
1,1,.005,.009848,-.001736*
20,1,.005,.009848,-.001736,.009397,-.00342,0.0*
1,1,.005,.009397,-.00342*
20,1,.005,.009397,-.00342,.00866,-.005,0.0*
1,1,.005,.00866,-.005*
20,1,.005,.00866,-.005,.00766,-.006428,0.0*
1,1,.005,.00766,-.006428*
20,1,.005,.00766,-.006428,.006428,-.00766,0.0*
1,1,.005,.006428,-.00766*
20,1,.005,.006428,-.00766,.005,-.00866,0.0*
1,1,.005,.005,-.00866*
20,1,.005,.005,-.00866,.00342,-.009397,0.0*
1,1,.005,.00342,-.009397*
20,1,.005,.00342,-.009397,.001736,-.009848,0.0*
1,1,.005,.001736,-.009848*
20,1,.005,.001736,-.009848,0.0,-.01,0.0*
1,1,.005,0.0,-.01*
20,1,.005,0.0,-.01,-.001736,-.009848,0.0*
1,1,.005,-.001736,-.009848*
20,1,.005,-.001736,-.009848,-.00342,-.009397,0.0*
1,1,.005,-.00342,-.009397*
20,1,.005,-.00342,-.009397,-.005,-.00866,0.0*
1,1,.005,-.005,-.00866*
20,1,.005,-.005,-.00866,-.006428,-.00766,0.0*
1,1,.005,-.006428,-.00766*
20,1,.005,-.006428,-.00766,-.00766,-.006428,0.0*
1,1,.005,-.00766,-.006428*
20,1,.005,-.00766,-.006428,-.00866,-.005,0.0*
1,1,.005,-.00866,-.005*
20,1,.005,-.00866,-.005,-.009397,-.00342,0.0*
1,1,.005,-.009397,-.00342*
20,1,.005,-.009397,-.00342,-.009848,-.001736,0.0*
1,1,.005,-.009848,-.001736*
20,1,.005,-.009848,-.001736,-.01,0.0,0.0*
1,1,.005,-.01,0.0*
20,1,.005,-.01,0.0,-.009848,.001736,0.0*
1,1,.005,-.009848,.001736*
20,1,.005,-.009848,.001736,-.009397,.00342,0.0*
1,1,.005,-.009397,.00342*
20,1,.005,-.009397,.00342,-.00866,.005,0.0*
1,1,.005,-.00866,.005*
20,1,.005,-.00866,.005,-.00766,.006428,0.0*
1,1,.005,-.00766,.006428*
20,1,.005,-.00766,.006428,-.006428,.00766,0.0*
1,1,.005,-.006428,.00766*
20,1,.005,-.006428,.00766,-.005,.00866,0.0*
1,1,.005,-.005,.00866*
20,1,.005,-.005,.00866,-.00342,.009397,0.0*
1,1,.005,-.00342,.009397*
20,1,.005,-.00342,.009397,-.001736,.009848,0.0*
1,1,.005,-.001736,.009848*
20,1,.005,-.001736,.009848,0.0,.01,0.0*
1,1,.005,0.0,.01*
1,1,.005,.001,0.0*
20,1,.005,.001,0.0,.004333,0.0,0.0*
1,1,.005,.004333,0.0*
20,1,.005,.004333,0.0,.004333,-.003,0.0*
1,1,.005,.004333,-.003*
20,1,.005,.004333,-.003,.003333,-.004,0.0*
1,1,.005,.003333,-.004*
20,1,.005,.003333,-.004,.002167,-.004667,0.0*
1,1,.005,.002167,-.004667*
20,1,.005,.002167,-.004667,.0005,-.005,0.0*
1,1,.005,.0005,-.005*
20,1,.005,.0005,-.005,-.001167,-.004667,0.0*
1,1,.005,-.001167,-.004667*
20,1,.005,-.001167,-.004667,-.002333,-.004,0.0*
1,1,.005,-.002333,-.004*
20,1,.005,-.002333,-.004,-.003333,-.003,0.0*
1,1,.005,-.003333,-.003*
20,1,.005,-.003333,-.003,-.004,-.001833,0.0*
1,1,.005,-.004,-.001833*
20,1,.005,-.004,-.001833,-.004333,-.0005,0.0*
1,1,.005,-.004333,-.0005*
20,1,.005,-.004333,-.0005,-.004333,.000667,0.0*
1,1,.005,-.004333,.000667*
20,1,.005,-.004333,.000667,-.004,.001666,0.0*
1,1,.005,-.004,.001666*
20,1,.005,-.004,.001666,-.003333,.002833,0.0*
1,1,.005,-.003333,.002833*
20,1,.005,-.003333,.002833,-.002333,.003833,0.0*
1,1,.005,-.002333,.003833*
20,1,.005,-.002333,.003833,-.001334,.0045,0.0*
1,1,.005,-.001334,.0045*
20,1,.005,-.001334,.0045,0.0,.005,0.0*
1,1,.005,0.0,.005*
20,1,.005,0.0,.005,.001167,.005,0.0*
1,1,.005,.001167,.005*
20,1,.005,.001167,.005,.0025,.004667,0.0*
1,1,.005,.0025,.004667*
20,1,.005,.0025,.004667,.0035,.004,0.0*
1,1,.005,.0035,.004*
%
%ADD27MACRO27*%
%AMMACRO12*
1,1,.005,.025,0.0*
20,1,.005,.025,0.0,-.025,0.0,0.0*
1,1,.005,-.025,0.0*
1,1,.005,0.0,.025*
20,1,.005,0.0,.025,0.0,-.025,0.0*
1,1,.005,0.0,-.025*
1,1,.005,.006667,0.0*
20,1,.005,.006667,0.0,.006667,.016666,0.0*
1,1,.005,.006667,.016666*
1,1,.005,.006667,.013334*
20,1,.005,.006667,.013334,.00875,.015,0.0*
1,1,.005,.00875,.015*
20,1,.005,.00875,.015,.010833,.01625,0.0*
1,1,.005,.010833,.01625*
20,1,.005,.010833,.01625,.01375,.016666,0.0*
1,1,.005,.01375,.016666*
20,1,.005,.01375,.016666,.015833,.01625,0.0*
1,1,.005,.015833,.01625*
20,1,.005,.015833,.01625,.018333,.015,0.0*
1,1,.005,.018333,.015*
%
%ADD12MACRO12*%
%ADD30C,.003*%
%ADD31C,.008*%
%ADD32C,.005*%
G75*
%LPD*%
G75*
G54D10*
X6700Y159100D03*
X6100Y170000D03*
X6600Y178300D03*
X6500Y184900D03*
X4400Y191400D03*
X4500Y195300D03*
Y198600D03*
X6600Y228400D03*
Y234200D03*
X7000Y248000D03*
X7600Y250800D03*
X4200Y250600D03*
X5900Y244600D03*
X6700Y237500D03*
X6900Y256000D03*
X6300Y261600D03*
X4100Y292900D03*
X3700Y283300D03*
X4100Y295400D03*
X4900Y298000D03*
X6400Y346700D03*
X7300Y351900D03*
X28600Y44600D03*
X16000Y61900D03*
X16300Y58400D03*
X16400Y53900D03*
X16600Y49500D03*
X22300Y50100D03*
X27000Y49800D03*
X26600Y83400D03*
X19300Y82900D03*
Y88200D03*
X27400Y88400D03*
X25300Y108000D03*
X27500Y92700D03*
X19000Y92500D03*
X9300Y128500D03*
X27000Y128700D03*
X25500Y118000D03*
X9100Y140700D03*
X27300Y140100D03*
X27700Y158000D03*
Y163200D03*
X27900Y169300D03*
X19600Y190200D03*
X11500Y190400D03*
X20800Y209200D03*
X24500Y209500D03*
X18300Y199000D03*
X21200Y203700D03*
X20900Y223500D03*
X24300D03*
X17000Y232100D03*
X11300Y231200D03*
X11100Y250900D03*
X16900Y237000D03*
X13300Y255800D03*
X22600Y256100D03*
X17400Y251400D03*
X17600Y246400D03*
Y255400D03*
X20400Y240800D03*
X20600Y245200D03*
X27700Y272600D03*
X19600Y270300D03*
X13500Y261500D03*
X20400D03*
X20300Y264400D03*
Y258700D03*
X22800Y288000D03*
X22600Y283000D03*
X27500Y286000D03*
X17400Y293300D03*
Y296300D03*
X14500D03*
X23500Y301300D03*
X27600Y305400D03*
X23700Y308500D03*
X13900Y306400D03*
X15900Y319700D03*
X12900Y319800D03*
X8800Y319500D03*
X16100Y323400D03*
X12800D03*
X8700Y323300D03*
X16000Y326400D03*
X12600D03*
X8700D03*
X13000Y346300D03*
X23400Y352600D03*
X14000Y352100D03*
X45200Y11500D03*
X28900Y38000D03*
X43400Y37700D03*
X43700Y44100D03*
X36700Y37900D03*
X44500Y29800D03*
X42800Y49000D03*
X47300D03*
X46300Y60700D03*
X46600Y69900D03*
X36500Y58000D03*
X39900Y55400D03*
X42200Y52400D03*
X35300Y88200D03*
X49400Y78800D03*
X37700Y108100D03*
X34800Y92800D03*
X37400Y128700D03*
X48800D03*
X44500Y142400D03*
Y149700D03*
X41500Y144600D03*
X41400Y139400D03*
X36900D03*
X48800Y132900D03*
X48600Y138300D03*
X43200Y169100D03*
X35500Y169200D03*
X36500Y160500D03*
X41900Y159100D03*
X36500Y158100D03*
X42000Y155300D03*
X47100Y162600D03*
X36300Y155200D03*
X41900Y162800D03*
X36600Y162900D03*
X41100Y184800D03*
X39500Y175300D03*
X34800Y175500D03*
X33100Y186100D03*
X44200Y184800D03*
X44300Y182000D03*
X44400Y176600D03*
X47600Y189000D03*
X33900Y202500D03*
X42200Y196300D03*
X42000Y202200D03*
X39100D03*
X37700Y228200D03*
X34800Y228900D03*
X34700Y232400D03*
X38800Y238100D03*
X35400Y238200D03*
X34100Y272900D03*
X45100Y286000D03*
X35300Y292500D03*
X37900Y292400D03*
X38000Y294500D03*
X30100Y292000D03*
X29400Y348200D03*
X40100Y347300D03*
X36000Y352700D03*
X68600Y20200D03*
X50400D03*
X58900D03*
X50200Y28700D03*
X65200Y43200D03*
X51400Y49000D03*
X65200Y56700D03*
X50900Y60600D03*
X53800Y52900D03*
X65300Y77000D03*
X56200Y87900D03*
X66400Y89000D03*
X53100Y70600D03*
X50400Y70500D03*
X56200Y94900D03*
X68700Y111300D03*
X57800Y105000D03*
X55000D03*
X54900Y102100D03*
X58200Y102200D03*
X69000Y119000D03*
X64276Y127276D03*
X54100Y128700D03*
X63700Y147400D03*
X52800Y147200D03*
X54000Y133100D03*
X53500Y138400D03*
X67400Y190200D03*
X68600Y182800D03*
X68300Y193800D03*
X49800Y173900D03*
X49900Y179500D03*
X61400Y184800D03*
X51500Y184500D03*
X60800Y188800D03*
X51500Y188600D03*
X60100Y193500D03*
X51500D03*
X69100Y234600D03*
X56100Y221300D03*
X67300Y256000D03*
X65400Y241700D03*
X69100Y237400D03*
X60100Y256000D03*
X56400Y255900D03*
Y243900D03*
X59700D03*
X69200Y240400D03*
X67000Y261500D03*
X66700Y266400D03*
X55700Y274000D03*
X60000Y260700D03*
X56200D03*
X55000Y286200D03*
X57000Y314500D03*
X64400Y317200D03*
X55700Y300300D03*
X55600Y304200D03*
X64100Y321900D03*
X63900Y331900D03*
X64100Y327500D03*
X54100Y355500D03*
X60100Y349000D03*
X62800Y361300D03*
X61000Y364500D03*
X60400Y377800D03*
X68400Y361100D03*
X60800Y370800D03*
X55900Y394100D03*
X83400Y13500D03*
X73100Y43300D03*
X84800Y47700D03*
X83400Y29000D03*
X72300Y56700D03*
Y49800D03*
X72000Y63300D03*
X79300Y70200D03*
X71300Y77000D03*
X83400Y70200D03*
X79000Y82400D03*
Y89100D03*
X83500Y77100D03*
X78000Y93300D03*
X74600Y111000D03*
X85900Y100800D03*
X81600Y100900D03*
X86200Y104500D03*
X81800D03*
X72700Y115600D03*
X75700Y143700D03*
X75600Y148500D03*
X87500Y144200D03*
X83000Y144100D03*
X87500Y147400D03*
X82900D03*
X80700Y161800D03*
X75200Y161600D03*
X80500Y166500D03*
X75300D03*
X85300Y184400D03*
Y191900D03*
X72100Y178300D03*
X82500Y205800D03*
X86500Y200400D03*
X86100Y213200D03*
X84200Y232000D03*
X82900Y219500D03*
X74300Y223100D03*
X78900Y226100D03*
X74400Y226200D03*
X82300Y235800D03*
X84100Y239500D03*
X87200Y235600D03*
X72400Y261400D03*
X72300Y266400D03*
X71400Y299700D03*
X72200Y304000D03*
X71700Y355600D03*
X84500Y366000D03*
X87000Y377100D03*
X77000Y377000D03*
X78700Y393700D03*
X82900Y388200D03*
X89400Y388500D03*
Y381600D03*
X82900Y381300D03*
X97100Y12500D03*
X96200Y29500D03*
X110500Y51100D03*
X110100Y61500D03*
X104400Y61600D03*
X110700Y55800D03*
X90800Y82800D03*
X91100Y87100D03*
X100800Y83700D03*
X100900Y87700D03*
X103000Y114500D03*
X102800Y121800D03*
X110700Y114600D03*
X92500Y144400D03*
X95500Y196700D03*
X94500Y214800D03*
X94700Y224100D03*
X98600Y226800D03*
X96300D03*
X97000Y348300D03*
X104500Y365900D03*
X94700Y366200D03*
X107000Y377100D03*
X97000D03*
X104400Y388500D03*
X96700D03*
X104400Y381600D03*
X96700D03*
X115600Y61500D03*
X117000Y56000D03*
X117100Y52100D03*
X122100Y85900D03*
X130000Y79800D03*
X121900Y71000D03*
X115600Y149500D03*
X124800Y140900D03*
X117900Y171600D03*
X125700Y165200D03*
X121100Y173900D03*
X121400Y179900D03*
X121300Y186800D03*
X121000Y195100D03*
X123600Y301400D03*
X122700Y314400D03*
X118600Y301300D03*
X114600Y365800D03*
X124600Y365500D03*
X127000Y377100D03*
X117000D03*
X114800Y389200D03*
X124500Y389300D03*
Y382400D03*
X114800Y382300D03*
X145400Y19400D03*
X152500Y52400D03*
X146100Y52300D03*
X135100Y103300D03*
X149800Y105300D03*
X146500D03*
X132700Y105200D03*
X146600Y115400D03*
X141900Y115200D03*
X135550Y115450D03*
X134200Y304900D03*
X135500Y299500D03*
X150200Y314700D03*
X145300Y307100D03*
X147100Y350600D03*
X134900Y365800D03*
X144600Y365900D03*
X147000Y377200D03*
X137000Y376900D03*
X132500Y389600D03*
X141000Y389700D03*
X149400D03*
Y382800D03*
X141000D03*
X132500Y382700D03*
X169700Y19000D03*
X165200Y12800D03*
X157500Y29500D03*
X171700Y29800D03*
X171800Y35700D03*
X165500Y67100D03*
X167100Y65600D03*
X173200Y65000D03*
X170100Y64800D03*
X161800Y65400D03*
X157400Y74300D03*
X160700Y76000D03*
X159500Y84100D03*
X159600Y93500D03*
X159400Y101400D03*
X153800Y310200D03*
X162000Y347200D03*
X164700Y365700D03*
X154600Y365600D03*
X157000Y376800D03*
X167000Y377200D03*
X166200Y389700D03*
X157800D03*
X166200Y382800D03*
X157800D03*
X180000Y49200D03*
X176100Y64900D03*
X176600Y71300D03*
X187700Y80200D03*
X187900Y84700D03*
X188000Y88200D03*
X184300Y105300D03*
X183191Y100400D03*
X187000Y350400D03*
X182000Y347300D03*
X174400Y365700D03*
X184800Y365800D03*
X187000Y377000D03*
X177000Y377100D03*
X191400Y389700D03*
X174600D03*
X183000D03*
X191400Y382800D03*
X183000D03*
X174600D03*
X210900Y18700D03*
X213700Y78100D03*
X213500Y88900D03*
X211200Y85400D03*
X208800Y109000D03*
X195400D03*
X201800Y109100D03*
X201600Y93045D03*
X199300Y98055D03*
X204700Y188600D03*
X211900Y347500D03*
X194700Y365700D03*
X204600Y365800D03*
X214300Y365700D03*
X197000Y377100D03*
X207000Y377200D03*
X199800Y389700D03*
X208200D03*
Y382800D03*
X199800D03*
X223700Y24200D03*
X229000Y12200D03*
X220500Y32900D03*
X226600Y33000D03*
X228200Y61100D03*
X218800Y61600D03*
X227800Y68200D03*
X218400Y68000D03*
X228900Y55600D03*
X226000Y79500D03*
X221500Y78200D03*
X220300Y89300D03*
X227700Y74400D03*
X218300Y74100D03*
X222100Y347700D03*
X232000Y347600D03*
X224700Y365600D03*
X234500D03*
X217000Y376775D03*
X225000Y389700D03*
X230600D03*
X216600D03*
X230600Y382800D03*
X221900Y382700D03*
X216600Y382800D03*
X248850Y45750D03*
X244100Y36400D03*
X246350Y60150D03*
X250900Y84900D03*
X253800Y83800D03*
X251350Y94100D03*
X252300Y106200D03*
X245500Y134300D03*
X253950Y179550D03*
X252900Y174100D03*
X255500Y232100D03*
X248800Y239400D03*
X254700Y366200D03*
X244600Y365300D03*
X247000Y377200D03*
X237000Y377300D03*
X255700Y389700D03*
X239000D03*
X247300D03*
X255700Y382800D03*
X247300D03*
X239000D03*
X258850Y46350D03*
X268850Y44250D03*
X275100Y61700D03*
X272000Y61900D03*
X256400Y55400D03*
X258850Y56450D03*
X268800Y55500D03*
X261500Y82600D03*
X276100Y83100D03*
X276200Y80200D03*
X265000Y76200D03*
X269500Y76000D03*
X269400Y72600D03*
X262200Y70600D03*
X256350Y94250D03*
X271300Y131300D03*
X265650Y174650D03*
X262400Y176200D03*
X262000Y347100D03*
X257000Y347500D03*
X264400Y365900D03*
X257000Y377200D03*
X267000D03*
X264300Y389700D03*
X270500D03*
Y382800D03*
X264300D03*
X278850Y46350D03*
X292000Y42800D03*
X293000Y40600D03*
X297300Y45100D03*
X293850Y55550D03*
X278000Y64900D03*
X279200Y61800D03*
X286350Y58750D03*
X288900Y56300D03*
X283850Y83150D03*
X292900Y81300D03*
X290700D03*
X290400Y78900D03*
X288200Y84200D03*
X293600Y78900D03*
X289900Y72400D03*
X293000Y71300D03*
X281000Y70900D03*
X292700Y74300D03*
X286900Y74100D03*
X296350Y83250D03*
X291200Y96300D03*
X293000Y100600D03*
X290100D03*
X282000Y130100D03*
X286700Y145200D03*
X291200Y139300D03*
X291400Y151800D03*
X282000Y139900D03*
X283400Y163800D03*
X295300Y167100D03*
X285700Y216800D03*
X292800Y225000D03*
X285900Y230300D03*
X293200Y239600D03*
X293800Y368900D03*
X293500Y390700D03*
X313600Y34100D03*
X306200Y38000D03*
X317600Y37400D03*
X303056Y34600D03*
X303000Y40500D03*
X299150Y34600D03*
X299094Y40500D03*
X306800Y62100D03*
Y66200D03*
X316500Y150100D03*
X308700Y156000D03*
X314100Y160100D03*
X304650Y164150D03*
X303900Y172200D03*
X299900Y212400D03*
X298900Y207400D03*
X302950Y214850D03*
X308300Y266600D03*
X299400Y272300D03*
X302800Y276800D03*
X304300Y283000D03*
X306700Y336600D03*
X299800Y352800D03*
X307200Y369100D03*
X306200Y390600D03*
X330400Y26700D03*
X335600Y27300D03*
X323200Y34000D03*
X331200Y103300D03*
X332100Y111300D03*
X332300Y116800D03*
X325800Y152700D03*
X318800Y161800D03*
X335300Y160400D03*
X321700Y160000D03*
X327900Y154300D03*
X333300Y162900D03*
X337600Y185600D03*
X329450Y213250D03*
X337200Y209400D03*
X329500Y217200D03*
X335300Y382700D03*
X335700Y389200D03*
X345600Y46800D03*
Y35000D03*
X353400Y89600D03*
X350700Y86400D03*
Y82800D03*
X353700Y82900D03*
X347600Y89200D03*
X339200Y88400D03*
X351400Y103900D03*
X354600Y105000D03*
X349600Y106900D03*
X344600Y106800D03*
X350600Y124500D03*
X348100D03*
X350600Y128200D03*
X347900D03*
X349000Y111600D03*
X350200Y115500D03*
X345300Y149400D03*
X345000Y155200D03*
X342900Y157800D03*
X348000Y161400D03*
X339200Y153000D03*
X349500Y291000D03*
X344900Y292500D03*
X359350Y327370D03*
X356800Y383000D03*
X349100D03*
X341800D03*
X357200Y389500D03*
X349500D03*
X342200D03*
X373400Y37900D03*
X379500Y70800D03*
X376800Y73400D03*
X371900Y73300D03*
X376300Y77900D03*
X371800Y78000D03*
X363800Y79400D03*
X366800Y88600D03*
X377600Y108300D03*
X377100Y103600D03*
X360800Y105600D03*
X367400Y91000D03*
X373300Y103100D03*
X377600Y112800D03*
X378400Y128200D03*
X364000Y125700D03*
X374900Y120500D03*
X375200Y116900D03*
X365900Y120500D03*
X374900Y124900D03*
X368900Y113700D03*
X365000Y142000D03*
X365500Y148000D03*
X376900Y141700D03*
X379600Y154600D03*
X364900Y162400D03*
X359700Y295000D03*
X359600Y302400D03*
X361650Y327370D03*
X376900Y383800D03*
X367200Y383700D03*
X377300Y390300D03*
X367600Y390200D03*
X384100Y70800D03*
X395100Y78500D03*
X391400Y78300D03*
X386500Y78400D03*
X388600Y100000D03*
X384700Y99900D03*
X384600Y104400D03*
X384500Y108000D03*
X385800Y92800D03*
X393800Y92900D03*
X385100Y130200D03*
X385200Y124700D03*
X390000Y137400D03*
X385100Y135100D03*
X384900Y142700D03*
X400600Y140000D03*
X400400Y181700D03*
X397800Y179900D03*
X396892Y195708D03*
X383400Y305300D03*
X393000Y349900D03*
X383000Y349300D03*
X393400Y384200D03*
X384900Y384100D03*
X393800Y390700D03*
X385300Y390600D03*
X406000Y109900D03*
X401400Y107000D03*
X406600Y130200D03*
X407200Y115500D03*
X401000Y114000D03*
X416600Y130600D03*
X412400D03*
X419400Y125900D03*
X412000Y126300D03*
X405500Y134900D03*
X401000Y134700D03*
X415400Y205000D03*
Y201000D03*
X403100Y220300D03*
X405000Y225100D03*
X415400Y220800D03*
X418946Y237200D03*
X408100Y246000D03*
X407900Y236500D03*
X414600Y263400D03*
X415100Y259300D03*
X403000Y349300D03*
X413000Y349700D03*
X418600Y384200D03*
X410200D03*
X401800D03*
X419000Y390700D03*
X410600D03*
X402200D03*
X424300Y19900D03*
X434100Y104700D03*
X423900Y129900D03*
X426100Y125900D03*
X431100Y145000D03*
X425500Y135800D03*
X441800Y171300D03*
X425500Y163000D03*
X430900Y152800D03*
X442000Y180800D03*
X440600Y214300D03*
X427046Y205554D03*
X430754D03*
X427700Y214300D03*
X428400Y218800D03*
Y225000D03*
X422654Y237200D03*
X423000Y349900D03*
X433000Y349400D03*
X435400Y384200D03*
X427000D03*
X435800Y390700D03*
X427400D03*
X449300Y20400D03*
X445600Y168100D03*
X450500Y213400D03*
X445200Y217100D03*
X460300Y218900D03*
X449500Y223600D03*
X459300Y222300D03*
X450500Y254800D03*
X450300Y275400D03*
X450500Y267300D03*
X450600Y260400D03*
X456500Y282600D03*
X450000Y282700D03*
X460600Y384200D03*
X452200D03*
X443800D03*
X461000Y390700D03*
X452600D03*
X444200D03*
X476200Y18400D03*
X473000Y173400D03*
X468700Y162800D03*
X471900D03*
X483000Y183700D03*
X474700Y181100D03*
X473900Y207900D03*
X473200Y198100D03*
X467600Y271900D03*
X467900Y262800D03*
Y258700D03*
X480800Y284500D03*
X463600Y282700D03*
X470600Y298000D03*
X482900Y349300D03*
X478000Y349600D03*
X467600Y349300D03*
X483000Y384200D03*
X477400D03*
X469000D03*
X483400Y390700D03*
X477800D03*
X469400D03*
X497200Y20900D03*
X494000Y70700D03*
X502100Y130100D03*
X495000Y143900D03*
X490800Y143800D03*
X485600Y147600D03*
X490800D03*
X495800Y152500D03*
X502100Y141700D03*
X488600Y188200D03*
X496600Y182300D03*
X484100Y187800D03*
X497300Y186700D03*
X504100Y209400D03*
X483500Y214400D03*
X488000D03*
X483500Y207600D03*
X500700Y218900D03*
X500600Y215900D03*
X504100Y219200D03*
X486000Y258000D03*
X486600Y264500D03*
Y272500D03*
X492600Y297700D03*
X488100Y348900D03*
X498000Y346500D03*
X499700Y384200D03*
X491400D03*
X500100Y390700D03*
X491800D03*
X520800Y130300D03*
X514500Y130100D03*
X508200Y130000D03*
Y141900D03*
X520800Y141800D03*
X514500D03*
X504200Y166582D03*
X517600Y161300D03*
X507800Y155800D03*
X505100Y156000D03*
X507600Y158900D03*
X511600Y154700D03*
X516200Y174600D03*
X506800D03*
X504200Y214300D03*
X508000Y224900D03*
X508300Y221800D03*
Y215900D03*
Y219100D03*
X524400Y214800D03*
X508100Y256100D03*
X506700Y283800D03*
X510500Y310400D03*
X514800Y297600D03*
X522900Y350400D03*
X517900Y350100D03*
X513100Y349600D03*
X509300Y349500D03*
X522900Y384200D03*
X516700D03*
X508100D03*
X523300Y390700D03*
X517100D03*
X508500D03*
X543000Y21900D03*
X527800Y70300D03*
X544900Y127400D03*
X534200D03*
X534700Y148100D03*
X531500Y141200D03*
X527200Y142200D03*
X530100Y148100D03*
X535100Y173000D03*
X534200Y159000D03*
X537300Y188600D03*
X534600Y193400D03*
X525700Y187400D03*
X534400Y204200D03*
X534500Y197900D03*
X526500Y212500D03*
X542200Y210700D03*
X544700Y216600D03*
X544600Y222300D03*
X528400Y231200D03*
X537800Y222100D03*
X528900Y215000D03*
X532900Y255700D03*
X542200Y252800D03*
X532000Y310600D03*
X528800Y330300D03*
X540900Y348700D03*
X554100Y124700D03*
X545600Y148400D03*
X550600Y141200D03*
X554400Y162300D03*
X547800Y164500D03*
X549700Y182600D03*
X546500Y188100D03*
X547400Y192100D03*
X547000Y175000D03*
X555400Y213700D03*
X547800Y214500D03*
X548200Y199600D03*
X553200Y329600D03*
X579700Y348100D03*
X593200Y79700D03*
X594400Y128500D03*
X594500Y168800D03*
X593900Y211200D03*
X594200Y252400D03*
X588100Y311700D03*
G54D20*
X118400Y284000D03*
Y308800D03*
X143000Y294800D03*
X167800D03*
G54D11*
X20100Y101900D03*
X51800Y35600D03*
X63000Y230600D03*
X103100Y128800D03*
X120200Y157100D03*
X120100Y251000D03*
X145600Y213900D03*
X213400Y246100D03*
X233400D03*
X223400D03*
X248500Y114800D03*
Y124800D03*
X268700Y115400D03*
Y125400D03*
X299500Y379600D03*
X372000Y64900D03*
Y54900D03*
X383200Y16900D03*
X420400Y94600D03*
X412200D03*
X404000D03*
X444400Y44100D03*
X436800Y94600D03*
X428600D03*
X461400D03*
X453200D03*
X445000D03*
X468300Y44600D03*
X495200Y315200D03*
X532000Y235600D03*
X581500Y48100D03*
G54D30*
G01X2500Y0D02*
X597500D01*
G03X600000Y2500I0J2500D01*
G01Y397500D01*
G03X597500Y400000I-2500J0D01*
G01X2500D01*
G03X0Y397500I0J-2500D01*
G01Y2500D01*
G03X2500Y0I2500J0D01*
G54D12*
X18500Y134100D03*
Y149700D03*
Y165300D03*
Y180900D03*
G54D21*
X175600Y184800D03*
Y194800D03*
Y204800D03*
Y214800D03*
Y224800D03*
Y234800D03*
Y244800D03*
X185600Y184800D03*
Y194800D03*
Y204800D03*
Y214800D03*
Y224800D03*
Y234800D03*
Y244800D03*
G54D31*
G01X253147Y460700D02*
Y468200D01*
X255013D01*
X255760Y467825D01*
X256320Y467325D01*
X256787Y466575D01*
X257160Y465700D01*
X257253Y464450D01*
X257160Y463200D01*
X256787Y462325D01*
X256320Y461575D01*
X255760Y461075D01*
X255013Y460700D01*
X253147D01*
G01X262700Y465700D02*
Y460700D01*
G01Y467700D02*
X262513Y467825D01*
Y468075D01*
X262700Y468200D01*
X262887Y468075D01*
Y467825D01*
X262700Y467700D01*
G01X269640Y460700D02*
Y467075D01*
X269827Y467700D01*
X270200Y468075D01*
X270760Y468200D01*
X271320Y467950D01*
X271600Y467325D01*
G01X270480Y465200D02*
X268613D01*
G01X277140Y460700D02*
Y467075D01*
X277327Y467700D01*
X277700Y468075D01*
X278260Y468200D01*
X278820Y467950D01*
X279100Y467325D01*
G01X277980Y465200D02*
X276113D01*
G01X283800Y464075D02*
X286787D01*
X286507Y464950D01*
X286040Y465450D01*
X285387Y465700D01*
X284733Y465575D01*
X284173Y465200D01*
X283800Y464325D01*
X283613Y463575D01*
Y462825D01*
X283800Y462075D01*
X284267Y461325D01*
X284827Y460825D01*
X285480Y460700D01*
X286133Y460950D01*
X286787Y461700D01*
G01X291393Y460700D02*
Y465700D01*
G01Y464700D02*
X291860Y465200D01*
X292327Y465575D01*
X292980Y465700D01*
X293447Y465575D01*
X294007Y465200D01*
G01X298800Y464075D02*
X301787D01*
X301507Y464950D01*
X301040Y465450D01*
X300387Y465700D01*
X299733Y465575D01*
X299173Y465200D01*
X298800Y464325D01*
X298613Y463575D01*
Y462825D01*
X298800Y462075D01*
X299267Y461325D01*
X299827Y460825D01*
X300480Y460700D01*
X301133Y460950D01*
X301787Y461700D01*
G01X306113Y460700D02*
Y465700D01*
G01Y464450D02*
X306487Y465075D01*
X307047Y465575D01*
X307793Y465700D01*
X308447Y465575D01*
X309007Y465075D01*
X309287Y464200D01*
Y460700D01*
G01X315200Y468200D02*
Y460700D01*
G01X313893Y465700D02*
X316507D01*
G01X322700D02*
Y460700D01*
G01Y467700D02*
X322513Y467825D01*
Y468075D01*
X322700Y468200D01*
X322887Y468075D01*
Y467825D01*
X322700Y467700D01*
G01X331880Y460700D02*
Y465700D01*
G01Y464825D02*
X331507Y465325D01*
X330947Y465575D01*
X330293Y465700D01*
X329640Y465450D01*
X329080Y464950D01*
X328707Y464200D01*
X328520Y463200D01*
X328707Y462200D01*
X329080Y461450D01*
X329640Y460950D01*
X330293Y460700D01*
X330947Y460825D01*
X331507Y461200D01*
X331880Y461700D01*
G01X337700Y460700D02*
Y468200D01*
G01X350833Y460700D02*
Y468200D01*
X353073D01*
X353820Y467825D01*
X354380Y466950D01*
X354567Y465950D01*
X354380Y464950D01*
X353913Y464200D01*
X353073Y463825D01*
X350833D01*
G01X361880Y460700D02*
Y465700D01*
G01Y464825D02*
X361507Y465325D01*
X360947Y465575D01*
X360293Y465700D01*
X359640Y465450D01*
X359080Y464950D01*
X358707Y464200D01*
X358520Y463200D01*
X358707Y462200D01*
X359080Y461450D01*
X359640Y460950D01*
X360293Y460700D01*
X360947Y460825D01*
X361507Y461200D01*
X361880Y461700D01*
G01X367700Y465700D02*
Y460700D01*
G01Y467700D02*
X367513Y467825D01*
Y468075D01*
X367700Y468200D01*
X367887Y468075D01*
Y467825D01*
X367700Y467700D01*
G01X373893Y460700D02*
Y465700D01*
G01Y464700D02*
X374360Y465200D01*
X374827Y465575D01*
X375480Y465700D01*
X375947Y465575D01*
X376507Y465200D01*
G01X381300Y461575D02*
X381767Y461075D01*
X382420Y460700D01*
X382980D01*
X383540Y460950D01*
X383913Y461325D01*
X384100Y461825D01*
X384007Y462575D01*
X383633Y462950D01*
X381953Y463700D01*
X381580Y464575D01*
X381767Y465200D01*
X382140Y465575D01*
X382700Y465700D01*
X383260Y465575D01*
X383820Y465200D01*
G54D13*
X30100Y222000D03*
X78400Y174900D03*
X81800Y214100D03*
X222600Y46400D03*
G54D22*
X238500Y24800D03*
X258500D03*
X330200Y35100D03*
Y45100D03*
Y55100D03*
Y65100D03*
X360200Y45100D03*
Y35100D03*
Y65100D03*
Y55100D03*
G54D32*
G01X-78000Y160850D02*
Y173350D01*
X-79860Y170850D01*
G01Y160850D02*
X-76140D01*
G01X-65600Y173350D02*
X-66840Y172933D01*
X-67770Y171892D01*
X-68390Y170642D01*
X-68855Y168975D01*
X-69010Y167100D01*
X-68855Y165225D01*
X-68390Y163558D01*
X-67770Y162308D01*
X-66840Y161267D01*
X-65600Y160850D01*
X-64360Y161267D01*
X-63430Y162308D01*
X-62810Y163558D01*
X-62345Y165225D01*
X-62190Y167100D01*
X-62345Y168975D01*
X-62810Y170642D01*
X-63430Y171892D01*
X-64360Y172933D01*
X-65600Y173350D01*
G01X-53200D02*
X-54440Y172933D01*
X-55370Y171892D01*
X-55990Y170642D01*
X-56455Y168975D01*
X-56610Y167100D01*
X-56455Y165225D01*
X-55990Y163558D01*
X-55370Y162308D01*
X-54440Y161267D01*
X-53200Y160850D01*
X-51960Y161267D01*
X-51030Y162308D01*
X-50410Y163558D01*
X-49945Y165225D01*
X-49790Y167100D01*
X-49945Y168975D01*
X-50410Y170642D01*
X-51030Y171892D01*
X-51960Y172933D01*
X-53200Y173350D01*
G01X-40800Y160433D02*
X-41110Y160642D01*
Y161058D01*
X-40800Y161267D01*
X-40490Y161058D01*
Y160642D01*
X-40800Y160433D01*
G01X-31810Y163350D02*
X-30880Y161891D01*
X-29640Y161058D01*
X-28245Y160850D01*
X-27005Y161058D01*
X-25765Y162100D01*
X-24990Y163350D01*
X-24835Y164600D01*
X-25145Y166058D01*
X-26230Y167100D01*
X-27315Y167517D01*
X-28710D01*
G01X-27315D02*
X-26385Y168142D01*
X-25610Y169183D01*
X-25300Y170433D01*
X-25610Y171683D01*
X-26385Y172725D01*
X-27780Y173350D01*
X-29175Y173142D01*
X-30570Y172308D01*
G01X-19410Y163350D02*
X-18480Y161891D01*
X-17240Y161058D01*
X-15845Y160850D01*
X-14605Y161058D01*
X-13365Y162100D01*
X-12590Y163350D01*
X-12435Y164600D01*
X-12745Y166058D01*
X-13830Y167100D01*
X-14915Y167517D01*
X-16310D01*
G01X-14915D02*
X-13985Y168142D01*
X-13210Y169183D01*
X-12900Y170433D01*
X-13210Y171683D01*
X-13985Y172725D01*
X-15380Y173350D01*
X-16775Y173142D01*
X-18170Y172308D01*
G01X-10000Y2500D02*
X-57000D01*
G01X-10000Y397500D02*
X-57000D01*
G01X-47000Y151475D02*
Y2500D01*
G01X-49500Y17500D02*
X-47000Y2500D01*
X-44500Y17500D01*
X-49500D01*
G01X-47000Y182725D02*
Y397500D01*
G01X-51135Y208408D02*
X-50050Y207367D01*
X-48810Y206950D01*
X-47570Y207367D01*
X-46485Y208616D01*
X-45710Y210492D01*
X-45400Y212367D01*
Y214658D01*
X-45710Y216533D01*
X-46485Y218200D01*
X-47415Y219033D01*
X-48500Y219450D01*
X-49740Y219033D01*
X-50670Y218200D01*
X-51290Y216950D01*
X-51600Y215283D01*
X-51290Y213825D01*
X-50515Y212367D01*
X-49585Y211533D01*
X-48500Y211325D01*
X-47260Y211741D01*
X-46330Y212783D01*
X-45400Y214658D01*
G01X-36100Y206950D02*
Y219450D01*
X-37960Y216950D01*
G01Y206950D02*
X-34240D01*
G01X-23700Y206533D02*
X-24010Y206742D01*
Y207158D01*
X-23700Y207367D01*
X-23390Y207158D01*
Y206742D01*
X-23700Y206533D01*
G01X-9440Y206950D02*
Y219450D01*
X-15175Y210492D01*
X-7425D01*
G01X2960Y206950D02*
Y219450D01*
X-2775Y210492D01*
X4975D01*
G01X-44500Y382500D02*
X-47000Y397500D01*
X-49500Y382500D01*
X-44500D01*
G01X10000Y20000D02*
X-33700D01*
G01X-23700Y197575D02*
Y20000D01*
G01X-26200Y35000D02*
X-23700Y20000D01*
X-21200Y35000D01*
X-26200D01*
G01X-23700Y228825D02*
Y380000D01*
G01X-21200Y365000D02*
X-23700Y380000D01*
X-26200Y365000D01*
X-21200D01*
G01X10000Y380000D02*
X-33700D01*
G01X2500Y410000D02*
Y441900D01*
G01X163275Y431900D02*
X2500D01*
G01X17500Y434400D02*
X2500Y431900D01*
X17500Y429400D01*
Y434400D01*
G01X20000Y370000D02*
Y282100D01*
G01X263875Y292100D02*
X20000D01*
G01X35000Y294600D02*
X20000Y292100D01*
X35000Y289600D01*
Y294600D01*
G01X103180Y99261D02*
X97900Y85000D01*
X107519Y96778D01*
X103180Y99261D01*
G01X97900Y85000D02*
X310700Y456900D01*
G01X130083Y81420D02*
X125900Y66800D01*
X134598Y79274D01*
X130083Y81420D01*
G01X125900Y66800D02*
X309600Y453200D01*
G01X163719Y74604D02*
X160700Y59700D01*
X168389Y72820D01*
X163719Y74604D01*
G01X160700Y59700D02*
X309300Y448600D01*
G01X184680Y73920D02*
X182300Y58900D01*
X189422Y72336D01*
X184680Y73920D01*
G01X182300Y58900D02*
X309700Y440400D01*
G01X192778Y111504D02*
X190300Y96500D01*
X197510Y109889D01*
X192778Y111504D01*
G01X190300Y96500D02*
X295700Y405400D01*
G01X177300Y425650D02*
Y438150D01*
X175440Y435650D01*
G01Y425650D02*
X179160D01*
G01X186290Y427525D02*
X187220Y426483D01*
X188305Y425858D01*
X189700Y425650D01*
X191095Y426067D01*
X192180Y426900D01*
X192955Y428358D01*
X193110Y430025D01*
X192800Y431692D01*
X192025Y432733D01*
X190940Y433566D01*
X189855Y433775D01*
X188770Y433566D01*
X187375Y432733D01*
X187840Y438150D01*
X192025D01*
G01X202100Y425650D02*
Y438150D01*
X200240Y435650D01*
G01Y425650D02*
X203960D01*
G01X214500Y425233D02*
X214190Y425442D01*
Y425858D01*
X214500Y426067D01*
X214810Y425858D01*
Y425442D01*
X214500Y425233D01*
G01X226900Y425650D02*
Y438150D01*
X225040Y435650D01*
G01Y425650D02*
X228760D01*
G01X235890Y428150D02*
X236820Y426691D01*
X238060Y425858D01*
X239455Y425650D01*
X240695Y425858D01*
X241935Y426900D01*
X242710Y428150D01*
X242865Y429400D01*
X242555Y430858D01*
X241470Y431900D01*
X240385Y432317D01*
X238990D01*
G01X240385D02*
X241315Y432942D01*
X242090Y433983D01*
X242400Y435233D01*
X242090Y436483D01*
X241315Y437525D01*
X239920Y438150D01*
X238525Y437942D01*
X237130Y437108D01*
G01X206079Y69425D02*
X204500Y54300D01*
X210899Y68095D01*
X206079Y69425D01*
G01X204500Y54300D02*
X308500Y431300D01*
G01X253325Y431900D02*
X597500D01*
G01X277900Y285850D02*
Y298350D01*
X276040Y295850D01*
G01Y285850D02*
X279760D01*
G01X292160D02*
Y298350D01*
X286425Y289392D01*
X294175D01*
G01X299755Y296267D02*
X300685Y297516D01*
X301770Y298142D01*
X303010Y298350D01*
X304560Y297933D01*
X305645Y296892D01*
X305955Y295642D01*
X305800Y294391D01*
X305180Y293350D01*
X302080Y291267D01*
X300685Y289808D01*
X299755Y287725D01*
X299445Y285850D01*
X305955D01*
G01X315100Y285433D02*
X314790Y285642D01*
Y286058D01*
X315100Y286267D01*
X315410Y286058D01*
Y285642D01*
X315100Y285433D01*
G01X324555Y296267D02*
X325485Y297516D01*
X326570Y298142D01*
X327810Y298350D01*
X329360Y297933D01*
X330445Y296892D01*
X330755Y295642D01*
X330600Y294391D01*
X329980Y293350D01*
X326880Y291267D01*
X325485Y289808D01*
X324555Y287725D01*
X324245Y285850D01*
X330755D01*
G01X341760D02*
Y298350D01*
X336025Y289392D01*
X343775D01*
G01X289943Y52705D02*
X291700Y37600D01*
X294937Y52458D01*
X289943Y52705D01*
G01X291700Y37600D02*
X312000Y448700D01*
G01X330100Y319200D02*
X311400Y455400D01*
G01X351400Y324800D02*
X311900Y455400D01*
G01X339500Y321100D02*
X311700Y454700D01*
G01X330900Y346500D02*
X314100Y444800D01*
G01X332200Y366700D02*
X313500Y444600D01*
G01X350082Y348800D02*
X313200Y448300D01*
G01X340229Y349200D02*
X316600Y437500D01*
G01X468600Y204000D02*
X314700Y450400D01*
G01X462300Y229900D02*
X314800Y454900D01*
G01X455400Y346700D02*
X310000Y456900D01*
G01X450100Y346300D02*
X310500Y457300D01*
G01X440400Y342200D02*
X311200Y456600D01*
G01X369400Y325700D02*
X311200Y455900D01*
G01X360400Y320900D02*
X311200Y456400D01*
G01X401200Y229000D02*
X315600Y444600D01*
G01X370600Y362800D02*
X313600Y451600D01*
G01X333997Y335276D02*
X339500Y321100D01*
X338892Y336295D01*
X333997Y335276D01*
G01X325583Y333720D02*
X330100Y319200D01*
X330536Y334401D01*
X325583Y333720D01*
G01X325909Y360864D02*
X330900Y346500D01*
X330837Y361707D01*
X325909Y360864D01*
G01X333936Y363044D02*
X340229Y349200D01*
X338766Y364336D01*
X333936Y363044D01*
G01X326268Y380702D02*
X332200Y366700D01*
X331130Y381869D01*
X326268Y380702D01*
G01X333120Y381610D02*
X340100Y368100D01*
X337879Y383144D01*
X333120Y381610D01*
G01X340100Y368100D02*
X321700Y425200D01*
G01X399900Y250500D02*
X317400Y440300D01*
G01X350900Y364800D02*
X317300Y443400D01*
G01X411900Y239200D02*
X317800Y442700D01*
G01X451700Y243600D02*
X318000Y445000D01*
G01X369963Y348700D02*
X322700Y434800D01*
G01X360700Y367000D02*
X329700Y421300D01*
G01X361100Y348000D02*
X323000Y441700D01*
G01X450500Y365900D02*
X335800Y443100D01*
G01X353925Y292100D02*
X580000D01*
G01X352931Y334146D02*
X360400Y320900D01*
X357630Y335853D01*
X352931Y334146D01*
G01X344665Y338434D02*
X351400Y324800D01*
X349450Y339881D01*
X344665Y338434D01*
G01X342524Y361996D02*
X350082Y348800D01*
X347213Y363734D01*
X342524Y361996D01*
G01X353134Y360954D02*
X361100Y348000D01*
X357766Y362837D01*
X353134Y360954D01*
G01X342705Y377610D02*
X350900Y364800D01*
X347303Y379575D01*
X342705Y377610D01*
G01X351092Y378787D02*
X360700Y367000D01*
X355434Y381266D01*
X351092Y378787D01*
G01X360996Y338374D02*
X369400Y325700D01*
X365561Y340414D01*
X360996Y338374D01*
G01X360553Y360646D02*
X369963Y348700D01*
X364936Y363052D01*
X360553Y360646D01*
G01X360393Y374073D02*
X370600Y362800D01*
X364601Y376774D01*
X360393Y374073D01*
G01X393341Y242019D02*
X401200Y229000D01*
X397988Y243864D01*
X393341Y242019D01*
G01X391628Y263260D02*
X399900Y250500D01*
X396213Y265253D01*
X391628Y263260D01*
G01X403335Y251766D02*
X411900Y239200D01*
X407874Y253864D01*
X403335Y251766D01*
G01X436803Y353679D02*
X450100Y346300D01*
X439915Y357592D01*
X436803Y353679D01*
G01X427512Y350272D02*
X440400Y342200D01*
X430827Y354016D01*
X427512Y350272D01*
G01X436660Y372202D02*
X450500Y365900D01*
X439452Y376350D01*
X436660Y372202D01*
G01X458533Y215398D02*
X468600Y204000D01*
X462774Y218047D01*
X458533Y215398D01*
G01X451986Y241074D02*
X462300Y229900D01*
X456167Y243815D01*
X451986Y241074D01*
G01X441321Y254714D02*
X451700Y243600D01*
X445487Y257480D01*
X441321Y254714D01*
G01X441935Y353768D02*
X455400Y346700D01*
X444956Y357753D01*
X441935Y353768D01*
G01X580000Y370000D02*
Y282100D01*
G01X565000Y289600D02*
X580000Y292100D01*
X565000Y294600D01*
Y289600D01*
G01X582500Y429400D02*
X597500Y431900D01*
X582500Y434400D01*
Y429400D01*
G01X597500Y410000D02*
Y441900D01*
G54D14*
X18600Y319000D03*
X48550Y223750D03*
X34300Y217500D03*
X42260Y219760D03*
X33800Y248400D03*
X40840Y302840D03*
X40680Y310520D03*
X41800Y328900D03*
X39700Y340000D03*
X50200Y65700D03*
X53600Y232915D03*
X53220Y227880D03*
X51600Y321000D03*
X75260Y102060D03*
X89660Y222340D03*
X85700Y248900D03*
X99400Y146800D03*
X94100Y156200D03*
Y164000D03*
X96800Y160100D03*
X92300Y179300D03*
X107700Y197200D03*
X101560Y233240D03*
X522400Y172500D03*
X511400Y172800D03*
X506500Y191600D03*
G54D23*
X293639Y17489D03*
X310961D03*
G54D24*
X325100Y75200D03*
X345100D03*
X396900Y37800D03*
X416900D03*
X453700Y118200D03*
Y138200D03*
G54D15*
X63731Y283676D03*
Y288676D03*
Y293676D03*
Y298676D03*
Y303676D03*
Y308676D03*
X128691Y298676D03*
Y293676D03*
Y288676D03*
Y283676D03*
Y318676D03*
Y313676D03*
Y308676D03*
Y303676D03*
Y328676D03*
Y323676D03*
G54D16*
X68300Y381674D03*
X280700D03*
X319300D03*
X531700D03*
G54D25*
X484200Y45200D03*
Y84500D03*
Y121900D03*
X506600D03*
X518000Y44800D03*
X527800Y121900D03*
X540300Y64800D03*
Y104200D03*
Y141600D03*
Y181000D03*
G54D26*
X484200Y133000D03*
Y151500D03*
Y171100D03*
X493400Y189300D03*
X512300D03*
X540300Y133000D03*
Y151500D03*
Y171100D03*
X531200Y189300D03*
G54D17*
X112492Y5902D03*
X146508D03*
X178192D03*
X212208D03*
G54D27*
X484200Y161300D03*
G54D18*
X112492Y27004D03*
X146508D03*
X178192D03*
X212208D03*
G54D28*
X493400Y164800D03*
X531200D03*
G54D19*
X120642Y16842D03*
X122700Y19800D03*
X128700Y20750D03*
X121600Y32700D03*
X131500Y31700D03*
X119000Y32000D03*
X136390Y19490D03*
X138358Y17458D03*
X145800Y36900D03*
X142400Y36200D03*
X150600Y75900D03*
X149200Y70900D03*
X186342Y17558D03*
X188600Y19400D03*
X187326Y35500D03*
X184150Y32550D03*
X193232Y34232D03*
X202090Y19210D03*
X204058Y16658D03*
X196184Y20984D03*
X205043Y35958D03*
X203074Y35626D03*
X197168Y34232D03*
X227000Y377100D03*
X317669Y186006D03*
Y182069D03*
X313732Y174195D03*
X309100Y187834D03*
X317669Y189943D03*
X317576Y197724D03*
X308900Y206400D03*
X317669Y201754D03*
X313732Y213565D03*
X302400Y206600D03*
X313300Y205300D03*
X317900Y225000D03*
X309400Y227204D03*
X317500Y233100D03*
X313700Y237000D03*
X308589Y246889D03*
X317669Y244780D03*
X304700Y236800D03*
X299700Y246800D03*
X317600Y237000D03*
X317400Y241100D03*
X317600Y248800D03*
X317400Y252800D03*
X299870Y253770D03*
X313732Y256591D03*
X315600Y265000D03*
X325543Y182069D03*
X321606D03*
Y186006D03*
X325543Y189943D03*
X329480Y186006D03*
X335245Y173800D03*
X325543Y193880D03*
X321606D03*
X329480D03*
X333417D03*
X321606Y189943D03*
X325543Y178132D03*
X337354Y182069D03*
X331308Y173600D03*
X329480Y189943D03*
X337354D03*
X333417D03*
X337354Y193880D03*
X325543Y186006D03*
X329480Y182069D03*
X325543Y197817D03*
X337354Y201754D03*
X325500Y213500D03*
X337354Y197817D03*
X329480Y205691D03*
X337354Y213565D03*
X329350Y229150D03*
X333200Y217400D03*
X337100Y217200D03*
X329400Y221300D03*
X321606Y232969D03*
X325400Y221301D03*
X333417Y229032D03*
X337354Y225095D03*
Y232969D03*
X333417Y221158D03*
X337354D03*
X321600Y229000D03*
X337354Y229032D03*
X333417Y232969D03*
Y225095D03*
X329300Y252700D03*
X321500Y252600D03*
X329500Y236900D03*
X325500Y241000D03*
X329480Y248717D03*
X333417Y236906D03*
X333200Y244900D03*
X333300Y241100D03*
X337100Y252900D03*
X337200Y249000D03*
X333300Y248700D03*
Y252800D03*
X321500Y245000D03*
X321200Y241200D03*
X321500Y237000D03*
X329300Y244800D03*
X321300Y249000D03*
X325500Y252700D03*
X337354Y236906D03*
X325400Y244900D03*
X325300Y248900D03*
X333200Y256700D03*
X327371Y260785D03*
X322800Y265000D03*
X333300Y266300D03*
X338000Y376400D03*
X341291Y189943D03*
X349165Y186006D03*
X354930Y173500D03*
X352900Y189800D03*
Y185300D03*
X341000Y185800D03*
X339182Y173382D03*
X345228Y178132D03*
X341291Y193880D03*
X349165Y205691D03*
X341291Y197817D03*
Y209628D03*
X345228Y197817D03*
X341300Y205200D03*
X353100Y205500D03*
X356700Y209300D03*
X349165Y213565D03*
X341291D03*
X353100Y193900D03*
X356758Y213565D03*
X345000Y213300D03*
X349100Y225200D03*
X341291Y229032D03*
X345228Y232969D03*
X356758D03*
X357000Y229100D03*
X356900Y225300D03*
X349198Y228998D03*
X345000Y225300D03*
X344900Y229400D03*
X341291Y221158D03*
X349165D03*
Y232969D03*
X341291D03*
Y225095D03*
X356758Y221158D03*
X345228D03*
X341200Y245000D03*
X341291Y252654D03*
Y236906D03*
X345228Y240843D03*
X352900Y236900D03*
X352800Y248600D03*
X349200Y248800D03*
X353000Y244800D03*
X348900Y252700D03*
X344800Y248600D03*
X356800Y248800D03*
X352900Y252800D03*
X356758Y236906D03*
X345228D03*
X356900Y252800D03*
X356758Y256591D03*
X339000Y263700D03*
X347056Y261344D03*
X353000Y256700D03*
X339400Y327889D03*
X341100D03*
X358000Y376500D03*
X345300Y365600D03*
X341000Y365800D03*
X343000Y376400D03*
X374615Y173115D03*
X376443Y193880D03*
X364632Y189943D03*
X368569Y178132D03*
X372506Y186006D03*
X360695Y182069D03*
X376500Y213500D03*
X372506Y205691D03*
Y213565D03*
X376800Y197600D03*
X360695Y201754D03*
X364632Y213565D03*
X368569D03*
X360695D03*
X365000Y197900D03*
X364700Y209500D03*
X372900Y209300D03*
X372700Y201600D03*
X372506Y225095D03*
Y232969D03*
X372600Y221200D03*
X364632Y225095D03*
Y232969D03*
X368569Y229032D03*
X360800Y229100D03*
X376443Y221158D03*
X360695D03*
X368569D03*
X372900Y228800D03*
X360900Y225400D03*
X361000Y217500D03*
X376900Y229500D03*
X368569Y232969D03*
Y225095D03*
X364632Y229032D03*
X360695Y232969D03*
X364632Y221158D03*
X372506Y236906D03*
Y240843D03*
Y244780D03*
X376443D03*
X360695Y236906D03*
Y244780D03*
X368569Y236906D03*
X376500Y248700D03*
X364600Y252600D03*
X368700Y241000D03*
X360800Y248800D03*
Y252700D03*
X372500D03*
X377500Y241000D03*
X375900D03*
X364800Y248700D03*
X376500Y236900D03*
X364632Y236906D03*
X372500Y248700D03*
X368800Y245000D03*
X376600Y252700D03*
X368500Y248600D03*
X368600Y252700D03*
X366741Y260785D03*
X376500Y256600D03*
X360700D03*
X364600D03*
X360300Y365600D03*
X365300Y365800D03*
X378000Y376800D03*
X362900Y376600D03*
X388254Y178132D03*
X384317Y189943D03*
X380380Y182069D03*
X392191Y186006D03*
X396128Y174195D03*
X384600Y185700D03*
X392400Y205500D03*
X380700Y205700D03*
X380500Y213500D03*
X384317Y209628D03*
Y213565D03*
X388254Y197817D03*
Y213565D03*
X392191D03*
X396128D03*
X380380Y229032D03*
X388254Y225095D03*
X396502Y225002D03*
X384317Y232969D03*
X392000Y233200D03*
X380380Y221158D03*
X396128D03*
X392300Y221200D03*
X392200Y225300D03*
X388300Y232900D03*
X384400Y225200D03*
X399700Y225100D03*
X399900Y219400D03*
X384317Y252654D03*
X388254D03*
X392191D03*
X396128D03*
X380380Y236906D03*
Y244780D03*
Y248717D03*
X384317D03*
X388254Y240843D03*
X396128Y236906D03*
Y244780D03*
X388500Y244800D03*
X380400Y252600D03*
X380700Y241300D03*
X384400Y237100D03*
X396128Y256591D03*
X386426Y261274D03*
X380600Y256700D03*
X384400D03*
X400500Y365700D03*
X390200Y365600D03*
X380300Y365500D03*
X388000Y376600D03*
X398000D03*
X408200Y214400D03*
X402000Y245500D03*
X402500Y263400D03*
X401800Y257300D03*
X420100Y365600D03*
X410100D03*
X418000Y376600D03*
X408000Y376500D03*
X439400Y345866D03*
X441100D03*
X438000Y376300D03*
X440300Y365500D03*
X430400Y365800D03*
X427900Y376500D03*
X456550Y347852D03*
X454850D03*
X460100Y366100D03*
X445300Y365400D03*
X458000Y376600D03*
X453000Y376500D03*
X443000Y376400D03*
X478000Y366100D03*
X468000D03*
X463000Y366000D03*
X473000Y364400D03*
X483000Y365500D03*
X503000Y365300D03*
X498000Y366100D03*
X488000D03*
X493000Y365400D03*
X513000Y365200D03*
X518000Y366000D03*
X508000Y365900D03*
X523000Y365300D03*
G54D29*
X563800Y69900D03*
Y89900D03*
Y115100D03*
Y135100D03*
Y158900D03*
Y178900D03*
Y201300D03*
Y221300D03*
Y242400D03*
Y262400D03*
X559200Y301700D03*
X569200Y311700D03*
X559200Y321700D03*
X583800Y69900D03*
X573800Y79900D03*
X583800Y89900D03*
Y115100D03*
X573800Y125100D03*
X583800Y135100D03*
X573800Y168900D03*
X583800Y158900D03*
Y178900D03*
X573800Y211300D03*
X583800Y201300D03*
Y221300D03*
X573800Y252400D03*
X583800Y242400D03*
Y262400D03*
X579200Y301700D03*
Y321700D03*
M02*
